<?xml version="1.0" standalone="no"?>
<!DOCTYPE svg PUBLIC "-//W3C//DTD SVG 1.1//EN" "http://www.w3.org/Graphics/SVG/1.1/DTD/svg11.dtd" >
<svg>
<metadata>
Created by FontForge 20120731 at Thu May 29 15:45:23 2014
 By World Wide Web Server
monofur (c) 2000 tobias b ko:hler (unci@tigerden.com)
</metadata>
<defs>
<font id="Monofur" horiz-adv-x="1200" >
  <font-face 
    font-family="monofur"
    font-weight="400"
    font-stretch="normal"
    units-per-em="2400"
    panose-1="2 15 4 9 2 2 3 2 2 4"
    ascent="1920"
    descent="-480"
    x-height="1050"
    cap-height="1500"
    bbox="0 -452 1200 1952"
    underline-thickness="150"
    underline-position="-150"
    unicode-range="U+0020-FB02"
  />
<missing-glyph 
d="M150 0v1950h900v-1950h-900zM300 150h600v1650h-600v-1650z" />
    <glyph glyph-name=".notdef" 
d="M150 0v1950h900v-1950h-900zM300 150h600v1650h-600v-1650z" />
    <glyph glyph-name=".null" horiz-adv-x="0" 
 />
    <glyph glyph-name="nonmarkingreturn" 
 />
    <glyph glyph-name="space" unicode=" " 
 />
    <glyph glyph-name="exclam" unicode="!" 
d="M675 450q0 -75 -75 -75t-75 75v975q0 75 75 75t75 -75v-975zM714 114q0 -47 -33.5 -80.5t-80.5 -33.5t-80.5 33.5t-33.5 80.5t33.5 79t80.5 32t80.5 -32t33.5 -79z" />
    <glyph glyph-name="quotedbl" unicode="&#x22;" 
d="M938 1428q0 -15 -6 -31l-150 -375q-19 -48 -67 -48q-31 0 -54.5 21.5t-23.5 51.5q0 15 6 31l150 375q19 48 67 48q31 0 54.5 -21.5t23.5 -51.5zM563 1428q0 -15 -6 -31l-150 -375q-19 -48 -67 -48q-31 0 -54.5 21.5t-23.5 51.5q0 15 6 31l150 375q19 48 67 48
q31 0 54.5 -21.5t23.5 -51.5z" />
    <glyph glyph-name="numbersign" unicode="#" 
d="M1125 375q0 -75 -75 -75h-125v-225q0 -75 -75 -75t-75 75v225h-350v-225q0 -75 -75 -75t-75 75v225h-125q-75 0 -75 75t75 75h125v600h-125q-75 0 -75 75t75 75h125v225q0 75 75 75t75 -75v-225h350v225q0 75 75 75t75 -75v-225h125q75 0 75 -75t-75 -75h-125v-600h125
q75 0 75 -75zM775 450v600h-350v-600h350z" />
    <glyph glyph-name="dollar" unicode="$" 
d="M1125 450q0 -184 -153 -310q-136 -113 -329 -136v-229q0 -75 -75 -75t-75 75v229q-118 14 -225 66q-122 60 -178 148q-16 26 -16 46q0 30 23.5 52.5t54.5 22.5q28 0 57 -29q23 -25 45 -50q91 -85 239 -105v600q-156 23 -265 116q-121 104 -121 254t121 254
q109 93 265 116v230q0 75 75 75t75 -75v-230q225 -31 318 -174q17 -25 17 -46q0 -30 -24 -52.5t-54 -22.5q-27 0 -59 31q-96 95 -198 113v-448q193 -23 329 -136q153 -126 153 -310zM493 908v434q-94 -18 -159 -69q-77 -61 -77 -148t77 -148q65 -51 159 -69zM975 450
q0 121 -109 204q-92 70 -223 90v-588q131 20 223 90q109 83 109 204z" />
    <glyph glyph-name="percent" unicode="%" 
d="M625 1125q0 -138 -67 -247q-79 -128 -208 -128t-208 128q-67 109 -67 247t67 247q79 128 208 128t208 -128q67 -109 67 -247zM1126 1426q0 -22 -14 -43l-900 -1350q-23 -34 -60 -34q-30 0 -54 22.5t-24 52.5q0 22 14 43l900 1350q23 34 60 34q30 0 54 -22.5t24 -52.5z
M1125 375q0 -138 -67 -247q-79 -128 -208 -128t-208 128q-67 109 -67 247t67 247q79 128 208 128t208 -128q67 -109 67 -247zM475 1125q0 151 -84 210q-22 15 -41 15q-23 0 -49 -21q-76 -62 -76 -204t76 -204q26 -21 49 -21q19 0 41 15q84 59 84 210zM975 375q0 142 -76 204
q-26 21 -49 21q-19 0 -41 -15q-84 -59 -84 -210t84 -210q22 -15 41 -15q23 0 49 21q76 62 76 204z" />
    <glyph glyph-name="ampersand" unicode="&#x26;" 
d="M1126 75q0 -30 -23.5 -53t-53.5 -23q-31 0 -55 26l-161 179q-122 -204 -345 -204q-178 0 -298 138q-115 132 -115 312q0 249 194 382q-126 140 -126 293q0 150 96 260q101 115 249 115q147 0 248 -115q96 -110 96 -260q0 -134 -79 -240q-83 -110 -213 -131l566 -629
q20 -23 20 -50zM682 1125q0 87 -52 154q-57 71 -142 71q-86 0 -143 -71q-52 -67 -52 -154q0 -72 35 -129q17 -25 87 -103q36 7 73 7q85 0 142 71q52 67 52 154zM726 324l-355 394q-146 -83 -146 -268q0 -117 72 -205q76 -95 191 -95q167 0 238 174z" />
    <glyph glyph-name="quotesingle" unicode="'" 
d="M751 1428q0 -15 -6 -31l-150 -375q-19 -48 -68 -48q-30 0 -54 21.5t-24 51.5q0 15 6 31l150 375q19 48 68 48q30 0 54 -21.5t24 -51.5z" />
    <glyph glyph-name="parenleft" unicode="(" 
d="M796 1426q0 -17 -11 -39q-120 -237 -171 -416q-59 -208 -59 -446t59 -446q51 -179 171 -415q11 -22 11 -40q0 -30 -24 -52t-54 -22q-42 0 -83 69q-8 14 -51 106q-179 384 -179 800t179 800q43 92 51 107q41 68 83 68q30 0 54 -22t24 -52z" />
    <glyph glyph-name="parenright" unicode=")" 
d="M795 525q0 -416 -178 -800q-44 -92 -52 -106q-41 -69 -83 -69q-30 0 -54 22t-24 52q0 17 11 40q120 236 171 415q59 208 59 446t-59 446q-51 179 -171 416q-11 22 -11 39q0 30 24 52t54 22q42 0 83 -68q8 -15 51 -107q179 -384 179 -800z" />
    <glyph glyph-name="asterisk" unicode="*" 
d="M1125 975q0 -75 -68 -75q-5 0 -321 19l235 -209q24 -21 24 -53q0 -30 -23.5 -53.5t-53.5 -23.5q-32 0 -53 24l-209 235q19 -316 19 -321q0 -68 -75 -68t-75 68q0 5 19 321l-209 -235q-21 -24 -53 -24q-30 0 -53.5 23.5t-23.5 53.5q0 32 24 53l235 209q-316 -19 -321 -19
q-68 0 -68 75t68 75q5 0 321 -19l-235 209q-24 21 -24 53q0 30 23.5 53.5t53.5 23.5q32 0 53 -24l209 -235q-19 316 -19 321q0 68 75 68t75 -68q0 -5 -19 -321l209 235q21 24 53 24q30 0 53.5 -23.5t23.5 -53.5q0 -32 -24 -53l-235 -209q316 19 321 19q68 0 68 -75z" />
    <glyph glyph-name="plus" unicode="+" 
d="M1125 638q0 -75 -75 -75h-375v-375q0 -75 -75 -75t-75 75v375h-375q-75 0 -75 75t75 75h375v375q0 74 75 74t75 -74v-375h375q75 0 75 -75z" />
    <glyph glyph-name="comma" unicode="," 
d="M741 75q0 -231 -154 -372q-26 -23 -53 -23q-30 0 -53.5 23t-23.5 54q0 25 24 52q110 127 110 266q0 75 75 75t75 -75z" />
    <glyph glyph-name="hyphen" unicode="-" 
d="M900 525q0 -75 -75 -75h-450q-75 0 -75 75t75 75h450q75 0 75 -75z" />
    <glyph glyph-name="hyphen" unicode="&#x2010;" 
d="M900 525q0 -75 -75 -75h-450q-75 0 -75 75t75 75h450q75 0 75 -75z" />
    <glyph glyph-name="period" unicode="." 
d="M714 114q0 -47 -33.5 -80.5t-80.5 -33.5t-80.5 33.5t-33.5 80.5t33.5 79t80.5 32t80.5 -32t33.5 -79z" />
    <glyph glyph-name="slash" unicode="/" 
d="M1126 1427q0 -18 -9 -36l-900 -1801q-21 -42 -65 -42q-30 0 -54 21.5t-24 52.5q0 18 9 36l900 1801q21 42 65 42q30 0 54 -21.5t24 -52.5z" />
    <glyph glyph-name="zero" unicode="0" 
d="M1125 638q0 -244 -138 -431q-152 -207 -387 -207t-387 207q-138 187 -138 431q0 243 138 430q152 207 387 207t387 -207q138 -187 138 -430zM975 638q0 179 -96 323q-108 164 -279 164t-279 -164q-96 -144 -96 -323q0 -180 96 -324q108 -164 279 -164t279 164
q96 144 96 324zM676 637q0 -31 -22.5 -53.5t-53.5 -22.5t-53.5 22.5t-22.5 53.5q0 74 76 74t76 -74z" />
    <glyph glyph-name="one" unicode="1" 
d="M1000 75q0 -75 -75 -75h-550q-75 0 -75 75t75 75h200v869l-247 -247q-23 -23 -52 -23q-31 0 -54 23t-23 54q0 29 23 52l365 365q33 33 62 33q76 0 76 -90v-1036h200q75 0 75 -75z" />
    <glyph glyph-name="two" unicode="2" 
d="M1050 825q0 -156 -104 -288q-77 -98 -238 -210q-130 -88 -260 -177h527q75 0 75 -75t-75 -75h-750q-86 0 -86 66q0 32 41 69q32 28 91 61q49 26 98 53q531 315 531 576q0 124 -88 212t-212 88t-212 -88t-88 -212q0 -75 -75 -75t-75 75q0 186 132 318t318 132t318 -132
t132 -318z" />
    <glyph glyph-name="three" unicode="3" 
d="M1070 1211q0 -35 -34 -66l-432 -396q192 -12 324 -153t132 -333q0 -202 -143 -345t-344 -143q-128 0 -244 66q-121 67 -179 177q-11 22 -11 40q0 30 24 52t55 22q34 0 62 -38q126 -169 293 -169q139 0 238 99t99 239q0 139 -99 238t-238 99q-95 0 -188 -61.5t-107 -61.5
q-30 0 -52.5 22.5t-22.5 52.5q0 33 28 58l561 515h-577q-75 0 -75 75t75 75h770q85 0 85 -64z" />
    <glyph glyph-name="four" unicode="4" 
d="M1125 300q0 -75 -75 -75h-225v-375q0 -75 -75 -75t-75 75v375h-525q-81 0 -81 63q0 26 19 54l600 900q30 45 70 45q67 0 67 -87v-825h225q75 0 75 -75zM675 375v577l-385 -577h385z" />
    <glyph glyph-name="five" unicode="5" 
d="M1095 300q0 -217 -154 -371t-371 -154q-137 0 -263 71q-129 73 -192 191q-11 22 -11 40q0 30 24 52t54 22q35 0 63 -38q14 -22 45 -63q111 -125 280 -125q155 0 265 110t110 265t-110 265t-265 110q-190 0 -325 -188q-35 -48 -72 -48q-68 0 -68 79q0 9 1 19l105 675
q3 23 26.5 43t47.5 20h735q75 0 75 -75t-75 -75h-671l-59 -381q128 81 280 81q217 0 371 -154t154 -371z" />
    <glyph glyph-name="six" unicode="6" 
d="M1125 1425q0 -75 -75 -75q-201 0 -380 -93t-295 -258q106 51 225 51q217 0 371 -154t154 -371t-154 -371t-371 -154t-371 154t-154 371q0 403 286 689t689 286q75 0 75 -75zM975 525q0 155 -110 265t-265 110t-265 -110t-110 -265t110 -265t265 -110t265 110t110 265z
" />
    <glyph glyph-name="seven" unicode="7" 
d="M1129 1211q0 -22 -13 -46l-725 -1350q-22 -41 -64 -41q-30 0 -54 22t-24 52q0 19 10 37l666 1240h-775q-75 0 -75 75t75 75h900q79 0 79 -64z" />
    <glyph glyph-name="eight" unicode="8" 
d="M1050 450q0 -186 -132 -318t-318 -132t-318 132t-132 318q0 251 214 383q-139 113 -139 292q0 155 110 265t265 110t265 -110t110 -265q0 -179 -139 -292q214 -132 214 -383zM825 1125q0 93 -66 159t-159 66t-159 -66t-66 -159t66 -159t159 -66t159 66t66 159zM900 450
q0 124 -88 212t-212 88t-212 -88t-88 -212t88 -212t212 -88t212 88t88 212z" />
    <glyph glyph-name="nine" unicode="9" 
d="M1125 750q0 -403 -286 -689t-689 -286q-75 0 -75 75t75 75q201 0 380 93t295 258q-106 -51 -225 -51q-217 0 -371 154t-154 371t154 371t371 154t371 -154t154 -371zM975 750q0 155 -110 265t-265 110t-265 -110t-110 -265t110 -265t265 -110t265 110t110 265z" />
    <glyph glyph-name="colon" unicode=":" 
d="M714 939q0 -47 -33.5 -80.5t-80.5 -33.5t-80.5 33.5t-33.5 80.5t33.5 79t80.5 32t80.5 -32t33.5 -79zM714 114q0 -47 -33.5 -80.5t-80.5 -33.5t-80.5 33.5t-33.5 80.5t33.5 79t80.5 32t80.5 -32t33.5 -79z" />
    <glyph glyph-name="semicolon" unicode=";" 
d="M761 939q0 -47 -33.5 -80.5t-80.5 -33.5q-46 0 -80 33.5t-34 80.5t33.5 79t80.5 32q48 0 81 -32t33 -79zM722 75q0 -231 -154 -372q-26 -23 -52 -23q-31 0 -54 23t-23 54q0 25 23 52q110 127 110 266q0 75 75 75t75 -75z" />
    <glyph glyph-name="less" unicode="&#x3c;" 
d="M1126 190q0 -31 -21.5 -55t-52.5 -24q-18 0 -36 9l-887 444q-55 28 -55 74q0 45 55 73l887 444q18 9 36 9q31 0 52.5 -24t21.5 -55q0 -43 -42 -65l-766 -382l766 -383q42 -22 42 -65z" />
    <glyph glyph-name="equal" unicode="=" 
d="M1125 863q0 -75 -75 -75h-900q-75 0 -75 75t75 75h900q75 0 75 -75zM1125 413q0 -75 -75 -75h-900q-75 0 -75 75t75 75h900q75 0 75 -75z" />
    <glyph glyph-name="greater" unicode="&#x3e;" 
d="M1126 638q0 -46 -55 -74l-887 -444q-18 -9 -36 -9q-31 0 -52.5 24t-21.5 55q0 43 42 65l766 383l-766 382q-42 22 -42 65q0 31 21.5 55t52.5 24q18 0 36 -9l887 -444q55 -28 55 -73z" />
    <glyph glyph-name="question" unicode="?" 
d="M1125 1125q0 -177 -181 -284q-154 -91 -344 -91q-136 0 -192 -76q-14 -19 -14 -37q0 -24 28 -52q59 -60 178 -60q33 0 81.5 13t62.5 13q30 0 51.5 -23.5t21.5 -54.5q0 -98 -217 -98q-131 0 -235 64q-121 75 -121 198q0 124 121 199q104 64 235 64q247 0 345 141
q30 43 30 84t-30 84q-98 141 -345 141t-345 -141q-30 -43 -30 -84q0 -75 -75 -75t-75 75q0 177 181 284q154 91 344 91t344 -91q181 -107 181 -284zM714 114q0 -47 -33.5 -80.5t-80.5 -33.5t-80.5 33.5t-33.5 80.5t33.5 79t80.5 32t80.5 -32t33.5 -79z" />
    <glyph glyph-name="at" unicode="@" 
d="M1125 925q0 -217 -118 -386q-132 -189 -340 -189q-146 0 -240 130q-84 118 -84 270t84 270q94 130 240 130q112 0 197 -82q78 -74 109 -189q2 23 2 46q0 152 -77 278q-89 147 -231 147q-141 0 -256 -113q-101 -99 -149 -245q-37 -114 -37 -242t37 -242q48 -146 149 -245
q115 -113 256 -113q138 0 254 110q17 19 53 59q28 31 57 31q31 0 54.5 -23t23.5 -53q0 -23 -16 -46q-74 -103 -187 -164q-116 -64 -239 -64q-269 0 -440 248q-152 221 -152 502t152 502q171 248 440 248q208 0 340 -189q118 -169 118 -386zM841 750q0 87 -43 162
q-50 88 -131 88t-131 -88q-43 -75 -43 -162t43 -162q50 -88 131 -88t131 88q43 75 43 162z" />
    <glyph glyph-name="A" unicode="A" 
d="M1126 72q0 -72 -78 -72q-52 0 -69 51l-133 399h-492l-133 -399q-17 -51 -69 -51q-78 0 -78 72q0 13 5 27l446 1338q21 63 75 63t75 -63l446 -1338q5 -14 5 -27zM796 600l-196 588l-196 -588h392z" />
    <glyph glyph-name="B" unicode="B" 
d="M1125 449q0 -186 -132 -318t-319 -132l-424 1q-30 0 -52.5 22.5t-22.5 52.5v1350q0 30 22.5 52.5t52.5 22.5h425q155 0 265 -110t110 -265q0 -179 -139 -292q214 -132 214 -384zM900 1125q0 93 -66 159t-159 66h-350v-450h350q93 0 159 66t66 159zM975 449
q0 124 -88 212.5t-212 88.5h-350v-600l350 -1q124 0 212 88t88 212z" />
    <glyph glyph-name="C" unicode="C" 
d="M1126 273q0 -22 -17 -47q-70 -100 -189.5 -163t-242.5 -63q-271 0 -446 246q-156 221 -156 504t156 504q175 246 446 246q123 0 242.5 -63t189.5 -163q17 -25 17 -47q0 -30 -23.5 -53t-54.5 -23q-19 0 -45.5 18.5t-31.5 35.5q-1 2 -21 23q-122 122 -273 122
q-139 0 -255 -107q-103 -94 -154 -237q-43 -120 -43 -256t43 -256q51 -143 153 -237q116 -107 256 -107q150 0 273 122q9 7 21 22q1 15 30.5 35t46.5 20q31 0 54.5 -23t23.5 -53z" />
    <glyph glyph-name="D" unicode="D" 
d="M1125 750q0 -310 -220 -530t-530 -220h-125q-30 0 -52.5 22.5t-22.5 52.5v1350q0 30 22.5 52.5t52.5 22.5h125q310 0 530 -220t220 -530zM975 750q0 248 -176 424t-424 176h-50v-1200h50q248 0 424 176t176 424z" />
    <glyph glyph-name="E" unicode="E" 
d="M1125 75q0 -75 -75 -75h-800q-30 0 -52.5 22.5t-22.5 52.5v1350q0 30 22.5 52.5t52.5 22.5h800q75 0 75 -75t-75 -75h-725v-525h725q75 0 75 -75t-75 -75h-725v-525h725q75 0 75 -75z" />
    <glyph glyph-name="F" unicode="F" 
d="M1125 750q0 -75 -75 -75h-725v-600q0 -75 -75 -75t-75 75v1351q0 74 74 74h801q75 0 75 -75t-75 -75h-725v-525h725q75 0 75 -75z" />
    <glyph glyph-name="G" unicode="G" 
d="M1076 1227q0 -30 -23.5 -53t-54.5 -23q-30 0 -58 32q-13 16 -42 50q-114 117 -250 117t-247 -115q-95 -98 -140 -242q-36 -114 -36 -243t36 -243q45 -144 140 -242q111 -115 247 -115q157 0 277 148v452q0 75 75 75t75 -75v-478q0 -103 -166 -193q-147 -79 -261 -79
q-263 0 -428 252q-145 220 -145 498t145 498q165 252 428 252q119 0 233 -64q111 -63 179 -164q16 -23 16 -45z" />
    <glyph glyph-name="H" unicode="H" 
d="M1025 75q0 -75 -75 -75t-75 75v600h-550v-600q0 -75 -75 -75t-75 75v1350q0 75 75 75t75 -75v-600h550v600q0 75 75 75t75 -75v-1350z" />
    <glyph glyph-name="I" unicode="I" 
d="M975 75q0 -75 -75 -75h-600q-75 0 -75 75t75 75h225v1200h-225q-75 0 -75 75t75 75h600q75 0 75 -75t-75 -75h-225v-1200h225q75 0 75 -75z" />
    <glyph glyph-name="J" unicode="J" 
d="M1025 75q0 -217 -154 -371t-371 -154q-114 0 -227 52q-119 54 -181 143q-18 26 -18 47q0 31 23.5 53.5t54.5 22.5q27 0 56 -28q142 -140 292 -140q155 0 265 110t110 265v1275h-725q-75 0 -75 75t75 75h801q74 0 74 -74v-1351z" />
    <glyph glyph-name="K" unicode="K" 
d="M1126 75q0 -30 -23 -53t-54 -23q-30 0 -53 24l-650 675q-20 21 -21 38v-661q0 -75 -75 -75t-75 75v1350q0 75 75 75t75 -75v-661q4 21 21 38l650 675q23 24 53 24q31 0 54 -23t23 -53q0 -29 -22 -52l-600 -623l600 -623q22 -23 22 -52zM333 716q-6 10 -8 21v-1
q0 -6 8 -20zM342 702q-5 7 -12 19q5 -10 12 -19z" />
    <glyph glyph-name="L" unicode="L" 
d="M1125 75q0 -75 -75 -75h-800q-75 0 -75 74v1351q0 75 75 75t75 -75v-1275h725q75 0 75 -75z" />
    <glyph glyph-name="M" unicode="M" 
d="M1125 73q0 -73 -76 -73q-65 0 -73 65l-129 968l-172 -666q-17 -67 -75 -67t-75 67l-172 666l-129 -968q-8 -65 -73 -65q-76 0 -76 73q0 6 1 12l179 1341q9 74 75 74q58 0 75 -65l195 -759l195 759q17 65 73 65q68 0 77 -74l179 -1341q1 -6 1 -12z" />
    <glyph glyph-name="N" unicode="N" 
d="M1026 74q0 -75 -78 -75q-43 0 -69 51l-554 1067v-1042q0 -75 -75 -75t-75 75l-1 1351q0 75 78 75q43 0 69 -51l554 -1067v1042q0 75 75 75t75 -75z" />
    <glyph glyph-name="O" unicode="O" 
d="M1125 750q0 -269 -126 -489q-150 -261 -399 -261t-399 261q-126 220 -126 489t126 489q150 261 399 261t399 -261q126 -220 126 -489zM975 750q0 131 -33 246q-39 136 -120 234q-100 120 -222 120t-222 -120q-81 -98 -120 -234q-33 -115 -33 -246t33 -246
q39 -136 120 -234q100 -120 222 -120t222 120q81 98 120 234q33 115 33 246z" />
    <glyph glyph-name="P" unicode="P" 
d="M1125 1050q0 -186 -132 -318t-318 -132h-350v-525q0 -75 -75 -75t-75 75v1350q0 30 22.5 52.5t52.5 22.5h425q186 0 318 -132t132 -318zM975 1050q0 124 -88 212t-212 88h-350v-600h350q124 0 212 88t88 212z" />
    <glyph glyph-name="Q" unicode="Q" 
d="M1125 -375q0 -75 -75 -75q-176 0 -311 143q-114 121 -171 308q-235 19 -375 274q-118 216 -118 475q0 269 126 489q150 261 399 261t399 -261q126 -220 126 -489q0 -233 -96 -433q-112 -235 -310 -299q42 -124 121 -212q96 -106 210 -106q75 0 75 -75zM975 750
q0 131 -33 246q-39 136 -120 234q-100 120 -222 120t-222 -120q-81 -98 -120 -233q-33 -116 -33 -247q0 -186 70 -347q86 -196 239 -243q-9 70 -9 140q0 75 75 75t75 -75q0 -68 9 -133q145 57 225 245q66 157 66 338z" />
    <glyph glyph-name="R" unicode="R" 
d="M1126 76q0 -31 -23 -54t-54 -23q-29 0 -52 23l-590 590q-33 33 -33 62q0 76 90 76h211q124 0 212 88t88 212t-88 212t-212 88h-350v-1275q0 -75 -75 -75t-75 75v1351q0 74 74 74h426q186 0 318 -132t132 -318t-132 -318t-318 -132h-44l472 -472q23 -23 23 -52z" />
    <glyph glyph-name="S" unicode="S" 
d="M1125 450q0 -203 -182 -333q-164 -117 -375 -117q-137 0 -266 54q-141 60 -212 164q-16 24 -16 46q0 30 23.5 52.5t54.5 22.5q29 0 58 -31q14 -17 44 -48q122 -110 314 -110q147 0 268 75q139 87 139 225t-139 225q-121 75 -268 75q-175 0 -311 98q-150 108 -150 277
t150 277q136 98 311 98q113 0 218 -45q116 -49 175 -134q17 -23 17 -46q0 -30 -24 -52.5t-54 -22.5q-28 0 -59 31q-117 119 -273 119q-111 0 -203 -56q-108 -65 -108 -169t108 -169q92 -56 203 -56q211 0 375 -117q182 -130 182 -333z" />
    <glyph glyph-name="T" unicode="T" 
d="M1125 1425q0 -75 -75 -75h-375v-1275q0 -75 -75 -75t-75 75v1275h-375q-75 0 -75 75t75 75h900q75 0 75 -75z" />
    <glyph glyph-name="U" unicode="U" 
d="M1075 475q0 -197 -139 -336t-336 -139t-336 139t-139 336v950q0 75 75 75t75 -75v-950q0 -134 95.5 -229.5t229.5 -95.5t229.5 95.5t95.5 229.5v950q0 75 75 75t75 -75v-950z" />
    <glyph glyph-name="V" unicode="V" 
d="M1126 1428q0 -13 -5 -27l-446 -1338q-21 -63 -75 -63t-75 63l-446 1338q-5 14 -5 27q0 72 78 72q52 0 69 -51l379 -1137l379 1137q17 51 69 51q78 0 78 -72z" />
    <glyph glyph-name="W" unicode="W" 
d="M1125 1428q0 -8 -1 -15l-224 -1341q-12 -72 -76 -72q-57 0 -74 66l-150 600l-150 -600q-16 -66 -74 -66q-65 0 -76 72l-224 1341q-1 7 -1 15q0 72 76 72q63 0 73 -63l166 -994l135 540q16 67 75 67q58 0 75 -67l135 -540l166 994q10 63 73 63q76 0 76 -72z" />
    <glyph glyph-name="X" unicode="X" 
d="M1126 74q0 -30 -24 -52.5t-54 -22.5q-37 0 -60 34l-388 582l-388 -582q-23 -34 -60 -34q-30 0 -54 22.5t-24 52.5q0 22 14 43l422 633l-422 633q-14 21 -14 43q0 30 24 52.5t54 22.5q37 0 60 -34l388 -582l388 582q23 34 60 34q30 0 54 -22.5t24 -52.5q0 -22 -14 -43
l-422 -633l422 -633q14 -21 14 -43z" />
    <glyph glyph-name="Y" unicode="Y" 
d="M1126 1426q0 -22 -14 -43l-437 -656v-652q0 -75 -75 -75t-75 75v652l-437 656q-14 21 -14 43q0 30 24 52.5t54 22.5q37 0 60 -34l388 -582l388 582q23 34 60 34q30 0 54 -22.5t24 -52.5z" />
    <glyph glyph-name="Z" unicode="Z" 
d="M1126 1426q0 -22 -21 -54l-815 -1222h760q75 0 75 -75t-75 -75l-897 -1q-79 0 -79 75q0 22 21 54l815 1222h-760q-75 0 -75 75t75 75l897 1q79 0 79 -75z" />
    <glyph glyph-name="bracketleft" unicode="[" 
d="M900 -375q0 -75 -75 -75h-450q-30 0 -52.5 22.5t-22.5 52.5v1800q0 30 22.5 52.5t52.5 22.5h450q75 0 75 -75t-75 -75h-375v-1650h375q75 0 75 -75z" />
    <glyph glyph-name="backslash" unicode="\" 
d="M1126 -378q0 -31 -24 -52.5t-54 -21.5q-44 0 -65 42l-900 1801q-9 18 -9 36q0 31 24 52.5t54 21.5q44 0 65 -42l900 -1801q9 -18 9 -36z" />
    <glyph glyph-name="bracketright" unicode="]" 
d="M900 1425v-1800q0 -30 -22.5 -52.5t-52.5 -22.5h-450q-75 0 -75 75t75 75h375v1650h-375q-75 0 -75 75t75 75h450q30 0 52.5 -22.5t22.5 -52.5z" />
    <glyph glyph-name="asciicircum" unicode="^" 
d="M976 1126q0 -31 -23 -54t-54 -23q-29 0 -52 23l-247 247l-247 -247q-23 -23 -52 -23q-31 0 -54 23t-23 54q0 29 23 52l300 300q23 23 52 23q31 0 54 -23l300 -300q23 -23 23 -52z" />
    <glyph glyph-name="underscore" unicode="_" 
d="M1125 75q0 -75 -75 -75h-900q-75 0 -75 75t75 75h900q75 0 75 -75z" />
    <glyph glyph-name="grave" unicode="`" 
d="M451 1047q0 -30 -24 -51.5t-54 -21.5q-49 0 -68 48l-150 375q-6 16 -6 31q0 30 24 51.5t54 21.5q49 0 68 -48l150 -375q6 -16 6 -31z" />
    <glyph glyph-name="a" unicode="a" 
d="M1075 75q0 -75 -75 -75q-77 0 -75 106q-148 -106 -350 -106q-185 0 -331 93q-169 108 -169 282t169 282q147 93 331 93q202 0 350 -106v31q0 44 -31 89q-92 136 -319 136q-130 0 -257 -74q-26 -15 -45 -15q-30 0 -52.5 23.5t-22.5 54.5q0 74 157 123q122 38 220 38
q184 0 331 -93q169 -108 169 -282v-600zM925 375q0 71 -68 131q-57 50 -135 73q-68 21 -147 21q-232 0 -323 -142q-27 -42 -27 -83t27 -83q91 -142 323 -142q79 0 147 21q78 23 135 73q68 60 68 131z" />
    <glyph glyph-name="b" unicode="b" 
d="M1125 525q0 -213 -143 -367q-146 -158 -357 -158t-357 158q-143 154 -143 367v900q0 75 75 75t75 -75v-525q145 150 350 150q211 0 357 -158q143 -154 143 -367zM975 525q0 151 -99 261q-102 114 -251 114t-251 -114q-99 -110 -99 -261t99 -261q102 -114 251 -114
t251 114q99 110 99 261z" />
    <glyph glyph-name="c" unicode="c" 
d="M1126 845q0 -31 -23 -54.5t-53 -23.5q-21 0 -49 19q-161 114 -324 114q-172 0 -306 -100q-146 -109 -146 -275t147 -275q133 -100 305 -100q162 0 324 113q27 19 48 19q31 0 54 -23.5t23 -53.5q0 -29 -28 -56q-70 -70 -196 -111q-115 -38 -225 -38q-235 0 -412 143
q-190 152 -190 382t190 382q177 143 412 143q110 0 225 -38q127 -42 197 -112q27 -27 27 -55z" />
    <glyph glyph-name="d" unicode="d" 
d="M1025 75q0 -75 -75 -75q-55 0 -69 48q-6 21 -6 94q-136 -142 -325 -142q-205 0 -343 162q-132 155 -132 363t132 363q138 162 343 162q189 0 325 -142v517q0 75 75 75t75 -75v-1350zM875 525q0 146 -88 256q-95 119 -237 119t-237 -119q-88 -110 -88 -256t88 -256
q95 -119 237 -119t237 119q88 110 88 256z" />
    <glyph glyph-name="e" unicode="e" 
d="M1126 301q0 -19 -12 -41q-69 -120 -207 -191q-131 -69 -275 -69q-225 0 -388 149q-169 153 -169 376t169 376q163 149 388 149q82 0 171 -29q100 -33 199 -105q123 -90 123 -171q0 -40 -39 -61l-758 -408q123 -126 304 -126q193 0 312 134q14 18 42.5 55t61.5 37
q30 0 54 -22t24 -53zM937 774q-122 126 -305 126q-162 0 -282 -105q-125 -110 -125 -270q0 -64 22 -122z" />
    <glyph glyph-name="f" unicode="f" 
d="M1126 1274q0 -30 -23.5 -52.5t-54.5 -22.5q-25 0 -65 39q-56 54 -86 73q-63 39 -147 39q-124 0 -212 -88t-88 -212h375q75 0 75 -75t-75 -75h-375v-825q0 -75 -75 -75t-75 75v825h-150q-75 0 -75 75t75 75h150q0 186 132 318t318 132q102 0 202 -48q105 -50 158 -132
q16 -25 16 -46z" />
    <glyph glyph-name="g" unicode="g" 
d="M1125 975q0 -61 -65 -73q-16 -3 -111 -2q86 -98 86 -225q0 -180 -161 -291q251 -131 251 -384q0 -198 -167 -329q-154 -121 -358 -121t-358 121q-167 131 -167 329q0 75 75 75t75 -75q0 -135 124 -222q111 -78 251 -78t251 78q124 87 124 222t-124 222q-111 78 -251 78
q-169 0 -297 101q-138 109 -138 274t138 274q128 101 297 101h450q75 0 75 -75zM885 675q0 101 -95 167q-84 58 -190 58t-190 -58q-95 -66 -95 -167t95 -167q84 -58 190 -58t190 58q95 66 95 167z" />
    <glyph glyph-name="h" unicode="h" 
d="M1075 75q0 -75 -75 -75t-75 75v525q0 124 -88 212t-212 88t-212 -88t-88 -212v-525q0 -75 -75 -75t-75 75v1350q0 75 75 75t75 -75v-490q128 115 300 115q186 0 318 -132t132 -318v-525z" />
    <glyph glyph-name="i" unicode="i" 
d="M714 1386q0 -47 -33.5 -79t-80.5 -32t-80.5 32t-33.5 79t33.5 80.5t80.5 33.5t80.5 -33.5t33.5 -80.5zM975 75q0 -75 -75 -75h-300q-75 0 -75 75v825h-225q-75 0 -75 75t75 75h301q74 0 74 -75v-825h225q75 0 75 -75z" />
    <glyph glyph-name="j" unicode="j" 
d="M1064 1386q0 -47 -33.5 -79t-80.5 -32t-80.5 32t-33.5 79t33.5 80.5t80.5 33.5t80.5 -33.5t33.5 -80.5zM1025 75q0 -217 -154 -371t-371 -154q-114 0 -227 52q-119 54 -181 143q-18 26 -18 47q0 31 23.5 53.5t54.5 22.5q27 0 56 -28q142 -140 292 -140q155 0 265 110
t110 265v825h-225q-75 0 -75 75t75 75h301q74 0 74 -74v-901z" />
    <glyph glyph-name="k" unicode="k" 
d="M1126 77q0 -30 -22.5 -54t-52.5 -24q-23 0 -44 14l-640 444q-37 25 -42 54v-436q0 -75 -75 -75t-75 75v1350q0 75 75 75t75 -75v-886q5 29 42 54l640 444q21 14 44 14q30 0 52.5 -24t22.5 -54q0 -37 -33 -60l-561 -388l561 -388q33 -23 33 -60z" />
    <glyph glyph-name="l" unicode="l" 
d="M1126 226q0 -21 -16 -46q-53 -81 -158 -132q-100 -48 -202 -48q-186 0 -318 132t-132 318v975q0 75 75 75t75 -75v-975q0 -124 88 -212t212 -88q109 0 194.5 75.5t103.5 75.5q31 0 54.5 -22.5t23.5 -52.5z" />
    <glyph glyph-name="m" unicode="m" 
d="M1125 75q0 -75 -75 -75t-75 75v675q0 62 -44 106t-106 44t-106 -44t-44 -106v-675q0 -75 -75 -75t-75 75v675q0 62 -44 106t-106 44t-106 -44t-44 -106v-675q0 -75 -75 -75t-75 75v900q0 75 75 75q51 0 69 -44q72 44 156 44q135 0 225 -102q90 102 225 102q124 0 212 -88
t88 -212v-675z" />
    <glyph glyph-name="n" unicode="n" 
d="M1075 75q0 -75 -75 -75t-75 75v525q0 124 -88 212t-212 88t-212 -88t-88 -212v-525q0 -75 -75 -75t-75 75v900q0 75 75 75q76 0 75 -115q128 115 300 115q186 0 318 -132t132 -318v-525z" />
    <glyph glyph-name="o" unicode="o" 
d="M1125 525q0 -217 -154 -371t-371 -154t-371 154t-154 371t154 371t371 154t371 -154t154 -371zM975 525q0 155 -110 265t-265 110t-265 -110t-110 -265t110 -265t265 -110t265 110t110 265z" />
    <glyph glyph-name="p" unicode="p" 
d="M1125 525q0 -208 -132 -363q-138 -162 -343 -162q-189 0 -325 142v-517q0 -75 -75 -75t-75 75v1350q0 75 75 75q55 0 69 -48q6 -21 6 -94q136 142 325 142q205 0 343 -162q132 -155 132 -363zM975 525q0 146 -88 256q-95 119 -237 119t-237 -119q-88 -110 -88 -256
t88 -256q95 -119 237 -119t237 119q88 110 88 256z" />
    <glyph glyph-name="q" unicode="q" 
d="M1025 -375q0 -75 -75 -75t-75 75v517q-136 -142 -325 -142q-205 0 -343 162q-132 155 -132 363t132 363q138 162 343 162q189 0 325 -142v38q-2 104 75 104q75 0 75 -75v-1350zM875 525q0 146 -88 256q-95 119 -237 119t-237 -119q-88 -110 -88 -256t88 -256
q95 -119 237 -119t237 119q88 110 88 256z" />
    <glyph glyph-name="r" unicode="r" 
d="M1126 808q0 -31 -23.5 -53.5t-54.5 -22.5q-28 0 -56 29q-138 139 -292 139q-155 0 -265 -110t-110 -265v-450q0 -75 -75 -75t-75 75v900q0 75 75 75q58 0 72 -56q4 -18 3 -102q154 158 375 158q114 0 227 -52q119 -54 181 -143q18 -26 18 -47z" />
    <glyph glyph-name="s" unicode="s" 
d="M1056 338q0 -160 -161 -256q-137 -82 -308 -82q-128 0 -245 49q-135 57 -188 158q-11 21 -11 39q0 30 24 52t54 22q34 0 63 -39q99 -131 303 -131q202 0 288 111q31 40 31 77q0 61 -70 113q-56 40 -128 58q-60 16 -136 16q-129 0 -231 65q-118 75 -118 198t121 198
q104 64 236 64q82 0 163 -29q93 -33 136 -90q20 -26 20 -49q0 -30 -23.5 -53t-54.5 -23q-13 0 -82.5 47t-158.5 47q-136 0 -191 -74q-16 -21 -16 -38q0 -72 125 -103q42 -10 100 -10q168 0 302 -83q156 -97 156 -254z" />
    <glyph glyph-name="t" unicode="t" 
d="M1126 226q0 -21 -16 -46q-53 -81 -158 -132q-100 -48 -202 -48q-186 0 -318 132t-132 318v450h-150q-75 0 -75 75t75 75h150v375q0 75 75 75t75 -75v-375h375q75 0 75 -75t-75 -75h-375v-450q0 -124 88 -212t212 -88q84 0 147 39q30 19 86 73q40 39 65 39
q31 0 54.5 -22.5t23.5 -52.5z" />
    <glyph glyph-name="u" unicode="u" 
d="M1075 475q0 -197 -139 -336t-336 -139t-336 139t-139 336v500q0 75 75 75t75 -75v-500q0 -134 95.5 -229.5t229.5 -95.5t229.5 95.5t95.5 229.5v500q0 75 75 75t75 -75v-500z" />
    <glyph glyph-name="v" unicode="v" 
d="M1126 977q0 -18 -9 -36l-443 -887q-28 -55 -74 -55t-74 55l-443 887q-9 18 -9 36q0 31 24 52.5t54 21.5q44 0 65 -42l383 -766l383 766q21 42 65 42q30 0 54 -21.5t24 -52.5z" />
    <glyph glyph-name="w" unicode="w" 
d="M1126 978q0 -12 -4 -25l-267 -888q-19 -65 -75 -65t-75 65l-105 348l-105 -348q-19 -65 -75 -65t-75 65l-267 888q-4 13 -4 25q0 72 78 72q54 0 70 -53l198 -661l102 338q-88 292 -88 304q0 72 78 72q54 0 70 -53l198 -661l198 661q16 53 70 53q78 0 78 -72z" />
    <glyph glyph-name="x" unicode="x" 
d="M1126 974q0 -29 -23 -52l-397 -397l397 -397q23 -23 23 -52q0 -31 -23 -54t-54 -23q-29 0 -52 23l-397 397l-397 -397q-23 -23 -52 -23q-31 0 -54 23t-23 54q0 29 23 52l397 397l-397 397q-23 23 -23 52q0 31 23 54t54 23q29 0 52 -23l397 -397l397 397q23 23 52 23
q31 0 54 -23t23 -54z" />
    <glyph glyph-name="y" unicode="y" 
d="M1025 975v-975q0 -186 -132 -318t-318 -132q-118 0 -224 60q-110 62 -165 163q-11 22 -11 40q0 30 24 52t54 22q34 0 63 -38q112 -149 259 -149q124 0 212 88t88 212v115q-128 -115 -300 -115q-186 0 -318 132t-132 318v525q0 75 75 75t75 -75v-525q0 -124 88 -212
t212 -88t212 88t88 211v526q0 75 75 75t75 -75z" />
    <glyph glyph-name="z" unicode="z" 
d="M1126 974q0 -29 -33 -62l-762 -762h719q75 0 75 -75t-75 -75l-898 -1q-78 0 -78 77q0 29 33 62l762 762h-719q-75 0 -75 75t75 75l898 1q78 0 78 -77z" />
    <glyph glyph-name="braceleft" unicode="{" 
d="M900 -375q0 -75 -75 -75q-124 0 -212 88t-88 212v450q0 62 -44 106t-106 44q-75 0 -75 75t75 75q62 0 106 44t44 106v450q0 124 88 212t212 88q75 0 75 -75t-75 -75q-62 0 -106 -44t-44 -106v-450q0 -135 -102 -225q102 -90 102 -225v-450q0 -62 44 -106t106 -44
q75 0 75 -75z" />
    <glyph glyph-name="bar" unicode="|" 
d="M675 -375q0 -75 -75 -75t-75 75v1800q0 75 75 75t75 -75v-1800z" />
    <glyph glyph-name="braceright" unicode="}" 
d="M900 525q0 -75 -75 -75q-62 0 -106 -44t-44 -106v-450q0 -124 -88 -212t-212 -88q-75 0 -75 75t75 75q62 0 106 44t44 106v450q0 135 102 225q-102 90 -102 225v450q0 62 -44 106t-106 44q-75 0 -75 75t75 75q124 0 212 -88t88 -212v-450q0 -62 44 -106t106 -44
q75 0 75 -75z" />
    <glyph glyph-name="asciitilde" unicode="~" 
d="M976 528q0 -24 -18 -54q-58 -99 -208 -99q-85 0 -176.5 75t-123.5 75q-51 0 -79 -24q-17 -51 -69 -51q-78 0 -78 72q0 24 18 54q58 99 208 99q85 0 176.5 -75t123.5 -75q61 0 86.5 37.5t61.5 37.5q78 0 78 -72z" />
    <glyph glyph-name="exclamdown" unicode="&#xa1;" 
d="M714 936q0 -47 -33.5 -79t-80.5 -32t-80.5 32t-33.5 79t33.5 80.5t80.5 33.5t80.5 -33.5t33.5 -80.5zM675 -375q0 -75 -75 -75t-75 75v975q0 75 75 75t75 -75v-975z" />
    <glyph glyph-name="cent" unicode="&#xa2;" 
d="M1126 845q0 -31 -23 -54.5t-53 -23.5q-21 0 -49 19q-132 93 -249 109v-740q117 16 249 108q27 19 48 19q31 0 54 -23.5t23 -53.5q0 -29 -28 -56q-124 -121 -346 -145v-179q0 -75 -75 -75t-75 75v179q-214 24 -365 163q-162 149 -162 358t162 358q151 139 365 163v179
q0 75 75 75t75 -75v-179q223 -24 347 -146q27 -27 27 -55zM602 155v740q-151 -21 -259 -118q-118 -106 -118 -252t118 -252q108 -97 259 -118z" />
    <glyph glyph-name="sterling" unicode="&#xa3;" 
d="M1125 75q0 -75 -75 -75h-900q-78 0 -78 75t78 75q62 0 106 44t44 106v300h-150q-75 0 -75 75t75 75h150v150h-150q-75 0 -75 75t75 75h150v150q0 124 88 212t212 88q85 0 146 -31q79 -39 79 -115q0 -78 -60 -78q-22 0 -68 37t-97 37q-62 0 -106 -44t-44 -106v-150h150
q75 0 75 -75t-75 -75h-150v-150h150q75 0 75 -75t-75 -75h-150v-300q0 -81 -40 -150h640q75 0 75 -75z" />
    <glyph glyph-name="currency" unicode="&#xa4;" 
d="M1126 974q0 -30 -106 -135q105 -139 105 -314t-105 -314q106 -105 106 -135q0 -31 -23 -54t-54 -23q-30 0 -135 106q-139 -105 -314 -105t-314 105q-105 -106 -135 -106q-31 0 -54 23t-23 54q0 30 106 135q-105 139 -105 314t105 314q-106 105 -106 135q0 31 23 54t54 23
q30 0 135 -106q139 105 314 105t314 -105q105 106 135 106q31 0 54 -23t23 -54zM975 525q0 155 -110 265t-265 110t-265 -110t-110 -265t110 -265t265 -110t265 110t110 265z" />
    <glyph glyph-name="yen" unicode="&#xa5;" 
d="M1126 1426q0 -22 -14 -43l-372 -558h160q75 0 75 -75t-75 -75h-225v-150h225q75 0 75 -75t-75 -75h-225v-300q0 -75 -75 -75t-75 75v300h-225q-75 0 -75 75t75 75h225v150h-225q-75 0 -75 75t75 75h160l-372 558q-14 21 -14 43q0 30 24 52.5t54 22.5q37 0 60 -34
l388 -582l388 582q23 34 60 34q30 0 54 -22.5t24 -52.5z" />
    <glyph glyph-name="brokenbar" unicode="&#xa6;" 
d="M675 675q0 -75 -75 -75t-75 75v750q0 75 75 75t75 -75v-750zM675 -375q0 -75 -75 -75t-75 75v750q0 75 75 75t75 -75v-750z" />
    <glyph glyph-name="section" unicode="&#xa7;" 
d="M1125 -75q0 -177 -181 -284q-154 -91 -344 -91q-124 0 -244 43q-137 48 -204 134q-19 25 -19 49q0 30 23.5 53t54.5 23q25 0 55 -27q139 -125 334 -125q251 0 347 144q28 42 28 81t-28 81q-96 144 -347 144q-190 0 -344 91q-181 107 -181 284q0 190 209 300
q-209 110 -209 300q0 177 181 284q154 91 344 91q124 0 244 -43q137 -48 204 -134q19 -25 19 -49q0 -30 -23.5 -53t-54.5 -23q-25 0 -55 27q-139 125 -334 125q-251 0 -347 -144q-28 -42 -28 -81t28 -81q96 -144 347 -144q190 0 344 -91q181 -107 181 -284q0 -190 -209 -300
q209 -110 209 -300zM975 525q0 71 -75 132q-61 49 -141 72q-74 21 -159 21t-159 -21q-80 -23 -141 -72q-75 -61 -75 -132t75 -132q61 -49 141 -72q74 -21 159 -21t159 21q80 23 141 72q75 61 75 132z" />
    <glyph glyph-name="dieresis" unicode="&#xa8;" 
d="M938 1313q0 -47 -33.5 -80t-79.5 -33q-47 0 -79.5 33t-32.5 80t32.5 79.5t79.5 32.5t80 -32.5t33 -79.5zM488 1313q0 -47 -33.5 -80t-79.5 -33q-47 0 -79.5 33t-32.5 80t32.5 79.5t79.5 32.5t80 -32.5t33 -79.5z" />
    <glyph glyph-name="copyright" unicode="&#xa9;" 
d="M1125 750q0 -269 -126 -489q-150 -261 -399 -261t-399 261q-126 220 -126 489t126 489q150 261 399 261t399 -261q126 -220 126 -489zM975 750q0 131 -33 246q-39 136 -120 234q-100 120 -222 120t-222 -120q-81 -98 -120 -234q-33 -115 -33 -246t33 -246
q39 -136 120 -234q100 -120 222 -120t222 120q81 98 120 234q33 115 33 246zM835 512q0 -19 -14 -42q-77 -132 -221 -132q-141 0 -227 140q-73 121 -73 272t73 272q86 141 227 141q144 0 221 -133q14 -23 14 -42q0 -31 -24 -53t-54 -22q-32 0 -73.5 50t-83.5 50
q-26 0 -56 -23q-94 -70 -94 -240t94 -240q30 -22 56 -22q42 0 83.5 49.5t73.5 49.5q30 0 54 -22t24 -53z" />
    <glyph glyph-name="ordfeminine" unicode="&#xaa;" 
d="M1013 795q0 -75 -75 -75q-68 0 -75 64q-117 -64 -263 -64q-149 0 -269 67q-143 81 -143 218t143 218q120 67 269 67q145 0 261 -63q-17 62 -109 96q-73 27 -152 27q-100 0 -199 -50q-25 -13 -41 -13q-31 0 -53 24t-22 55q0 65 130 105q97 29 185 29q149 0 269 -67
q144 -81 144 -218v-420zM1012 525q0 -75 -75 -75h-675q-75 0 -75 75t75 75h675q75 0 75 -75zM863 1005q0 24 -26 53q-72 82 -237 82q-177 0 -245 -91q-17 -25 -17 -44q0 -30 36 -65q76 -70 226 -70q166 0 238 83q25 28 25 52z" />
    <glyph glyph-name="guillemotleft" unicode="&#xab;" 
d="M1051 73q0 -31 -24 -52.5t-54 -21.5q-44 0 -65 42l-220 441q-14 27 -14 43t14 43l220 441q21 42 65 42q30 0 54 -21.5t24 -52.5q0 -18 -9 -36l-208 -416l208 -416q9 -18 9 -36zM526 73q0 -31 -24 -52.5t-54 -21.5q-44 0 -65 42l-220 441q-14 27 -14 43t14 43l220 441
q21 42 65 42q30 0 54 -21.5t24 -52.5q0 -18 -9 -36l-208 -416l208 -416q9 -18 9 -36z" />
    <glyph glyph-name="logicalnot" unicode="&#xac;" 
d="M1025 75q0 -75 -75 -75t-75 75v375h-725q-75 0 -75 75t75 75h800q30 0 52.5 -22.5t22.5 -52.5v-450z" />
    <glyph glyph-name="glyph110" 
 />
    <glyph glyph-name="registered" unicode="&#xae;" 
d="M1125 750q0 -269 -126 -489q-150 -261 -399 -261t-399 261q-126 220 -126 489t126 489q150 261 399 261t399 -261q126 -220 126 -489zM975 750q0 131 -33 246q-39 136 -120 234q-100 120 -222 120t-222 -120q-81 -98 -120 -234q-33 -115 -33 -246t33 -246
q39 -136 120 -234q100 -120 222 -120t222 120q81 98 120 234q33 115 33 246zM901 413q0 -30 -23 -53.5t-54 -23.5q-29 0 -52 23l-247 247v-193q0 -75 -75 -75t-75 75v675q0 29 22.5 52t52.5 23h188q108 0 185 -77.5t77 -185.5q0 -91 -56.5 -162.5t-144.5 -92.5l179 -179
q23 -24 23 -53zM750 900q0 46 -33 79.5t-79 33.5h-113v-225h113q46 0 79 33t33 79z" />
    <glyph glyph-name="overscore" 
d="M1125 1875q0 -75 -75 -75h-900q-75 0 -75 75t75 75h900q75 0 75 -75z" />
    <glyph glyph-name="degree" unicode="&#xb0;" 
d="M975 1125q0 -155 -110 -265t-265 -110t-265 110t-110 265t110 265t265 110t265 -110t110 -265zM825 1125q0 93 -66 159t-159 66t-159 -66t-66 -159t66 -159t159 -66t159 66t66 159z" />
    <glyph glyph-name="plusminus" unicode="&#xb1;" 
d="M1125 825q0 -75 -75 -75h-375v-375q0 -75 -75 -75t-75 75v375h-375q-75 0 -75 75t75 75h375v375q0 75 75 75t75 -75v-375h375q75 0 75 -75zM1125 75q0 -75 -75 -75h-900q-75 0 -75 75t75 75h900q75 0 75 -75z" />
    <glyph glyph-name="twosuperior" unicode="&#xb2;" 
d="M956 637q0 -75 -75 -75h-562q-87 0 -87 67q0 35 43 70q47 23 135 69q396 214 396 394q0 81 -63 136q-61 52 -143 52t-143 -52q-63 -55 -63 -136q0 -75 -75 -75t-75 75q0 143 107 242q105 96 249 96t249 -96q107 -99 107 -242q0 -152 -138 -270q-132 -90 -263 -179l326 -1
q75 0 75 -75z" />
    <glyph glyph-name="threesuperior" unicode="&#xb3;" 
d="M974 1435q0 -36 -36 -67l-284 -242q132 -25 221 -125t89 -232q0 -154 -116 -261q-113 -103 -269 -103q-97 0 -189 48q-98 50 -142 132q-13 23 -13 41q0 30 24 52t55 22q24 0 93.5 -72.5t171.5 -72.5q93 0 164 61t71 153q0 91 -73 154q-69 59 -162 59q-69 0 -136.5 -43
t-85.5 -43q-30 0 -52 22.5t-22 52.5q0 34 29 59l374 320h-375q-75 0 -75 75t75 75h578q85 0 85 -65z" />
    <glyph glyph-name="acute" unicode="&#xb4;" 
d="M826 1423q0 -44 -42 -65l-300 -150q-18 -9 -36 -9q-31 0 -52.5 24t-21.5 54q0 44 42 65l300 150q18 9 36 9q31 0 52.5 -24t21.5 -54z" />
    <glyph glyph-name="mu1" unicode="&#xb5;" 
d="M1025 75q0 -75 -75 -75q-76 0 -75 101q-119 -101 -275 -101t-275 101v-476q0 -75 -75 -75t-75 75v1350q0 75 75 75t75 -75v-550q0 -114 80.5 -194.5t194.5 -80.5q113 0 194 80.5t81 193.5v551q0 75 75 75t75 -75v-900z" />
    <glyph glyph-name="paragraph" unicode="&#xb6;" 
d="M1075 75q0 -75 -75 -75t-75 75v1275h-300v-1275q0 -75 -75 -75t-75 75v675h-25q-155 0 -265 110t-110 265t110 265t265 110h550q30 0 52.5 -22.5t22.5 -52.5v-1350zM475 900v450h-25q-93 0 -159 -66t-66 -159t66 -159t159 -66h25z" />
    <glyph glyph-name="middot" unicode="&#xb7;" 
d="M714 638q0 -47 -33.5 -80.5t-80.5 -33.5t-80.5 33.5t-33.5 80.5q0 46 33.5 78.5t80.5 32.5t80.5 -32.5t33.5 -78.5z" />
    <glyph glyph-name="cedilla" unicode="&#xb8;" 
d="M885 -150q0 -124 -88 -212t-212 -88q-78 0 -150 41q-75 42 -110 110q-11 21 -11 39q0 30 24 52t54 22t78 -57t115 -57q62 0 106 44t44 106t-44 106t-106 44q-75 0 -75 75t75 75q124 0 212 -88t88 -212z" />
    <glyph glyph-name="onesuperior" unicode="&#xb9;" 
d="M863 637q0 -75 -75 -75h-300q-75 0 -75 75q0 58 52 71q17 5 98 5v539l-99 -92q-23 -21 -51 -21q-31 0 -54 23.5t-23 53.5t25 54l215 200q33 31 61 31q76 0 76 -90v-698h22.5h22.5q105 0 105 -76z" />
    <glyph glyph-name="ordmasculine" unicode="&#xba;" 
d="M1013 1110q0 -165 -125 -279q-121 -111 -288 -111t-288 111q-124 114 -124 279t124 279q121 111 288 111t288 -111q125 -114 125 -279zM1012 525q0 -75 -74 -75h-675q-75 0 -75 75t75 75h675q74 0 74 -75zM863 1110q0 103 -81 173q-78 67 -182 67t-182 -67
q-80 -70 -80 -173t79 -171.5t183 -68.5t183.5 68.5t79.5 171.5z" />
    <glyph glyph-name="guillemotright" unicode="&#xbb;" 
d="M1051 525q0 -16 -14 -43l-220 -441q-21 -42 -65 -42q-30 0 -54 21.5t-24 52.5q0 18 9 36l208 416l-208 416q-9 18 -9 36q0 31 24 52.5t54 21.5q44 0 65 -42l220 -441q14 -27 14 -43zM526 525q0 -16 -14 -43l-220 -441q-21 -42 -65 -42q-30 0 -54 21.5t-24 52.5q0 18 9 36
l208 416l-208 416q-9 18 -9 36q0 31 24 52.5t54 21.5q44 0 65 -42l220 -441q14 -27 14 -43z" />
    <glyph glyph-name="onequarter" unicode="&#xbc;" 
d="M506 937q0 -75 -75 -75h-225q-75 0 -75 75q0 76 113 76v499q-58 -73 -92 -73q-31 0 -54.5 22.5t-23.5 53.5q0 25 18 47l160 200q31 39 65 39q77 0 77 -89v-699q112 0 112 -76zM1126 1426q0 -22 -14 -43l-900 -1350q-23 -34 -60 -34q-30 0 -54 22.5t-24 52.5q0 22 14 43
l900 1350q23 34 60 34q30 0 54 -22.5t24 -52.5zM1125 -60q0 -60 -61 -73q-10 -2 -108 -2v-240q0 -75 -75 -75t-75 75v240h-262q-79 0 -79 64q0 22 13 46l337 630q28 52 73 52q68 0 68 -87v-555q10 0 31 1t31 1q107 0 107 -77zM806 15v256l-137 -256h137z" />
    <glyph glyph-name="onehalf" unicode="&#xbd;" 
d="M506 937q0 -75 -75 -75h-225q-75 0 -75 75q0 76 113 76v499q-58 -73 -92 -73q-31 0 -54.5 22.5t-23.5 53.5q0 25 18 47l160 200q31 39 65 39q77 0 77 -89v-699q112 0 112 -76zM1126 1426q0 -22 -14 -43l-900 -1350q-23 -34 -60 -34q-30 0 -54 22.5t-24 52.5q0 22 14 43
l900 1350q23 34 60 34q30 0 54 -22.5t24 -52.5zM1125 300q0 -145 -100 -258l-208 -192h233q75 0 75 -75t-75 -75h-422q-85 0 -85 64q0 44 112 131q165 128 208 173q112 117 112 232q0 67 -34 123q-39 64 -102 64t-102 -64q-34 -56 -34 -123q0 -75 -75 -75t-75 75
q0 131 76 230q83 107 210 107t210 -107q76 -99 76 -230z" />
    <glyph glyph-name="threequarters" unicode="&#xbe;" 
d="M1126 1426q0 -22 -14 -43l-900 -1350q-23 -34 -60 -34q-30 0 -54 22.5t-24 52.5q0 22 14 43l430 646q-74 -58 -167 -58q-85 0 -160 53.5t-109 134.5q-8 19 -8 34q0 30 24 51.5t55 21.5q36 0 84 -72.5t114 -72.5q72 0 118 73q39 64 39 141t-39 140q-46 74 -118 74
q-47 0 -92 -44t-74 -44q-30 0 -53 22.5t-23 52.5q0 28 22 53l287 327h-268q-75 0 -75 75t75 75h433q82 0 82 -49q0 -54 -101 -170q-72 -79 -145 -157q110 -29 177 -136q62 -100 62 -219q0 -64 -19 -125l349 523q23 34 60 34q30 0 54 -22.5t24 -52.5zM1125 -60q0 -60 -61 -73
q-10 -2 -108 -2v-240q0 -75 -75 -75t-75 75v240h-262q-79 0 -79 64q0 22 13 46l337 630q28 52 73 52q68 0 68 -87v-555q10 0 31 1t31 1q107 0 107 -77zM806 15v256l-137 -256h137z" />
    <glyph glyph-name="questiondown" unicode="&#xbf;" 
d="M714 936q0 -47 -33.5 -79t-80.5 -32t-80.5 32t-33.5 79t33.5 80.5t80.5 33.5t80.5 -33.5t33.5 -80.5zM1125 -75q0 -177 -181 -284q-154 -91 -344 -91t-344 91q-181 107 -181 284t181 284q154 91 344 91q136 0 192 76q14 19 14 37q0 24 -28 52q-59 60 -178 60
q-33 0 -81.5 -13t-62.5 -13q-30 0 -51.5 23.5t-21.5 54.5q0 98 217 98q131 0 235 -64q121 -75 121 -198q0 -124 -121 -199q-104 -64 -235 -64q-247 0 -345 -141q-30 -43 -30 -84t30 -84q98 -141 345 -141t345 141q30 43 30 84q0 75 75 75t75 -75z" />
    <glyph glyph-name="Agrave" unicode="&#xc0;" 
d="M826 1727q0 -30 -21.5 -54t-52.5 -24q-18 0 -36 9l-300 150q-42 21 -42 65q0 30 21.5 54t52.5 24q18 0 36 -9l300 -150q42 -21 42 -65zM1126 72q0 -72 -78 -72q-52 0 -69 51l-133 399h-492l-133 -399q-17 -51 -69 -51q-78 0 -78 72q0 13 5 27l446 1338q21 63 75 63
t75 -63l446 -1338q5 -14 5 -27zM796 600l-196 588l-196 -588h392z" />
    <glyph glyph-name="Aacute" unicode="&#xc1;" 
d="M841 1873q0 -44 -42 -65l-300 -150q-18 -9 -36 -9q-31 0 -52.5 24t-21.5 54q0 44 42 65l300 150q18 9 36 9q31 0 52.5 -24t21.5 -54zM1126 72q0 -72 -78 -72q-52 0 -69 51l-133 399h-492l-133 -399q-17 -51 -69 -51q-78 0 -78 72q0 13 5 27l446 1338q21 63 75 63t75 -63
l446 -1338q5 -14 5 -27zM796 600l-196 588l-196 -588h392z" />
    <glyph glyph-name="Acircumflex" unicode="&#xc2;" 
d="M901 1727q0 -30 -22.5 -54t-52.5 -24q-22 0 -43 14l-183 122l-183 -122q-21 -14 -43 -14q-30 0 -52.5 24t-22.5 54q0 37 34 60l219 146q27 18 48 18t48 -18l219 -146q34 -23 34 -60zM1126 72q0 -72 -78 -72q-52 0 -69 51l-133 399h-492l-133 -399q-17 -51 -69 -51
q-78 0 -78 72q0 13 5 27l446 1338q21 63 75 63t75 -63l446 -1338q5 -14 5 -27zM796 600l-196 588l-196 -588h392z" />
    <glyph glyph-name="Atilde" unicode="&#xc3;" 
d="M991 1803q0 -24 -18 -54q-58 -99 -208 -99q-85 0 -176.5 75t-123.5 75q-51 0 -79 -24q-17 -51 -69 -51q-78 0 -78 72q0 24 18 54q58 99 208 99q85 0 176.5 -75t123.5 -75q61 0 86.5 37.5t61.5 37.5q78 0 78 -72zM1126 72q0 -72 -78 -72q-52 0 -69 51l-133 399h-492
l-133 -399q-17 -51 -69 -51q-78 0 -78 72q0 13 5 27l446 1338q21 63 75 63t75 -63l446 -1338q5 -14 5 -27zM796 600l-196 588l-196 -588h392z" />
    <glyph glyph-name="Adieresis" unicode="&#xc4;" 
d="M938 1763q0 -47 -33 -80t-80 -33t-79.5 33t-32.5 80t32.5 79.5t79.5 32.5t80 -32.5t33 -79.5zM488 1763q0 -47 -33 -80t-80 -33t-79.5 33t-32.5 80t32.5 79.5t79.5 32.5t80 -32.5t33 -79.5zM1126 72q0 -72 -78 -72q-52 0 -69 51l-133 399h-492l-133 -399q-17 -51 -69 -51
q-78 0 -78 72q0 13 5 27l446 1338q21 63 75 63t75 -63l446 -1338q5 -14 5 -27zM796 600l-196 588l-196 -588h392z" />
    <glyph glyph-name="Aring" unicode="&#xc5;" 
d="M818 1731q0 -90 -64 -152t-154 -62t-153.5 62t-63.5 152q0 89 63.5 153t153.5 64t154 -64t64 -153zM1126 72q0 -72 -78 -72q-52 0 -69 51l-133 399h-492l-133 -399q-17 -51 -69 -51q-78 0 -78 72q0 13 5 27l446 1338q21 63 75 63t75 -63l446 -1338q5 -14 5 -27zM668 1731
q0 67 -68 67q-67 0 -67 -67q0 -64 67 -64q68 0 68 64zM796 600l-196 588l-196 -588h392z" />
    <glyph glyph-name="AE" unicode="&#xc6;" 
d="M1125 750q0 -75 -75 -75h-285v-525h285q75 0 75 -75t-75 -75h-360q-75 0 -75 75v375h-234l-161 -403q-19 -48 -68 -48q-30 0 -54 21.5t-24 51.5q0 15 6 31l537 1342q10 25 23 38l-4 -4q23 22 52 22l362 -1q75 0 75 -75t-75 -75h-285v-525h285q75 0 75 -75zM647 1488
q-2 -1 -7 -5zM636 1479zM615 600v436l-174 -436h174z" />
    <glyph glyph-name="Ccedilla" unicode="&#xc7;" 
d="M1126 273q0 -48 -90 -126q-74 -63 -137 -95q78 -86 78 -202q0 -124 -88 -212t-212 -88q-177 0 -260 151q-11 20 -11 39q0 30 24 52t55 22q29 0 77.5 -57t114.5 -57q62 0 106 44t44 106t-44 106t-106 44q-271 0 -446 246q-156 221 -156 504t156 504q175 246 446 246
q123 0 242.5 -63t189.5 -163q17 -25 17 -47q0 -30 -23.5 -53t-54.5 -23q-28 0 -57 30q-14 17 -44 50q-118 119 -270 119q-141 0 -258 -109q-104 -97 -154 -243q-40 -117 -40 -248t40 -248q50 -146 154 -243q117 -109 258 -109q152 0 270 119q14 17 44 50q29 30 57 30
q31 0 54.5 -23t23.5 -53z" />
    <glyph glyph-name="Egrave" unicode="&#xc8;" 
d="M901 1727q0 -30 -21.5 -54t-52.5 -24q-18 0 -36 9l-300 150q-42 21 -42 65q0 30 21.5 54t52.5 24q18 0 36 -9l300 -150q42 -21 42 -65zM1125 75q0 -75 -75 -75h-800q-30 0 -52.5 22.5t-22.5 52.5v1350q0 30 22.5 52.5t52.5 22.5h800q75 0 75 -75t-75 -75h-725v-525h725
q75 0 75 -75t-75 -75h-725v-525h725q75 0 75 -75z" />
    <glyph glyph-name="Eacute" unicode="&#xc9;" 
d="M901 1873q0 -44 -42 -65l-300 -150q-18 -9 -36 -9q-31 0 -52.5 24t-21.5 54q0 44 42 65l300 150q18 9 36 9q31 0 52.5 -24t21.5 -54zM1125 75q0 -75 -75 -75h-800q-30 0 -52.5 22.5t-22.5 52.5v1350q0 30 22.5 52.5t52.5 22.5h800q75 0 75 -75t-75 -75h-725v-525h725
q75 0 75 -75t-75 -75h-725v-525h725q75 0 75 -75z" />
    <glyph glyph-name="Ecircumflex" unicode="&#xca;" 
d="M976 1727q0 -30 -22.5 -54t-52.5 -24q-22 0 -43 14l-183 122l-183 -122q-21 -14 -43 -14q-30 0 -52.5 24t-22.5 54q0 37 34 60l219 146q27 18 48 18t48 -18l219 -146q34 -23 34 -60zM1125 75q0 -75 -75 -75h-800q-30 0 -52.5 22.5t-22.5 52.5v1350q0 30 22.5 52.5
t52.5 22.5h800q75 0 75 -75t-75 -75h-725v-525h725q75 0 75 -75t-75 -75h-725v-525h725q75 0 75 -75z" />
    <glyph glyph-name="Edieresis" unicode="&#xcb;" 
d="M1012 1763q0 -47 -33 -80t-80 -33q-46 0 -79 33t-33 80t33 79.5t79 32.5q47 0 80 -32.5t33 -79.5zM562 1763q0 -47 -33 -80t-80 -33q-46 0 -79 33t-33 80t33 79.5t79 32.5q47 0 80 -32.5t33 -79.5zM1125 75q0 -75 -75 -75h-800q-30 0 -52.5 22.5t-22.5 52.5v1350
q0 30 22.5 52.5t52.5 22.5h800q75 0 75 -75t-75 -75h-725v-525h725q75 0 75 -75t-75 -75h-725v-525h725q75 0 75 -75z" />
    <glyph glyph-name="Igrave" unicode="&#xcc;" 
d="M826 1727q0 -30 -21.5 -54t-52.5 -24q-18 0 -36 9l-300 150q-42 21 -42 65q0 30 21.5 54t52.5 24q18 0 36 -9l300 -150q42 -21 42 -65zM975 75q0 -75 -75 -75h-600q-75 0 -75 75t75 75h222v1200h-222q-75 0 -75 75t75 75h600q75 0 75 -75t-75 -75h-228v-1200h228
q75 0 75 -75z" />
    <glyph glyph-name="Iacute" unicode="&#xcd;" 
d="M826 1873q0 -44 -42 -65l-300 -150q-18 -9 -36 -9q-31 0 -52.5 24t-21.5 54q0 44 42 65l300 150q18 9 36 9q31 0 52.5 -24t21.5 -54zM975 75q0 -75 -75 -75h-600q-75 0 -75 75t75 75h222v1200h-222q-75 0 -75 75t75 75h600q75 0 75 -75t-75 -75h-228v-1200h228
q75 0 75 -75z" />
    <glyph glyph-name="Icircumflex" unicode="&#xce;" 
d="M901 1727q0 -30 -22.5 -54t-52.5 -24q-22 0 -43 14l-183 122l-183 -122q-21 -14 -43 -14q-30 0 -52.5 24t-22.5 54q0 37 34 60l219 146q27 18 48 18t48 -18l219 -146q34 -23 34 -60zM975 75q0 -75 -75 -75h-600q-75 0 -75 75t75 75h225v1200h-225q-75 0 -75 75t75 75h600
q75 0 75 -75t-75 -75h-225v-1200h225q75 0 75 -75z" />
    <glyph glyph-name="Idieresis" unicode="&#xcf;" 
d="M938 1763q0 -47 -33.5 -80t-79.5 -33q-47 0 -79.5 33t-32.5 80t32.5 79.5t79.5 32.5q46 0 79.5 -32.5t33.5 -79.5zM488 1763q0 -47 -33.5 -80t-79.5 -33q-47 0 -79.5 33t-32.5 80t32.5 79.5t79.5 32.5q46 0 79.5 -32.5t33.5 -79.5zM975 75q0 -75 -75 -75h-600
q-75 0 -75 75t75 75h225v1200h-225q-75 0 -75 75t75 75h600q75 0 75 -75t-75 -75h-225v-1200h225q75 0 75 -75z" />
    <glyph glyph-name="Eth" unicode="&#xd0;" 
d="M1125 750q0 -310 -220 -530t-530 -220q-30 0 -52.5 22.5t-22.5 52.5v600h-150q-75 0 -75 75t75 75h150v600q0 30 22.5 52.5t52.5 22.5q310 0 530 -220t220 -530zM975 750q0 226 -150 396.5t-375 198.5v-520h150q75 0 75 -75t-75 -75h-150v-520q225 28 375 198.5
t150 396.5z" />
    <glyph glyph-name="Ntilde" unicode="&#xd1;" 
d="M976 1803q0 -24 -18 -54q-58 -99 -208 -99q-85 0 -176.5 75t-123.5 75q-51 0 -79 -24q-17 -51 -69 -51q-78 0 -78 72q0 24 18 54q58 99 208 99q85 0 176.5 -75t123.5 -75q61 0 86.5 37.5t61.5 37.5q78 0 78 -72zM1026 74q0 -75 -78 -75q-43 0 -69 51l-554 1067v-1042
q0 -75 -75 -75t-75 75l-1 1351q0 75 78 75q43 0 69 -51l554 -1067v1042q0 75 75 75t75 -75z" />
    <glyph glyph-name="Ograve" unicode="&#xd2;" 
d="M841 1727q0 -30 -21.5 -54t-52.5 -24q-18 0 -36 9l-300 150q-42 21 -42 65q0 30 21.5 54t52.5 24q18 0 36 -9l300 -150q42 -21 42 -65zM1125 750q0 -269 -126 -489q-150 -261 -399 -261t-399 261q-126 220 -126 489t126 489q150 261 399 261t399 -261q126 -220 126 -489z
M975 750q0 131 -33 246q-39 136 -120 234q-100 120 -222 120t-222 -120q-81 -98 -120 -234q-33 -115 -33 -246t33 -246q39 -136 120 -234q100 -120 222 -120t222 120q81 98 120 234q33 115 33 246z" />
    <glyph glyph-name="Oacute" unicode="&#xd3;" 
d="M841 1873q0 -44 -42 -65l-300 -150q-18 -9 -36 -9q-31 0 -52.5 24t-21.5 54q0 44 42 65l300 150q18 9 36 9q31 0 52.5 -24t21.5 -54zM1125 750q0 -269 -126 -489q-150 -261 -399 -261t-399 261q-126 220 -126 489t126 489q150 261 399 261t399 -261q126 -220 126 -489z
M975 750q0 131 -33 246q-39 136 -120 234q-100 120 -222 120t-222 -120q-81 -98 -120 -234q-33 -115 -33 -246t33 -246q39 -136 120 -234q100 -120 222 -120t222 120q81 98 120 234q33 115 33 246z" />
    <glyph glyph-name="Ocircumflex" unicode="&#xd4;" 
d="M901 1727q0 -30 -22.5 -54t-52.5 -24q-22 0 -43 14l-183 122l-183 -122q-21 -14 -43 -14q-30 0 -52.5 24t-22.5 54q0 37 34 60l219 146q27 18 48 18t48 -18l219 -146q34 -23 34 -60zM1125 750q0 -269 -126 -489q-150 -261 -399 -261t-399 261q-126 220 -126 489t126 489
q150 261 399 261t399 -261q126 -220 126 -489zM975 750q0 131 -33 246q-39 136 -120 234q-100 120 -222 120t-222 -120q-81 -98 -120 -234q-33 -115 -33 -246t33 -246q39 -136 120 -234q100 -120 222 -120t222 120q81 98 120 234q33 115 33 246z" />
    <glyph glyph-name="Otilde" unicode="&#xd5;" 
d="M991 1803q0 -24 -18 -54q-58 -99 -208 -99q-85 0 -176.5 75t-123.5 75q-51 0 -79 -24q-17 -51 -69 -51q-78 0 -78 72q0 24 18 54q58 99 208 99q85 0 176.5 -75t123.5 -75q61 0 86.5 37.5t61.5 37.5q78 0 78 -72zM1125 750q0 -269 -126 -489q-150 -261 -399 -261t-399 261
q-126 220 -126 489t126 489q150 261 399 261t399 -261q126 -220 126 -489zM975 750q0 131 -33 246q-39 136 -120 234q-100 120 -222 120t-222 -120q-81 -98 -120 -234q-33 -115 -33 -246t33 -246q39 -136 120 -234q100 -120 222 -120t222 120q81 98 120 234q33 115 33 246z
" />
    <glyph glyph-name="Odieresis" unicode="&#xd6;" 
d="M938 1763q0 -47 -33 -80t-80 -33t-79.5 33t-32.5 80t32.5 79.5t79.5 32.5t80 -32.5t33 -79.5zM488 1763q0 -47 -33 -80t-80 -33t-79.5 33t-32.5 80t32.5 79.5t79.5 32.5t80 -32.5t33 -79.5zM1125 750q0 -269 -126 -489q-150 -261 -399 -261t-399 261q-126 220 -126 489
t126 489q150 261 399 261t399 -261q126 -220 126 -489zM975 750q0 131 -33 246q-39 136 -120 234q-100 120 -222 120t-222 -120q-81 -98 -120 -234q-33 -115 -33 -246t33 -246q39 -136 120 -234q100 -120 222 -120t222 120q81 98 120 234q33 115 33 246z" />
    <glyph glyph-name="multiply" unicode="&#xd7;" 
d="M995 207q0 -30 -23.5 -53.5t-53.5 -23.5t-53 24l-265 265l-265 -265q-23 -24 -53 -24t-53.5 23.5t-23.5 53.5t24 53l265 265l-265 265q-24 23 -24 53t23.5 53.5t53.5 23.5t53 -24l265 -265l265 265q23 24 53 24t53.5 -23.5t23.5 -53.5t-24 -53l-265 -265l265 -265
q24 -23 24 -53z" />
    <glyph glyph-name="Oslash" unicode="&#xd8;" 
d="M1126 1426q0 -25 -119 -201q118 -209 118 -475q0 -269 -126 -489q-150 -261 -399 -261q-177 0 -313 145l-75 -112q-23 -34 -60 -34q-30 0 -54 22t-24 53q0 25 119 201q-118 209 -118 475q0 269 126 489q150 261 399 261q177 0 313 -145l75 112q23 34 60 34q30 0 54 -22
t24 -53zM826 1225q-103 125 -226 125q-118 0 -216 -113q-80 -93 -121 -224q-38 -122 -38 -263q0 -184 63 -332zM975 750q0 184 -63 332l-538 -807q103 -125 226 -125q118 0 216 114q80 92 121 223q38 122 38 263z" />
    <glyph glyph-name="Ugrave" unicode="&#xd9;" 
d="M826 1727q0 -30 -21.5 -54t-52.5 -24q-18 0 -36 9l-300 150q-42 21 -42 65q0 30 21.5 54t52.5 24q18 0 36 -9l300 -150q42 -21 42 -65zM1075 475q0 -197 -139 -336t-336 -139t-336 139t-139 336v950q0 75 75 75t75 -75v-950q0 -134 95.5 -229.5t229.5 -95.5t229.5 95.5
t95.5 229.5v950q0 75 75 75t75 -75v-950z" />
    <glyph glyph-name="Uacute" unicode="&#xda;" 
d="M826 1873q0 -44 -42 -65l-300 -150q-18 -9 -36 -9q-31 0 -52.5 24t-21.5 54q0 44 42 65l300 150q18 9 36 9q31 0 52.5 -24t21.5 -54zM1075 475q0 -197 -139 -336t-336 -139t-336 139t-139 336v950q0 75 75 75t75 -75v-950q0 -134 95.5 -229.5t229.5 -95.5t229.5 95.5
t95.5 229.5v950q0 75 75 75t75 -75v-950z" />
    <glyph glyph-name="Ucircumflex" unicode="&#xdb;" 
d="M901 1727q0 -30 -22.5 -54t-52.5 -24q-22 0 -43 14l-183 122l-183 -122q-21 -14 -43 -14q-30 0 -52.5 24t-22.5 54q0 37 34 60l219 146q27 18 48 18t48 -18l219 -146q34 -23 34 -60zM1075 475q0 -197 -139 -336t-336 -139t-336 139t-139 336v950q0 75 75 75t75 -75v-950
q0 -134 95.5 -229.5t229.5 -95.5t229.5 95.5t95.5 229.5v950q0 75 75 75t75 -75v-950z" />
    <glyph glyph-name="Udieresis" unicode="&#xdc;" 
d="M938 1763q0 -47 -33 -80t-80 -33t-79.5 33t-32.5 80t32.5 79.5t79.5 32.5t80 -32.5t33 -79.5zM488 1763q0 -47 -33 -80t-80 -33t-79.5 33t-32.5 80t32.5 79.5t79.5 32.5t80 -32.5t33 -79.5zM1075 475q0 -197 -139 -336t-336 -139t-336 139t-139 336v950q0 75 75 75
t75 -75v-950q0 -134 95.5 -229.5t229.5 -95.5t229.5 95.5t95.5 229.5v950q0 75 75 75t75 -75v-950z" />
    <glyph glyph-name="Yacute" unicode="&#xdd;" 
d="M826 1873q0 -44 -42 -65l-300 -150q-18 -9 -36 -9q-31 0 -52.5 24t-21.5 54q0 44 42 65l300 150q18 9 36 9q31 0 52.5 -24t21.5 -54zM1126 1426q0 -22 -14 -43l-437 -656v-652q0 -75 -75 -75t-75 75v652l-437 656q-14 21 -14 43q0 30 24 52.5t54 22.5q37 0 60 -34
l388 -582l388 582q23 34 60 34q30 0 54 -22.5t24 -52.5z" />
    <glyph glyph-name="Thorn" unicode="&#xde;" 
d="M1125 750q0 -217 -154 -371t-371 -154h-275v-150q0 -75 -75 -75t-75 75v1350q0 75 75 75t75 -75v-150h275q217 0 371 -154t154 -371zM975 750q0 155 -110 265t-265 110h-275v-750h275q155 0 265 110t110 265z" />
    <glyph glyph-name="germandbls" unicode="&#xdf;" 
d="M1125 338q0 -140 -99 -239t-238 -99q-105 0 -192 60t-124 157q-6 16 -6 30q0 30 24 51.5t55 21.5q35 0 64 -44q47 -71 58 -82q46 -44 121 -44q77 0 132 55t55 133q0 77 -55 132t-132 55q-109 0 -186 77t-77 186t96.5 198.5t96.5 180.5q0 76 -54 129.5t-129 53.5
q-88 0 -150.5 -62.5t-62.5 -150.5v-1062q0 -75 -75 -75t-75 75v1062q0 150 106.5 256.5t256.5 106.5q137 0 235 -97.5t98 -235.5q0 -169 -140 -284q-53 -43 -53 -95q0 -47 33 -80t80 -33q139 0 238 -99t99 -238z" />
    <glyph glyph-name="agrave" unicode="&#xe0;" 
d="M801 1277q0 -30 -21.5 -54t-52.5 -24q-18 0 -36 9l-300 150q-42 21 -42 65q0 30 21.5 54t52.5 24q18 0 36 -9l300 -150q42 -21 42 -65zM1075 75q0 -75 -75 -75q-77 0 -75 106q-148 -106 -350 -106q-185 0 -331 93q-169 108 -169 282t169 282q147 93 331 93
q202 0 350 -106v31q0 44 -31 89q-92 136 -319 136q-130 0 -257 -74q-26 -15 -45 -15q-30 0 -52.5 23.5t-22.5 54.5q0 74 157 123q122 38 220 38q184 0 331 -93q169 -108 169 -282v-600zM925 375q0 71 -68 131q-57 50 -135 73q-68 21 -147 21q-232 0 -323 -142
q-27 -42 -27 -83t27 -83q91 -142 323 -142q79 0 147 21q78 23 135 73q68 60 68 131z" />
    <glyph glyph-name="aacute" unicode="&#xe1;" 
d="M801 1423q0 -44 -42 -65l-300 -150q-18 -9 -36 -9q-31 0 -52.5 24t-21.5 54q0 44 42 65l300 150q18 9 36 9q31 0 52.5 -24t21.5 -54zM1075 75q0 -75 -75 -75q-77 0 -75 106q-148 -106 -350 -106q-185 0 -331 93q-169 108 -169 282t169 282q147 93 331 93q202 0 350 -106
v31q0 44 -31 89q-92 136 -319 136q-130 0 -257 -74q-26 -15 -45 -15q-30 0 -52.5 23.5t-22.5 54.5q0 74 157 123q122 38 220 38q184 0 331 -93q169 -108 169 -282v-600zM925 375q0 71 -68 131q-57 50 -135 73q-68 21 -147 21q-232 0 -323 -142q-27 -42 -27 -83t27 -83
q91 -142 323 -142q79 0 147 21q78 23 135 73q68 60 68 131z" />
    <glyph glyph-name="acircumflex" unicode="&#xe2;" 
d="M876 1277q0 -30 -22.5 -54t-52.5 -24q-22 0 -43 14l-183 122l-183 -122q-21 -14 -43 -14q-30 0 -52.5 24t-22.5 54q0 37 34 60l219 146q27 18 48 18t48 -18l219 -146q34 -23 34 -60zM1075 75q0 -75 -75 -75q-77 0 -75 106q-148 -106 -350 -106q-185 0 -331 93
q-169 108 -169 282t169 282q147 93 331 93q202 0 350 -106v31q0 44 -31 89q-92 136 -319 136q-130 0 -257 -74q-26 -15 -45 -15q-30 0 -52.5 23.5t-22.5 54.5q0 74 157 123q122 38 220 38q184 0 331 -93q169 -108 169 -282v-600zM925 375q0 71 -68 131q-57 50 -135 73
q-68 21 -147 21q-232 0 -323 -142q-27 -42 -27 -83t27 -83q91 -142 323 -142q79 0 147 21q78 23 135 73q68 60 68 131z" />
    <glyph glyph-name="atilde" unicode="&#xe3;" 
d="M951 1353q0 -24 -18 -54q-58 -99 -208 -99q-85 0 -176.5 75t-123.5 75q-51 0 -79 -24q-17 -51 -69 -51q-78 0 -78 72q0 24 18 54q58 99 208 99q85 0 176.5 -75t123.5 -75q61 0 86.5 37.5t61.5 37.5q78 0 78 -72zM1075 75q0 -75 -75 -75q-77 0 -75 106
q-148 -106 -350 -106q-185 0 -331 93q-169 108 -169 282t169 282q147 93 331 93q202 0 350 -106v31q0 44 -31 89q-92 136 -319 136q-130 0 -257 -74q-26 -15 -45 -15q-30 0 -52.5 23.5t-22.5 54.5q0 74 157 123q122 38 220 38q184 0 331 -93q169 -108 169 -282v-600z
M925 375q0 71 -68 131q-57 50 -135 73q-68 21 -147 21q-232 0 -323 -142q-27 -42 -27 -83t27 -83q91 -142 323 -142q79 0 147 21q78 23 135 73q68 60 68 131z" />
    <glyph glyph-name="adieresis" unicode="&#xe4;" 
d="M913 1313q0 -47 -33.5 -80t-79.5 -33q-47 0 -79.5 33t-32.5 80t32.5 79.5t79.5 32.5q46 0 79.5 -32.5t33.5 -79.5zM463 1313q0 -47 -33.5 -80t-79.5 -33q-47 0 -79.5 33t-32.5 80t32.5 79.5t79.5 32.5q46 0 79.5 -32.5t33.5 -79.5zM1075 75q0 -75 -75 -75q-77 0 -75 106
q-148 -106 -350 -106q-185 0 -331 93q-169 108 -169 282t169 282q147 93 331 93q202 0 350 -106v31q0 44 -31 89q-92 136 -319 136q-130 0 -257 -74q-26 -15 -45 -15q-30 0 -52.5 23.5t-22.5 54.5q0 74 157 123q122 38 220 38q184 0 331 -93q169 -108 169 -282v-600z
M925 375q0 71 -68 131q-57 50 -135 73q-68 21 -147 21q-232 0 -323 -142q-27 -42 -27 -83t27 -83q91 -142 323 -142q79 0 147 21q78 23 135 73q68 60 68 131z" />
    <glyph glyph-name="aring" unicode="&#xe5;" 
d="M793 1311q0 -90 -64 -152t-154 -62t-153.5 62t-63.5 152q0 89 63.5 153t153.5 64t154 -64t64 -153zM1075 75q0 -75 -75 -75q-77 0 -75 106q-148 -106 -350 -106q-185 0 -331 93q-169 108 -169 282t169 282q147 93 331 93q202 0 350 -106v31q0 44 -31 89q-92 136 -319 136
q-130 0 -257 -74q-26 -15 -45 -15q-30 0 -52.5 23.5t-22.5 54.5q0 74 157 123q122 38 220 38q184 0 331 -93q169 -108 169 -282v-600zM643 1311q0 67 -68 67q-67 0 -67 -67q0 -64 67 -64q68 0 68 64zM925 375q0 71 -68 131q-57 50 -135 73q-68 21 -147 21q-232 0 -323 -142
q-27 -42 -27 -83t27 -83q91 -142 323 -142q79 0 147 21q78 23 135 73q68 60 68 131z" />
    <glyph glyph-name="ae" unicode="&#xe6;" 
d="M1126 758q0 -33 -21 -59q-57 -62 -169 -187q-68 -81 -214 -233q48 -129 119 -129q66 0 137 172q22 53 70 53q78 0 78 -72q0 -12 -4 -25q-33 -111 -99 -187q-80 -91 -182 -91q-140 0 -225 151q-88 -151 -241 -151q-136 0 -223 123q-77 110 -77 252t77 252q87 123 223 123
q82 0 149 -48q-5 70 -42 128q-44 70 -107 70q-45 0 -86.5 -44.5t-70.5 -44.5q-31 0 -55 22.5t-24 52.5q0 21 17 46q78 118 219 118q153 0 241 -151q88 151 225 151q90 0 187.5 -101t97.5 -191zM964 768q-53 132 -123 132q-28 0 -61 -33q-105 -105 -105 -342q0 -28 4 -64z
M525 375q0 77 -36 144q-44 81 -114 81t-114 -81q-36 -67 -36 -144t36 -144q44 -81 114 -81t114 81q36 67 36 144z" />
    <glyph glyph-name="ccedilla" unicode="&#xe7;" 
d="M1126 845q0 -31 -23 -54.5t-53 -23.5q-21 0 -49 19q-162 114 -324 114q-172 0 -306 -100q-146 -109 -146 -275t146 -275q134 -100 306 -100q162 0 324 113q27 19 48 19q31 0 54 -23.5t23 -53.5q0 -86 -217 -165q68 -83 68 -190q0 -124 -88 -212t-212 -88q-177 0 -260 151
q-11 20 -11 39q0 30 24 52t55 22q30 0 77.5 -57t114.5 -57q62 0 106 44t44 106t-44 106t-106 44q-235 0 -412 143q-190 152 -190 382t190 382q177 143 412 143q110 0 225 -38q129 -42 197 -112q27 -28 27 -55z" />
    <glyph glyph-name="egrave" unicode="&#xe8;" 
d="M858 1277q0 -30 -21.5 -54t-51.5 -24q-18 0 -36 9l-300 150q-42 21 -42 65q0 30 21.5 54t51.5 24q18 0 36 -9l300 -150q42 -21 42 -65zM1126 301q0 -19 -12 -41q-69 -120 -207 -191q-131 -69 -275 -69q-225 0 -388 149q-169 153 -169 376t169 376q163 149 388 149
q82 0 171 -29q100 -33 199 -105q123 -90 123 -171q0 -40 -39 -61l-758 -408q123 -126 304 -126q193 0 312 134q14 18 42.5 55t61.5 37q30 0 54 -22t24 -53zM937 774q-122 126 -305 126q-162 0 -282 -105q-125 -110 -125 -270q0 -64 22 -122z" />
    <glyph glyph-name="eacute" unicode="&#xe9;" 
d="M858 1423q0 -44 -42 -65l-300 -150q-18 -9 -36 -9q-30 0 -51.5 24t-21.5 54q0 44 42 65l300 150q18 9 36 9q30 0 51.5 -24t21.5 -54zM1126 301q0 -19 -12 -41q-69 -120 -207 -191q-131 -69 -275 -69q-225 0 -388 149q-169 153 -169 376t169 376q163 149 388 149
q82 0 171 -29q100 -33 199 -105q123 -90 123 -171q0 -40 -39 -61l-758 -408q123 -126 304 -126q193 0 312 134q14 18 42.5 55t61.5 37q30 0 54 -22t24 -53zM937 774q-122 126 -305 126q-162 0 -282 -105q-125 -110 -125 -270q0 -64 22 -122z" />
    <glyph glyph-name="ecircumflex" unicode="&#xea;" 
d="M933 1277q0 -30 -22 -54t-52 -24q-22 0 -43 14l-184 122l-183 -122q-21 -14 -43 -14q-30 0 -52.5 24t-22.5 54q0 37 35 60l219 146q27 18 47 18q21 0 48 -18l219 -146q34 -23 34 -60zM1126 301q0 -19 -12 -41q-69 -120 -207 -191q-131 -69 -275 -69q-225 0 -388 149
q-169 153 -169 376t169 376q163 149 388 149q82 0 171 -29q100 -33 199 -105q123 -90 123 -171q0 -40 -39 -61l-758 -408q123 -126 304 -126q193 0 312 134q14 18 42.5 55t61.5 37q30 0 54 -22t24 -53zM937 774q-122 126 -305 126q-162 0 -282 -105q-125 -110 -125 -270
q0 -64 22 -122z" />
    <glyph glyph-name="edieresis" unicode="&#xeb;" 
d="M970 1313q0 -47 -33.5 -80t-79.5 -33q-47 0 -79.5 33t-32.5 80t32.5 79.5t79.5 32.5t80 -32.5t33 -79.5zM520 1313q0 -47 -33.5 -80t-79.5 -33q-47 0 -79.5 33t-32.5 80t32.5 79.5t79.5 32.5t80 -32.5t33 -79.5zM1126 301q0 -19 -12 -41q-69 -120 -207 -191
q-131 -69 -275 -69q-225 0 -388 149q-169 153 -169 376t169 376q163 149 388 149q82 0 171 -29q100 -33 199 -105q123 -90 123 -171q0 -40 -39 -61l-758 -408q123 -126 304 -126q193 0 312 134q14 18 42.5 55t61.5 37q30 0 54 -22t24 -53zM937 774q-122 126 -305 126
q-162 0 -282 -105q-125 -110 -125 -270q0 -64 22 -122z" />
    <glyph glyph-name="igrave" unicode="&#xec;" 
d="M826 1277q0 -30 -21.5 -54t-52.5 -24q-18 0 -36 9l-300 150q-42 21 -42 65q0 30 21.5 54t52.5 24q18 0 36 -9l300 -150q42 -21 42 -65zM975 75q0 -75 -75 -75h-300q-75 0 -75 75v825h-225q-75 0 -75 75t75 75h301q74 0 74 -75v-825h225q75 0 75 -75z" />
    <glyph glyph-name="iacute" unicode="&#xed;" 
d="M826 1423q0 -44 -42 -65l-300 -150q-18 -9 -36 -9q-31 0 -52.5 24t-21.5 54q0 44 42 65l300 150q18 9 36 9q31 0 52.5 -24t21.5 -54zM975 75q0 -75 -75 -75h-300q-75 0 -75 75v825h-225q-75 0 -75 75t75 75h301q74 0 74 -75v-825h225q75 0 75 -75z" />
    <glyph glyph-name="icircumflex" unicode="&#xee;" 
d="M901 1277q0 -30 -22.5 -54t-52.5 -24q-22 0 -43 14l-183 122l-183 -122q-21 -14 -43 -14q-30 0 -52.5 24t-22.5 54q0 37 34 60l219 146q27 18 48 18t48 -18l219 -146q34 -23 34 -60zM975 75q0 -75 -75 -75h-300q-75 0 -75 75v825h-225q-75 0 -75 75t75 75h301
q74 0 74 -75v-825h225q75 0 75 -75z" />
    <glyph glyph-name="idieresis" unicode="&#xef;" 
d="M938 1313q0 -47 -33.5 -80t-80.5 -33q-46 0 -78.5 33t-32.5 80t32.5 79.5t78.5 32.5q47 0 80.5 -32.5t33.5 -79.5zM488 1313q0 -47 -33.5 -80t-80.5 -33q-46 0 -78.5 33t-32.5 80t32.5 79.5t78.5 32.5q48 0 81 -32.5t33 -79.5zM975 75q0 -75 -75 -75h-300q-76 0 -76 75
l1 825h-225q-75 0 -75 75t75 75h300q75 0 75 -84v-816h225q75 0 75 -75z" />
    <glyph glyph-name="eth" unicode="&#xf0;" 
d="M1125 525q0 -217 -154 -371t-371 -154t-371 154t-154 371q0 218 157 374.5t375 150.5l-151 150h-231q-75 0 -75 75q0 58 55 71q19 5 101 4q-45 40 -45 74q0 31 23 54t54 23q29 0 52 -23l128 -128h457q75 0 75 -75t-75 -75h-306l309 -309q147 -147 147 -366zM975 525
q0 155 -110 265t-265 110t-265 -110t-110 -265t110 -265t265 -110t265 110t110 265z" />
    <glyph glyph-name="ntilde" unicode="&#xf1;" 
d="M1001 1353q0 -24 -18 -54q-58 -99 -208 -99q-85 0 -176.5 75t-123.5 75q-51 0 -79 -24q-17 -51 -69 -51q-78 0 -78 72q0 24 18 54q58 99 208 99q85 0 176.5 -75t123.5 -75q61 0 86.5 37.5t61.5 37.5q78 0 78 -72zM1075 75q0 -75 -75 -75t-75 75v525q0 124 -88 212
t-212 88t-212 -88t-88 -212v-525q0 -75 -75 -75t-75 75v900q0 75 75 75q76 0 75 -115q128 115 300 115q186 0 318 -132t132 -318v-525z" />
    <glyph glyph-name="ograve" unicode="&#xf2;" 
d="M826 1277q0 -30 -21.5 -54t-52.5 -24q-18 0 -36 9l-300 150q-42 21 -42 65q0 30 21.5 54t52.5 24q18 0 36 -9l300 -150q42 -21 42 -65zM1125 525q0 -217 -154 -371t-371 -154t-371 154t-154 371t154 371t371 154t371 -154t154 -371zM975 525q0 155 -110 265t-265 110
t-265 -110t-110 -265t110 -265t265 -110t265 110t110 265z" />
    <glyph glyph-name="oacute" unicode="&#xf3;" 
d="M826 1423q0 -44 -42 -65l-300 -150q-18 -9 -36 -9q-31 0 -52.5 24t-21.5 54q0 44 42 65l300 150q18 9 36 9q31 0 52.5 -24t21.5 -54zM1125 525q0 -217 -154 -371t-371 -154t-371 154t-154 371t154 371t371 154t371 -154t154 -371zM975 525q0 155 -110 265t-265 110
t-265 -110t-110 -265t110 -265t265 -110t265 110t110 265z" />
    <glyph glyph-name="ocircumflex" unicode="&#xf4;" 
d="M901 1277q0 -30 -22.5 -54t-52.5 -24q-22 0 -43 14l-183 122l-183 -122q-21 -14 -43 -14q-30 0 -52.5 24t-22.5 54q0 37 34 60l219 146q27 18 48 18t48 -18l219 -146q34 -23 34 -60zM1125 525q0 -217 -154 -371t-371 -154t-371 154t-154 371t154 371t371 154t371 -154
t154 -371zM975 525q0 155 -110 265t-265 110t-265 -110t-110 -265t110 -265t265 -110t265 110t110 265z" />
    <glyph glyph-name="otilde" unicode="&#xf5;" 
d="M976 1353q0 -24 -18 -54q-58 -99 -208 -99q-85 0 -176.5 75t-123.5 75q-51 0 -79 -24q-17 -51 -69 -51q-78 0 -78 72q0 24 18 54q58 99 208 99q85 0 176.5 -75t123.5 -75q61 0 86.5 37.5t61.5 37.5q78 0 78 -72zM1125 525q0 -217 -154 -371t-371 -154t-371 154t-154 371
t154 371t371 154t371 -154t154 -371zM975 525q0 155 -110 265t-265 110t-265 -110t-110 -265t110 -265t265 -110t265 110t110 265z" />
    <glyph glyph-name="odieresis" unicode="&#xf6;" 
d="M938 1313q0 -47 -33 -80t-80 -33t-79.5 33t-32.5 80t32.5 79.5t79.5 32.5t80 -32.5t33 -79.5zM488 1313q0 -47 -33 -80t-80 -33t-79.5 33t-32.5 80t32.5 79.5t79.5 32.5t80 -32.5t33 -79.5zM1125 525q0 -217 -154 -371t-371 -154t-371 154t-154 371t154 371t371 154
t371 -154t154 -371zM975 525q0 155 -110 265t-265 110t-265 -110t-110 -265t110 -265t265 -110t265 110t110 265z" />
    <glyph glyph-name="divide" unicode="&#xf7;" 
d="M714 1052q0 -47 -33.5 -80.5t-80.5 -33.5t-80.5 33.5t-33.5 80.5q0 46 33.5 78.5t80.5 32.5t80.5 -32.5t33.5 -78.5zM975 638q0 -75 -75 -75h-600q-75 0 -75 75t75 75h600q75 0 75 -75zM714 227q0 -47 -33.5 -80.5t-80.5 -33.5t-80.5 33.5t-33.5 80.5q0 46 33.5 78.5
t80.5 32.5t80.5 -32.5t33.5 -78.5z" />
    <glyph glyph-name="oslash" unicode="&#xf8;" 
d="M1126 974q0 -32 -106 -135q105 -139 105 -314q0 -217 -154 -371t-371 -154q-175 0 -314 105q-103 -106 -135 -106q-31 0 -54 23t-23 54q0 32 106 135q-105 139 -105 314q0 217 154 371t371 154q175 0 314 -105q103 106 135 106q31 0 54 -23t23 -54zM807 838
q-94 62 -207 62q-155 0 -265 -110t-110 -265q0 -113 62 -207zM975 525q0 113 -62 207l-520 -520q94 -62 207 -62q155 0 265 110t110 265z" />
    <glyph glyph-name="ugrave" unicode="&#xf9;" 
d="M826 1277q0 -30 -21.5 -54t-52.5 -24q-18 0 -36 9l-300 150q-42 21 -42 65q0 30 21.5 54t52.5 24q18 0 36 -9l300 -150q42 -21 42 -65zM1075 475q0 -197 -139 -336t-336 -139t-336 139t-139 336v500q0 75 75 75t75 -75v-500q0 -134 95.5 -229.5t229.5 -95.5t229.5 95.5
t95.5 229.5v500q0 75 75 75t75 -75v-500z" />
    <glyph glyph-name="uacute" unicode="&#xfa;" 
d="M826 1423q0 -44 -42 -65l-300 -150q-18 -9 -36 -9q-31 0 -52.5 24t-21.5 54q0 44 42 65l300 150q18 9 36 9q31 0 52.5 -24t21.5 -54zM1075 475q0 -197 -139 -336t-336 -139t-336 139t-139 336v500q0 75 75 75t75 -75v-500q0 -134 95.5 -229.5t229.5 -95.5t229.5 95.5
t95.5 229.5v500q0 75 75 75t75 -75v-500z" />
    <glyph glyph-name="ucircumflex" unicode="&#xfb;" 
d="M901 1277q0 -30 -22.5 -54t-52.5 -24q-22 0 -43 14l-183 122l-183 -122q-21 -14 -43 -14q-30 0 -52.5 24t-22.5 54q0 37 34 60l219 146q27 18 48 18t48 -18l219 -146q34 -23 34 -60zM1075 475q0 -197 -139 -336t-336 -139t-336 139t-139 336v500q0 75 75 75t75 -75v-500
q0 -134 95.5 -229.5t229.5 -95.5t229.5 95.5t95.5 229.5v500q0 75 75 75t75 -75v-500z" />
    <glyph glyph-name="udieresis" unicode="&#xfc;" 
d="M938 1313q0 -47 -33 -80t-80 -33t-79.5 33t-32.5 80t32.5 79.5t79.5 32.5t80 -32.5t33 -79.5zM488 1313q0 -47 -33 -80t-80 -33t-79.5 33t-32.5 80t32.5 79.5t79.5 32.5t80 -32.5t33 -79.5zM1075 475q0 -197 -139 -336t-336 -139t-336 139t-139 336v500q0 75 75 75
t75 -75v-500q0 -134 95.5 -229.5t229.5 -95.5t229.5 95.5t95.5 229.5v500q0 75 75 75t75 -75v-500z" />
    <glyph glyph-name="yacute" unicode="&#xfd;" 
d="M801 1423q0 -44 -42 -65l-300 -150q-18 -9 -36 -9q-31 0 -52.5 24t-21.5 54q0 44 42 65l300 150q18 9 36 9q31 0 52.5 -24t21.5 -54zM1025 975v-975q0 -186 -132 -318t-318 -132q-118 0 -224 60q-110 62 -165 163q-11 22 -11 40q0 30 24 52t54 22q34 0 63 -38
q112 -149 259 -149q124 0 212 88t88 212v115q-128 -115 -300 -115q-186 0 -318 132t-132 318v525q0 75 75 75t75 -75v-525q0 -124 88 -212t212 -88t212 88t88 211v526q0 75 75 75t75 -75z" />
    <glyph glyph-name="thorn" unicode="&#xfe;" 
d="M1125 525q0 -208 -132 -363q-138 -162 -343 -162q-189 0 -325 142v-517q0 -75 -75 -75t-75 75v1800q0 75 75 75t75 -75v-517q136 142 325 142q205 0 343 -162q132 -155 132 -363zM975 525q0 146 -88 256q-95 119 -237 119t-237 -119q-88 -110 -88 -256t88 -256
q95 -119 237 -119t237 119q88 110 88 256z" />
    <glyph glyph-name="ydieresis" unicode="&#xff;" 
d="M913 1300q0 -47 -33 -80t-80 -33t-79.5 33t-32.5 80t32.5 79.5t79.5 32.5t80 -32.5t33 -79.5zM463 1300q0 -47 -33 -80t-80 -33t-79.5 33t-32.5 80t32.5 79.5t79.5 32.5t80 -32.5t33 -79.5zM1025 975v-975q0 -186 -132 -318t-318 -132q-118 0 -224 60q-110 62 -165 163
q-11 22 -11 40q0 30 24 52t54 22q34 0 63 -38q112 -149 259 -149q124 0 212 88t88 212v115q-128 -115 -300 -115q-186 0 -318 132t-132 318v525q0 75 75 75t75 -75v-525q0 -124 88 -212t212 -88t212 88t88 211v526q0 75 75 75t75 -75z" />
    <glyph glyph-name="Amacron" unicode="&#x100;" 
d="M1125 1800q0 -75 -75 -75h-900q-75 0 -75 75t75 75h900q75 0 75 -75zM1126 72q0 -72 -78 -72q-52 0 -69 51l-133 399h-492l-133 -399q-17 -51 -69 -51q-78 0 -78 72q0 13 5 27l446 1338q21 63 75 63t75 -63l446 -1338q5 -14 5 -27zM796 600l-196 588l-196 -588h392z" />
    <glyph glyph-name="amacron" unicode="&#x101;" 
d="M1075 1350q0 -75 -75 -75h-850q-75 0 -75 75t75 75h850q75 0 75 -75zM1075 75q0 -75 -75 -75q-77 0 -75 106q-148 -106 -350 -106q-185 0 -331 93q-169 108 -169 282t169 282q147 93 331 93q202 0 350 -106v31q0 44 -31 89q-92 136 -319 136q-130 0 -257 -74
q-26 -15 -45 -15q-30 0 -52.5 23.5t-22.5 54.5q0 74 157 123q122 38 220 38q184 0 331 -93q169 -108 169 -282v-600zM925 375q0 71 -68 131q-57 50 -135 73q-68 21 -147 21q-232 0 -323 -142q-27 -42 -27 -83t27 -83q91 -142 323 -142q79 0 147 21q78 23 135 73
q68 60 68 131z" />
    <glyph glyph-name="Abreve" unicode="&#x102;" 
d="M903 1875q0 -27 -43 -74q-138 -151 -260 -151q-71 0 -158 59q-77 53 -126 119q-17 25 -17 47q0 31 23.5 53.5t54.5 22.5q29 0 102 -75.5t121 -75.5t121 75.5t102 75.5q31 0 55.5 -22.5t24.5 -53.5zM1126 72q0 -72 -78 -72q-52 0 -69 51l-133 399h-492l-133 -399
q-17 -51 -69 -51q-78 0 -78 72q0 13 5 27l446 1338q21 63 75 63t75 -63l446 -1338q5 -14 5 -27zM796 600l-196 588l-196 -588h392z" />
    <glyph glyph-name="abreve" unicode="&#x103;" 
d="M878 1425q0 -28 -43 -74q-137 -149 -266 -149q-152 0 -278 176q-17 25 -17 47q0 31 23.5 53.5t54.5 22.5t97.5 -74.5t124.5 -74.5q59 0 126 74.5t98 74.5t55.5 -22.5t24.5 -53.5zM1075 75q0 -75 -75 -75q-77 0 -75 106q-148 -106 -350 -106q-185 0 -331 93
q-169 108 -169 282t169 282q147 93 331 93q202 0 350 -106v31q0 44 -31 89q-92 136 -319 136q-130 0 -257 -74q-26 -15 -45 -15q-30 0 -52.5 23.5t-22.5 54.5q0 74 157 123q122 38 220 38q184 0 331 -93q169 -108 169 -282v-600zM925 375q0 71 -68 131q-57 50 -135 73
q-68 21 -147 21q-232 0 -323 -142q-27 -42 -27 -83t27 -83q91 -142 323 -142q79 0 147 21q78 23 135 73q68 60 68 131z" />
    <glyph glyph-name="Aogonek" unicode="&#x104;" 
d="M1126 68q0 -68 -76 -68q-62 0 -106 -44t-44 -106t44 -106t106 -44q75 0 75 -75t-75 -75q-124 0 -212 88t-88 212q0 95 55.5 173.5t145.5 109.5l-105 317h-492l-133 -399q-17 -51 -69 -51q-78 0 -78 72q0 27 342 1041q34 109 109 324q25 63 75 63q51 0 75 -63
q0 -1 110 -326q341 -1012 341 -1043zM796 600l-196 588l-196 -588h392z" />
    <glyph glyph-name="aogonek" unicode="&#x105;" 
d="M1138 -386q0 -64 -140 -64q-124 0 -212 88t-88 212q0 97 56 175q-88 -25 -179 -25q-185 0 -331 93q-169 108 -169 282t169 282q147 93 331 93q202 0 350 -106v31q0 44 -31 89q-93 136 -319 136q-130 0 -257 -74q-26 -15 -45 -15q-30 0 -52.5 23.5t-22.5 54.5t33 59
q118 102 344 102q185 0 331 -93q169 -108 169 -282v-320q0 -46 -1 -140t-1 -140q0 -30 -23 -52.5t-52 -22.5q-62 0 -106 -44t-44 -106t44 -106t106 -44q42 0 87 -22q53 -26 53 -64zM925 375q0 107 -127 172q-105 53 -223 53q-218 0 -315 -130q-35 -47 -35 -95t35 -95
q97 -130 315 -130q118 0 223 53q127 65 127 172zM924 390q2 -16 0 -31v31z" />
    <glyph glyph-name="Cacute" unicode="&#x106;" 
d="M903 1873q0 -44 -42 -65l-300 -150q-18 -9 -36 -9q-30 0 -51.5 24t-21.5 54q0 44 42 65l300 150q18 9 36 9q30 0 51.5 -24t21.5 -54zM1126 273q0 -22 -17 -47q-70 -100 -189.5 -163t-242.5 -63q-271 0 -446 246q-156 221 -156 504t156 504q175 246 446 246
q123 0 242.5 -63t189.5 -163q17 -25 17 -47q0 -30 -23.5 -53t-54.5 -23q-19 0 -45.5 18.5t-31.5 35.5q0 2 -21 23q-122 122 -273 122q-139 0 -255 -107q-103 -94 -154 -237q-43 -120 -43 -256t43 -256q51 -143 153 -237q116 -107 256 -107q150 0 273 122q9 7 21 22
q1 15 30 35t47 20q31 0 54.5 -23t23.5 -53z" />
    <glyph glyph-name="cacute" unicode="&#x107;" 
d="M903 1423q0 -44 -42 -65l-300 -150q-18 -9 -36 -9q-30 0 -51.5 24t-21.5 54q0 44 42 65l300 150q18 9 36 9q30 0 51.5 -24t21.5 -54zM1126 845q0 -31 -23 -54.5t-53 -23.5q-21 0 -49 19q-161 114 -324 114q-172 0 -306 -100q-146 -109 -146 -275t147 -275
q133 -100 305 -100q162 0 324 113q27 19 48 19q31 0 54 -23.5t23 -53.5q0 -29 -28 -56q-70 -70 -196 -111q-115 -38 -225 -38q-235 0 -412 143q-190 152 -190 382t190 382q177 143 412 143q110 0 225 -38q127 -42 197 -112q27 -27 27 -55z" />
    <glyph glyph-name="Ccircumflex" unicode="&#x108;" 
d="M978 1727q0 -30 -22 -54t-53 -24q-21 0 -42 14l-184 122l-183 -122q-21 -14 -43 -14q-30 0 -52.5 24t-22.5 54q0 37 35 60l219 146q27 18 47 18q21 0 48 -18l219 -146q34 -23 34 -60zM1126 273q0 -22 -17 -47q-70 -100 -189.5 -163t-242.5 -63q-271 0 -446 246
q-156 221 -156 504t156 504q175 246 446 246q123 0 242.5 -63t189.5 -163q17 -25 17 -47q0 -30 -23.5 -53t-54.5 -23q-19 0 -45.5 18.5t-31.5 35.5q0 2 -21 23q-122 122 -273 122q-139 0 -255 -107q-103 -94 -154 -237q-43 -120 -43 -256t43 -256q51 -143 153 -237
q116 -107 256 -107q150 0 273 122q9 7 21 22q1 15 30 35t47 20q31 0 54.5 -23t23.5 -53z" />
    <glyph glyph-name="ccircumflex" unicode="&#x109;" 
d="M978 1277q0 -30 -22 -54t-53 -24q-21 0 -42 14l-184 122l-183 -122q-21 -14 -43 -14q-30 0 -52.5 24t-22.5 54q0 37 35 60l219 146q27 18 47 18q21 0 48 -18l219 -146q34 -23 34 -60zM1126 845q0 -31 -23 -54.5t-53 -23.5q-21 0 -49 19q-161 114 -324 114
q-172 0 -306 -100q-146 -109 -146 -275t147 -275q133 -100 305 -100q162 0 324 113q27 19 48 19q31 0 54 -23.5t23 -53.5q0 -29 -28 -56q-70 -70 -196 -111q-115 -38 -225 -38q-235 0 -412 143q-190 152 -190 382t190 382q177 143 412 143q110 0 225 -38q127 -42 197 -112
q27 -27 27 -55z" />
    <glyph glyph-name="Cdot" unicode="&#x10a;" 
d="M790 1763q0 -47 -33 -80t-80 -33q-46 0 -79 33t-33 80t32.5 79.5t79.5 32.5t80 -32.5t33 -79.5zM1126 273q0 -22 -17 -47q-70 -100 -189.5 -163t-242.5 -63q-271 0 -446 246q-156 221 -156 504t156 504q175 246 446 246q123 0 242.5 -63t189.5 -163q17 -25 17 -47
q0 -30 -23.5 -53t-54.5 -23q-19 0 -45.5 18.5t-31.5 35.5q0 2 -21 23q-122 122 -273 122q-139 0 -255 -107q-103 -94 -154 -237q-43 -120 -43 -256t43 -256q51 -143 153 -237q116 -107 256 -107q150 0 273 122q9 7 21 22q1 15 30 35t47 20q31 0 54.5 -23t23.5 -53z" />
    <glyph glyph-name="cdot" unicode="&#x10b;" 
d="M791 1386q0 -47 -33.5 -79t-80.5 -32t-80.5 32t-33.5 79t34 80.5t80 33.5q47 0 80.5 -33.5t33.5 -80.5zM1126 845q0 -31 -23 -54.5t-53 -23.5q-21 0 -49 19q-161 114 -324 114q-172 0 -306 -100q-146 -109 -146 -275t147 -275q133 -100 305 -100q162 0 324 113
q27 19 48 19q31 0 54 -23.5t23 -53.5q0 -29 -28 -56q-70 -70 -196 -111q-115 -38 -225 -38q-235 0 -412 143q-190 152 -190 382t190 382q177 143 412 143q110 0 225 -38q127 -42 197 -112q27 -27 27 -55z" />
    <glyph glyph-name="Ccaron" unicode="&#x10c;" 
d="M978 1873q0 -37 -34 -60l-219 -146q-27 -18 -48 -18q-20 0 -47 18l-219 146q-35 23 -35 60q0 30 22.5 54t52.5 24q22 0 43 -14l183 -122l184 122q21 14 42 14q31 0 53 -24t22 -54zM1126 273q0 -22 -17 -47q-70 -100 -189.5 -163t-242.5 -63q-271 0 -446 246
q-156 221 -156 504t156 504q175 246 446 246q123 0 242.5 -63t189.5 -163q17 -25 17 -47q0 -30 -23.5 -53t-54.5 -23q-19 0 -45.5 18.5t-31.5 35.5q0 2 -21 23q-122 122 -273 122q-139 0 -255 -107q-103 -94 -154 -237q-43 -120 -43 -256t43 -256q51 -143 153 -237
q116 -107 256 -107q150 0 273 122q9 7 21 22q1 15 30 35t47 20q31 0 54.5 -23t23.5 -53z" />
    <glyph glyph-name="ccaron" unicode="&#x10d;" 
d="M978 1423q0 -35 -34 -60q-215 -160 -267 -160q-51 0 -266 160q-35 25 -35 60q0 30 22.5 54t52.5 24q22 0 43 -14l183 -122l184 122q21 14 42 14q31 0 53 -24t22 -54zM1126 845q0 -31 -23 -54.5t-53 -23.5q-21 0 -49 19q-161 114 -324 114q-172 0 -306 -100
q-146 -109 -146 -275t147 -275q133 -100 305 -100q162 0 324 113q27 19 48 19q31 0 54 -23.5t23 -53.5q0 -29 -28 -56q-70 -70 -196 -111q-115 -38 -225 -38q-235 0 -412 143q-190 152 -190 382t190 382q177 143 412 143q110 0 225 -38q127 -42 197 -112q27 -27 27 -55z" />
    <glyph glyph-name="Dcaron" unicode="&#x10e;" 
d="M776 1873q0 -37 -34 -60l-219 -146q-27 -18 -48 -18t-48 18l-219 146q-34 23 -34 60q0 30 22.5 54t52.5 24q22 0 43 -14l183 -122l183 122q21 14 43 14q30 0 52.5 -24t22.5 -54zM1125 750q0 -310 -220 -530t-530 -220h-125q-30 0 -52.5 22.5t-22.5 52.5v1350
q0 30 22.5 52.5t52.5 22.5h125q310 0 530 -220t220 -530zM975 750q0 248 -176 424t-424 176h-50v-1200h50q248 0 424 176t176 424z" />
    <glyph glyph-name="dcaron" unicode="&#x10f;" 
d="M851 1873q0 -37 -34 -60l-219 -146q-27 -18 -48 -18t-48 18l-219 146q-34 23 -34 60q0 30 22.5 54t52.5 24q22 0 43 -14l183 -122l183 122q21 14 43 14q30 0 52.5 -24t22.5 -54zM1025 75q0 -75 -75 -75q-55 0 -69 48q-6 21 -6 94q-136 -142 -325 -142q-205 0 -343 162
q-132 155 -132 363t132 363q138 162 343 162q189 0 325 -142v517q0 75 75 75t75 -75v-1350zM875 525q0 146 -88 256q-95 119 -237 119t-237 -119q-88 -110 -88 -256t88 -256q95 -119 237 -119t237 119q88 110 88 256z" />
    <glyph glyph-name="Dslash" unicode="&#x110;" 
d="M1125 750q0 -310 -220 -530t-530 -220q-30 0 -52.5 22.5t-22.5 52.5v600h-150q-75 0 -75 75t75 75h150v600q0 30 22.5 52.5t52.5 22.5q310 0 530 -220t220 -530zM975 750q0 226 -150 396.5t-375 198.5v-520h150q75 0 75 -75t-75 -75h-150v-520q225 28 375 198.5
t150 396.5z" />
    <glyph glyph-name="dcroat" unicode="&#x111;" 
d="M1125 1200q0 -76 -100 -75v-1050q0 -75 -75 -75q-55 0 -69 48q-6 21 -6 94q-136 -142 -325 -142q-205 0 -343 162q-132 155 -132 363t132 363q138 162 343 162q189 0 325 -142v217h-325q-75 0 -75 75t75 75h325v150q0 75 75 75t75 -75v-150q100 1 100 -75zM875 525
q0 146 -88 256q-95 119 -237 119t-237 -119q-88 -110 -88 -256t88 -256q95 -119 237 -119t237 119q88 110 88 256z" />
    <glyph glyph-name="Emacron" unicode="&#x112;" 
d="M1125 1800q0 -75 -75 -75h-800q-75 0 -75 75t75 75h800q75 0 75 -75zM1125 75q0 -75 -75 -75h-800q-30 0 -52.5 22.5t-22.5 52.5v1350q0 30 22.5 52.5t52.5 22.5h800q75 0 75 -75t-75 -75h-725v-525h725q75 0 75 -75t-75 -75h-725v-525h725q75 0 75 -75z" />
    <glyph glyph-name="emacron" unicode="&#x113;" 
d="M1125 1350q0 -75 -75 -75h-900q-75 0 -75 75t75 75h900q75 0 75 -75zM1126 301q0 -19 -12 -41q-69 -120 -207 -191q-131 -69 -275 -69q-225 0 -388 149q-169 153 -169 376t169 376q163 149 388 149q82 0 171 -29q100 -33 199 -105q123 -90 123 -171q0 -40 -39 -61
l-758 -408q123 -126 304 -126q193 0 312 134q14 18 42.5 55t61.5 37q30 0 54 -22t24 -53zM937 774q-122 126 -305 126q-162 0 -282 -105q-125 -110 -125 -270q0 -64 22 -122z" />
    <glyph glyph-name="Ebreve" unicode="&#x114;" 
d="M953 1875q0 -27 -43 -74q-138 -151 -260 -151q-71 0 -158 59q-77 53 -126 119q-17 25 -17 47q0 31 23.5 53.5t54.5 22.5q29 0 102 -75.5t121 -75.5t121 75.5t102 75.5q31 0 55.5 -22.5t24.5 -53.5zM1125 75q0 -75 -75 -75h-800q-30 0 -52.5 22.5t-22.5 52.5v1350
q0 30 22.5 52.5t52.5 22.5h800q75 0 75 -75t-75 -75h-725v-525h725q75 0 75 -75t-75 -75h-725v-525h725q75 0 75 -75z" />
    <glyph glyph-name="ebreve" unicode="&#x115;" 
d="M935 1425q0 -28 -43 -74q-137 -149 -265 -149q-153 0 -279 176q-17 25 -17 47q0 31 23.5 53.5t54.5 22.5t97.5 -74.5t125.5 -74.5q58 0 125 74.5t98 74.5t55.5 -22.5t24.5 -53.5zM1126 301q0 -19 -12 -41q-69 -120 -207 -191q-131 -69 -275 -69q-225 0 -388 149
q-169 153 -169 376t169 376q163 149 388 149q82 0 171 -29q100 -33 199 -105q123 -90 123 -171q0 -40 -39 -61l-758 -408q123 -126 304 -126q193 0 312 134q14 18 42.5 55t61.5 37q30 0 54 -22t24 -53zM937 774q-122 126 -305 126q-162 0 -282 -105q-125 -110 -125 -270
q0 -64 22 -122z" />
    <glyph glyph-name="Edot" unicode="&#x116;" 
d="M763 1763q0 -47 -33 -80t-80 -33t-79.5 33t-32.5 80t32.5 79.5t79.5 32.5t80 -32.5t33 -79.5zM1125 75q0 -75 -75 -75h-800q-30 0 -52.5 22.5t-22.5 52.5v1350q0 30 22.5 52.5t52.5 22.5h800q75 0 75 -75t-75 -75h-725v-525h725q75 0 75 -75t-75 -75h-725v-525h725
q75 0 75 -75z" />
    <glyph glyph-name="edot" unicode="&#x117;" 
d="M746 1386q0 -47 -33.5 -79t-80.5 -32t-80.5 32t-33.5 79t34 80.5t80 33.5q47 0 80.5 -33.5t33.5 -80.5zM1126 301q0 -19 -12 -41q-69 -120 -207 -191q-131 -69 -275 -69q-225 0 -388 149q-169 153 -169 376t169 376q163 149 388 149q82 0 171 -29q100 -33 199 -105
q123 -90 123 -171q0 -40 -39 -61l-758 -408q123 -126 304 -126q193 0 312 134q14 18 42.5 55t61.5 37q30 0 54 -22t24 -53zM937 774q-122 126 -305 126q-162 0 -282 -105q-125 -110 -125 -270q0 -64 22 -122z" />
    <glyph glyph-name="Eogonek" unicode="&#x118;" 
d="M1128 75q0 -75 -78 -75q-62 0 -106 -44t-44 -106t44 -106t106 -44q75 0 75 -75t-75 -75q-124 0 -212 88t-88 212q0 81 40 150h-540q-30 0 -52.5 22.5t-22.5 52.5v1350q0 30 22.5 52.5t52.5 22.5h800q75 0 75 -75t-75 -75h-725v-525h725q75 0 75 -75t-75 -75h-725v-525
h725q78 0 78 -75z" />
    <glyph glyph-name="eogonek" unicode="&#x119;" 
d="M1126 301q0 -18 -12 -41q-68 -120 -207 -192q-133 -68 -277 -68q-62 0 -106 -44t-44 -106t44 -106t106 -44q68 0 115.5 57t77.5 57t54 -22t24 -52q0 -19 -11 -39q-81 -151 -260 -151q-124 0 -212 88t-88 212q0 112 73 196q-147 63 -236 191q-92 131 -92 288
q0 223 169 376q163 149 388 149q88 0 184.5 -34t190.5 -104q118 -89 118 -167q0 -40 -39 -61l-758 -408q123 -126 304 -126q192 0 313 134q13 19 41 55.5t62 36.5q30 0 54 -22t24 -53zM937 774q-122 126 -305 126q-162 0 -282 -105q-125 -110 -125 -270q0 -64 22 -122z" />
    <glyph glyph-name="Ecaron" unicode="&#x11a;" 
d="M951 1873q0 -37 -34 -60l-219 -146q-27 -18 -48 -18t-48 18l-219 146q-34 23 -34 60q0 30 22.5 54t52.5 24q22 0 43 -14l183 -122l183 122q21 14 43 14q30 0 52.5 -24t22.5 -54zM1125 75q0 -75 -75 -75h-800q-30 0 -52.5 22.5t-22.5 52.5v1350q0 30 22.5 52.5t52.5 22.5
h800q75 0 75 -75t-75 -75h-725v-525h725q75 0 75 -75t-75 -75h-725v-525h725q75 0 75 -75z" />
    <glyph glyph-name="ecaron" unicode="&#x11b;" 
d="M933 1423q0 -35 -34 -60q-215 -160 -267 -160q-51 0 -266 160q-35 25 -35 60q0 30 22.5 54t52.5 24q22 0 43 -14l183 -122l184 122q21 14 42 14q31 0 53 -24t22 -54zM1126 301q0 -19 -12 -41q-69 -120 -207 -191q-131 -69 -275 -69q-225 0 -388 149q-169 153 -169 376
t169 376q163 149 388 149q82 0 171 -29q100 -33 199 -105q123 -90 123 -171q0 -40 -39 -61l-758 -408q123 -126 304 -126q193 0 312 134q14 18 42.5 55t61.5 37q30 0 54 -22t24 -53zM937 774q-122 126 -305 126q-162 0 -282 -105q-125 -110 -125 -270q0 -64 22 -122z" />
    <glyph glyph-name="Gcircumflex" unicode="&#x11c;" 
d="M949 1727q0 -30 -22 -54t-53 -24q-22 0 -43 14l-183 122l-183 -122q-21 -14 -43 -14q-30 0 -52.5 24t-22.5 54q0 37 34 60l219 146q27 18 48 18t48 -18l219 -146q34 -23 34 -60zM1076 1227q0 -30 -23.5 -53t-54.5 -23q-30 0 -58 32q-13 16 -42 50q-114 117 -250 117
t-247 -115q-95 -98 -140 -242q-36 -114 -36 -243t36 -243q45 -144 140 -242q111 -115 247 -115q157 0 277 148v452q0 75 75 75t75 -75v-478q0 -103 -166 -193q-147 -79 -261 -79q-263 0 -428 252q-145 220 -145 498t145 498q165 252 428 252q119 0 233 -64q111 -63 179 -164
q16 -23 16 -45z" />
    <glyph glyph-name="gcircumflex" unicode="&#x11d;" 
d="M901 1277q0 -30 -22.5 -54t-52.5 -24q-22 0 -43 14l-183 122l-183 -122q-21 -14 -43 -14q-30 0 -52.5 24t-22.5 54q0 37 34 60l219 146q27 18 48 18t48 -18l219 -146q34 -23 34 -60zM1125 975q0 -61 -65 -73q-16 -3 -111 -2q86 -98 86 -225q0 -180 -161 -291
q251 -131 251 -384q0 -198 -167 -329q-154 -121 -358 -121t-358 121q-167 131 -167 329q0 75 75 75t75 -75q0 -135 124 -222q111 -78 251 -78t251 78q124 87 124 222t-124 222q-111 78 -251 78q-169 0 -297 101q-138 109 -138 274t138 274q128 101 297 101h450q75 0 75 -75z
M885 675q0 101 -95 167q-84 58 -190 58t-190 -58q-95 -66 -95 -167t95 -167q84 -58 190 -58t190 58q95 66 95 167z" />
    <glyph glyph-name="Gbreve" unicode="&#x11e;" 
d="M951 1875q0 -27 -43 -74q-138 -151 -260 -151q-71 0 -158 59q-77 53 -126 119q-17 25 -17 47q0 31 23.5 53.5t54.5 22.5q29 0 102 -75.5t121 -75.5t121 75.5t102 75.5q31 0 55.5 -22.5t24.5 -53.5zM1076 1227q0 -30 -23.5 -53t-54.5 -23q-30 0 -58 32q-13 16 -42 50
q-114 117 -250 117t-247 -115q-95 -98 -140 -242q-36 -114 -36 -243t36 -243q45 -144 140 -242q111 -115 247 -115q157 0 277 148v452q0 75 75 75t75 -75v-478q0 -103 -166 -193q-147 -79 -261 -79q-263 0 -428 252q-145 220 -145 498t145 498q165 252 428 252
q119 0 233 -64q111 -63 179 -164q16 -23 16 -45z" />
    <glyph glyph-name="gbreve" unicode="&#x11f;" 
d="M903 1425q0 -27 -43 -74q-138 -151 -260 -151q-71 0 -158 59q-77 53 -126 119q-17 25 -17 47q0 31 23.5 53.5t54.5 22.5q29 0 102 -75.5t121 -75.5t121 75.5t102 75.5q31 0 55.5 -22.5t24.5 -53.5zM1125 975q0 -61 -65 -73q-16 -3 -111 -2q86 -98 86 -225
q0 -180 -161 -291q251 -131 251 -384q0 -198 -167 -329q-154 -121 -358 -121t-358 121q-167 131 -167 329q0 75 75 75t75 -75q0 -135 124 -222q111 -78 251 -78t251 78q124 87 124 222t-124 222q-111 78 -251 78q-169 0 -297 101q-138 109 -138 274t138 274q128 101 297 101
h450q75 0 75 -75zM885 675q0 101 -95 167q-84 58 -190 58t-190 -58q-95 -66 -95 -167t95 -167q84 -58 190 -58t190 58q95 66 95 167z" />
    <glyph glyph-name="Gdot" unicode="&#x120;" 
d="M775 1763q0 -47 -33 -80t-80 -33t-79.5 33t-32.5 80t32.5 79.5t79.5 32.5t80 -32.5t33 -79.5zM1076 1227q0 -30 -23.5 -53t-54.5 -23q-30 0 -58 32q-13 16 -42 50q-114 117 -250 117t-247 -115q-95 -98 -140 -242q-36 -114 -36 -243t36 -243q45 -144 140 -242
q111 -115 247 -115q157 0 277 148v452q0 75 75 75t75 -75v-478q0 -103 -166 -193q-147 -79 -261 -79q-263 0 -428 252q-145 220 -145 498t145 498q165 252 428 252q119 0 233 -64q111 -63 179 -164q16 -23 16 -45z" />
    <glyph glyph-name="gdot" unicode="&#x121;" 
d="M714 1386q0 -47 -33.5 -79t-80.5 -32t-80.5 32t-33.5 79t33.5 80.5t80.5 33.5t80.5 -33.5t33.5 -80.5zM1125 975q0 -61 -65 -73q-16 -3 -111 -2q86 -98 86 -225q0 -180 -161 -291q251 -131 251 -384q0 -198 -167 -329q-154 -121 -358 -121t-358 121q-167 131 -167 329
q0 75 75 75t75 -75q0 -135 124 -222q111 -78 251 -78t251 78q124 87 124 222t-124 222q-111 78 -251 78q-169 0 -297 101q-138 109 -138 274t138 274q128 101 297 101h450q75 0 75 -75zM885 675q0 101 -95 167q-84 58 -190 58t-190 -58q-95 -66 -95 -167t95 -167
q84 -58 190 -58t190 58q95 66 95 167z" />
    <glyph glyph-name="Gcedilla" unicode="&#x122;" 
d="M1076 1227q0 -30 -23.5 -53t-54.5 -23q-30 0 -58 32q-16 19 -48 55q-107 112 -244 112q-134 0 -244 -112q-95 -96 -141 -238q-38 -117 -38 -250t38 -250q46 -142 141 -238q110 -112 244 -112q157 0 277 148v452q0 75 75 75t75 -75v-478q0 -120 -211 -214q84 -87 84 -208
q0 -124 -88 -212t-212 -88q-177 0 -260 151q-11 20 -11 39q0 30 24 52t54 22q29 0 78 -57t115 -57q62 0 106 44t44 106t-44 106t-106 44q-263 0 -428 252q-145 220 -145 498t145 498q165 252 428 252q118 0 232 -64t180 -164q16 -24 16 -45z" />
    <glyph glyph-name="gcedilla" unicode="&#x123;" 
d="M871 1485q0 -30 -24 -52t-54 -22t-78 57t-115 57q-62 0 -106 -44t-44 -106t44 -106t106 -44q75 0 75 -75t-75 -75q-124 0 -212 88t-88 212t88 212t212 88q79 0 152 -41.5t108 -109.5q11 -21 11 -39zM1125 975q0 -61 -65 -73q-16 -3 -111 -2q86 -98 86 -225
q0 -180 -161 -291q251 -131 251 -384q0 -198 -167 -329q-154 -121 -358 -121t-358 121q-167 131 -167 329q0 75 75 75t75 -75q0 -135 124 -222q111 -78 251 -78t251 78q124 87 124 222t-124 222q-111 78 -251 78q-169 0 -297 101q-138 109 -138 274t138 274q128 101 297 101
h450q75 0 75 -75zM885 675q0 101 -95 167q-84 58 -190 58t-190 -58q-95 -66 -95 -167t95 -167q84 -58 190 -58t190 58q95 66 95 167z" />
    <glyph glyph-name="Hcircumflex" unicode="&#x124;" 
d="M901 1727q0 -30 -22.5 -54t-52.5 -24q-22 0 -43 14l-183 122l-183 -122q-21 -14 -43 -14q-30 0 -52.5 24t-22.5 54q0 37 34 60l219 146q27 18 48 18t48 -18l219 -146q34 -23 34 -60zM1025 75q0 -75 -75 -75t-75 75v600h-550v-600q0 -75 -75 -75t-75 75v1350q0 75 75 75
t75 -75v-600h550v600q0 75 75 75t75 -75v-1350z" />
    <glyph glyph-name="hcircumflex" unicode="&#x125;" 
d="M926 1727q0 -30 -22.5 -54t-52.5 -24q-22 0 -43 14l-183 122l-183 -122q-21 -14 -43 -14q-30 0 -52.5 24t-22.5 54q0 37 34 60l219 146q27 18 48 18t48 -18l219 -146q34 -23 34 -60zM1075 75q0 -75 -75 -75t-75 75v525q0 124 -88 212t-212 88t-212 -88t-88 -212v-525
q0 -75 -75 -75t-75 75v1350q0 75 75 75t75 -75v-490q128 115 300 115q186 0 318 -132t132 -318v-525z" />
    <glyph glyph-name="Hbar" unicode="&#x126;" 
d="M1125 1200q0 -75 -100 -75v-1050q0 -75 -75 -75t-75 75v600h-550v-600q0 -75 -75 -75t-75 75v1050q-100 0 -100 75t100 75v150q0 75 75 75t75 -75v-150h550v150q0 75 75 75t75 -75v-150q100 0 100 -75zM875 825v300h-550v-300h550z" />
    <glyph glyph-name="hbar" unicode="&#x127;" 
d="M1075 75q0 -75 -75 -75t-75 75v525q0 124 -88 212t-212 88t-212 -88t-88 -212v-525q0 -75 -75 -75t-75 75v1050q-100 -1 -100 75t100 75v150q0 75 75 75t75 -75v-150h300q75 0 75 -75t-75 -75h-300v-190q128 115 300 115q186 0 318 -132t132 -318v-525z" />
    <glyph glyph-name="Itilde" unicode="&#x128;" 
d="M976 1803q0 -24 -18 -54q-58 -99 -208 -99q-85 0 -176.5 75t-123.5 75q-51 0 -79 -24q-17 -51 -69 -51q-78 0 -78 72q0 24 18 54q58 99 208 99q85 0 176.5 -75t123.5 -75q61 0 86.5 37.5t61.5 37.5q78 0 78 -72zM975 75q0 -75 -75 -75h-600q-75 0 -75 75t75 75h225v1200
h-225q-75 0 -75 75t75 75h600q75 0 75 -75t-75 -75h-225v-1200h225q75 0 75 -75z" />
    <glyph glyph-name="itilde" unicode="&#x129;" 
d="M976 1353q0 -24 -18 -54q-58 -99 -208 -99q-85 0 -176.5 75t-123.5 75q-51 0 -79 -24q-17 -51 -69 -51q-78 0 -78 72q0 24 18 54q58 99 208 99q85 0 176.5 -75t123.5 -75q61 0 86.5 37.5t61.5 37.5q78 0 78 -72zM975 75q0 -75 -75 -75h-300q-75 0 -75 75v825h-225
q-75 0 -75 75t75 75h301q74 0 74 -75v-825h225q75 0 75 -75z" />
    <glyph glyph-name="Imacron" unicode="&#x12a;" 
d="M900 1800q0 -75 -75 -75h-450q-75 0 -75 75t75 75h450q75 0 75 -75zM975 75q0 -75 -75 -75h-600q-75 0 -75 75t75 75h225v1200h-225q-75 0 -75 75t75 75h600q75 0 75 -75t-75 -75h-225v-1200h225q75 0 75 -75z" />
    <glyph glyph-name="imacron" unicode="&#x12b;" 
d="M850 1350q0 -75 -75 -75h-350q-75 0 -75 75t75 75h350q75 0 75 -75zM975 75q0 -75 -75 -75h-300q-75 0 -75 75v825h-225q-75 0 -75 75t75 75h300q30 0 52.5 -22.5t22.5 -52.5v-825h225q75 0 75 -75z" />
    <glyph glyph-name="Ibreve" unicode="&#x12c;" 
d="M903 1875q0 -27 -43 -74q-138 -151 -260 -151q-71 0 -158 59q-77 53 -126 119q-17 25 -17 47q0 31 23.5 53.5t54.5 22.5q29 0 102 -75.5t121 -75.5t121 75.5t102 75.5q31 0 55.5 -22.5t24.5 -53.5zM975 75q0 -75 -75 -75h-600q-75 0 -75 75t75 75h225v1200h-225
q-75 0 -75 75t75 75h600q75 0 75 -75t-75 -75h-225v-1200h225q75 0 75 -75z" />
    <glyph glyph-name="ibreve" unicode="&#x12d;" 
d="M903 1425q0 -27 -43 -74q-138 -151 -260 -151q-71 0 -158 59q-77 53 -126 119q-17 25 -17 47q0 31 23.5 53.5t54.5 22.5q29 0 102 -75.5t121 -75.5t121 75.5t102 75.5q31 0 55.5 -22.5t24.5 -53.5zM975 75q0 -75 -75 -75h-300q-75 0 -75 75v825h-225q-75 0 -75 75t75 75
h300q30 0 52.5 -22.5t22.5 -52.5v-825h225q75 0 75 -75z" />
    <glyph glyph-name="Iogonek" unicode="&#x12e;" 
d="M975 75q0 -75 -75 -75h-285q-62 0 -106 -44t-44 -106t44 -106t106 -44q67 0 115 57t78 57t54 -22t24 -52q0 -18 -11 -39q-36 -69 -108.5 -110t-151.5 -41q-124 0 -212 88t-88 212q0 81 40 150q-66 0 -87 7q-43 15 -43 68q0 75 75 75h240v1200h-240q-75 0 -75 75t75 75
h600q75 0 75 -75t-75 -75h-210v-1200h210q75 0 75 -75z" />
    <glyph glyph-name="iogonek" unicode="&#x12f;" 
d="M714 1386q0 -47 -33.5 -79t-80.5 -32t-80.5 32t-33.5 79t33.5 80.5t80.5 33.5t80.5 -33.5t33.5 -80.5zM975 75q0 -75 -75 -75h-300q-62 0 -106 -44t-44 -106t44 -106t106 -44q68 0 115.5 57t77.5 57t54 -22t24 -52q0 -17 -11 -39q-34 -68 -108 -109.5t-152 -41.5
q-124 0 -212 88t-88 212q0 102 63 183.5t162 107.5v759h-225q-75 0 -75 75t75 75h300q30 0 52.5 -22.5t22.5 -52.5v-825h225q75 0 75 -75z" />
    <glyph glyph-name="Idotaccent" unicode="&#x130;" 
d="M713 1763q0 -47 -33.5 -80t-80.5 -33q-46 0 -78.5 33t-32.5 80t32.5 79.5t78.5 32.5q48 0 81 -32.5t33 -79.5zM975 75q0 -75 -75 -75h-600q-75 0 -75 75t75 75h225v1200h-225q-75 0 -75 75t75 75h600q75 0 75 -75t-75 -75h-225v-1200h225q75 0 75 -75z" />
    <glyph glyph-name="dotlessi" unicode="&#x131;" 
d="M975 75q0 -75 -75 -75h-300q-75 0 -75 75v825h-225q-75 0 -75 75t75 75h300q30 0 52.5 -22.5t22.5 -52.5v-825h225q75 0 75 -75z" />
    <glyph glyph-name="IJ" unicode="&#x132;" 
d="M1025 75q0 -217 -154 -371t-371 -154q-114 0 -227 52q-119 54 -181 143q-18 26 -18 47q0 31 23.5 53.5t54.5 22.5q27 0 56 -28q142 -140 292 -140q155 0 265 110t110 265v1275h-225q-75 0 -75 75t75 75h301q74 0 74 -74v-1351zM525 75q0 -75 -75 -75h-300q-75 0 -75 75
q0 57 52 71q17 4 98 4v1200h-23q-15 -1 -23 -1q-104 0 -104 76q0 75 75 75h300q75 0 75 -75q0 -57 -52 -71q-17 -4 -98 -4v-1200h23q15 1 23 1q104 0 104 -76z" />
    <glyph glyph-name="ij" unicode="&#x133;" 
d="M1064 1386q0 -47 -33.5 -79t-80.5 -32t-80.5 32t-33.5 79t33.5 80.5t80.5 33.5t80.5 -33.5t33.5 -80.5zM489 1386q0 -47 -33.5 -79t-80.5 -32t-80.5 32t-33.5 79t33.5 80.5t80.5 33.5t80.5 -33.5t33.5 -80.5zM675 75q0 -75 -75 -75h-225q-75 0 -75 75v825h-150
q-75 0 -75 75t75 75h225q30 0 52.5 -22.5t22.5 -52.5v-825h150q75 0 75 -75zM1025 975v-900q0 -217 -154 -371t-371 -154q-114 0 -227 52q-119 54 -181 143q-18 26 -18 47q0 31 23.5 53.5t54.5 22.5q28 0 56 -28q16 -18 49 -50q103 -90 243 -90q155 0 265 110t110 265v825
h-150q-75 0 -75 75t75 75h225q30 0 52.5 -22.5t22.5 -52.5z" />
    <glyph glyph-name="Jcircumflex" unicode="&#x134;" 
d="M851 1727q0 -30 -22.5 -54t-52.5 -24q-22 0 -43 14l-183 122l-183 -122q-21 -14 -43 -14q-30 0 -52.5 24t-22.5 54q0 37 34 60l219 146q27 18 48 18t48 -18l219 -146q34 -23 34 -60zM1025 75q0 -217 -154 -371t-371 -154q-114 0 -227 52q-119 54 -181 143q-18 26 -18 47
q0 31 23.5 53.5t54.5 22.5q27 0 56 -28q142 -140 292 -140q155 0 265 110t110 265v1275h-725q-75 0 -75 75t75 75h801q74 0 74 -74v-1351z" />
    <glyph glyph-name="jcircumflex" unicode="&#x135;" 
d="M1026 1277q0 -30 -22.5 -54t-52.5 -24q-22 0 -43 14l-183 122l-183 -122q-21 -14 -43 -14q-30 0 -52.5 24t-22.5 54q0 37 34 60l219 146q27 18 48 18t48 -18l219 -146q34 -23 34 -60zM1025 75q0 -217 -154 -371t-371 -154q-114 0 -227 52q-119 54 -181 143q-18 26 -18 47
q0 31 23.5 53.5t54.5 22.5q27 0 56 -28q142 -140 292 -140q155 0 265 110t110 265v825h-225q-75 0 -75 75t75 75h301q74 0 74 -74v-901z" />
    <glyph glyph-name="Kcedilla" unicode="&#x136;" 
d="M1126 75q0 -30 -23 -53t-54 -23q-30 0 -53 24l-650 675q-20 21 -21 38v-661q0 -75 -75 -75t-75 75v1350q0 75 75 75t75 -75v-661q4 21 21 38l650 675q23 24 53 24q31 0 54 -23t23 -53q0 -29 -22 -52l-600 -623l600 -623q22 -23 22 -52zM863 -150q0 -124 -88.5 -212
t-211.5 -88q-79 0 -152 41.5t-109 109.5q-11 21 -11 39q0 30 24 52t55 22q29 0 77 -57t116 -57q62 0 106 44t44 106t-44 106t-106 44q-75 0 -75 75t75 75q123 0 211.5 -88t88.5 -212zM333 716q-6 10 -8 21v-1q0 -6 8 -20zM342 703q-5 5 -9 13q4 -7 9 -13zM342 702
q-8 9 -12 19q7 -12 12 -19z" />
    <glyph glyph-name="kcedilla" unicode="&#x137;" 
d="M1126 77q0 -30 -22.5 -54t-52.5 -24q-23 0 -44 14l-640 444q-37 25 -42 54v-436q0 -75 -75 -75t-75 75v1350q0 75 75 75t75 -75v-886q5 29 42 54l640 444q21 14 44 14q30 0 52.5 -24t22.5 -54q0 -37 -33 -60l-561 -388l561 -388q33 -23 33 -60zM885 -150q0 -124 -88 -212
t-212 -88q-78 0 -150 41q-75 42 -110 110q-11 21 -11 39q0 30 24 52t54 22t78 -57t115 -57q62 0 106 44t44 106t-44 106t-106 44q-75 0 -75 75t75 75q124 0 212 -88t88 -212z" />
    <glyph glyph-name="kgreenlandic" unicode="&#x138;" 
d="M1126 77q0 -30 -22.5 -54t-52.5 -24q-23 0 -44 14l-640 444q-37 25 -42 54v-436q0 -75 -75 -75t-75 75v900q0 75 75 75t75 -75v-436q5 29 42 54l640 444q21 14 44 14q30 0 52.5 -24t22.5 -54q0 -37 -33 -60l-561 -388l561 -388q33 -23 33 -60z" />
    <glyph glyph-name="Lacute" unicode="&#x139;" 
d="M826 1873q0 -44 -42 -65l-300 -150q-18 -9 -36 -9q-31 0 -52.5 24t-21.5 54q0 44 42 65l300 150q18 9 36 9q31 0 52.5 -24t21.5 -54zM1125 75q0 -75 -75 -75h-800q-75 0 -75 74v1351q0 75 75 75t75 -75v-1275h725q75 0 75 -75z" />
    <glyph glyph-name="lacute" unicode="&#x13a;" 
d="M752 1873q0 -44 -43 -65l-300 -150q-18 -9 -35 -9q-31 0 -52.5 24t-21.5 54q0 44 42 65l300 150q18 9 36 9q30 0 52 -24t22 -54zM1126 226q0 -21 -16 -46q-53 -81 -158 -132q-100 -48 -202 -48q-186 0 -318 132t-132 318v975q0 75 75 75t75 -75v-975q0 -124 88 -212
t212 -88q109 0 194.5 75.5t103.5 75.5q31 0 54.5 -22.5t23.5 -52.5z" />
    <glyph glyph-name="Lcedilla" unicode="&#x13b;" 
d="M1125 75q0 -75 -75 -75h-140q40 -69 40 -150q0 -124 -88 -212t-212 -88q-78 0 -151.5 41.5t-108.5 109.5q-11 21 -11 39q0 30 24 52t54 22t78 -57t115 -57q62 0 106 44t44 106t-44 106t-106 44h-400q-75 0 -75 74v1351q0 75 75 75t75 -75v-1275h725q75 0 75 -75z" />
    <glyph glyph-name="lcedilla" unicode="&#x13c;" 
d="M1126 226q0 -42 -60 -99q-47 -44 -98 -71q82 -87 82 -206q0 -124 -88 -212t-212 -88q-79 0 -152 41t-108 110q-11 21 -11 39q0 30 24 52t54 22q29 0 77.5 -57t115.5 -57q62 0 106 44t44 106t-44 106t-106 44q-186 0 -318 132t-132 318v975q0 75 75 75t75 -75v-975
q0 -124 88 -212t212 -88q108 0 194.5 75.5t103.5 75.5q31 0 54.5 -22.5t23.5 -52.5z" />
    <glyph glyph-name="Lcaron" unicode="&#x13d;" 
d="M901 1873q0 -37 -34 -60l-219 -146q-27 -18 -48 -18t-48 18l-219 146q-34 23 -34 60q0 30 22.5 54t52.5 24q22 0 43 -14l183 -122l183 122q21 14 43 14q30 0 52.5 -24t22.5 -54zM1125 75q0 -75 -75 -75h-800q-75 0 -75 74v1351q0 75 75 75t75 -75v-1275h725q75 0 75 -75z
" />
    <glyph glyph-name="lcaron" unicode="&#x13e;" 
d="M752 1873q0 -37 -34 -60l-219 -146q-27 -18 -48 -18t-48 18l-219 146q-34 23 -34 60q0 30 22.5 54t52.5 24q22 0 43 -14l183 -122l183 122q21 14 43 14q31 0 53 -24t22 -54zM1126 226q0 -21 -16 -46q-53 -81 -158 -132q-100 -48 -202 -48q-186 0 -318 132t-132 318v975
q0 75 75 75t75 -75v-975q0 -124 88 -212t212 -88q109 0 194.5 75.5t103.5 75.5q31 0 54.5 -22.5t23.5 -52.5z" />
    <glyph glyph-name="Ldot" unicode="&#x13f;" 
d="M963 750q0 -47 -33 -80t-80 -33t-79.5 33t-32.5 80t32.5 79.5t79.5 32.5t80 -32.5t33 -79.5zM1125 75q0 -75 -75 -75h-800q-75 0 -75 74v1351q0 75 75 75t75 -75v-1275h725q75 0 75 -75z" />
    <glyph glyph-name="ldot" unicode="&#x140;" 
d="M1088 750q0 -47 -33 -80t-80 -33t-79.5 33t-32.5 80t32.5 79.5t79.5 32.5t80 -32.5t33 -79.5zM1126 226q0 -21 -16 -46q-53 -81 -158 -132q-100 -48 -202 -48q-186 0 -318 132t-132 318v975q0 75 75 75t75 -75v-975q0 -124 88 -212t212 -88q109 0 194.5 75.5t103.5 75.5
q31 0 54.5 -22.5t23.5 -52.5z" />
    <glyph glyph-name="Lslash" unicode="&#x141;" 
d="M1125 75q0 -75 -75 -75h-800q-75 0 -75 75v529q-14 -5 -28 -5q-72 0 -72 78q0 39 33 60q12 8 67 25v663q0 75 75 75t75 -75v-613q264 89 278 89q72 0 72 -78q0 -52 -51 -69l-299 -100v-504h725q75 0 75 -75z" />
    <glyph glyph-name="lslash" unicode="&#x142;" 
d="M1126 226q0 -21 -16 -46q-54 -82 -158 -132q-100 -48 -202 -48q-186 0 -318 132t-132 318v196q-138 -47 -153 -47q-72 0 -72 78q0 52 51 69l174 58v621q0 75 75 75t75 -75v-571q138 47 153 47q72 0 72 -78q0 -52 -51 -69l-174 -58v-246q0 -124 88 -212t212 -88
q84 0 147 39q30 19 86 73q40 39 65 39q31 0 54.5 -22.5t23.5 -52.5z" />
    <glyph glyph-name="Nacute" unicode="&#x143;" 
d="M826 1873q0 -44 -42 -65l-300 -150q-18 -9 -36 -9q-31 0 -52.5 24t-21.5 54q0 44 42 65l300 150q18 9 36 9q31 0 52.5 -24t21.5 -54zM1026 74q0 -75 -78 -75q-43 0 -69 51l-554 1067v-1042q0 -75 -75 -75t-75 75l-1 1351q0 75 78 75q43 0 69 -51l554 -1067v1042
q0 75 75 75t75 -75z" />
    <glyph glyph-name="nacute" unicode="&#x144;" 
d="M851 1423q0 -44 -42 -65l-300 -150q-18 -9 -36 -9q-31 0 -52.5 24t-21.5 54q0 44 42 65l300 150q18 9 36 9q31 0 52.5 -24t21.5 -54zM1075 75q0 -75 -75 -75t-75 75v525q0 124 -88 212t-212 88t-212 -88t-88 -212v-525q0 -75 -75 -75t-75 75v900q0 75 75 75q76 0 75 -115
q128 115 300 115q186 0 318 -132t132 -318v-525z" />
    <glyph glyph-name="Ncedilla" unicode="&#x145;" 
d="M1026 74q0 -75 -78 -75q-43 0 -69 51l-554 1067v-1042q0 -75 -75 -75t-75 75l-1 1351q0 75 78 75q43 0 69 -51l554 -1067v1042q0 75 75 75t75 -75zM900 -150q0 -124 -88 -212t-212 -88q-79 0 -152 41.5t-108 109.5q-11 21 -11 39q0 30 24 52t54 22t78 -57t115 -57
q62 0 106 44t44 106t-44 106t-106 44q-75 0 -75 75t75 75q124 0 212 -88t88 -212z" />
    <glyph glyph-name="ncedilla" unicode="&#x146;" 
d="M1075 75q0 -75 -75 -75t-75 75v525q0 124 -88 212t-212 88t-212 -88t-88 -212v-525q0 -75 -75 -75t-75 75v900q0 75 75 75q76 0 75 -115q128 115 300 115q186 0 318 -132t132 -318v-525zM925 -150q0 -124 -88 -212t-212 -88q-79 0 -152 41.5t-108 109.5q-11 21 -11 39
q0 30 24 52t54 22t78 -57t115 -57q62 0 106 44t44 106t-44 106t-106 44q-75 0 -75 75t75 75q124 0 212 -88t88 -212z" />
    <glyph glyph-name="Ncaron" unicode="&#x147;" 
d="M901 1873q0 -37 -34 -60l-219 -146q-27 -18 -48 -18t-48 18l-219 146q-34 23 -34 60q0 30 22.5 54t52.5 24q22 0 43 -14l183 -122l183 122q21 14 43 14q30 0 52.5 -24t22.5 -54zM1026 74q0 -75 -78 -75q-43 0 -69 51l-554 1067v-1042q0 -75 -75 -75t-75 75l-1 1351
q0 75 78 75q43 0 69 -51l554 -1067v1042q0 75 75 75t75 -75z" />
    <glyph glyph-name="ncaron" unicode="&#x148;" 
d="M926 1423q0 -37 -34 -60l-219 -146q-27 -18 -48 -18t-48 18l-219 146q-34 23 -34 60q0 30 22.5 54t52.5 24q22 0 43 -14l183 -122l183 122q21 14 43 14q30 0 52.5 -24t22.5 -54zM1075 75q0 -75 -75 -75t-75 75v525q0 124 -88 212t-212 88t-212 -88t-88 -212v-525
q0 -75 -75 -75t-75 75v900q0 75 75 75q76 0 75 -115q128 115 300 115q186 0 318 -132t132 -318v-525z" />
    <glyph glyph-name="napostrophe" unicode="&#x149;" 
d="M376 1428q0 -15 -6 -31l-150 -375q-19 -48 -68 -48q-30 0 -54 21.5t-24 51.5q0 15 6 31l150 375q19 48 68 48q30 0 54 -21.5t24 -51.5zM1075 75q0 -75 -75 -75t-75 75v600q0 93 -66 159t-159 66t-159 -66t-66 -159v-600q0 -75 -75 -75t-75 75v900q0 75 75 75t75 -75
q100 75 225 75q155 0 265 -110t110 -265v-600z" />
    <glyph glyph-name="Eng" unicode="&#x14a;" 
d="M1026 73q0 -215 -155.5 -369t-370.5 -154q-116 0 -226 51q-115 54 -182 144q-18 24 -18 47q0 31 23.5 53.5t54.5 22.5q28 0 56 -28q138 -140 292 -140q150 0 259 104t116 253l-550 1060v-1042q0 -75 -75 -75t-75 75l-1 1351q0 75 78 75q43 0 69 -51l554 -1067v1042
q0 75 75 75t75 -75z" />
    <glyph glyph-name="eng" unicode="&#x14b;" 
d="M1075 75q0 -217 -154 -371t-371 -154q-115 0 -227 52q-117 54 -181 143q-18 25 -18 47q0 31 23.5 53.5t54.5 22.5q24 0 71 -43q63 -59 103 -81q77 -44 174 -44q155 0 265 110t110 265v525q0 124 -88 212t-212 88t-212 -88t-88 -212v-525q0 -75 -75 -75t-75 75v900
q0 75 75 75q77 0 75 -115q128 115 300 115q186 0 318 -132t132 -318v-525z" />
    <glyph glyph-name="Omacron" unicode="&#x14c;" 
d="M1125 1800q0 -75 -75 -75h-900q-75 0 -75 75t75 75h900q75 0 75 -75zM1125 750q0 -269 -126 -489q-150 -261 -399 -261t-399 261q-126 220 -126 489t126 489q150 261 399 261t399 -261q126 -220 126 -489zM975 750q0 131 -33 246q-39 136 -120 234q-100 120 -222 120
t-222 -120q-81 -98 -120 -234q-33 -115 -33 -246t33 -246q39 -136 120 -234q100 -120 222 -120t222 120q81 98 120 234q33 115 33 246z" />
    <glyph glyph-name="omacron" unicode="&#x14d;" 
d="M1125 1350q0 -75 -75 -75h-900q-75 0 -75 75t75 75h900q75 0 75 -75zM1125 525q0 -217 -154 -371t-371 -154t-371 154t-154 371t154 371t371 154t371 -154t154 -371zM975 525q0 155 -110 265t-265 110t-265 -110t-110 -265t110 -265t265 -110t265 110t110 265z" />
    <glyph glyph-name="Obreve" unicode="&#x14e;" 
d="M903 1875q0 -27 -43 -74q-138 -151 -260 -151q-71 0 -158 59q-77 53 -126 119q-17 25 -17 47q0 31 23.5 53.5t54.5 22.5q29 0 102 -75.5t121 -75.5t121 75.5t102 75.5q31 0 55.5 -22.5t24.5 -53.5zM1125 750q0 -269 -126 -489q-150 -261 -399 -261t-399 261
q-126 220 -126 489t126 489q150 261 399 261t399 -261q126 -220 126 -489zM975 750q0 131 -33 246q-39 136 -120 234q-100 120 -222 120t-222 -120q-81 -98 -120 -234q-33 -115 -33 -246t33 -246q39 -136 120 -234q100 -120 222 -120t222 120q81 98 120 234q33 115 33 246z
" />
    <glyph glyph-name="obreve" unicode="&#x14f;" 
d="M903 1425q0 -27 -43 -74q-138 -151 -260 -151q-71 0 -158 59q-77 53 -126 119q-17 25 -17 47q0 31 23.5 53.5t54.5 22.5q29 0 102 -75.5t121 -75.5t121 75.5t102 75.5q31 0 55.5 -22.5t24.5 -53.5zM1125 525q0 -217 -154 -371t-371 -154t-371 154t-154 371t154 371
t371 154t371 -154t154 -371zM975 525q0 155 -110 265t-265 110t-265 -110t-110 -265t110 -265t265 -110t265 110t110 265z" />
    <glyph glyph-name="Odblacute" unicode="&#x150;" 
d="M1051 1873q0 -44 -42 -65l-300 -150q-18 -9 -36 -9q-31 0 -52.5 24t-21.5 54q0 44 42 65l300 150q18 9 36 9q31 0 52.5 -24t21.5 -54zM601 1873q0 -44 -42 -65l-300 -150q-18 -9 -36 -9q-31 0 -52.5 24t-21.5 54q0 44 42 65l300 150q18 9 36 9q31 0 52.5 -24t21.5 -54z
M1125 750q0 -269 -126 -489q-150 -261 -399 -261t-399 261q-126 220 -126 489t126 489q150 261 399 261t399 -261q126 -220 126 -489zM975 750q0 131 -33 246q-39 136 -120 234q-100 120 -222 120t-222 -120q-81 -98 -120 -234q-33 -115 -33 -246t33 -246q39 -136 120 -234
q100 -120 222 -120t222 120q81 98 120 234q33 115 33 246z" />
    <glyph glyph-name="odblacute" unicode="&#x151;" 
d="M1051 1423q0 -44 -42 -65l-300 -150q-18 -9 -36 -9q-31 0 -52.5 24t-21.5 54q0 44 42 65l300 150q18 9 36 9q31 0 52.5 -24t21.5 -54zM601 1423q0 -44 -42 -65l-300 -150q-18 -9 -36 -9q-31 0 -52.5 24t-21.5 54q0 44 42 65l300 150q18 9 36 9q31 0 52.5 -24t21.5 -54z
M1125 525q0 -217 -154 -371t-371 -154t-371 154t-154 371t154 371t371 154t371 -154t154 -371zM975 525q0 155 -110 265t-265 110t-265 -110t-110 -265t110 -265t265 -110t265 110t110 265z" />
    <glyph glyph-name="OE" unicode="&#x152;" 
d="M1125 75q0 -75 -75 -75h-450q-249 0 -399 261q-126 220 -126 489t126 489q150 261 399 261h450q75 0 75 -75t-75 -75h-132q207 -226 207 -600q0 -373 -207 -600h132q75 0 75 -75zM975 750q0 182 -69 342q-82 193 -231 245v-512h225q75 0 75 -75t-75 -75h-225v-512
q150 52 232 244q68 159 68 343zM525 163v1174q-150 -53 -232 -245q-68 -158 -68 -342t68 -342q82 -192 232 -245z" />
    <glyph glyph-name="oe" unicode="&#x153;" 
d="M1126 759q0 -30 -20 -59q-51 -58 -151 -172q-70 -86 -220 -247q45 -131 113 -131q45 0 83 66q5 8 47 105q24 54 70 54q78 0 78 -72q0 -12 -4 -25q-82 -278 -274 -278q-148 0 -232 175q-87 -175 -233 -175q-156 0 -242 194q-66 151 -66 331t66 331q86 194 242 194
q146 0 233 -175q86 175 232 175q88 0 183 -101t95 -190zM965 767q-51 133 -117 133q-22 0 -49 -26q-108 -100 -108 -349q0 -25 3 -59zM541 525q0 233 -99 340q-33 35 -59 35q-22 0 -50 -26q-108 -100 -108 -349t108 -349q28 -26 50 -26q26 0 59 35q99 107 99 340z" />
    <glyph glyph-name="Racute" unicode="&#x154;" 
d="M826 1873q0 -44 -42 -65l-300 -150q-18 -9 -36 -9q-31 0 -52.5 24t-21.5 54q0 44 42 65l300 150q18 9 36 9q31 0 52.5 -24t21.5 -54zM1051 76q0 -31 -23 -54t-54 -23q-29 0 -52 23l-590 590q-27 27 -32 49v-586q0 -75 -75 -75t-75 75v1351q0 74 74 74h376q186 0 318 -132
t132 -318t-132 -318t-318 -132h-44l472 -472q23 -23 23 -52zM900 1050q0 124 -88 212t-212 88h-300v-662q12 62 89 62h211q124 0 212 88t88 212z" />
    <glyph glyph-name="racute" unicode="&#x155;" 
d="M841 1423q0 -44 -42 -65l-300 -150q-18 -9 -36 -9q-31 0 -52.5 24t-21.5 54q0 44 42 65l300 150q18 9 36 9q31 0 52.5 -24t21.5 -54zM886 860q0 -30 -24 -52t-54 -22t-78 57t-115 57q-62 0 -106 -44t-44 -106v-675q0 -75 -75 -75t-75 75v900q0 75 75 75q51 0 69 -44
q72 44 156 44q78 0 151 -41t109 -109q11 -22 11 -40z" />
    <glyph glyph-name="Rcedilla" unicode="&#x156;" 
d="M1051 76q0 -31 -23 -54t-54 -23q-29 0 -52 23l-590 590q-27 27 -32 49v-586q0 -75 -75 -75t-75 75v1351q0 74 74 74h376q186 0 318 -132t132 -318t-132 -318t-318 -132h-44l472 -472q23 -23 23 -52zM900 -150q0 -124 -88 -212t-212 -88q-79 0 -152 41.5t-108 109.5
q-11 21 -11 39q0 30 24 52t54 22t78 -57t115 -57q62 0 106 44t44 106t-44 106t-106 44q-75 0 -75 75t75 75q124 0 212 -88t88 -212zM900 1050q0 124 -88 212t-212 88h-300v-662q12 62 89 62h211q124 0 212 88t88 212z" />
    <glyph glyph-name="rcedilla" unicode="&#x157;" 
d="M984 860q0 -30 -24 -52t-55 -22q-29 0 -77.5 57t-114.5 57q-62 0 -106 -44t-44 -106v-609q99 -26 162 -107.5t63 -183.5q0 -124 -88.5 -212t-211.5 -88q-79 0 -151 41q-75 42 -110 110q-11 22 -11 39q0 30 24 52t55 22q29 0 77 -57t116 -57q62 0 106 44t44 106t-44 106
t-106 44q-30 0 -52.5 22.5t-22.5 52.5v900q0 75 75 75q51 0 69 -44q71 44 156 44q77 0 151 -41.5t108 -108.5q12 -22 12 -40z" />
    <glyph glyph-name="Rcaron" unicode="&#x158;" 
d="M901 1873q0 -37 -34 -60l-219 -146q-27 -18 -48 -18t-48 18l-219 146q-34 23 -34 60q0 30 22.5 54t52.5 24q22 0 43 -14l183 -122l183 122q21 14 43 14q30 0 52.5 -24t22.5 -54zM1126 76q0 -31 -23 -54t-54 -23q-29 0 -52 23l-590 590q-33 33 -33 62q0 76 90 76h211
q124 0 212 88t88 212t-88 212t-212 88h-350v-1275q0 -75 -75 -75t-75 75v1351q0 74 74 74h426q186 0 318 -132t132 -318t-132 -318t-318 -132h-44l472 -472q23 -23 23 -52z" />
    <glyph glyph-name="rcaron" unicode="&#x159;" 
d="M1001 1423q0 -37 -34 -60l-219 -146q-27 -18 -48 -18t-48 18l-219 146q-34 23 -34 60q0 30 22.5 54t52.5 24q22 0 43 -14l183 -122l183 122q21 14 43 14q30 0 52.5 -24t22.5 -54zM1126 808q0 -31 -23.5 -53.5t-54.5 -22.5q-28 0 -56 29q-138 139 -292 139
q-155 0 -265 -110t-110 -265v-450q0 -75 -75 -75t-75 75v900q0 75 75 75q58 0 72 -56q4 -18 3 -102q154 158 375 158q114 0 227 -52q119 -54 181 -143q18 -26 18 -47z" />
    <glyph glyph-name="Sacute" unicode="&#x15a;" 
d="M801 1873q0 -44 -42 -65l-300 -150q-18 -9 -36 -9q-31 0 -52.5 24t-21.5 54q0 44 43 65l300 150q18 9 35 9q31 0 52.5 -24t21.5 -54zM1125 450q0 -203 -182 -333q-164 -117 -375 -117q-137 0 -266 54q-141 60 -212 164q-16 24 -16 46q0 30 23.5 52.5t54.5 22.5
q29 0 58 -31q14 -17 44 -48q122 -110 314 -110q147 0 268 75q139 87 139 225t-139 225q-121 75 -268 75q-175 0 -311 98q-150 108 -150 277t150 277q136 98 311 98q113 0 218 -45q116 -48 175 -134q17 -23 17 -46q0 -30 -24 -52.5t-54 -22.5q-28 0 -59 31q-117 119 -273 119
q-111 0 -203 -56q-108 -65 -108 -169t108 -169q92 -56 203 -56q211 0 375 -117q182 -130 182 -333z" />
    <glyph glyph-name="sacute" unicode="&#x15b;" 
d="M812 1423q0 -44 -42 -65l-300 -150q-18 -9 -36 -9q-30 0 -51.5 24t-21.5 54q0 44 42 65l300 150q18 9 36 9q30 0 51.5 -24t21.5 -54zM1056 338q0 -160 -161 -256q-137 -82 -308 -82q-128 0 -245 49q-135 57 -188 158q-11 21 -11 39q0 30 24 52t54 22q34 0 63 -39
q99 -131 303 -131q202 0 288 111q31 40 31 77q0 61 -70 113q-56 40 -128 58q-60 16 -136 16q-129 0 -231 65q-118 75 -118 198t121 198q104 64 236 64q82 0 163 -29q93 -33 136 -90q20 -26 20 -49q0 -30 -23.5 -53t-54.5 -23q-13 0 -82.5 47t-158.5 47q-133 0 -191 -74
q-16 -21 -16 -38q0 -72 125 -103q42 -10 100 -10q168 0 302 -83q156 -97 156 -254z" />
    <glyph glyph-name="Scircumflex" unicode="&#x15c;" 
d="M876 1727q0 -30 -22 -54t-53 -24q-22 0 -43 14l-183 122l-183 -122q-21 -14 -43 -14q-30 0 -52.5 24t-22.5 54q0 37 34 60l219 146q27 18 48 18t48 -18l219 -146q34 -23 34 -60zM1125 450q0 -203 -182 -333q-164 -117 -375 -117q-137 0 -266 54q-141 60 -212 164
q-16 24 -16 46q0 30 23.5 52.5t54.5 22.5q29 0 58 -31q14 -17 44 -48q122 -110 314 -110q147 0 268 75q139 87 139 225t-139 225q-121 75 -268 75q-175 0 -311 98q-150 108 -150 277t150 277q136 98 311 98q113 0 218 -45q116 -48 175 -134q17 -23 17 -46q0 -30 -24 -52.5
t-54 -22.5q-28 0 -59 31q-117 119 -273 119q-111 0 -203 -56q-108 -65 -108 -169t108 -169q92 -56 203 -56q211 0 375 -117q182 -130 182 -333z" />
    <glyph glyph-name="scircumflex" unicode="&#x15d;" 
d="M887 1277q0 -30 -22 -54t-52 -24q-22 0 -43 14l-184 122l-183 -122q-21 -14 -43 -14q-30 0 -52.5 24t-22.5 54q0 37 35 60l219 146q27 18 47 18q21 0 48 -18l219 -146q34 -23 34 -60zM1056 338q0 -160 -161 -256q-137 -82 -308 -82q-128 0 -245 49q-135 57 -188 158
q-11 21 -11 39q0 30 24 52t54 22q34 0 63 -39q99 -131 303 -131q202 0 288 111q31 40 31 77q0 61 -70 113q-56 40 -128 58q-60 16 -136 16q-129 0 -231 65q-118 75 -118 198t121 198q104 64 236 64q82 0 163 -29q93 -33 136 -90q20 -26 20 -49q0 -30 -23.5 -53t-54.5 -23
q-13 0 -82.5 47t-158.5 47q-133 0 -191 -74q-16 -21 -16 -38q0 -72 125 -103q42 -10 100 -10q168 0 302 -83q156 -97 156 -254z" />
    <glyph glyph-name="Scedilla" unicode="&#x15e;" 
d="M1125 450q0 -140 -95 -252q-86 -102 -225 -155q70 -84 70 -193q0 -124 -88 -212t-212 -88q-177 0 -260 151q-11 20 -11 39q0 30 24 52t54 22q29 0 78 -57t115 -57q62 0 106 44t44 106q0 65 -45.5 107.5t-111.5 42.5q-137 0 -266 54q-143 61 -212 164q-16 24 -16 46
q0 30 23.5 52.5t54.5 22.5q29 0 58 -31q15 -18 48 -51q119 -107 310 -107q147 0 268 75q139 87 139 225t-139 225q-121 75 -268 75q-175 0 -311 98q-150 108 -150 277t150 277q136 98 311 98q112 0 218 -45q118 -49 175 -134q17 -24 17 -46q0 -30 -24 -52.5t-54 -22.5
q-28 0 -59 31q-117 119 -273 119q-111 0 -203 -56q-108 -65 -108 -169t108 -169q92 -56 203 -56q211 0 375 -117q182 -130 182 -333z" />
    <glyph glyph-name="scedilla" unicode="&#x15f;" 
d="M1056 338q0 -199 -236 -294q71 -84 71 -194q0 -124 -88 -212t-212 -88q-78 0 -151 41.5t-109 109.5q-11 21 -11 39q0 30 24 52t55 22q30 0 77 -57t115 -57q62 0 106 44t44 106q0 64 -44.5 107t-109.5 43q-128 0 -245 49q-136 57 -188 158q-11 21 -11 39q0 30 24 52t54 22
q35 0 63 -39q96 -131 303 -131q200 0 288 110q31 40 31 78q0 60 -68 111q-53 40 -123 59q-63 17 -143 17q-129 0 -231 65q-118 75 -118 198t121 198q104 64 236 64q82 0 163 -29q93 -33 136 -90q20 -26 20 -49q0 -30 -23.5 -53t-54.5 -23q-13 0 -82.5 47t-158.5 47
q-132 0 -188 -70q-19 -23 -19 -42t19 -42q57 -71 206 -71q168 0 302 -83q156 -97 156 -254z" />
    <glyph glyph-name="Scaron" unicode="&#x160;" 
d="M876 1873q0 -35 -34 -60q-215 -160 -267 -160t-267 160q-34 25 -34 60q0 30 22.5 54t52.5 24q22 0 43 -14l183 -122l183 122q21 14 43 14q31 0 53 -24t22 -54zM1125 450q0 -203 -182 -333q-164 -117 -375 -117q-137 0 -266 54q-141 60 -212 164q-16 24 -16 46
q0 30 23.5 52.5t54.5 22.5q29 0 58 -31q14 -17 44 -48q122 -110 314 -110q147 0 268 75q139 87 139 225t-139 225q-121 75 -268 75q-175 0 -311 98q-150 108 -150 277t150 277q136 98 311 98q113 0 218 -45q116 -48 175 -134q17 -23 17 -46q0 -30 -24 -52.5t-54 -22.5
q-28 0 -59 31q-117 119 -273 119q-111 0 -203 -56q-108 -65 -108 -169t108 -169q92 -56 203 -56q211 0 375 -117q182 -130 182 -333z" />
    <glyph glyph-name="scaron" unicode="&#x161;" 
d="M890 1423q0 -35 -34 -60q-215 -160 -267 -160t-267 160q-34 25 -34 60q0 30 22 54t53 24q22 0 43 -14l183 -122l183 122q21 14 43 14q30 0 52.5 -24t22.5 -54zM1056 338q0 -160 -161 -256q-137 -82 -308 -82q-128 0 -245 49q-135 57 -188 158q-11 21 -11 39q0 30 24 52
t54 22q34 0 63 -39q99 -131 303 -131q202 0 288 111q31 40 31 77q0 61 -70 113q-56 40 -128 58q-60 16 -136 16q-129 0 -231 65q-118 75 -118 198t121 198q104 64 236 64q82 0 163 -29q93 -33 136 -90q20 -26 20 -49q0 -30 -23.5 -53t-54.5 -23q-13 0 -82.5 47t-158.5 47
q-133 0 -191 -74q-16 -21 -16 -38q0 -72 125 -103q42 -10 100 -10q168 0 302 -83q156 -97 156 -254z" />
    <glyph glyph-name="Tcedilla" unicode="&#x162;" 
d="M1125 1425q0 -75 -75 -75h-375v-1209q99 -26 162 -107.5t63 -183.5q0 -124 -88 -212t-212 -88q-78 0 -152 41.5t-108 109.5q-11 22 -11 39q0 30 24 52t54 22t77.5 -57t115.5 -57q62 0 106 44t44 106t-44 106t-106 44q-30 0 -52.5 22.5t-22.5 52.5v1275h-375q-75 0 -75 75
t75 75h900q75 0 75 -75z" />
    <glyph glyph-name="tcedilla" unicode="&#x163;" 
d="M1126 226q0 -40 -61 -97q-47 -45 -97 -73q82 -87 82 -206q0 -124 -88 -212t-212 -88q-78 0 -151.5 41.5t-108.5 109.5q-11 21 -11 39q0 30 24 52t54 22t77.5 -57t115.5 -57q62 0 106 44t44 106t-44 106t-106 44q-186 0 -318 132t-132 318v450h-150q-75 0 -75 75t75 75
h150v375q0 75 75 75t75 -75v-375h375q75 0 75 -75t-75 -75h-375v-450q0 -124 88 -212t212 -88q111 0 195 75.5t103 75.5q31 0 54.5 -22.5t23.5 -52.5z" />
    <glyph glyph-name="Tcaron" unicode="&#x164;" 
d="M901 1873q0 -37 -34 -60l-219 -146q-27 -18 -48 -18t-48 18l-219 146q-34 23 -34 60q0 30 22.5 54t52.5 24q22 0 43 -14l183 -122l183 122q21 14 43 14q30 0 52.5 -24t22.5 -54zM1125 1425q0 -75 -75 -75h-375v-1275q0 -75 -75 -75t-75 75v1275h-375q-75 0 -75 75t75 75
h900q75 0 75 -75z" />
    <glyph glyph-name="tcaron" unicode="&#x165;" 
d="M676 1873q0 -37 -34 -60l-219 -146q-27 -18 -48 -18t-48 18l-219 146q-34 23 -34 60q0 30 22.5 54t52.5 24q22 0 43 -14l183 -122l183 122q21 14 43 14q30 0 52.5 -24t22.5 -54zM1126 226q0 -21 -16 -46q-53 -81 -158 -132q-100 -48 -202 -48q-186 0 -318 132t-132 318
v450h-150q-75 0 -75 75t75 75h150v375q0 75 75 75t75 -75v-375h375q75 0 75 -75t-75 -75h-375v-450q0 -124 88 -212t212 -88q84 0 147 39q30 19 86 73q40 39 65 39q31 0 54.5 -22.5t23.5 -52.5z" />
    <glyph glyph-name="Tbar" unicode="&#x166;" 
d="M1125 1425q0 -75 -75 -75h-375v-525h150q75 0 75 -75t-75 -75h-150v-600q0 -75 -75 -75t-75 75v600h-150q-75 0 -75 75t75 75h150v525h-375q-75 0 -75 75t75 75h900q75 0 75 -75z" />
    <glyph glyph-name="tbar" unicode="&#x167;" 
d="M1126 226q0 -22 -16 -46q-57 -83 -156.5 -131.5t-203.5 -48.5q-186 0 -318 132t-132 318h-150q-75 0 -75 75t75 75h150v300h-150q-75 0 -75 75t75 75h150v375q0 75 75 75t75 -75v-375h375q75 0 75 -75t-75 -75h-375v-300h375q75 0 75 -75t-75 -75h-375q0 -124 88 -212
t212 -88q132 0 240 120q28 31 58 31q31 0 54.5 -22.5t23.5 -52.5z" />
    <glyph glyph-name="Utilde" unicode="&#x168;" 
d="M976 1803q0 -24 -18 -54q-58 -99 -208 -99q-85 0 -176.5 75t-123.5 75q-51 0 -79 -24q-17 -51 -69 -51q-78 0 -78 72q0 24 18 54q58 99 208 99q85 0 176.5 -75t123.5 -75q61 0 86.5 37.5t61.5 37.5q78 0 78 -72zM1075 475q0 -197 -139 -336t-336 -139t-336 139t-139 336
v950q0 75 75 75t75 -75v-950q0 -134 95.5 -229.5t229.5 -95.5t229.5 95.5t95.5 229.5v950q0 75 75 75t75 -75v-950z" />
    <glyph glyph-name="utilde" unicode="&#x169;" 
d="M976 1353q0 -24 -18 -54q-58 -99 -208 -99q-85 0 -176.5 75t-123.5 75q-51 0 -79 -24q-17 -51 -69 -51q-78 0 -78 72q0 24 18 54q58 99 208 99q85 0 176.5 -75t123.5 -75q61 0 86.5 37.5t61.5 37.5q78 0 78 -72zM1075 475q0 -197 -139 -336t-336 -139t-336 139t-139 336
v500q0 75 75 75t75 -75v-500q0 -134 95.5 -229.5t229.5 -95.5t229.5 95.5t95.5 229.5v500q0 75 75 75t75 -75v-500z" />
    <glyph glyph-name="Umacron" unicode="&#x16a;" 
d="M1075 1800q0 -75 -75 -75h-800q-75 0 -75 75t75 75h800q75 0 75 -75zM1075 475q0 -197 -139 -336t-336 -139t-336 139t-139 336v950q0 75 75 75t75 -75v-950q0 -134 95.5 -229.5t229.5 -95.5t229.5 95.5t95.5 229.5v950q0 75 75 75t75 -75v-950z" />
    <glyph glyph-name="umacron" unicode="&#x16b;" 
d="M975 1350q0 -75 -75 -75h-600q-75 0 -75 75t75 75h600q75 0 75 -75zM1075 475q0 -197 -139 -336t-336 -139t-336 139t-139 336v500q0 75 75 75t75 -75v-500q0 -134 95.5 -229.5t229.5 -95.5t229.5 95.5t95.5 229.5v500q0 75 75 75t75 -75v-500z" />
    <glyph glyph-name="Ubreve" unicode="&#x16c;" 
d="M903 1875q0 -27 -43 -74q-138 -151 -260 -151q-71 0 -158 59q-77 53 -126 119q-17 25 -17 47q0 31 23.5 53.5t54.5 22.5q29 0 102 -75.5t121 -75.5t121 75.5t102 75.5q31 0 55.5 -22.5t24.5 -53.5zM1075 475q0 -197 -139 -336t-336 -139t-336 139t-139 336v950
q0 75 75 75t75 -75v-950q0 -134 95.5 -229.5t229.5 -95.5t229.5 95.5t95.5 229.5v950q0 75 75 75t75 -75v-950z" />
    <glyph glyph-name="ubreve" unicode="&#x16d;" 
d="M903 1425q0 -27 -43 -74q-138 -151 -260 -151q-71 0 -158 59q-77 53 -126 119q-17 25 -17 47q0 31 23.5 53.5t54.5 22.5q29 0 102 -75.5t121 -75.5t121 75.5t102 75.5q31 0 55.5 -22.5t24.5 -53.5zM1075 475q0 -197 -139 -336t-336 -139t-336 139t-139 336v500
q0 75 75 75t75 -75v-500q0 -134 95.5 -229.5t229.5 -95.5t229.5 95.5t95.5 229.5v500q0 75 75 75t75 -75v-500z" />
    <glyph glyph-name="Uring" unicode="&#x16e;" 
d="M817 1731q0 -90 -63.5 -152t-153.5 -62t-154 62t-64 152q0 89 64 153t154 64t153.5 -64t63.5 -153zM1075 475q0 -197 -139 -336t-336 -139t-336 139t-139 336v950q0 75 75 75t75 -75v-950q0 -134 95.5 -229.5t229.5 -95.5t229.5 95.5t95.5 229.5v950q0 75 75 75t75 -75
v-950zM667 1731q0 67 -67 67q-68 0 -68 -67q0 -64 68 -64q67 0 67 64z" />
    <glyph glyph-name="uring" unicode="&#x16f;" 
d="M817 1311q0 -90 -63.5 -152t-153.5 -62t-154 62t-64 152q0 89 64 153t154 64t153.5 -64t63.5 -153zM1075 475q0 -197 -139 -336t-336 -139t-336 139t-139 336v500q0 75 75 75t75 -75v-500q0 -134 95.5 -229.5t229.5 -95.5t229.5 95.5t95.5 229.5v500q0 75 75 75t75 -75
v-500zM667 1311q0 67 -67 67q-68 0 -68 -67q0 -64 68 -64q67 0 67 64z" />
    <glyph glyph-name="Udblacute" unicode="&#x170;" 
d="M1051 1873q0 -44 -42 -65l-300 -150q-18 -9 -36 -9q-31 0 -52.5 24t-21.5 54q0 44 42 65l300 150q18 9 36 9q31 0 52.5 -24t21.5 -54zM601 1873q0 -44 -42 -65l-300 -150q-18 -9 -36 -9q-31 0 -52.5 24t-21.5 54q0 44 42 65l300 150q18 9 36 9q31 0 52.5 -24t21.5 -54z
M1075 475q0 -197 -139 -336t-336 -139t-336 139t-139 336v950q0 75 75 75t75 -75v-950q0 -134 95.5 -229.5t229.5 -95.5t229.5 95.5t95.5 229.5v950q0 75 75 75t75 -75v-950z" />
    <glyph glyph-name="udblacute" unicode="&#x171;" 
d="M1051 1423q0 -44 -42 -65l-300 -150q-18 -9 -36 -9q-31 0 -52.5 24t-21.5 54q0 44 42 65l300 150q18 9 36 9q31 0 52.5 -24t21.5 -54zM601 1423q0 -44 -42 -65l-300 -150q-18 -9 -36 -9q-31 0 -52.5 24t-21.5 54q0 44 42 65l300 150q18 9 36 9q31 0 52.5 -24t21.5 -54z
M1075 475q0 -197 -139 -336t-336 -139t-336 139t-139 336v500q0 75 75 75t75 -75v-500q0 -134 95.5 -229.5t229.5 -95.5t229.5 95.5t95.5 229.5v500q0 75 75 75t75 -75v-500z" />
    <glyph glyph-name="Uogonek" unicode="&#x172;" 
d="M1075 475q0 -197 -139 -336t-336 -139q-62 0 -106 -44t-44 -106t44 -106t106 -44q67 0 115 57t78 57t54 -22t24 -52q0 -19 -11 -39q-81 -151 -260 -151q-124 0 -212 88t-88 212q0 118 80 204q-117 61 -186 175t-69 246v950q0 75 75 75t75 -75v-950q0 -134 95.5 -229.5
t229.5 -95.5t229.5 95.5t95.5 229.5v950q0 75 75 75t75 -75v-950z" />
    <glyph glyph-name="uogonek" unicode="&#x173;" 
d="M1075 475q0 -197 -139 -336t-336 -139q-62 0 -106 -44t-44 -106t44 -106t106 -44q67 0 115 57t78 57t54 -22t24 -52q0 -19 -11 -39q-81 -151 -260 -151q-124 0 -212 88t-88 212q0 118 80 204q-117 61 -186 175t-69 246v500q0 75 75 75t75 -75v-500q0 -134 95.5 -229.5
t229.5 -95.5t229.5 95.5t95.5 229.5v500q0 75 75 75t75 -75v-500z" />
    <glyph glyph-name="Wcircumflex" unicode="&#x174;" 
d="M901 1727q0 -30 -22.5 -54t-52.5 -24q-22 0 -43 14l-183 122l-183 -122q-21 -14 -43 -14q-30 0 -52.5 24t-22.5 54q0 37 34 60l219 146q27 18 48 18t48 -18l219 -146q34 -23 34 -60zM1125 1428q0 -8 -1 -15l-224 -1341q-12 -72 -76 -72q-57 0 -74 66l-150 600l-150 -600
q-16 -66 -74 -66q-65 0 -76 72l-224 1341q-1 7 -1 15q0 72 76 72q63 0 73 -63l166 -994l135 540q16 67 75 67q58 0 75 -67l135 -540l166 994q10 63 73 63q76 0 76 -72z" />
    <glyph glyph-name="wcircumflex" unicode="&#x175;" 
d="M901 1277q0 -30 -22.5 -54t-52.5 -24q-22 0 -43 14l-183 122l-183 -122q-21 -14 -43 -14q-30 0 -52.5 24t-22.5 54q0 37 34 60l219 146q27 18 48 18t48 -18l219 -146q34 -23 34 -60zM1126 978q0 -12 -4 -25l-267 -888q-19 -65 -75 -65t-75 65l-105 348l-105 -348
q-19 -65 -75 -65t-75 65l-267 888q-4 13 -4 25q0 72 78 72q54 0 70 -53l198 -661l102 338q-88 292 -88 304q0 72 78 72q54 0 70 -53l198 -661l198 661q16 53 70 53q78 0 78 -72z" />
    <glyph glyph-name="Ycircumflex" unicode="&#x176;" 
d="M901 1727q0 -30 -22.5 -54t-52.5 -24q-22 0 -43 14l-183 122l-183 -122q-21 -14 -43 -14q-30 0 -52.5 24t-22.5 54q0 37 34 60l219 146q27 18 48 18t48 -18l219 -146q34 -23 34 -60zM1126 1426q0 -22 -14 -43l-437 -656v-652q0 -75 -75 -75t-75 75v652l-437 656
q-14 21 -14 43q0 30 24 52.5t54 22.5q37 0 60 -34l388 -582l388 582q23 34 60 34q30 0 54 -22.5t24 -52.5z" />
    <glyph glyph-name="ycircumflex" unicode="&#x177;" 
d="M876 1277q0 -30 -22.5 -54t-52.5 -24q-22 0 -43 14l-183 122l-183 -122q-21 -14 -43 -14q-30 0 -52.5 24t-22.5 54q0 37 34 60l219 146q27 18 48 18t48 -18l219 -146q34 -23 34 -60zM1025 975v-975q0 -186 -132 -318t-318 -132q-118 0 -224 60q-110 62 -165 163
q-11 22 -11 40q0 30 24 52t54 22q34 0 63 -38q112 -149 259 -149q124 0 212 88t88 212v115q-128 -115 -300 -115q-186 0 -318 132t-132 318v525q0 75 75 75t75 -75v-525q0 -124 88 -212t212 -88t212 88t88 211v526q0 75 75 75t75 -75z" />
    <glyph glyph-name="Ydieresis" unicode="&#x178;" 
d="M938 1763q0 -47 -33.5 -80t-79.5 -33q-47 0 -79.5 33t-32.5 80t32.5 79.5t79.5 32.5q46 0 79.5 -32.5t33.5 -79.5zM488 1763q0 -47 -33.5 -80t-79.5 -33q-47 0 -79.5 33t-32.5 80t32.5 79.5t79.5 32.5q46 0 79.5 -32.5t33.5 -79.5zM1126 1426q0 -22 -14 -43l-437 -656
v-652q0 -75 -75 -75t-75 75v652l-437 656q-14 21 -14 43q0 30 24 52.5t54 22.5q37 0 60 -34l388 -582l388 582q23 34 60 34q30 0 54 -22.5t24 -52.5z" />
    <glyph glyph-name="Zacute" unicode="&#x179;" 
d="M826 1873q0 -44 -42 -65l-300 -150q-18 -9 -36 -9q-31 0 -52.5 24t-21.5 54q0 44 42 65l300 150q18 9 36 9q31 0 52.5 -24t21.5 -54zM1126 1426q0 -22 -21 -54l-815 -1222h760q75 0 75 -75t-75 -75l-897 -1q-79 0 -79 75q0 22 21 54l815 1222h-760q-75 0 -75 75t75 75
l897 1q79 0 79 -75z" />
    <glyph glyph-name="zacute" unicode="&#x17a;" 
d="M826 1423q0 -44 -42 -65l-300 -150q-18 -9 -36 -9q-31 0 -52.5 24t-21.5 54q0 44 42 65l300 150q18 9 36 9q31 0 52.5 -24t21.5 -54zM1126 974q0 -29 -33 -62l-762 -762h719q75 0 75 -75t-75 -75l-898 -1q-78 0 -78 77q0 29 33 62l762 762h-719q-75 0 -75 75t75 75l898 1
q78 0 78 -77z" />
    <glyph glyph-name="Zdot" unicode="&#x17b;" 
d="M713 1763q0 -47 -33 -80t-80 -33t-79.5 33t-32.5 80t32.5 79.5t79.5 32.5t80 -32.5t33 -79.5zM1126 1426q0 -22 -21 -54l-815 -1222h760q75 0 75 -75t-75 -75l-897 -1q-79 0 -79 75q0 22 21 54l815 1222h-760q-75 0 -75 75t75 75l897 1q79 0 79 -75z" />
    <glyph glyph-name="zdot" unicode="&#x17c;" 
d="M713 1313q0 -47 -33 -80t-80 -33t-79.5 33t-32.5 80t32.5 79.5t79.5 32.5t80 -32.5t33 -79.5zM1126 974q0 -29 -33 -62l-762 -762h719q75 0 75 -75t-75 -75l-898 -1q-78 0 -78 77q0 29 33 62l762 762h-719q-75 0 -75 75t75 75l898 1q78 0 78 -77z" />
    <glyph glyph-name="Zcaron" unicode="&#x17d;" 
d="M901 1873q0 -35 -34 -60q-215 -160 -267 -160t-267 160q-34 25 -34 60q0 30 22.5 54t52.5 24q22 0 43 -14l183 -122l183 122q21 14 43 14q30 0 52.5 -24t22.5 -54zM1126 1426q0 -22 -21 -54l-815 -1222h760q75 0 75 -75t-75 -75l-897 -1q-79 0 -79 75q0 22 21 54
l815 1222h-760q-75 0 -75 75t75 75l897 1q79 0 79 -75z" />
    <glyph glyph-name="zcaron" unicode="&#x17e;" 
d="M901 1423q0 -35 -34 -60q-215 -160 -267 -160t-267 160q-34 25 -34 60q0 30 22.5 54t52.5 24q22 0 43 -14l183 -122l183 122q21 14 43 14q30 0 52.5 -24t22.5 -54zM1126 974q0 -29 -33 -62l-762 -762h719q75 0 75 -75t-75 -75l-898 -1q-78 0 -78 77q0 29 33 62l762 762
h-719q-75 0 -75 75t75 75l898 1q78 0 78 -77z" />
    <glyph glyph-name="longs" unicode="&#x17f;" 
d="M1126 1274q0 -30 -23.5 -52.5t-54.5 -22.5q-18 0 -103.5 75.5t-194.5 75.5q-124 0 -212 -88t-88 -212v-975q0 -75 -75 -75t-75 75v975q0 186 132 318t318 132q102 0 202 -48q105 -51 158 -132q16 -25 16 -46z" />
    <glyph glyph-name="glyph321" 
 />
    <glyph glyph-name="florin" unicode="&#x192;" 
d="M1050 1354q0 -78 -60 -78q-22 0 -68 37t-97 37q-62 0 -106 -44t-44 -106v-150h150q75 0 75 -75t-75 -75h-150v-1050q0 -124 -88 -212t-212 -88q-85 0 -146 31q-79 39 -79 115q0 78 60 78q22 0 68 -37t97 -37q62 0 106 44t44 106v1050h-150q-75 0 -75 75t75 75h150v150
q0 124 88 212t212 88q85 0 146 -31q79 -39 79 -115z" />
    <glyph glyph-name="Aringacute" unicode="&#x1fa;" 
d="M841 1874q0 -46 -45 -66l-300 -135q-17 -7 -34 -7q-30 0 -51.5 23.5t-21.5 54.5q0 46 45 66l300 135q17 7 34 7q30 0 51.5 -23.5t21.5 -54.5zM1126 72q0 -31 -23.5 -52t-54.5 -21q-50 0 -68 50l-132 356h-496l-132 -356q-18 -50 -68 -50q-31 0 -54.5 21t-23.5 52
q0 17 446 1217q-137 50 -137 186q0 86 66 146q64 57 151 57t151 -57q67 -60 67 -146q0 -136 -138 -186q446 -1201 446 -1217zM668 1475q0 53 -68 53q-67 0 -67 -53q0 -50 67 -50q68 0 68 50zM792 555l-192 519l-192 -519h384z" />
    <glyph glyph-name="aringacute" unicode="&#x1fb;" 
d="M826 1798q0 -44 -42 -65l-300 -150q-18 -9 -36 -9q-31 0 -52.5 24t-21.5 54q0 44 42 65l300 150q18 9 36 9q31 0 52.5 -24t21.5 -54zM818 1311q0 -90 -64 -152t-154 -62t-153.5 62t-63.5 152q0 89 63.5 153t153.5 64t154 -64t64 -153zM1075 75q0 -75 -75 -75
q-77 0 -75 106q-148 -106 -350 -106q-185 0 -331 93q-169 108 -169 282t169 282q147 93 331 93q202 0 350 -106v31q0 44 -31 89q-92 136 -319 136q-130 0 -257 -74q-26 -15 -45 -15q-30 0 -52.5 23.5t-22.5 54.5q0 74 157 123q122 38 220 38q184 0 331 -93
q169 -108 169 -282v-600zM668 1311q0 67 -68 67q-67 0 -67 -67q0 -64 67 -64q68 0 68 64zM925 375q0 71 -68 131q-57 50 -135 73q-68 21 -147 21q-232 0 -323 -142q-27 -42 -27 -83t27 -83q91 -142 323 -142q79 0 147 21q78 23 135 73q68 60 68 131z" />
    <glyph glyph-name="AEacute" unicode="&#x1fc;" 
d="M901 1798q0 -44 -42 -65l-300 -150q-18 -9 -36 -9q-31 0 -52.5 24t-21.5 54q0 44 42 65l300 150q18 9 36 9q31 0 52.5 -24t21.5 -54zM1125 750q0 -75 -75 -75h-285v-525h285q75 0 75 -75t-75 -75h-360q-75 0 -75 75v375h-234l-161 -403q-19 -48 -68 -48q-30 0 -54 21.5
t-24 51.5q0 15 6 31l537 1342q10 25 23 38l-4 -4q23 22 52 22l362 -1q75 0 75 -75t-75 -75h-285v-525h285q75 0 75 -75zM647 1488q-2 -1 -7 -5zM636 1479zM615 600v436l-174 -436h174z" />
    <glyph glyph-name="aeacute" unicode="&#x1fd;" 
d="M916 1423q0 -44 -42 -65l-300 -150q-18 -9 -36 -9q-30 0 -51.5 24t-21.5 54q0 44 42 65l300 150q18 9 36 9q30 0 51.5 -24t21.5 -54zM1126 758q0 -33 -21 -59q-57 -62 -169 -187q-68 -81 -214 -233q48 -129 119 -129q66 0 137 172q22 53 70 53q78 0 78 -72q0 -12 -4 -25
q-33 -111 -99 -187q-80 -91 -182 -91q-140 0 -225 151q-88 -151 -241 -151q-136 0 -223 123q-77 110 -77 252t77 252q87 123 223 123q82 0 149 -48q-5 70 -42 128q-44 70 -107 70q-45 0 -86.5 -44.5t-70.5 -44.5q-31 0 -55 22.5t-24 52.5q0 21 17 46q78 118 219 118
q153 0 241 -151q88 151 225 151q90 0 187.5 -101t97.5 -191zM964 768q-53 132 -123 132q-28 0 -61 -33q-105 -105 -105 -342q0 -28 4 -64zM525 375q0 77 -36 144q-44 81 -114 81t-114 -81q-36 -67 -36 -144t36 -144q44 -81 114 -81t114 81q36 67 36 144z" />
    <glyph glyph-name="Oslashacute" unicode="&#x1fe;" 
d="M811 1873q0 -44 -42 -65l-300 -150q-18 -9 -36 -9q-31 0 -52.5 24t-21.5 54q0 44 42 65l300 150q18 9 36 9q31 0 52.5 -24t21.5 -54zM1126 1426q0 -25 -119 -201q118 -209 118 -475q0 -269 -126 -489q-150 -261 -399 -261q-177 0 -313 145l-75 -112q-23 -34 -60 -34
q-30 0 -54 22t-24 53q0 25 119 201q-118 209 -118 475q0 269 126 489q150 261 399 261q177 0 313 -145l75 112q23 34 60 34q30 0 54 -22t24 -53zM826 1225q-103 125 -226 125q-118 0 -216 -113q-80 -93 -121 -224q-38 -122 -38 -263q0 -184 63 -332zM975 750q0 184 -63 332
l-538 -807q103 -125 226 -125q118 0 216 114q80 92 121 223q38 122 38 263z" />
    <glyph glyph-name="oslashacute" unicode="&#x1ff;" 
d="M826 1423q0 -44 -42 -65l-300 -150q-18 -9 -36 -9q-31 0 -52.5 24t-21.5 54q0 44 42 65l300 150q18 9 36 9q31 0 52.5 -24t21.5 -54zM1126 974q0 -32 -106 -135q105 -139 105 -314q0 -217 -154 -371t-371 -154q-175 0 -314 105q-103 -106 -135 -106q-31 0 -54 23t-23 54
q0 32 106 135q-105 139 -105 314q0 217 154 371t371 154q175 0 314 -105q103 106 135 106q31 0 54 -23t23 -54zM807 838q-94 62 -207 62q-155 0 -265 -110t-110 -265q0 -113 62 -207zM975 525q0 113 -62 207l-520 -520q94 -62 207 -62q155 0 265 110t110 265z" />
    <glyph glyph-name="circumflex" unicode="&#x2c6;" 
d="M901 1727q0 -30 -22.5 -54t-52.5 -24q-22 0 -43 14l-183 122l-183 -122q-21 -14 -43 -14q-30 0 -52.5 24t-22.5 54q0 35 34 60q215 160 267 160t267 -160q34 -25 34 -60z" />
    <glyph glyph-name="caron" unicode="&#x2c7;" 
d="M901 1873q0 -35 -34 -60q-215 -160 -267 -160t-267 160q-34 25 -34 60q0 30 22.5 54t52.5 24q22 0 43 -14l183 -122l183 122q21 14 43 14q30 0 52.5 -24t22.5 -54z" />
    <glyph glyph-name="macron" unicode="&#xaf;" 
d="M1125 1800q0 -75 -75 -75h-900q-75 0 -75 75t75 75h900q75 0 75 -75z" />
    <glyph glyph-name="macron" unicode="&#x2c9;" 
d="M1125 1800q0 -75 -75 -75h-900q-75 0 -75 75t75 75h900q75 0 75 -75z" />
    <glyph glyph-name="breve" unicode="&#x2d8;" 
d="M903 1875q0 -27 -43 -74q-138 -151 -260 -151q-71 0 -158 59q-77 53 -126 119q-17 25 -17 47q0 31 23.5 53.5t54.5 22.5q29 0 102 -75.5t121 -75.5t121 75.5t102 75.5q31 0 55.5 -22.5t24.5 -53.5z" />
    <glyph glyph-name="dotaccent" unicode="&#x2d9;" 
d="M713 1763q0 -47 -33.5 -80t-80.5 -33q-46 0 -78.5 33t-32.5 80t32.5 79.5t78.5 32.5q48 0 81 -32.5t33 -79.5z" />
    <glyph glyph-name="ring" unicode="&#x2da;" 
d="M818 1731q0 -90 -64 -152t-154 -62t-153.5 62t-63.5 152q0 89 63.5 153t153.5 64t154 -64t64 -153zM668 1731q0 67 -68 67q-67 0 -67 -67q0 -64 67 -64q68 0 68 64z" />
    <glyph glyph-name="ogonek" unicode="&#x2db;" 
d="M886 -260q0 -18 -11 -39q-35 -68 -108.5 -109.5t-151.5 -41.5q-124 0 -212 88t-88 212t88 212t212 88q75 0 75 -75t-75 -75q-62 0 -106 -44t-44 -106t44 -106t106 -44q67 0 115 57t78 57t54 -22t24 -52z" />
    <glyph glyph-name="tilde" unicode="&#x2dc;" 
d="M976 1803q0 -24 -18 -54q-58 -99 -208 -99q-85 0 -176.5 75t-123.5 75q-51 0 -79 -24q-17 -51 -69 -51q-78 0 -78 72q0 24 18 54q58 99 208 99q85 0 176.5 -75t123.5 -75q61 0 86.5 37.5t61.5 37.5q78 0 78 -72z" />
    <glyph glyph-name="hungarumlaut" unicode="&#x2dd;" 
d="M1051 1873q0 -44 -42 -65l-300 -150q-18 -9 -36 -9q-31 0 -52.5 24t-21.5 54q0 44 42 65l300 150q18 9 36 9q31 0 52.5 -24t21.5 -54zM601 1873q0 -44 -42 -65l-300 -150q-18 -9 -36 -9q-31 0 -52.5 24t-21.5 54q0 44 42 65l300 150q18 9 36 9q31 0 52.5 -24t21.5 -54z
" />
    <glyph glyph-name="glyph338" 
 />
    <glyph glyph-name="tonos" unicode="&#x384;" 
d="M675 1675q0 -75 -75 -75t-75 75v200q0 75 75 75t75 -75v-200z" />
    <glyph glyph-name="dieresistonos" unicode="&#x385;" 
d="M1013 1763q0 -47 -33.5 -80t-79.5 -33q-47 0 -79.5 33t-32.5 80t32.5 79.5t79.5 32.5q46 0 79.5 -32.5t33.5 -79.5zM675 1675q0 -75 -75 -75t-75 75v200q0 75 75 75t75 -75v-200zM413 1763q0 -47 -33.5 -80t-79.5 -33q-47 0 -79.5 33t-32.5 80t32.5 79.5t79.5 32.5
q46 0 79.5 -32.5t33.5 -79.5z" />
    <glyph glyph-name="Alphatonos" unicode="&#x386;" 
d="M675 1675q0 -75 -75 -75t-75 75v200q0 75 75 75t75 -75v-200zM1126 72q0 -72 -78 -72q-52 0 -69 51l-133 399h-492l-133 -399q-17 -51 -69 -51q-78 0 -78 72q0 13 5 27l446 1338q21 63 75 63t75 -63l446 -1338q5 -14 5 -27zM796 600l-196 588l-196 -588h392z" />
    <glyph glyph-name="anoteleia" unicode="&#x387;" 
d="M714 638q0 -47 -33.5 -80.5t-80.5 -33.5t-80.5 33.5t-33.5 80.5q0 46 33.5 78.5t80.5 32.5t80.5 -32.5t33.5 -78.5z" />
    <glyph glyph-name="Epsilontonos" unicode="&#x388;" 
d="M750 1675q0 -75 -75 -75t-75 75v200q0 75 75 75t75 -75v-200zM1125 75q0 -75 -75 -75h-800q-30 0 -52.5 22.5t-22.5 52.5v1350q0 30 22.5 52.5t52.5 22.5h800q75 0 75 -75t-75 -75h-725v-525h725q75 0 75 -75t-75 -75h-725v-525h725q75 0 75 -75z" />
    <glyph glyph-name="Etatonos" unicode="&#x389;" 
d="M675 1675q0 -75 -75 -75t-75 75v200q0 75 75 75t75 -75v-200zM1025 75q0 -75 -75 -75t-75 75v600h-550v-600q0 -75 -75 -75t-75 75v1350q0 75 75 75t75 -75v-600h550v600q0 75 75 75t75 -75v-1350z" />
    <glyph glyph-name="Iotatonos" unicode="&#x38a;" 
d="M675 1675q0 -75 -75 -75t-75 75v200q0 75 75 75t75 -75v-200zM975 75q0 -75 -75 -75h-600q-75 0 -75 75t75 75h225v1200h-225q-75 0 -75 75t75 75h600q75 0 75 -75t-75 -75h-225v-1200h225q75 0 75 -75z" />
    <glyph glyph-name="Omicrontonos" unicode="&#x38c;" 
d="M675 1675q0 -75 -75 -75t-75 75v200q0 75 75 75t75 -75v-200zM1125 750q0 -269 -126 -489q-150 -261 -399 -261t-399 261q-126 220 -126 489t126 489q150 261 399 261t399 -261q126 -220 126 -489zM975 750q0 131 -33 246q-39 136 -120 234q-100 120 -222 120t-222 -120
q-81 -98 -120 -234q-33 -115 -33 -246t33 -246q39 -136 120 -234q100 -120 222 -120t222 120q81 98 120 234q33 115 33 246z" />
    <glyph glyph-name="Upsilontonos" unicode="&#x38e;" 
d="M675 1675q0 -75 -75 -75t-75 75v200q0 75 75 75t75 -75v-200zM1126 1426q0 -22 -14 -43l-437 -656v-652q0 -75 -75 -75t-75 75v652l-437 656q-14 21 -14 43q0 30 24 52.5t54 22.5q37 0 60 -34l388 -582l388 582q23 34 60 34q30 0 54 -22.5t24 -52.5z" />
    <glyph glyph-name="Omegatonos" unicode="&#x38f;" 
d="M675 1675q0 -75 -75 -75t-75 75v200q0 75 75 75t75 -75v-200zM1125 75q0 -75 -75 -75l-297 -1q-79 0 -79 75q0 24 22 55l202 280q77 133 77 341q0 135 -35 253q-39 134 -120 230q-100 117 -220 117t-220 -117q-80 -96 -120 -230q-35 -118 -35 -253q0 -208 77 -341
l202 -280q22 -31 22 -55q0 -75 -79 -75l-297 1q-75 0 -75 75t75 75h154q-144 189 -180 274q-49 117 -49 326q0 269 126 489q150 261 399 261t399 -261q126 -220 126 -489q0 -209 -49 -326q-36 -85 -180 -274h154q75 0 75 -75z" />
    <glyph glyph-name="iotadieresistonos" unicode="&#x390;" 
d="M1013 1763q0 -47 -33.5 -80t-80.5 -33q-46 0 -78.5 33t-32.5 80t32.5 79.5t78.5 32.5q47 0 80.5 -32.5t33.5 -79.5zM674 1675q0 -75 -75 -75t-75 75v200q0 75 75 75t75 -75v-200zM413 1763q0 -47 -33.5 -80t-80.5 -33q-46 0 -78.5 33t-32.5 80t32.5 79.5t78.5 32.5
q47 0 80.5 -32.5t33.5 -79.5zM975 75q0 -75 -75 -75h-600q-75 0 -75 75t75 75h225v1200h-225q-75 0 -75 75t75 75h600q75 0 75 -75t-75 -75h-225v-1200h225q75 0 75 -75z" />
    <glyph glyph-name="Alpha" unicode="&#x391;" 
d="M1126 72q0 -72 -78 -72q-52 0 -69 51l-133 399h-492l-133 -399q-17 -51 -69 -51q-78 0 -78 72q0 13 5 27l446 1338q21 63 75 63t75 -63l446 -1338q5 -14 5 -27zM796 600l-196 588l-196 -588h392z" />
    <glyph glyph-name="Beta" unicode="&#x392;" 
d="M1125 449q0 -186 -132 -318t-319 -132l-424 1q-30 0 -52.5 22.5t-22.5 52.5v1350q0 30 22.5 52.5t52.5 22.5h425q155 0 265 -110t110 -265q0 -179 -139 -292q214 -132 214 -384zM900 1125q0 93 -66 159t-159 66h-350v-450h350q93 0 159 66t66 159zM975 449
q0 124 -88 212.5t-212 88.5h-350v-600l350 -1q124 0 212 88t88 212z" />
    <glyph glyph-name="Gamma" unicode="&#x393;" 
d="M1125 1425q0 -75 -75 -75h-725v-1275q0 -75 -75 -75t-75 75v1351q0 74 74 74h801q75 0 75 -75z" />
    <glyph glyph-name="Delta" unicode="&#x394;" 
d="M1126 73q0 -73 -77 -73h-898q-77 0 -77 73q0 13 8 36l443 1328q21 63 75 63t75 -63l443 -1328q8 -23 8 -36zM946 150l-346 1038l-346 -1038h692z" />
    <glyph glyph-name="Epsilon" unicode="&#x395;" 
d="M1125 75q0 -75 -75 -75h-800q-30 0 -52.5 22.5t-22.5 52.5v1350q0 30 22.5 52.5t52.5 22.5h800q75 0 75 -75t-75 -75h-725v-525h725q75 0 75 -75t-75 -75h-725v-525h725q75 0 75 -75z" />
    <glyph glyph-name="Zeta" unicode="&#x396;" 
d="M1126 1426q0 -22 -21 -54l-815 -1222h760q75 0 75 -75t-75 -75l-897 -1q-79 0 -79 75q0 22 21 54l815 1222h-760q-75 0 -75 75t75 75l897 1q79 0 79 -75z" />
    <glyph glyph-name="Eta" unicode="&#x397;" 
d="M1025 75q0 -75 -75 -75t-75 75v600h-550v-600q0 -75 -75 -75t-75 75v1350q0 75 75 75t75 -75v-600h550v600q0 75 75 75t75 -75v-1350z" />
    <glyph glyph-name="Theta" unicode="&#x398;" 
d="M1125 750q0 -269 -126 -489q-150 -261 -399 -261t-399 261q-126 220 -126 489t126 489q150 261 399 261t399 -261q126 -220 126 -489zM975 750q0 131 -33 246q-39 136 -120 234q-100 120 -222 120t-222 -120q-81 -98 -120 -234q-33 -115 -33 -246t33 -246
q39 -136 120 -234q100 -120 222 -120t222 120q81 98 120 234q33 115 33 246zM925 750q0 -75 -75 -75h-500q-75 0 -75 75t75 75h500q75 0 75 -75z" />
    <glyph glyph-name="Theta" unicode="&#x472;" 
d="M1125 750q0 -269 -126 -489q-150 -261 -399 -261t-399 261q-126 220 -126 489t126 489q150 261 399 261t399 -261q126 -220 126 -489zM975 750q0 131 -33 246q-39 136 -120 234q-100 120 -222 120t-222 -120q-81 -98 -120 -234q-33 -115 -33 -246t33 -246
q39 -136 120 -234q100 -120 222 -120t222 120q81 98 120 234q33 115 33 246zM925 750q0 -75 -75 -75h-500q-75 0 -75 75t75 75h500q75 0 75 -75z" />
    <glyph glyph-name="Iota" unicode="&#x399;" 
d="M975 75q0 -75 -75 -75h-600q-75 0 -75 75t75 75h225v1200h-225q-75 0 -75 75t75 75h600q75 0 75 -75t-75 -75h-225v-1200h225q75 0 75 -75z" />
    <glyph glyph-name="Kappa" unicode="&#x39a;" 
d="M1126 75q0 -30 -23 -53t-54 -23q-30 0 -53 24l-650 675q-20 21 -21 38v-661q0 -75 -75 -75t-75 75v1350q0 75 75 75t75 -75v-661q4 21 21 38l650 675q23 24 53 24q31 0 54 -23t23 -53q0 -29 -22 -52l-600 -623l600 -623q22 -23 22 -52zM333 716q-6 10 -8 21v-1
q0 -6 8 -20zM342 702q-5 7 -12 19q5 -10 12 -19z" />
    <glyph glyph-name="Lambda" unicode="&#x39b;" 
d="M1126 72q0 -72 -78 -72q-52 0 -69 51l-379 1137l-379 -1137q-17 -51 -69 -51q-78 0 -78 72q0 13 5 27l446 1338q21 63 75 63t75 -63l446 -1338q5 -14 5 -27z" />
    <glyph glyph-name="Mu" unicode="&#x39c;" 
d="M1125 73q0 -73 -76 -73q-65 0 -73 65l-129 968l-172 -666q-17 -67 -75 -67t-75 67l-172 666l-129 -968q-8 -65 -73 -65q-76 0 -76 73q0 6 1 12l179 1341q9 74 75 74q58 0 75 -65l195 -759l195 759q17 65 73 65q68 0 77 -74l179 -1341q1 -6 1 -12z" />
    <glyph glyph-name="Nu" unicode="&#x39d;" 
d="M1026 74q0 -75 -78 -75q-43 0 -69 51l-554 1067v-1042q0 -75 -75 -75t-75 75l-1 1351q0 75 78 75q43 0 69 -51l554 -1067v1042q0 75 75 75t75 -75z" />
    <glyph glyph-name="Xi" unicode="&#x39e;" 
d="M1125 1425q0 -75 -75 -75h-900q-75 0 -75 75t75 75h900q75 0 75 -75zM975 750q0 -75 -75 -75h-600q-75 0 -75 75t75 75h600q75 0 75 -75zM1125 75q0 -75 -75 -75h-900q-75 0 -75 75t75 75h900q75 0 75 -75z" />
    <glyph glyph-name="Omicron" unicode="&#x39f;" 
d="M1125 750q0 -269 -126 -489q-150 -261 -399 -261t-399 261q-126 220 -126 489t126 489q150 261 399 261t399 -261q126 -220 126 -489zM975 750q0 131 -33 246q-39 136 -120 234q-100 120 -222 120t-222 -120q-81 -98 -120 -234q-33 -115 -33 -246t33 -246
q39 -136 120 -234q100 -120 222 -120t222 120q81 98 120 234q33 115 33 246z" />
    <glyph glyph-name="Pi" unicode="&#x3a0;" 
d="M1025 75q0 -75 -75 -75t-75 75v1275h-550v-1275q0 -75 -75 -75t-75 75v1350q0 30 22.5 52.5t52.5 22.5h700q30 0 52.5 -22.5t22.5 -52.5v-1350z" />
    <glyph glyph-name="Rho" unicode="&#x3a1;" 
d="M1125 1050q0 -186 -132 -318t-318 -132h-350v-525q0 -75 -75 -75t-75 75v1350q0 30 22.5 52.5t52.5 22.5h425q186 0 318 -132t132 -318zM975 1050q0 124 -88 212t-212 88h-350v-600h350q124 0 212 88t88 212z" />
    <glyph glyph-name="Sigma" unicode="&#x3a3;" 
d="M1125 75q0 -75 -75 -75l-898 -1q-78 0 -78 77q0 29 33 62l612 612l-612 612q-33 33 -33 62q0 77 78 77l898 -1q75 0 75 -75t-75 -75h-719l547 -547q23 -23 23 -52q0 -31 -23 -54l-547 -547h719q75 0 75 -75z" />
    <glyph glyph-name="Tau" unicode="&#x3a4;" 
d="M1125 1425q0 -75 -75 -75h-375v-1275q0 -75 -75 -75t-75 75v1275h-375q-75 0 -75 75t75 75h900q75 0 75 -75z" />
    <glyph glyph-name="Upsilon" unicode="&#x3a5;" 
d="M1126 1426q0 -22 -14 -43l-437 -656v-652q0 -75 -75 -75t-75 75v652l-437 656q-14 21 -14 43q0 30 24 52.5t54 22.5q37 0 60 -34l388 -582l388 582q23 34 60 34q30 0 54 -22.5t24 -52.5z" />
    <glyph glyph-name="Phi" unicode="&#x3a6;" 
d="M1125 750q0 -195 -128.5 -343.5t-321.5 -176.5v-155q0 -75 -75 -75t-75 75v155q-193 28 -321.5 176.5t-128.5 343.5t128.5 343.5t321.5 176.5v155q0 75 75 75t75 -75v-155q193 -28 321.5 -176.5t128.5 -343.5zM975 750q0 133 -84.5 237t-215.5 130v-734q130 26 215 130
t85 237zM525 383v734q-130 -26 -215 -130t-85 -237t85 -237t215 -130z" />
    <glyph glyph-name="Chi" unicode="&#x3a7;" 
d="M1126 74q0 -30 -24 -52.5t-54 -22.5q-37 0 -60 34l-388 582l-388 -582q-23 -34 -60 -34q-30 0 -54 22.5t-24 52.5q0 22 14 43l422 633l-422 633q-14 21 -14 43q0 30 24 52.5t54 22.5q37 0 60 -34l388 -582l388 582q23 34 60 34q30 0 54 -22.5t24 -52.5q0 -22 -14 -43
l-422 -633l422 -633q14 -21 14 -43z" />
    <glyph glyph-name="Psi" unicode="&#x3a8;" 
d="M1125 1425q0 -906 -450 -970v-380q0 -75 -75 -75t-75 75v380q-450 64 -450 970q0 75 75 75t75 -75q0 -743 300 -816v816q0 75 75 75t75 -75v-816q300 73 300 816q0 75 75 75t75 -75z" />
    <glyph glyph-name="Psi" unicode="&#x470;" 
d="M1125 1425q0 -906 -450 -970v-380q0 -75 -75 -75t-75 75v380q-450 64 -450 970q0 75 75 75t75 -75q0 -743 300 -816v816q0 75 75 75t75 -75v-816q300 73 300 816q0 75 75 75t75 -75z" />
    <glyph glyph-name="Omega" unicode="&#x3a9;" 
d="M1125 75q0 -75 -75 -75l-297 -1q-79 0 -79 75q0 24 22 55l202 280q77 133 77 341q0 135 -35 253q-39 134 -120 230q-100 117 -220 117t-220 -117q-80 -96 -120 -230q-35 -118 -35 -253q0 -208 77 -341l202 -280q22 -31 22 -55q0 -75 -79 -75l-297 1q-75 0 -75 75t75 75
h154q-144 189 -180 274q-49 117 -49 326q0 269 126 489q150 261 399 261t399 -261q126 -220 126 -489q0 -209 -49 -326q-36 -85 -180 -274h154q75 0 75 -75z" />
    <glyph glyph-name="Iotadieresis" unicode="&#x3aa;" 
d="M938 1763q0 -47 -33.5 -80t-79.5 -33q-47 0 -79.5 33t-32.5 80t32.5 79.5t79.5 32.5q46 0 79.5 -32.5t33.5 -79.5zM488 1763q0 -47 -33.5 -80t-79.5 -33q-47 0 -79.5 33t-32.5 80t32.5 79.5t79.5 32.5q46 0 79.5 -32.5t33.5 -79.5zM975 75q0 -75 -75 -75h-600
q-75 0 -75 75t75 75h225v1200h-225q-75 0 -75 75t75 75h600q75 0 75 -75t-75 -75h-225v-1200h225q75 0 75 -75z" />
    <glyph glyph-name="Upsilondieresis" unicode="&#x3ab;" 
d="M938 1763q0 -47 -33 -80t-80 -33t-79.5 33t-32.5 80t32.5 79.5t79.5 32.5t80 -32.5t33 -79.5zM488 1763q0 -47 -33 -80t-80 -33t-79.5 33t-32.5 80t32.5 79.5t79.5 32.5t80 -32.5t33 -79.5zM1126 1426q0 -22 -14 -43l-437 -656v-652q0 -75 -75 -75t-75 75v652l-437 656
q-14 21 -14 43q0 30 24 52.5t54 22.5q37 0 60 -34l388 -582l388 582q23 34 60 34q30 0 54 -22.5t24 -52.5z" />
    <glyph glyph-name="alphatonos" unicode="&#x3ac;" 
d="M585 1275q0 -75 -75 -75t-75 75v200q0 75 75 75t75 -75v-200zM1125 75q0 -75 -75 -75t-75 75q0 133 -40 269q-209 -344 -425 -344q-194 0 -320 170q-115 154 -115 355t115 355q126 170 320 170q216 0 425 -344q40 136 40 269q0 75 75 75t75 -75q0 -218 -97 -450
q97 -232 97 -450zM865 525q-57 116 -149 227q-121 148 -206 148q-130 0 -213 -127q-72 -111 -72 -248t72 -248q83 -127 213 -127q85 0 206 148q92 111 149 227z" />
    <glyph glyph-name="epsilontonos" unicode="&#x3ad;" 
d="M643 1275q0 -75 -75 -75t-75 75v200q0 75 75 75t75 -75v-200zM1126 301q0 -21 -15 -45q-77 -120 -240 -191q-147 -65 -303 -65q-171 0 -313 66q-180 84 -180 234q0 140 162 225q-162 85 -162 225q0 150 180 234q142 66 313 66q156 0 303 -65q163 -71 240 -191
q15 -24 15 -45q0 -30 -23.5 -52.5t-54.5 -22.5q-30 0 -59 32q-19 23 -60 66q-141 128 -361 128q-232 0 -320 -104q-23 -26 -23 -46t23 -46q88 -104 320 -104q75 0 75 -75t-75 -75q-232 0 -320 -104q-23 -26 -23 -46t23 -46q88 -104 320 -104q220 0 361 128q5 4 60 66
q29 32 59 32q31 0 54.5 -22.5t23.5 -52.5z" />
    <glyph glyph-name="etatonos" unicode="&#x3ae;" 
d="M675 1275q0 -75 -75 -75t-75 75v200q0 75 75 75t75 -75v-200zM1075 -375q0 -75 -75 -75t-75 75v975q0 124 -88 212t-212 88t-212 -88t-88 -212v-525q0 -75 -75 -75t-75 75v900q0 75 75 75q76 0 75 -115q128 115 300 115q186 0 318 -132t132 -318v-975z" />
    <glyph glyph-name="iotatonos" unicode="&#x3af;" 
d="M450 1275q0 -75 -75 -75t-75 75v200q0 75 75 75t75 -75v-200zM1126 226q0 -21 -16 -46q-53 -81 -158 -132q-100 -48 -202 -48q-186 0 -318 132t-132 318v525q0 75 75 75t75 -75v-525q0 -124 88 -212t212 -88q109 0 194.5 75.5t103.5 75.5q31 0 54.5 -22.5t23.5 -52.5z
" />
    <glyph glyph-name="upsilondieresistonos" unicode="&#x3b0;" 
d="M1013 1313q0 -47 -33.5 -80t-79.5 -33q-47 0 -79.5 33t-32.5 80t32.5 79.5t79.5 32.5q46 0 79.5 -32.5t33.5 -79.5zM675 1225q0 -75 -75 -75t-75 75v200q0 75 75 75t75 -75v-200zM413 1313q0 -47 -33.5 -80t-79.5 -33q-47 0 -79.5 33t-32.5 80t32.5 79.5t79.5 32.5
q46 0 79.5 -32.5t33.5 -79.5zM1075 475q0 -197 -139 -336t-336 -139t-336 139t-139 336v500q0 75 75 75t75 -75v-500q0 -134 95.5 -229.5t229.5 -95.5t229.5 95.5t95.5 229.5v100q0 134 -95.5 229.5t-229.5 95.5q-75 0 -75 75t75 75q197 0 336 -139t139 -336v-100z" />
    <glyph glyph-name="alpha" unicode="&#x3b1;" 
d="M1125 75q0 -75 -75 -75t-75 75q0 133 -40 269q-209 -344 -425 -344q-194 0 -320 170q-115 154 -115 355t115 355q126 170 320 170q216 0 425 -344q40 136 40 269q0 75 75 75t75 -75q0 -218 -97 -450q97 -232 97 -450zM865 525q-57 116 -149 227q-121 148 -206 148
q-130 0 -213 -127q-72 -111 -72 -248t72 -248q83 -127 213 -127q85 0 206 148q92 111 149 227z" />
    <glyph glyph-name="beta" unicode="&#x3b2;" 
d="M1125 413q0 -181 -150 -301q-140 -112 -325 -112q-187 0 -325 111v-486q0 -75 -75 -75t-75 75v1463q0 180 150 300q140 112 325 112t325 -112q150 -120 150 -300q0 -216 -202 -338q202 -122 202 -337zM975 413q0 117 -107 193q-96 69 -218 69q-75 0 -75 75t75 75
q124 0 219 68q106 76 106 195q0 117 -107 193q-96 69 -218 69t-218 -69q-107 -76 -107 -193v-675q0 -118 107 -194q96 -69 218 -69t218 69q107 76 107 194z" />
    <glyph glyph-name="gamma" unicode="&#x3b3;" 
d="M1125 975q0 -24 -22 -53q-22 -24 -66 -73q-362 -416 -362 -774v-450q0 -75 -75 -75t-75 75v450q0 324 -309 713q-40 44 -119 134q-23 28 -23 52q0 31 23 54t54 23q37 0 125 -101q217 -249 324 -522q107 273 324 522q89 102 126 102q30 0 52.5 -23.5t22.5 -53.5z" />
    <glyph glyph-name="delta" unicode="&#x3b4;" 
d="M1125 525q0 -217 -154 -371t-371 -154t-371 154t-154 371q0 152 82 281t219 194q-76 85 -76 200q0 124 88 212t212 88q174 0 260 -151q11 -19 11 -39q0 -30 -24 -52t-54 -22t-77.5 57t-115.5 57q-62 0 -106 -44t-44 -106t44 -106t106 -44q217 0 371 -154t154 -371z
M975 525q0 155 -110 265t-265 110t-265 -110t-110 -265t110 -265t265 -110t265 110t110 265z" />
    <glyph glyph-name="epsilon" unicode="&#x3b5;" 
d="M1126 301q0 -21 -15 -45q-77 -120 -240 -191q-147 -65 -303 -65q-171 0 -313 66q-180 84 -180 234q0 140 162 225q-162 85 -162 225q0 150 180 234q142 66 313 66q156 0 303 -65q163 -71 240 -191q15 -24 15 -45q0 -30 -23.5 -52.5t-54.5 -22.5q-30 0 -59 32
q-19 23 -60 66q-141 128 -361 128q-232 0 -320 -104q-23 -26 -23 -46t23 -46q88 -104 320 -104q75 0 75 -75t-75 -75q-232 0 -320 -104q-23 -26 -23 -46t23 -46q88 -104 320 -104q220 0 361 128q5 4 60 66q29 32 59 32q31 0 54.5 -22.5t23.5 -52.5z" />
    <glyph glyph-name="zeta" unicode="&#x3b6;" 
d="M1125 1425q0 -75 -75 -75q-180 0 -340 -53q-199 -66 -332 -201q-153 -155 -153 -346v-225q0 -117 95 -214q82 -83 204 -125q106 -36 226 -36q142 0 252 -78q123 -86 123 -222t-123 -223q-110 -77 -252 -77q-80 0 -172 33q-116 42 -116 106q0 30 22.5 54t52.5 24
q13 0 83 -33.5t130 -33.5q77 0 144 36q81 43 81 114q0 70 -81 113q-67 37 -144 37q-252 0 -450 134q-225 151 -225 391v225q0 189 112 351q102 149 277 249h-314q-75 0 -75 75t75 75h900q75 0 75 -75z" />
    <glyph glyph-name="eta" unicode="&#x3b7;" 
d="M1075 -375q0 -75 -75 -75t-75 75v975q0 124 -88 212t-212 88t-212 -88t-88 -212v-525q0 -75 -75 -75t-75 75v900q0 75 75 75q76 0 75 -115q128 115 300 115q186 0 318 -132t132 -318v-975z" />
    <glyph glyph-name="theta" unicode="&#x3b8;" 
d="M1025 750q0 -252 -91 -468q-119 -282 -334 -282t-334 282q-91 216 -91 468t91 468q119 282 334 282t334 -282q91 -216 91 -468zM873 825q-20 350 -182 485q-47 40 -91 40q-81 0 -154 -114q-54 -84 -83 -188t-36 -223h546zM873 675h-546q7 -119 36 -223t83 -188
q73 -114 154 -114q44 0 91 40q162 135 182 485z" />
    <glyph glyph-name="theta" unicode="&#x473;" 
d="M1025 750q0 -252 -91 -468q-119 -282 -334 -282t-334 282q-91 216 -91 468t91 468q119 282 334 282t334 -282q91 -216 91 -468zM873 825q-20 350 -182 485q-47 40 -91 40q-81 0 -154 -114q-54 -84 -83 -188t-36 -223h546zM873 675h-546q7 -119 36 -223t83 -188
q73 -114 154 -114q44 0 91 40q162 135 182 485z" />
    <glyph glyph-name="iota" unicode="&#x3b9;" 
d="M1126 226q0 -21 -16 -46q-53 -81 -158 -132q-100 -48 -202 -48q-186 0 -318 132t-132 318v525q0 75 75 75t75 -75v-525q0 -124 88 -212t212 -88q109 0 194.5 75.5t103.5 75.5q31 0 54.5 -22.5t23.5 -52.5z" />
    <glyph glyph-name="kappa" unicode="&#x3ba;" 
d="M1126 974q0 -24 -23 -52q-178 -213 -178 -410q0 -113 50 -210q37 -69 128 -174q23 -27 23 -52q0 -31 -23 -54t-54 -23q-26 0 -52 23q-100 91 -159 228t-59 274q0 39 4 78l-580 -580q-23 -23 -52 -23q-31 0 -54 23t-23 54q0 25 23 52q91 104 127 174q50 96 50 209
q0 200 -177 411q-23 28 -23 52q0 31 23 54t54 23q45 0 123 -110q151 -212 151 -430q0 -29 -3 -58l571 571q27 27 56 27q31 0 54 -23t23 -54z" />
    <glyph glyph-name="lambda" unicode="&#x3bb;" 
d="M1126 74q0 -30 -24 -52.5t-54 -22.5q-37 0 -60 34l-388 582l-388 -582q-23 -34 -60 -34q-30 0 -54 22.5t-24 52.5q0 22 14 43l422 633l-422 633q-14 21 -14 43q0 30 24 52.5t54 22.5q37 0 60 -34l900 -1350q14 -21 14 -43z" />
    <glyph glyph-name="mu" unicode="&#x3bc;" 
d="M1025 75q0 -75 -75 -75q-76 0 -75 101q-119 -101 -275 -101t-275 101v-476q0 -75 -75 -75t-75 75v1350q0 75 75 75t75 -75v-550q0 -114 80.5 -194.5t194.5 -80.5q113 0 194 80.5t81 193.5v551q0 75 75 75t75 -75v-900z" />
    <glyph glyph-name="nu" unicode="&#x3bd;" 
d="M1125 833q0 -225 -360 -785q-31 -49 -71 -49q-42 0 -71 49l-537 888q-12 20 -12 41q0 30 24 52t54 22q40 0 62 -37l480 -794q281 462 281 613q0 59 -87.5 67t-87.5 75q0 75 80 75q109 0 174 -53q71 -58 71 -164z" />
    <glyph glyph-name="xi" unicode="&#x3be;" 
d="M1125 1425q0 -75 -75 -75h-300q-132 0 -244 -64q-131 -76 -131 -199q0 -121 130 -197q111 -65 242 -65q81 0 81 -75t-79 -75h-149q-132 0 -242 -65q-131 -76 -131 -197q0 -86 75 -156q65 -60 156 -87q70 -20 292 -20q142 0 252 -78q123 -86 123 -222q0 -125 -148 -218
q-132 -82 -265 -82q-66 0 -144 37q-91 44 -91 103q0 30 23.5 53.5t53.5 23.5q22 0 66 -33.5t92 -33.5q41 0 89.5 15t103.5 51q70 46 70 84q0 70 -81 114q-67 36 -144 36l-96 -1q-33 0 -60 1q-200 8 -347 108q-170 116 -170 305q0 131 93 235q84 94 217 141
q-162 117 -162 298q0 151 119 263h-194q-75 0 -75 75t75 75h900q75 0 75 -75z" />
    <glyph glyph-name="omicron" unicode="&#x3bf;" 
d="M1125 525q0 -217 -154 -371t-371 -154t-371 154t-154 371t154 371t371 154t371 -154t154 -371zM975 525q0 155 -110 265t-265 110t-265 -110t-110 -265t110 -265t265 -110t265 110t110 265z" />
    <glyph glyph-name="pi" unicode="&#x3c0;" 
d="M1025 90q0 -75 -75 -75t-75 75v810h-550v-825q0 -75 -75 -75t-75 75v900q0 30 22.5 52.5t52.5 22.5h701q74 0 74 -74v-886z" />
    <glyph glyph-name="rho" unicode="&#x3c1;" 
d="M1125 525q0 -152 -82 -281t-219 -194q76 -85 76 -200q0 -124 -88 -212t-212 -88q-174 0 -260 151q-11 19 -11 39q0 30 24 52t54 22t77.5 -57t115.5 -57q62 0 106 44t44 106t-44 106t-106 44q-217 0 -371 154t-154 371t154 371t371 154t371 -154t154 -371zM975 525
q0 155 -110 265t-265 110t-265 -110t-110 -265t110 -265t265 -110t265 110t110 265z" />
    <glyph glyph-name="sigma1" unicode="&#x3c2;" 
d="M1126 845q0 -31 -23 -54.5t-53 -23.5q-21 0 -49 19q-161 114 -324 114q-172 0 -306 -100q-146 -109 -146 -275t146 -275q134 -100 306 -100q133 0 233 -82q106 -87 106 -218t-106 -218q-100 -82 -233 -82q-196 0 -291 146q-14 22 -14 43q0 31 24 53t55 22q22 0 81.5 -57
t144.5 -57q70 0 126 39q63 44 63 111t-63 111q-56 39 -126 39q-235 0 -412 143q-190 152 -190 382t190 382q177 143 412 143q110 0 225 -38q127 -42 197 -112q27 -27 27 -55z" />
    <glyph glyph-name="sigma" unicode="&#x3c3;" 
d="M1125 975q0 -75 -75 -75h-192q138 -156 138 -375q0 -206 -125 -360q-134 -165 -335 -165t-335 165q-126 154 -126 360t126 360q134 165 335 165h514q75 0 75 -75zM846 525q0 143 -82 253q-90 122 -228 122t-229 -122q-82 -110 -82 -253t82 -253q91 -122 229 -122t228 122
q82 110 82 253z" />
    <glyph glyph-name="tau" unicode="&#x3c4;" 
d="M1125 975q0 -75 -75 -75h-375v-600q0 -62 44 -106t106 -44q75 0 75 -75t-75 -75q-124 0 -212 88t-88 212v600h-375q-75 0 -75 75t75 75h900q75 0 75 -75z" />
    <glyph glyph-name="upsilon" unicode="&#x3c5;" 
d="M1075 475q0 -197 -139 -336t-336 -139t-336 139t-139 336v500q0 75 75 75t75 -75v-500q0 -134 95.5 -229.5t229.5 -95.5t229.5 95.5t95.5 229.5v100q0 134 -95.5 229.5t-229.5 95.5q-75 0 -75 75t75 75q197 0 336 -139t139 -336v-100z" />
    <glyph glyph-name="phi" unicode="&#x3c6;" 
d="M1125 675q0 -229 -112 -418q-127 -213 -338 -250v-382q0 -75 -75 -75t-75 75v382q-211 37 -338 250q-112 189 -112 418q0 142 77 252q87 123 223 123q75 0 75 -75t-75 -75q-70 0 -114 -81q-36 -67 -36 -144q0 -167 72 -308q83 -162 228 -206v514q0 142 77 252
q87 123 223 123t223 -123q77 -110 77 -252zM975 675q0 77 -36 144q-44 81 -114 81t-114 -81q-36 -67 -36 -144v-514q145 44 228 206q72 141 72 308z" />
    <glyph glyph-name="chi" unicode="&#x3c7;" 
d="M1126 -376q0 -30 -24 -52.5t-54 -22.5q-37 0 -60 34l-388 582l-388 -582q-23 -34 -60 -34q-30 0 -54 22.5t-24 52.5q0 22 14 43l422 633l-422 633q-14 21 -14 43q0 30 24 52.5t54 22.5q37 0 60 -34l388 -582l388 582q23 34 60 34q30 0 54 -22.5t24 -52.5q0 -22 -14 -43
l-422 -633l422 -633q14 -21 14 -43z" />
    <glyph glyph-name="psi" unicode="&#x3c8;" 
d="M1125 975q0 -393 -59 -591q-101 -342 -391 -379v-380q0 -75 -75 -75t-75 75v380q-290 37 -391 379q-59 198 -59 591q0 75 75 75q57 0 70 -52q5 -17 5 -97q0 -282 40 -436q68 -266 260 -307v1267q0 75 75 75t75 -75v-1267q204 43 268 341q32 147 32 476q0 75 75 75t75 -75
z" />
    <glyph glyph-name="psi" unicode="&#x471;" 
d="M1125 975q0 -393 -59 -591q-101 -342 -391 -379v-380q0 -75 -75 -75t-75 75v380q-290 37 -391 379q-59 198 -59 591q0 75 75 75q57 0 70 -52q5 -17 5 -97q0 -282 40 -436q68 -266 260 -307v1267q0 75 75 75t75 -75v-1267q204 43 268 341q32 147 32 476q0 75 75 75t75 -75
z" />
    <glyph glyph-name="omega" unicode="&#x3c9;" 
d="M1125 525q0 -179 -64 -329q-83 -196 -236 -196q-141 0 -225 171q-84 -171 -225 -171q-153 0 -236 196q-64 150 -64 329t64 329q83 196 236 196q75 0 75 -75t-75 -75q-20 0 -48 -27q-102 -102 -102 -348t102 -348q28 -27 48 -27t48 27q102 102 102 348q0 75 75 75t75 -75
q0 -246 102 -348q28 -27 48 -27t48 27q102 102 102 348t-102 348q-28 27 -48 27q-75 0 -75 75t75 75q153 0 236 -196q64 -150 64 -329z" />
    <glyph glyph-name="iotadieresis" unicode="&#x3ca;" 
d="M750 1313q0 -47 -33 -80t-80 -33t-79.5 33t-32.5 80t32.5 79.5t79.5 32.5t80 -32.5t33 -79.5zM300 1313q0 -47 -33 -80t-80 -33t-79.5 33t-32.5 80t32.5 79.5t79.5 32.5t80 -32.5t33 -79.5zM1126 182q0 -25 -24 -53q-50 -59 -144 -95q-87 -34 -170 -34q-187 0 -318.5 132
t-131.5 318v525q0 75 75 75t75 -75v-525q0 -124 88 -212t212 -88q85 0 166 54.5t95 54.5q31 0 54 -23.5t23 -53.5z" />
    <glyph glyph-name="upsilondieresis" unicode="&#x3cb;" 
d="M938 1313q0 -47 -33 -80t-80 -33t-79.5 33t-32.5 80t32.5 79.5t79.5 32.5t80 -32.5t33 -79.5zM488 1313q0 -47 -33 -80t-80 -33t-79.5 33t-32.5 80t32.5 79.5t79.5 32.5t80 -32.5t33 -79.5zM1075 475q0 -197 -139 -336t-336 -139t-336 139t-139 336v500q0 75 75 75
t75 -75v-500q0 -134 95.5 -229.5t229.5 -95.5t229.5 95.5t95.5 229.5v100q0 134 -95.5 229.5t-229.5 95.5q-75 0 -75 75t75 75q197 0 336 -139t139 -336v-100z" />
    <glyph glyph-name="omicrontonos" unicode="&#x3cc;" 
d="M675 1275q0 -75 -75 -75t-75 75v200q0 75 75 75t75 -75v-200zM1125 525q0 -217 -154 -371t-371 -154t-371 154t-154 371t154 371t371 154t371 -154t154 -371zM975 525q0 155 -110 265t-265 110t-265 -110t-110 -265t110 -265t265 -110t265 110t110 265z" />
    <glyph glyph-name="upsilontonos" unicode="&#x3cd;" 
d="M675 1291q0 -75 -75 -75t-75 75v200q0 75 75 75t75 -75v-200zM1075 475q0 -197 -139 -336t-336 -139t-336 139t-139 336v500q0 75 75 75t75 -75v-500q0 -134 95.5 -229.5t229.5 -95.5t229.5 95.5t95.5 229.5v100q0 134 -95.5 229.5t-229.5 95.5q-75 0 -75 75t75 75
q197 0 336 -139t139 -336v-100z" />
    <glyph glyph-name="omegatonos" unicode="&#x3ce;" 
d="M675 1275q0 -75 -75 -75t-75 75v200q0 75 75 75t75 -75v-200zM1125 525q0 -179 -64 -329q-83 -196 -236 -196q-141 0 -225 171q-84 -171 -225 -171q-153 0 -236 196q-64 150 -64 329t64 329q83 196 236 196q75 0 75 -75t-75 -75q-20 0 -48 -27q-102 -102 -102 -348
t102 -348q28 -27 48 -27t48 27q102 102 102 348q0 75 75 75t75 -75q0 -246 102 -348q28 -27 48 -27t48 27q102 102 102 348t-102 348q-28 27 -48 27q-75 0 -75 75t75 75q153 0 236 -196q64 -150 64 -329z" />
    <glyph glyph-name="glyph411" 
 />
    <glyph glyph-name="afii10023" unicode="&#x401;" 
d="M1012 1763q0 -47 -33 -80t-80 -33q-46 0 -79 33t-33 80t33 79.5t79 32.5q47 0 80 -32.5t33 -79.5zM562 1763q0 -47 -33 -80t-80 -33q-46 0 -79 33t-33 80t33 79.5t79 32.5q47 0 80 -32.5t33 -79.5zM1125 75q0 -75 -75 -75h-800q-30 0 -52.5 22.5t-22.5 52.5v1350
q0 30 22.5 52.5t52.5 22.5h800q75 0 75 -75t-75 -75h-725v-525h725q75 0 75 -75t-75 -75h-725v-525h725q75 0 75 -75z" />
    <glyph glyph-name="afii10051" unicode="&#x402;" 
d="M1125 525q0 -190 -91 -344q-107 -181 -284 -181q-75 0 -75 75t75 75q47 0 95 38q130 104 130 337t-130 337q-48 38 -95 38t-95 -38q-130 -104 -130 -337v-450q0 -75 -75 -75t-75 75v1275h-225q-75 0 -75 75t75 75h600q75 0 75 -75t-75 -75h-225v-402q97 102 225 102
q177 0 284 -181q91 -154 91 -344z" />
    <glyph glyph-name="afii10052" unicode="&#x403;" 
d="M901 1873q0 -44 -42 -65l-300 -150q-18 -9 -36 -9q-31 0 -52.5 24t-21.5 54q0 44 42 65l300 150q18 9 36 9q31 0 52.5 -24t21.5 -54zM1125 1425q0 -75 -75 -75h-725v-1275q0 -75 -75 -75t-75 75v1351q0 74 74 74h801q75 0 75 -75z" />
    <glyph glyph-name="afii10053" unicode="&#x404;" 
d="M1126 273q0 -22 -17 -47q-70 -101 -189.5 -163.5t-242.5 -62.5q-271 0 -446 246q-156 221 -156 504t156 504q175 246 446 246q123 0 242.5 -62.5t189.5 -163.5q17 -25 17 -47q0 -30 -23.5 -53t-54.5 -23q-29 0 -57 30q-17 21 -54 59q-114 110 -260 110q-187 0 -317 -174
q-113 -152 -132 -351h822q75 0 75 -75t-75 -75h-822q19 -199 132 -351q130 -174 317 -174q146 0 260 110q18 20 54 59q28 30 57 30q31 0 54.5 -23t23.5 -53z" />
    <glyph glyph-name="afii10054" unicode="&#x405;" 
d="M1125 450q0 -203 -182 -333q-164 -117 -375 -117q-137 0 -266 54q-141 60 -212 164q-16 24 -16 46q0 30 23.5 52.5t54.5 22.5q29 0 58 -31q14 -17 44 -48q122 -110 314 -110q147 0 268 75q139 87 139 225t-139 225q-121 75 -268 75q-175 0 -311 98q-150 108 -150 277
t150 277q136 98 311 98q113 0 218 -45q116 -48 175 -134q17 -23 17 -46q0 -30 -24 -52.5t-54 -22.5q-28 0 -59 31q-117 119 -273 119q-111 0 -203 -56q-108 -65 -108 -169t108 -169q92 -56 203 -56q211 0 375 -117q182 -130 182 -333z" />
    <glyph glyph-name="afii10055" unicode="&#x406;" 
d="M975 75q0 -75 -75 -75h-600q-75 0 -75 75t75 75h225v1200h-225q-75 0 -75 75t75 75h600q75 0 75 -75t-75 -75h-225v-1200h225q75 0 75 -75z" />
    <glyph glyph-name="afii10056" unicode="&#x407;" 
d="M938 1763q0 -47 -33.5 -80t-79.5 -33q-47 0 -79.5 33t-32.5 80t32.5 79.5t79.5 32.5q46 0 79.5 -32.5t33.5 -79.5zM488 1763q0 -47 -33.5 -80t-79.5 -33q-47 0 -79.5 33t-32.5 80t32.5 79.5t79.5 32.5q46 0 79.5 -32.5t33.5 -79.5zM975 75q0 -75 -75 -75h-600
q-75 0 -75 75t75 75h225v1200h-225q-75 0 -75 75t75 75h600q75 0 75 -75t-75 -75h-225v-1200h225q75 0 75 -75z" />
    <glyph glyph-name="afii10057" unicode="&#x408;" 
d="M1025 75q0 -217 -154 -371t-371 -154q-114 0 -227 52q-119 54 -181 143q-18 26 -18 47q0 31 23.5 53.5t54.5 22.5q27 0 56 -28q142 -140 292 -140q155 0 265 110t110 265v1275h-725q-75 0 -75 75t75 75h801q74 0 74 -74v-1351z" />
    <glyph glyph-name="afii10058" unicode="&#x409;" 
d="M1125 450q0 -186 -132 -318t-318 -132q-30 0 -52.5 22.5t-22.5 52.5v950l-380 -977q-19 -49 -68 -49q-30 0 -54 21.5t-24 51.5q0 15 6 30l522 1342q22 56 71 56q77 0 77 -83v-523q162 -27 268.5 -153t106.5 -291zM975 450q0 102 -63 183.5t-162 107.5v-582
q99 26 162 107.5t63 183.5z" />
    <glyph glyph-name="afii10059" unicode="&#x40a;" 
d="M1125 450q0 -186 -132 -318t-318 -132q-30 0 -52.5 22.5t-22.5 52.5v675h-275v-675q0 -75 -75 -75t-75 75v1350q0 75 75 75t75 -75v-525h275v525q0 75 75 75t75 -75v-531q162 -28 268.5 -154t106.5 -290zM975 450q0 102 -63 183t-162 108v-582q99 26 162 107.5t63 183.5z
" />
    <glyph glyph-name="afii10060" unicode="&#x40b;" 
d="M1100 75q0 -75 -75 -75t-75 75v525q0 104 -50 193q-60 107 -156 107q-97 0 -156 -107q-50 -89 -50 -193v-525q0 -75 -75 -75t-75 75v1275h-238q-75 0 -75 75t75 75h600q75 0 75 -75t-75 -75h-212v-382q90 82 206 82q162 0 265 -148q91 -133 91 -302v-525z" />
    <glyph glyph-name="afii10061" unicode="&#x40c;" 
d="M841 1873q0 -44 -42 -65l-300 -150q-18 -9 -36 -9q-31 0 -52.5 24t-21.5 54q0 44 42 65l300 150q18 9 36 9q31 0 52.5 -24t21.5 -54zM1126 75q0 -30 -23 -53t-54 -23q-30 0 -53 24l-650 675q-20 21 -21 38v-661q0 -75 -75 -75t-75 75v1350q0 75 75 75t75 -75v-661
q4 21 21 38l650 675q23 24 53 24q31 0 54 -23t23 -53q0 -29 -22 -52l-600 -623l600 -623q22 -23 22 -52zM333 716q-6 10 -8 21v-1q0 -6 8 -20zM342 702q-5 7 -12 19q5 -10 12 -19z" />
    <glyph glyph-name="afii10062" unicode="&#x40e;" 
d="M903 1875q0 -27 -43 -74q-138 -151 -260 -151q-71 0 -158 59q-77 53 -126 119q-17 25 -17 47q0 31 23.5 53.5t54.5 22.5q29 0 102 -75.5t121 -75.5t121 75.5t102 75.5q31 0 55.5 -22.5t24.5 -53.5zM1126 1426q0 -22 -14 -43l-900 -1350q-23 -34 -60 -34q-30 0 -54 22.5
t-24 52.5q0 22 14 43l422 633l-422 633q-14 21 -14 43q0 30 24 52.5t54 22.5q37 0 60 -34l388 -582l388 582q23 34 60 34q30 0 54 -22.5t24 -52.5z" />
    <glyph glyph-name="afii10145" unicode="&#x40f;" 
d="M1025 75q0 -75 -75 -75h-275v-375q0 -75 -75 -75t-75 75v375h-275q-30 0 -52.5 22.5t-22.5 52.5v1350q0 75 75 75t75 -75v-1275h550v1275q0 75 75 75t75 -75v-1350z" />
    <glyph glyph-name="afii10017" unicode="&#x410;" 
d="M1126 72q0 -72 -78 -72q-52 0 -69 51l-133 399h-492l-133 -399q-17 -51 -69 -51q-78 0 -78 72q0 13 5 27l446 1338q21 63 75 63t75 -63l446 -1338q5 -14 5 -27zM796 600l-196 588l-196 -588h392z" />
    <glyph glyph-name="afii10018" unicode="&#x411;" 
d="M1125 1425q0 -75 -75 -75h-725v-450h350q186 0 318 -132t132 -318t-132 -318t-318 -132h-425q-30 0 -52.5 22.5t-22.5 52.5v1350q0 30 22.5 52.5t52.5 22.5h800q75 0 75 -75zM975 450q0 124 -88 212t-212 88h-350v-600h350q124 0 212 88t88 212z" />
    <glyph glyph-name="afii10019" unicode="&#x412;" 
d="M1125 449q0 -186 -132 -318t-319 -132l-424 1q-30 0 -52.5 22.5t-22.5 52.5v1350q0 30 22.5 52.5t52.5 22.5h425q155 0 265 -110t110 -265q0 -179 -139 -292q214 -132 214 -384zM900 1125q0 93 -66 159t-159 66h-350v-450h350q93 0 159 66t66 159zM975 449
q0 124 -88 212.5t-212 88.5h-350v-600l350 -1q124 0 212 88t88 212z" />
    <glyph glyph-name="afii10020" unicode="&#x413;" 
d="M1125 1425q0 -75 -75 -75h-725v-1275q0 -75 -75 -75t-75 75v1351q0 74 74 74h801q75 0 75 -75z" />
    <glyph glyph-name="afii10021" unicode="&#x414;" 
d="M1126 73q0 -73 -77 -73h-898q-77 0 -77 73q0 13 8 36l443 1328q21 63 75 63t75 -63l443 -1328q8 -23 8 -36zM946 150l-346 1038l-346 -1038h692z" />
    <glyph glyph-name="afii10022" unicode="&#x415;" 
d="M1125 75q0 -75 -75 -75h-800q-30 0 -52.5 22.5t-22.5 52.5v1350q0 30 22.5 52.5t52.5 22.5h800q75 0 75 -75t-75 -75h-725v-525h725q75 0 75 -75t-75 -75h-725v-525h725q75 0 75 -75z" />
    <glyph glyph-name="afii10024" unicode="&#x416;" 
d="M1126 72q0 -30 -24 -51.5t-55 -21.5q-45 0 -66 46l-295 663q-4 9 -11 28v-661q0 -75 -75 -75t-75 75v661q-1 -3 -11 -28l-295 -663q-21 -46 -66 -46q-31 0 -55 21.5t-24 51.5q0 17 7 33l287 645l-287 645q-7 16 -7 33q0 30 24 51.5t55 21.5q45 0 66 -46l295 -663
q4 -9 11 -28v661q0 75 75 75t75 -75v-661q1 3 11 28l295 663q21 46 66 46q31 0 55 -21.5t24 -51.5q0 -17 -7 -33l-287 -645l287 -645q7 -16 7 -33z" />
    <glyph glyph-name="afii10025" unicode="&#x417;" 
d="M1125 449q0 -198 -167 -329q-154 -121 -358 -121t-358 121q-167 131 -167 329q0 76 75 76t75 -76q0 -134 124 -222q111 -78 251 -78t251 78q124 88 124 222q0 135 -124 223q-110 78 -251 78q-74 0 -74 75t74 75q106 0 190 58q95 66 95 167q0 102 -95 167q-84 58 -191 58
q-105 0 -190 -58q-94 -66 -94 -167q0 -75 -75 -75t-75 75q0 165 138 274q128 101 298 101q169 0 297 -101q137 -109 137 -274q0 -180 -161 -291q251 -132 251 -385z" />
    <glyph glyph-name="afii10026" unicode="&#x418;" 
d="M1026 1426l-1 -1351q0 -75 -75 -75t-75 75v1042l-554 -1067q-26 -51 -69 -51q-78 0 -78 74l1 1352q0 75 75 75t75 -75v-1042l554 1067q26 51 69 51q78 0 78 -75z" />
    <glyph glyph-name="afii10027" unicode="&#x419;" 
d="M903 1875q0 -27 -43 -74q-138 -151 -260 -151q-71 0 -158 59q-77 53 -126 119q-17 25 -17 47q0 31 23.5 53.5t54.5 22.5q29 0 102 -75.5t121 -75.5t121 75.5t102 75.5q31 0 55.5 -22.5t24.5 -53.5zM1026 1426l-1 -1351q0 -75 -75 -75t-75 75v1042l-554 -1067
q-26 -51 -69 -51q-78 0 -78 74l1 1352q0 75 75 75t75 -75v-1042l554 1067q26 51 69 51q78 0 78 -75z" />
    <glyph glyph-name="afii10028" unicode="&#x41a;" 
d="M1126 75q0 -30 -23 -53t-54 -23q-30 0 -53 24l-650 675q-20 21 -21 38v-661q0 -75 -75 -75t-75 75v1350q0 75 75 75t75 -75v-661q4 21 21 38l650 675q23 24 53 24q31 0 54 -23t23 -53q0 -29 -22 -52l-600 -623l600 -623q22 -23 22 -52zM333 716q-6 10 -8 21v-1
q0 -6 8 -20zM342 702q-5 7 -12 19q5 -10 12 -19z" />
    <glyph glyph-name="afii10029" unicode="&#x41b;" 
d="M1126 72q0 -72 -78 -72q-52 0 -69 51l-379 1137l-379 -1137q-17 -51 -69 -51q-78 0 -78 72q0 13 5 27l446 1338q21 63 75 63t75 -63l446 -1338q5 -14 5 -27z" />
    <glyph glyph-name="afii10030" unicode="&#x41c;" 
d="M1125 73q0 -73 -76 -73q-65 0 -73 65l-129 968l-172 -666q-17 -67 -75 -67t-75 67l-172 666l-129 -968q-8 -65 -73 -65q-76 0 -76 73q0 6 1 12l179 1341q9 74 75 74q58 0 75 -65l195 -759l195 759q17 65 73 65q68 0 77 -74l179 -1341q1 -6 1 -12z" />
    <glyph glyph-name="afii10031" unicode="&#x41d;" 
d="M1025 75q0 -75 -75 -75t-75 75v600h-550v-600q0 -75 -75 -75t-75 75v1350q0 75 75 75t75 -75v-600h550v600q0 75 75 75t75 -75v-1350z" />
    <glyph glyph-name="afii10032" unicode="&#x41e;" 
d="M1125 750q0 -269 -126 -489q-150 -261 -399 -261t-399 261q-126 220 -126 489t126 489q150 261 399 261t399 -261q126 -220 126 -489zM975 750q0 131 -33 246q-39 136 -120 234q-100 120 -222 120t-222 -120q-81 -98 -120 -234q-33 -115 -33 -246t33 -246
q39 -136 120 -234q100 -120 222 -120t222 120q81 98 120 234q33 115 33 246z" />
    <glyph glyph-name="afii10033" unicode="&#x41f;" 
d="M1025 75q0 -75 -75 -75t-75 75v1275h-550v-1275q0 -75 -75 -75t-75 75v1350q0 30 22.5 52.5t52.5 22.5h700q30 0 52.5 -22.5t22.5 -52.5v-1350z" />
    <glyph glyph-name="afii10034" unicode="&#x420;" 
d="M1125 1050q0 -186 -132 -318t-318 -132h-350v-525q0 -75 -75 -75t-75 75v1350q0 30 22.5 52.5t52.5 22.5h425q186 0 318 -132t132 -318zM975 1050q0 124 -88 212t-212 88h-350v-600h350q124 0 212 88t88 212z" />
    <glyph glyph-name="afii10035" unicode="&#x421;" 
d="M1126 273q0 -22 -17 -47q-70 -100 -189.5 -163t-242.5 -63q-271 0 -446 246q-156 221 -156 504t156 504q175 246 446 246q123 0 242.5 -63t189.5 -163q17 -25 17 -47q0 -30 -23.5 -53t-54.5 -23q-19 0 -45.5 18.5t-31.5 35.5q0 2 -21 23q-122 122 -273 122
q-139 0 -255 -107q-103 -94 -154 -237q-43 -120 -43 -256t43 -256q51 -143 153 -237q116 -107 256 -107q150 0 273 122q9 7 21 22q1 15 30 35t47 20q31 0 54.5 -23t23.5 -53z" />
    <glyph glyph-name="afii10036" unicode="&#x422;" 
d="M1125 1425q0 -75 -75 -75h-375v-1275q0 -75 -75 -75t-75 75v1275h-375q-75 0 -75 75t75 75h900q75 0 75 -75z" />
    <glyph glyph-name="afii10037" unicode="&#x423;" 
d="M1126 1426q0 -22 -14 -43l-900 -1350q-23 -34 -60 -34q-30 0 -54 22.5t-24 52.5q0 22 14 43l422 633l-422 633q-14 21 -14 43q0 30 24 52.5t54 22.5q37 0 60 -34l388 -582l388 582q23 34 60 34q30 0 54 -22.5t24 -52.5z" />
    <glyph glyph-name="afii10038" unicode="&#x424;" 
d="M1125 750q0 -195 -128.5 -343.5t-321.5 -176.5v-155q0 -75 -75 -75t-75 75v155q-193 28 -321.5 176.5t-128.5 343.5t128.5 343.5t321.5 176.5v155q0 75 75 75t75 -75v-155q193 -28 321.5 -176.5t128.5 -343.5zM975 750q0 133 -84.5 237t-215.5 130v-734q130 26 215 130
t85 237zM525 383v734q-130 -26 -215 -130t-85 -237t85 -237t215 -130z" />
    <glyph glyph-name="afii10039" unicode="&#x425;" 
d="M1126 74q0 -30 -24 -52.5t-54 -22.5q-37 0 -60 34l-388 582l-388 -582q-23 -34 -60 -34q-30 0 -54 22.5t-24 52.5q0 22 14 43l422 633l-422 633q-14 21 -14 43q0 30 24 52.5t54 22.5q37 0 60 -34l388 -582l388 582q23 34 60 34q30 0 54 -22.5t24 -52.5q0 -22 -14 -43
l-422 -633l422 -633q14 -21 14 -43z" />
    <glyph glyph-name="afii10040" unicode="&#x426;" 
d="M1025 1425v-1800q0 -75 -75 -75t-75 75v375h-625q-30 0 -52.5 22.5t-22.5 52.5v1350q0 75 75 75t75 -75v-1275h550v1275q0 75 75 75t75 -75z" />
    <glyph glyph-name="afii10041" unicode="&#x427;" 
d="M1025 75q0 -75 -75 -75t-75 75v600h-387q-171 0 -292 121t-121 292v337q0 75 75 75t75 -75v-337q0 -109 77 -186t186 -77h387v600q0 75 75 75t75 -75v-1350z" />
    <glyph glyph-name="afii10042" unicode="&#x428;" 
d="M1075 75q0 -75 -74 -75h-801q-75 0 -75 74v1351q0 75 75 75t75 -75v-1275h250v1275q0 75 75 75t75 -75v-1275h250v1275q0 75 75 75t75 -75v-1350z" />
    <glyph glyph-name="afii10043" unicode="&#x429;" 
d="M1075 1425v-1800q0 -75 -75 -75t-75 75v375h-725q-30 0 -52.5 22.5t-22.5 52.5v1350q0 75 75 75t75 -75v-1275h250v1275q0 75 75 75t75 -75v-1275h250v1275q0 75 75 75t75 -75z" />
    <glyph glyph-name="afii10044" unicode="&#x42a;" 
d="M1125 450q0 -186 -132 -318t-318 -132h-75q-30 0 -52.5 22.5t-22.5 52.5v1275h-375q-75 0 -75 75t75 75h450q30 0 52.5 -22.5t22.5 -52.5v-525q196 0 323 -127.5t127 -322.5zM975 450q0 133 -83.5 216.5t-216.5 83.5v-600q124 0 212 88t88 212z" />
    <glyph glyph-name="afii10045" unicode="&#x42b;" 
d="M1025 75q0 -75 -75 -75t-75 75v375q0 -186 -132 -318t-318 -132h-175q-30 0 -52.5 22.5t-22.5 52.5v1350q0 75 75 75t75 -75v-525h100q186 0 318 -132t132 -318v975q0 75 75 75t75 -75v-1350zM725 450q0 124 -88 212t-212 88h-100v-600h100q124 0 212 88t88 212z" />
    <glyph glyph-name="afii10046" unicode="&#x42c;" 
d="M1125 450q0 -186 -132 -318t-318 -132h-425q-30 0 -52.5 22.5t-22.5 52.5v1350q0 75 75 75t75 -75v-525h350q186 0 318 -132t132 -318zM975 450q0 124 -88 212t-212 88h-350v-600h350q124 0 212 88t88 212z" />
    <glyph glyph-name="afii10047" unicode="&#x42d;" 
d="M1125 750q0 -283 -156 -504q-175 -246 -446 -246q-123 0 -242.5 62.5t-189.5 163.5q-17 25 -17 47q0 30 23.5 53t54.5 23q29 0 57 -30q17 -21 54 -59q114 -110 260 -110q187 0 317 174q113 152 132 351h-822q-75 0 -75 75t75 75h822q-19 199 -132 351q-130 174 -317 174
q-146 0 -260 -110q-18 -20 -54 -59q-28 -30 -57 -30q-31 0 -54.5 23t-23.5 53q0 22 17 47q70 101 189.5 163.5t242.5 62.5q271 0 446 -246q156 -221 156 -504z" />
    <glyph glyph-name="afii10048" unicode="&#x42e;" 
d="M1125 750q0 -245 -76 -458q-103 -292 -299 -292q-185 0 -287 258q-71 179 -85 417h-53v-600q0 -75 -75 -75t-75 75v1350q0 75 75 75t75 -75v-600h52q11 229 86 417q104 258 287 258q196 0 299 -292q76 -213 76 -458zM975 750q0 160 -49 347q-66 253 -176 253
q-72 0 -144 -153q-81 -174 -81 -447q0 -160 49 -347q66 -253 176 -253t176 253q49 187 49 347z" />
    <glyph glyph-name="afii10049" unicode="&#x42f;" 
d="M1025 75q0 -75 -75 -75t-75 75v1275h-350q-124 0 -212 -88t-88 -212t88 -212t212 -88q37 0 112 1h111q78 0 78 -77q0 -29 -33 -62l-590 -590q-23 -23 -52 -23q-31 0 -54 23t-23 54q0 29 23 52l472 472h-44q-186 0 -318 132t-132 318t132 318t318 132h426q74 0 74 -74
v-1351z" />
    <glyph glyph-name="afii10065" unicode="&#x430;" 
d="M1075 75q0 -75 -75 -75q-77 0 -75 106q-148 -106 -350 -106q-185 0 -331 93q-169 108 -169 282t169 282q147 93 331 93q202 0 350 -106v31q0 44 -31 89q-92 136 -319 136q-130 0 -257 -74q-26 -15 -45 -15q-30 0 -52.5 23.5t-22.5 54.5q0 74 157 123q122 38 220 38
q184 0 331 -93q169 -108 169 -282v-600zM925 375q0 71 -68 131q-57 50 -135 73q-68 21 -147 21q-232 0 -323 -142q-27 -42 -27 -83t27 -83q91 -142 323 -142q79 0 147 21q78 23 135 73q68 60 68 131z" />
    <glyph glyph-name="afii10066" unicode="&#x431;" 
d="M1125 1425q0 -75 -75 -75q-201 0 -380 -93t-295 -258q106 51 225 51q217 0 371 -154t154 -371t-154 -371t-371 -154t-371 154t-154 371q0 403 286 689t689 286q75 0 75 -75zM975 525q0 155 -110 265t-265 110t-265 -110t-110 -265t110 -265t265 -110t265 110t110 265z
" />
    <glyph glyph-name="afii10067" unicode="&#x432;" 
d="M1125 325q0 -140 -110 -235q-104 -91 -247 -91l-518 1q-30 0 -52.5 22.5t-22.5 52.5v900q0 30 22.5 52.5t52.5 22.5h519q119 0 208 -77q92 -80 92 -198q0 -112 -85 -191q141 -98 141 -259zM919 775q0 55 -49 92q-44 33 -101 33h-444v-250h444q57 0 101 33q49 37 49 92z
M975 325q0 77 -66 128q-61 47 -140 47h-444v-350l443 -1q80 0 141 47q66 52 66 129z" />
    <glyph glyph-name="afii10068" unicode="&#x433;" 
d="M1125 975q0 -75 -75 -75h-725v-825q0 -75 -75 -75t-75 75v900q0 30 22.5 52.5t52.5 22.5h800q75 0 75 -75z" />
    <glyph glyph-name="afii10069" unicode="&#x434;" 
d="M1126 73q0 -74 -77 -74h-898q-77 0 -77 74q0 18 15 47l437 876q28 55 74 55t74 -55l437 -876q15 -29 15 -47zM929 150l-329 657l-329 -657h658z" />
    <glyph glyph-name="afii10070" unicode="&#x435;" 
d="M1126 301q0 -19 -12 -41q-69 -120 -207 -191q-131 -69 -275 -69q-225 0 -388 149q-169 153 -169 376t169 376q163 149 388 149q82 0 171 -29q100 -33 199 -105q123 -90 123 -171q0 -40 -39 -61l-758 -408q123 -126 304 -126q193 0 312 134q14 18 42.5 55t61.5 37
q30 0 54 -22t24 -53zM937 774q-122 126 -305 126q-162 0 -282 -105q-125 -110 -125 -270q0 -64 22 -122z" />
    <glyph glyph-name="afii10072" unicode="&#x436;" 
d="M1126 74q0 -30 -24 -52.5t-54 -22.5q-37 0 -60 34l-296 444q-7 11 -17 34v-436q0 -75 -75 -75t-75 75v436q-2 -12 -17 -34l-296 -444q-23 -34 -60 -34q-30 0 -54 22.5t-24 52.5q0 22 14 43l272 408l-272 408q-14 21 -14 43q0 30 24 52.5t54 22.5q37 0 60 -34l296 -444
q7 -11 17 -34v436q0 75 75 75t75 -75v-436q2 12 17 34l296 444q23 34 60 34q30 0 54 -22.5t24 -52.5q0 -22 -14 -43l-272 -408l272 -408q14 -21 14 -43z" />
    <glyph glyph-name="afii10073" unicode="&#x437;" 
d="M1125 324q0 -161 -191 -253q-152 -72 -334 -72t-334 72q-191 92 -191 253q0 75 75 75t75 -75q0 -30 33 -66q103 -109 342 -109t341 109q34 36 34 66t-33 66q-103 110 -342 110q-74 0 -74 75t75 75q190 0 266 87q18 22 18 38t-18 37q-76 88 -268 88q-190 0 -266 -88
q-3 -4 -27 -71q-15 -41 -66 -41q-75 0 -75 75q0 137 157 213q125 62 279 62q152 0 278 -62q156 -77 156 -213q0 -115 -116 -191q206 -93 206 -260z" />
    <glyph glyph-name="afii10074" unicode="&#x438;" 
d="M1026 975l-1 -900q0 -75 -75 -75t-75 75v681l-558 -717q-31 -40 -66 -40q-77 0 -77 76l1 900q0 75 75 75t75 -75v-681l558 717q31 40 66 40q77 0 77 -76z" />
    <glyph glyph-name="afii10075" unicode="&#x439;" 
d="M903 1425q0 -27 -43 -74q-138 -151 -260 -151q-71 0 -158 59q-77 53 -126 119q-17 25 -17 47q0 31 23.5 53.5t54.5 22.5q29 0 102 -75.5t121 -75.5t121 75.5t102 75.5q31 0 55.5 -22.5t24.5 -53.5zM1026 975l-1 -900q0 -75 -75 -75t-75 75v681l-558 -717q-31 -40 -66 -40
q-77 0 -77 76l1 900q0 75 75 75t75 -75v-681l558 717q31 40 66 40q77 0 77 -76z" />
    <glyph glyph-name="afii10076" unicode="&#x43a;" 
d="M1126 77q0 -30 -22.5 -54t-52.5 -24q-23 0 -44 14l-640 444q-37 25 -42 54v-436q0 -75 -75 -75t-75 75v900q0 75 75 75t75 -75v-436q5 29 42 54l640 444q21 14 44 14q30 0 52.5 -24t22.5 -54q0 -37 -33 -60l-561 -388l561 -388q33 -23 33 -60z" />
    <glyph glyph-name="afii10077" unicode="&#x43b;" 
d="M1126 73q0 -31 -24 -52.5t-55 -21.5q-43 0 -64 42l-383 766l-383 -766q-21 -42 -64 -42q-31 0 -55 21.5t-24 52.5q0 18 9 36l443 887q28 55 74 55t74 -55l443 -887q9 -18 9 -36z" />
    <glyph glyph-name="afii10078" unicode="&#x43c;" 
d="M1125 72q0 -72 -77 -72q-59 0 -72 60l-129 647l-172 -446q-24 -62 -75 -62t-75 62l-172 446l-129 -647q-13 -60 -72 -60q-77 0 -77 72q0 9 1 18l178 888q15 72 77 72q50 0 73 -59l196 -508l196 508q23 59 73 59q62 0 77 -72l178 -888q1 -9 1 -18z" />
    <glyph glyph-name="afii10079" unicode="&#x43d;" 
d="M1025 75q0 -75 -75 -75t-75 75v375h-550v-375q0 -75 -75 -75t-75 75v900q0 75 75 75t75 -75v-375h550v375q0 75 75 75t75 -75v-900z" />
    <glyph glyph-name="afii10080" unicode="&#x43e;" 
d="M1125 525q0 -217 -154 -371t-371 -154t-371 154t-154 371t154 371t371 154t371 -154t154 -371zM975 525q0 155 -110 265t-265 110t-265 -110t-110 -265t110 -265t265 -110t265 110t110 265z" />
    <glyph glyph-name="afii10081" unicode="&#x43f;" 
d="M1025 75q0 -75 -75 -75t-75 75v825h-550v-825q0 -75 -75 -75t-75 75v900q0 30 22.5 52.5t52.5 22.5h701q74 0 74 -74v-901z" />
    <glyph glyph-name="afii10082" unicode="&#x440;" 
d="M1125 525q0 -208 -132 -363q-138 -162 -343 -162q-189 0 -325 142v-517q0 -75 -75 -75t-75 75v1350q0 75 75 75q55 0 69 -48q6 -21 6 -94q136 142 325 142q205 0 343 -162q132 -155 132 -363zM975 525q0 146 -88 256q-95 119 -237 119t-237 -119q-88 -110 -88 -256
t88 -256q95 -119 237 -119t237 119q88 110 88 256z" />
    <glyph glyph-name="afii10083" unicode="&#x441;" 
d="M1126 845q0 -31 -23 -54.5t-53 -23.5q-21 0 -49 19q-161 114 -324 114q-172 0 -306 -100q-146 -109 -146 -275t147 -275q133 -100 305 -100q162 0 324 113q27 19 48 19q31 0 54 -23.5t23 -53.5q0 -29 -28 -56q-70 -70 -196 -111q-115 -38 -225 -38q-235 0 -412 143
q-190 152 -190 382t190 382q177 143 412 143q110 0 225 -38q127 -42 197 -112q27 -27 27 -55z" />
    <glyph glyph-name="afii10084" unicode="&#x442;" 
d="M1125 975q0 -75 -75 -75h-375v-825q0 -75 -75 -75t-75 75v825h-375q-75 0 -75 75t75 75h900q75 0 75 -75z" />
    <glyph glyph-name="afii10085" unicode="&#x443;" 
d="M1025 975v-975q0 -186 -132 -318t-318 -132q-118 0 -224 60q-110 62 -165 163q-11 22 -11 40q0 30 24 52t54 22q34 0 63 -38q112 -149 259 -149q124 0 212 88t88 212v115q-128 -115 -300 -115q-186 0 -318 132t-132 318v525q0 75 75 75t75 -75v-525q0 -124 88 -212
t212 -88t212 88t88 211v526q0 75 75 75t75 -75z" />
    <glyph glyph-name="afii10086" unicode="&#x444;" 
d="M1125 525q0 -179 -64 -329q-83 -196 -236 -196q-84 0 -150 64v-439q0 -75 -75 -75t-75 75v439q-66 -64 -150 -64q-153 0 -236 196q-64 150 -64 329t64 329q83 196 236 196q84 0 150 -64v439q0 75 75 75t75 -75v-439q66 64 150 64q153 0 236 -196q64 -150 64 -329z
M975 525q0 233 -95 340q-31 35 -55 35q-20 0 -46 -25q-104 -101 -104 -350t104 -350q26 -25 46 -25q24 0 55 35q95 107 95 340zM525 525q0 233 -95 340q-31 35 -55 35q-20 0 -46 -25q-104 -101 -104 -350t104 -350q26 -25 46 -25q24 0 55 35q95 107 95 340z" />
    <glyph glyph-name="afii10087" unicode="&#x445;" 
d="M1126 974q0 -29 -23 -52l-397 -397l397 -397q23 -23 23 -52q0 -31 -23 -54t-54 -23q-29 0 -52 23l-397 397l-397 -397q-23 -23 -52 -23q-31 0 -54 23t-23 54q0 29 23 52l397 397l-397 397q-23 23 -23 52q0 31 23 54t54 23q29 0 52 -23l397 -397l397 397q23 23 52 23
q31 0 54 -23t23 -54z" />
    <glyph glyph-name="afii10088" unicode="&#x446;" 
d="M1025 -225q0 -75 -75 -75t-75 75v225h-625q-30 0 -52.5 22.5t-22.5 52.5v900q0 75 75 75t75 -75v-825h550v825q0 75 75 75t75 -75v-1200z" />
    <glyph glyph-name="afii10089" unicode="&#x447;" 
d="M1025 75q0 -75 -75 -75t-75 75v375h-422q-130 0 -227 84q-101 87 -101 215v226q0 75 75 75t75 -75v-225q0 -66 57 -110q53 -40 121 -40h422v375q0 75 75 75t75 -75v-900z" />
    <glyph glyph-name="afii10090" unicode="&#x448;" 
d="M1025 75q0 -75 -74 -75h-701q-75 0 -75 74v901q0 75 75 75t75 -75v-825h200v825q0 75 75 75t75 -75v-825h200v825q0 75 75 75t75 -75v-900z" />
    <glyph glyph-name="afii10091" unicode="&#x449;" 
d="M1025 -225q0 -75 -75 -75t-75 75v225h-625q-30 0 -52.5 22.5t-22.5 52.5v900q0 75 75 75t75 -75v-825h200v825q0 75 75 75t75 -75v-825h200v825q0 75 75 75t75 -75v-1200z" />
    <glyph glyph-name="afii10092" unicode="&#x44a;" 
d="M1125 325q0 -141 -109 -236q-105 -90 -248 -90l-168 1q-30 0 -52.5 22.5t-22.5 52.5v825h-375q-75 0 -75 75t75 75h450q30 0 52.5 -22.5t22.5 -52.5v-325h94q142 0 246 -91q110 -95 110 -234zM975 325q0 77 -66 128q-61 47 -140 47h-94v-350l94 -1q79 0 140 47
q66 51 66 129z" />
    <glyph glyph-name="afii10093" unicode="&#x44b;" 
d="M1025 75q0 -75 -75 -75t-75 75v900q0 75 75 75t75 -75v-900zM838 325q0 -141 -110 -236q-104 -90 -247 -90l-231 1q-30 0 -52.5 22.5t-22.5 52.5v900q0 75 75 75t75 -75v-325h156q142 0 247 -91q110 -95 110 -234zM688 325q0 77 -67 128q-61 47 -140 47h-156v-350l156 -1
q80 0 140 47q67 51 67 129z" />
    <glyph glyph-name="afii10094" unicode="&#x44c;" 
d="M1125 325q0 -140 -110 -235q-104 -91 -247 -91l-518 1q-30 0 -52.5 22.5t-22.5 52.5v900q0 75 75 75t75 -75v-325h443q142 0 247 -91q110 -94 110 -234zM975 325q0 77 -66 128q-61 47 -140 47h-444v-350l443 -1q80 0 141 47q66 52 66 129z" />
    <glyph glyph-name="afii10095" unicode="&#x44d;" 
d="M1125 525q0 -223 -169 -376q-163 -149 -388 -149q-144 0 -275 69q-138 71 -207 191q-12 22 -12 41q0 31 24 53t54 22q33 0 62 -36q13 -20 42 -56q119 -134 312 -134q181 0 304 126l-758 408q-39 21 -39 61q0 81 123 171q99 72 199 105q89 29 171 29q225 0 388 -149
q169 -153 169 -376zM975 525q0 160 -125 270q-120 105 -282 105q-183 0 -305 -126l690 -371q22 58 22 122z" />
    <glyph glyph-name="afii10096" unicode="&#x44e;" 
d="M1125 525q0 -190 -91 -344q-107 -181 -284 -181q-159 0 -264 150q-89 127 -107 300h-54v-375q0 -75 -75 -75t-75 75v900q0 75 75 75t75 -75v-375h54q18 173 107 299q105 151 264 151q177 0 284 -181q91 -154 91 -344zM975 525q0 85 -21 159q-23 80 -72 141
q-61 75 -132 75t-132 -75q-49 -61 -72 -141q-21 -74 -21 -159q0 -250 143 -346q42 -29 82 -29t82 29q143 96 143 346z" />
    <glyph glyph-name="afii10097" unicode="&#x44f;" 
d="M1025 75q0 -75 -75 -75t-75 75v825h-444q-79 0 -140 -47q-66 -51 -66 -128t66 -128q61 -47 140 -47q41 0 122 1h122q76 0 76 -77q0 -36 -41 -66l-514 -393q-22 -16 -47 -16q-30 0 -52.5 23.5t-22.5 54.5q0 34 31 58l348 265h-22q-142 0 -246 91q-110 94 -110 234t110 234
q104 91 246 91h520q74 0 74 -74v-901z" />
    <glyph glyph-name="afii10071" unicode="&#x451;" 
d="M970 1313q0 -47 -33.5 -80t-79.5 -33q-47 0 -79.5 33t-32.5 80t32.5 79.5t79.5 32.5t80 -32.5t33 -79.5zM520 1313q0 -47 -33.5 -80t-79.5 -33q-47 0 -79.5 33t-32.5 80t32.5 79.5t79.5 32.5t80 -32.5t33 -79.5zM1126 301q0 -19 -12 -41q-69 -120 -207 -191
q-131 -69 -275 -69q-225 0 -388 149q-169 153 -169 376t169 376q163 149 388 149q82 0 171 -29q100 -33 199 -105q123 -90 123 -171q0 -40 -39 -61l-758 -408q123 -126 304 -126q193 0 312 134q14 18 42.5 55t61.5 37q30 0 54 -22t24 -53zM937 774q-122 126 -305 126
q-162 0 -282 -105q-125 -110 -125 -270q0 -64 22 -122z" />
    <glyph glyph-name="afii10099" unicode="&#x452;" 
d="M1075 75q0 -217 -154 -371t-371 -154q-114 0 -227 52q-119 54 -181 143q-18 26 -18 47q0 31 23.5 53.5t54.5 22.5q28 0 56 -28q137 -140 292 -140t265 110t110 265v575q0 103 -73.5 176.5t-176.5 73.5t-176.5 -73.5t-73.5 -176.5v-575q0 -75 -75 -75t-75 75v1050h-125
q-75 0 -75 75t75 75h125v150q0 75 75 75t75 -75v-150h225q75 0 75 -75t-75 -75h-225v-163q109 88 250 88q165 0 282.5 -117.5t117.5 -282.5v-575z" />
    <glyph glyph-name="afii10100" unicode="&#x453;" 
d="M826 1423q0 -44 -42 -65l-300 -150q-18 -9 -36 -9q-31 0 -52.5 24t-21.5 54q0 44 42 65l300 150q18 9 36 9q31 0 52.5 -24t21.5 -54zM1125 975q0 -75 -75 -75h-725v-825q0 -75 -75 -75t-75 75v900q0 30 22.5 52.5t52.5 22.5h800q75 0 75 -75z" />
    <glyph glyph-name="afii10101" unicode="&#x454;" 
d="M1126 845q0 -31 -23 -54.5t-53 -23.5q-21 0 -49 19q-161 114 -324 114q-151 0 -274 -77q-134 -84 -169 -223h815q75 0 75 -75t-75 -75h-815q35 -139 169 -223q123 -77 274 -77q162 0 324 113q27 19 48 19q31 0 54 -23.5t23 -53.5q0 -28 -28 -56q-69 -70 -196 -111
q-115 -38 -225 -38q-235 0 -412 143q-190 152 -190 382t190 382q177 143 412 143q110 0 225 -38q128 -42 197 -112q27 -28 27 -55z" />
    <glyph glyph-name="afii10102" unicode="&#x455;" 
d="M1056 338q0 -160 -161 -256q-137 -82 -308 -82q-128 0 -245 49q-135 57 -188 158q-11 21 -11 39q0 30 24 52t54 22q34 0 63 -39q99 -131 303 -131q202 0 288 111q31 40 31 77q0 61 -70 113q-56 40 -128 58q-60 16 -136 16q-129 0 -231 65q-118 75 -118 198t121 198
q104 64 236 64q82 0 163 -29q93 -33 136 -90q20 -26 20 -49q0 -30 -23.5 -53t-54.5 -23q-13 0 -82.5 47t-158.5 47q-133 0 -191 -74q-16 -21 -16 -38q0 -72 125 -103q42 -10 100 -10q168 0 302 -83q156 -97 156 -254z" />
    <glyph glyph-name="afii10103" unicode="&#x456;" 
d="M714 1386q0 -47 -33.5 -79t-80.5 -32t-80.5 32t-33.5 79t33.5 80.5t80.5 33.5t80.5 -33.5t33.5 -80.5zM975 75q0 -75 -75 -75h-300q-75 0 -75 75v825h-225q-75 0 -75 75t75 75h301q74 0 74 -75v-825h225q75 0 75 -75z" />
    <glyph glyph-name="afii10104" unicode="&#x457;" 
d="M938 1313q0 -47 -33.5 -80t-80.5 -33q-46 0 -78.5 33t-32.5 80t32.5 79.5t78.5 32.5q47 0 80.5 -32.5t33.5 -79.5zM488 1313q0 -47 -33.5 -80t-80.5 -33q-46 0 -78.5 33t-32.5 80t32.5 79.5t78.5 32.5q48 0 81 -32.5t33 -79.5zM975 75q0 -75 -75 -75h-300q-76 0 -76 75
l1 825h-225q-75 0 -75 75t75 75h300q75 0 75 -84v-816h225q75 0 75 -75z" />
    <glyph glyph-name="afii10105" unicode="&#x458;" 
d="M1064 1386q0 -47 -33.5 -79t-80.5 -32t-80.5 32t-33.5 79t33.5 80.5t80.5 33.5t80.5 -33.5t33.5 -80.5zM1025 75q0 -217 -154 -371t-371 -154q-114 0 -227 52q-119 54 -181 143q-18 26 -18 47q0 31 23.5 53.5t54.5 22.5q27 0 56 -28q142 -140 292 -140q155 0 265 110
t110 265v825h-225q-75 0 -75 75t75 75h301q74 0 74 -74v-901z" />
    <glyph glyph-name="afii10106" unicode="&#x459;" 
d="M1125 325q0 -140 -110 -235q-104 -90 -247 -90h-112q-30 0 -52.5 22.5t-22.5 52.5v614l-366 -651q-22 -39 -63 -39q-30 0 -54 22t-24 52q0 20 11 39l501 890q27 49 68 49q77 0 77 -87v-314h38q142 0 246 -91q110 -94 110 -234zM975 325q0 77 -66 128q-62 47 -141 47h-37
v-350h37q80 0 141 47q66 51 66 128z" />
    <glyph glyph-name="afii10107" unicode="&#x45a;" 
d="M1125 325q0 -140 -110 -235q-105 -90 -247 -90h-112q-30 0 -52.5 22.5t-22.5 52.5v425h-256v-425q0 -75 -75 -75t-75 75v900q0 75 75 75t75 -75v-325h256v325q0 75 75 75t75 -75v-325h38q142 0 246 -91q110 -94 110 -234zM975 325q0 77 -66 128q-61 47 -140 47h-38v-350
h37q80 0 141 47q66 51 66 128z" />
    <glyph glyph-name="afii10108" unicode="&#x45b;" 
d="M1075 75q0 -75 -75 -75t-75 75v575q0 103 -73.5 176.5t-176.5 73.5t-176.5 -73.5t-73.5 -176.5v-575q0 -75 -75 -75t-75 75v1050h-125q-75 0 -75 75t75 75h125v150q0 75 75 75t75 -75v-150h225q75 0 75 -75t-75 -75h-225v-163q109 88 250 88q165 0 282.5 -117.5
t117.5 -282.5v-575z" />
    <glyph glyph-name="afii10109" unicode="&#x45c;" 
d="M854 1423q0 -44 -42 -65l-300 -150q-18 -9 -36 -9q-31 0 -52.5 24t-21.5 54q0 44 43 65l300 150q18 9 35 9q31 0 52.5 -24t21.5 -54zM1126 77q0 -30 -22.5 -54t-52.5 -24q-23 0 -44 14l-640 444q-37 25 -42 54v-436q0 -75 -75 -75t-75 75v900q0 75 75 75t75 -75v-436
q5 29 42 54l640 444q21 14 44 14q30 0 52.5 -24t22.5 -54q0 -37 -33 -60l-561 -388l561 -388q33 -23 33 -60z" />
    <glyph glyph-name="afii10110" unicode="&#x45e;" 
d="M878 1425q0 -28 -43 -74q-137 -149 -266 -149q-152 0 -278 176q-17 25 -17 47q0 31 23.5 53.5t54.5 22.5t97.5 -74.5t124.5 -74.5q59 0 126 74.5t98 74.5t55.5 -22.5t24.5 -53.5zM1025 975v-975q0 -186 -132 -318t-318 -132q-118 0 -224 60q-110 62 -165 163
q-11 22 -11 40q0 30 24 52t54 22q34 0 63 -38q112 -149 259 -149q124 0 212 88t88 212v115q-128 -115 -300 -115q-186 0 -318 132t-132 318v525q0 75 75 75t75 -75v-525q0 -124 88 -212t212 -88t212 88t88 211v526q0 75 75 75t75 -75z" />
    <glyph glyph-name="afii10193" unicode="&#x45f;" 
d="M1025 75q0 -75 -75 -75h-275v-225q0 -75 -75 -75t-75 75v225h-275q-30 0 -52.5 22.5t-22.5 52.5v900q0 75 75 75t75 -75v-825h550v825q0 75 75 75t75 -75v-900z" />
    <glyph glyph-name="afii10050" unicode="&#x490;" 
d="M1125 1425q0 -30 -22.5 -52.5t-52.5 -22.5h-725v-1275q0 -75 -75 -75t-75 75v1350q0 30 22.5 52.5t52.5 22.5h725v225q0 75 75 75t75 -75v-300z" />
    <glyph glyph-name="afii10098" unicode="&#x491;" 
d="M1125 975q0 -30 -22.5 -52.5t-52.5 -22.5h-725v-825q0 -75 -75 -75t-75 75v900q0 30 22.5 52.5t52.5 22.5h725v225q0 75 75 75t75 -75v-300z" />
    <glyph glyph-name="glyph506" 
 />
    <glyph glyph-name="Wgrave" unicode="&#x1e80;" 
d="M826 1727q0 -30 -21.5 -54t-52.5 -24q-18 0 -36 9l-300 150q-42 21 -42 65q0 30 21.5 54t52.5 24q18 0 36 -9l300 -150q42 -21 42 -65zM1125 1428q0 -8 -1 -15l-224 -1341q-12 -72 -76 -72q-57 0 -74 66l-150 600l-150 -600q-16 -66 -74 -66q-65 0 -76 72l-224 1341
q-1 7 -1 15q0 72 76 72q63 0 73 -63l166 -994l135 540q16 67 75 67q58 0 75 -67l135 -540l166 994q10 63 73 63q76 0 76 -72z" />
    <glyph glyph-name="wgrave" unicode="&#x1e81;" 
d="M826 1277q0 -30 -21.5 -54t-52.5 -24q-18 0 -36 9l-300 150q-42 21 -42 65q0 30 21.5 54t52.5 24q18 0 36 -9l300 -150q42 -21 42 -65zM1126 978q0 -12 -4 -25l-267 -888q-19 -65 -75 -65t-75 65l-105 348l-105 -348q-19 -65 -75 -65t-75 65l-267 888q-4 13 -4 25
q0 72 78 72q54 0 70 -53l198 -661l102 338q-88 292 -88 304q0 72 78 72q54 0 70 -53l198 -661l198 661q16 53 70 53q78 0 78 -72z" />
    <glyph glyph-name="Wacute" unicode="&#x1e82;" 
d="M826 1873q0 -44 -42 -65l-300 -150q-18 -9 -36 -9q-31 0 -52.5 24t-21.5 54q0 44 42 65l300 150q18 9 36 9q31 0 52.5 -24t21.5 -54zM1125 1428q0 -8 -1 -15l-224 -1341q-12 -72 -76 -72q-57 0 -74 66l-150 600l-150 -600q-16 -66 -74 -66q-65 0 -76 72l-224 1341
q-1 7 -1 15q0 72 76 72q63 0 73 -63l166 -994l135 540q16 67 75 67q58 0 75 -67l135 -540l166 994q10 63 73 63q76 0 76 -72z" />
    <glyph glyph-name="wacute" unicode="&#x1e83;" 
d="M826 1423q0 -44 -42 -65l-300 -150q-18 -9 -36 -9q-31 0 -52.5 24t-21.5 54q0 44 42 65l300 150q18 9 36 9q31 0 52.5 -24t21.5 -54zM1126 978q0 -12 -4 -25l-267 -888q-19 -65 -75 -65t-75 65l-105 348l-105 -348q-19 -65 -75 -65t-75 65l-267 888q-4 13 -4 25
q0 72 78 72q54 0 70 -53l198 -661l102 338q-88 292 -88 304q0 72 78 72q54 0 70 -53l198 -661l198 661q16 53 70 53q78 0 78 -72z" />
    <glyph glyph-name="Wdieresis" unicode="&#x1e84;" 
d="M938 1763q0 -47 -33 -80t-80 -33t-79.5 33t-32.5 80t32.5 79.5t79.5 32.5t80 -32.5t33 -79.5zM488 1763q0 -47 -33 -80t-80 -33t-79.5 33t-32.5 80t32.5 79.5t79.5 32.5t80 -32.5t33 -79.5zM1125 1428q0 -8 -1 -15l-224 -1341q-12 -72 -76 -72q-57 0 -74 66l-150 600
l-150 -600q-16 -66 -74 -66q-65 0 -76 72l-224 1341q-1 7 -1 15q0 72 76 72q63 0 73 -63l166 -994l135 540q16 67 75 67q58 0 75 -67l135 -540l166 994q10 63 73 63q76 0 76 -72z" />
    <glyph glyph-name="wdieresis" unicode="&#x1e85;" 
d="M938 1313q0 -47 -33 -80t-80 -33t-79.5 33t-32.5 80t32.5 79.5t79.5 32.5t80 -32.5t33 -79.5zM488 1313q0 -47 -33 -80t-80 -33t-79.5 33t-32.5 80t32.5 79.5t79.5 32.5t80 -32.5t33 -79.5zM1126 978q0 -12 -4 -25l-267 -888q-19 -65 -75 -65t-75 65l-105 348l-105 -348
q-19 -65 -75 -65t-75 65l-267 888q-4 13 -4 25q0 72 78 72q54 0 70 -53l198 -661l102 338q-88 292 -88 304q0 72 78 72q54 0 70 -53l198 -661l198 661q16 53 70 53q78 0 78 -72z" />
    <glyph glyph-name="Ygrave" unicode="&#x1ef2;" 
d="M826 1727q0 -30 -21.5 -54t-52.5 -24q-18 0 -36 9l-300 150q-42 21 -42 65q0 30 21.5 54t52.5 24q18 0 36 -9l300 -150q42 -21 42 -65zM1126 1426q0 -22 -14 -43l-437 -656v-652q0 -75 -75 -75t-75 75v652l-437 656q-14 21 -14 43q0 30 24 52.5t54 22.5q37 0 60 -34
l388 -582l388 582q23 34 60 34q30 0 54 -22.5t24 -52.5z" />
    <glyph glyph-name="ygrave" unicode="&#x1ef3;" 
d="M826 1277q0 -30 -21.5 -54t-52.5 -24q-18 0 -36 9l-300 150q-42 21 -42 65q0 30 21.5 54t52.5 24q18 0 36 -9l300 -150q42 -21 42 -65zM1025 975v-975q0 -186 -132 -318t-318 -132q-118 0 -224 60q-110 62 -165 163q-11 22 -11 40q0 30 24 52t54 22q34 0 63 -38
q112 -149 259 -149q124 0 212 88t88 212v115q-128 -115 -300 -115q-186 0 -318 132t-132 318v525q0 75 75 75t75 -75v-525q0 -124 88 -212t212 -88t212 88t88 211v526q0 75 75 75t75 -75z" />
    <glyph glyph-name="glyph515" 
 />
    <glyph glyph-name="endash" unicode="&#x2013;" 
d="M975 525q0 -75 -75 -75h-600q-75 0 -75 75t75 75h600q75 0 75 -75z" />
    <glyph glyph-name="emdash" unicode="&#x2014;" 
d="M1125 525q0 -75 -75 -75h-900q-75 0 -75 75t75 75h900q75 0 75 -75z" />
    <glyph glyph-name="afii00208" unicode="&#x2015;" 
d="M1125 525q0 -75 -75 -75h-900q-75 0 -75 75t75 75h900q75 0 75 -75z" />
    <glyph glyph-name="underscoredbl" unicode="&#x2017;" 
d="M1200 -150h-1200v150h1200v-150zM1200 -450h-1200v150h1200v-150z" />
    <glyph glyph-name="quoteleft" unicode="&#x2018;" 
d="M743 1443q0 -25 -24 -52q-110 -127 -110 -266q0 -75 -75 -75t-75 75q0 231 154 372q26 23 53 23q30 0 53.5 -23t23.5 -54z" />
    <glyph glyph-name="quoteright" unicode="&#x2019;" 
d="M741 1425q0 -231 -154 -372q-26 -23 -53 -23q-30 0 -53.5 23t-23.5 54q0 25 24 52q110 127 110 266q0 75 75 75t75 -75z" />
    <glyph glyph-name="quotesinglbase" unicode="&#x201a;" 
d="M741 75q0 -231 -154 -372q-26 -23 -53 -23q-30 0 -53.5 23t-23.5 54q0 25 24 52q110 127 110 266q0 75 75 75t75 -75z" />
    <glyph glyph-name="quotereversed" unicode="&#x201b;" 
d="M743 1107q0 -31 -23.5 -54t-53.5 -23q-27 0 -53 23q-154 141 -154 372q0 75 75 75t75 -75q0 -139 110 -266q24 -27 24 -52z" />
    <glyph glyph-name="quotedblleft" unicode="&#x201c;" 
d="M968 1443q0 -25 -24 -52q-110 -127 -110 -266q0 -75 -75 -75t-75 75q0 231 154 372q26 23 53 23q30 0 53.5 -23t23.5 -54zM518 1443q0 -25 -24 -52q-110 -127 -110 -266q0 -75 -75 -75t-75 75q0 231 154 372q26 23 53 23q30 0 53.5 -23t23.5 -54z" />
    <glyph glyph-name="quotedblright" unicode="&#x201d;" 
d="M966 1425q0 -231 -154 -372q-26 -23 -53 -23q-30 0 -53.5 23t-23.5 54q0 25 24 52q110 127 110 266q0 75 75 75t75 -75zM516 1425q0 -231 -154 -372q-26 -23 -53 -23q-30 0 -53.5 23t-23.5 54q0 25 24 52q110 127 110 266q0 75 75 75t75 -75z" />
    <glyph glyph-name="quotedblbase" unicode="&#x201e;" 
d="M966 75q0 -231 -154 -372q-26 -23 -53 -23q-30 0 -53.5 23t-23.5 54q0 25 24 52q110 127 110 266q0 75 75 75t75 -75zM516 75q0 -231 -154 -372q-26 -23 -53 -23q-30 0 -53.5 23t-23.5 54q0 25 24 52q110 127 110 266q0 75 75 75t75 -75z" />
    <glyph glyph-name="glyph527" 
 />
    <glyph glyph-name="dagger" unicode="&#x2020;" 
d="M1125 975q0 -79 -75 -75l-394 19l19 -844q2 -75 -75 -75t-75 75l19 844l-394 -19q-75 -4 -75 75t75 75l394 -19l-19 394q-4 75 75 75t75 -75l-19 -394l394 19q75 4 75 -75z" />
    <glyph glyph-name="daggerdbl" unicode="&#x2021;" 
d="M1125 525q0 -79 -75 -75l-394 19l19 -394q4 -75 -75 -75t-75 75l19 394l-394 -19q-75 -4 -75 75t75 75l394 -19v338l-394 -19q-75 -4 -75 75t75 75l394 -19l-19 394q-4 75 75 75t75 -75l-19 -394l394 19q75 4 75 -75t-75 -75l-394 19v-338l394 19q75 4 75 -75z" />
    <glyph glyph-name="bullet" unicode="&#x2022;" 
d="M1138 691q0 -70 -25 -131q-34 -78 -94 -78q-61 0 -94 78q-26 61 -26 131q0 67 27 130q35 79 93 79t92 -79q27 -63 27 -130zM869 841q0 -71 -26 -131q-33 -79 -93 -79q-61 0 -94 79q-26 60 -26 131q0 67 27 130q35 79 93 79q57 0 92 -79q27 -63 27 -130zM570 841
q0 -71 -26 -131q-33 -79 -94 -79q-60 0 -93 79q-26 60 -26 131q0 67 27 130q35 79 92 79q58 0 93 -79q27 -63 27 -130zM1021 275q0 -87 -29 -156q-39 -92 -114 -92q-21 0 -59 16.5t-60 16.5q-31 0 -79.5 -30t-79.5 -30t-79.5 30t-79.5 30q-22 0 -60 -16.5t-59 -16.5
q-75 0 -114 92q-29 69 -29 156q0 145 142 240q126 83 279 83t279 -83q142 -95 142 -240zM301 691q0 -70 -26 -131q-33 -78 -94 -78q-60 0 -94 78q-25 61 -25 131q0 67 27 130q34 79 92 79t93 -79q27 -63 27 -130z" />
    <glyph glyph-name="ellipsis" unicode="&#x2026;" 
d="M1114 114q0 -47 -33.5 -80.5t-80.5 -33.5t-80.5 33.5t-33.5 80.5t33.5 79t80.5 32t80.5 -32t33.5 -79zM714 114q0 -47 -33.5 -80.5t-80.5 -33.5t-80.5 33.5t-33.5 80.5t33.5 79t80.5 32t80.5 -32t33.5 -79zM314 114q0 -47 -33.5 -80.5t-80.5 -33.5t-80.5 33.5t-33.5 80.5
t33.5 79t80.5 32t80.5 -32t33.5 -79z" />
    <glyph glyph-name="perthousand" unicode="&#x2030;" 
d="M1125 375q0 -131 -48 -238q-63 -137 -177 -137q-91 0 -150 89q-59 -89 -150 -89q-119 0 -181 147q-48 115 -44 250l-156 -352q-21 -46 -66 -46q-31 0 -55 21.5t-24 51.5q0 17 7 33l295 664q-35 -19 -76 -19q-114 0 -177 137q-48 107 -48 238t48 238q63 137 177 137
q119 0 181 -147q49 -117 43 -251l157 353q21 46 66 46q31 0 55 -21.5t24 -51.5q0 -17 -7 -33l-296 -665q36 20 77 20q92 0 150 -89q62 89 150 89q114 0 177 -137q48 -107 48 -238zM375 1125q0 191 -77 224q-73 -39 -73 -224q0 -191 77 -224q35 15 56 101q17 66 17 123z
M975 375q0 191 -77 224q-73 -39 -73 -224q0 -191 77 -224q35 15 56 101q17 66 17 123zM675 375q0 191 -77 224q-73 -39 -73 -224q0 -191 77 -224q35 15 56 101q17 66 17 123z" />
    <glyph glyph-name="minute" unicode="&#x2032;" 
d="M751 1428q0 -15 -6 -31l-150 -375q-19 -48 -68 -48q-30 0 -54 21.5t-24 51.5q0 15 6 31l150 375q19 48 68 48q30 0 54 -21.5t24 -51.5z" />
    <glyph glyph-name="second" unicode="&#x2033;" 
d="M988 1428q0 -15 -6 -31l-150 -375q-19 -48 -67 -48q-31 0 -54.5 21.5t-23.5 51.5q0 15 6 31l150 375q19 48 67 48q31 0 54.5 -21.5t23.5 -51.5zM513 1428q0 -15 -6 -31l-150 -375q-19 -48 -67 -48q-31 0 -54.5 21.5t-23.5 51.5q0 15 6 31l150 375q19 48 67 48
q31 0 54.5 -21.5t23.5 -51.5z" />
    <glyph glyph-name="guilsinglleft" unicode="&#x2039;" 
d="M789 73q0 -31 -24 -52.5t-55 -21.5q-43 0 -65 42l-225 450q-3 8 -3 34t3 34l225 450q22 42 65 42q31 0 55 -21.5t24 -52.5q0 -18 -9 -36l-209 -416l209 -416q9 -18 9 -36z" />
    <glyph glyph-name="guilsinglright" unicode="&#x203a;" 
d="M783 525q0 -26 -3 -34l-225 -450q-22 -42 -65 -42q-31 0 -55 21.5t-24 52.5q0 18 9 36l209 416l-209 416q-9 18 -9 36q0 31 24 52.5t55 21.5q43 0 65 -42l225 -450q3 -8 3 -34z" />
    <glyph glyph-name="exclamdbl" unicode="&#x203c;" 
d="M975 450q0 -75 -75 -75t-75 75v975q0 75 75 75t75 -75v-975zM375 450q0 -75 -75 -75t-75 75v975q0 75 75 75t75 -75v-975zM1014 114q0 -47 -33.5 -80.5t-80.5 -33.5t-80.5 33.5t-33.5 80.5t33.5 79t80.5 32t80.5 -32t33.5 -79zM414 114q0 -47 -33.5 -80.5t-80.5 -33.5
t-80.5 33.5t-33.5 80.5t33.5 79t80.5 32t80.5 -32t33.5 -79z" />
    <glyph glyph-name="radicalex" unicode="&#x203e;" 
 />
    <glyph glyph-name="fraction" unicode="&#x2044;" 
d="M1126 1426q0 -22 -14 -42l-900 -1351q-23 -34 -60 -34q-30 0 -54 22.5t-24 52.5q0 22 14 43l900 1350q23 34 60 34q30 0 54 -22t24 -53z" />
    <glyph glyph-name="nsuperior" unicode="&#x207f;" 
d="M1000 795q0 -75 -75 -75t-75 75v367q0 83 -73 138q-66 50 -152 50t-152 -50q-73 -55 -73 -138v-367q0 -75 -75 -75t-75 75v630q0 75 75 75q70 0 75 -68q101 68 225 68q149 0 259 -93q116 -99 116 -245v-367z" />
    <glyph glyph-name="glyph541" 
 />
    <glyph glyph-name="franc" unicode="&#x20a3;" 
d="M1125 750q0 -75 -75 -75h-617v-175h132q75 0 75 -75t-75 -75h-132v-275q0 -75 -75 -75t-75 75v275h-133q-75 0 -75 75t75 75h133v925q0 30 22.5 52.5t52.5 22.5h692q75 0 75 -75t-75 -75h-617v-525h617q75 0 75 -75z" />
    <glyph glyph-name="afii08941" unicode="&#x20a4;" 
d="M1125 75q0 -75 -75 -75h-900q-78 0 -78 75t78 75q62 0 106 44t44 106v300h-150q-75 0 -75 75t75 75h150v150h-150q-75 0 -75 75t75 75h150v150q0 124 88 212t212 88q85 0 146 -31q79 -39 79 -115q0 -78 -60 -78q-22 0 -68 37t-97 37q-62 0 -106 -44t-44 -106v-150h150
q75 0 75 -75t-75 -75h-150v-150h150q75 0 75 -75t-75 -75h-150v-300q0 -81 -40 -150h640q75 0 75 -75z" />
    <glyph glyph-name="peseta" unicode="&#x20a7;" 
d="M1125 259q0 -98 -53 -174q-59 -85 -153 -85q-58 0 -104 34q-45 -34 -99 -34q-85 0 -139 76q-49 68 -49 156v398q-95 0 -109 52q-59 -54 -132 -73v-534q0 -75 -75 -75t-75 75v1350q0 30 22.5 52.5t52.5 22.5q152 0 253 -135q89 -119 99 -280q18 10 39 10q75 0 75 -75v-240
q106 0 113 -67q47 67 125 67q54 0 105.5 -44.5t51.5 -98.5q0 -30 -23.5 -51.5t-54.5 -21.5q-35 0 -52 25q-22 30 -32 34q-14 -20 -14 -49t19 -57q96 0 156 -83q53 -75 53 -175zM415 1050q0 199 -128 277v-557q61 36 97 124q31 77 31 156zM528 780v71q-14 -37 -33 -71h33z
M975 259q0 104 -59 108q-80 7 -126 67q-43 57 -43 140q0 33 9 66q-18 -10 -78 -10v-398q0 -21 10 -48q11 -34 28 -34q5 0 12 7q-8 24 -8 39q0 73 78 73q47 0 72 -59.5t49 -59.5q26 0 43 43q13 34 13 66z" />
    <glyph glyph-name="glyph545" 
 />
    <glyph glyph-name="afii61248" unicode="&#x2105;" 
d="M1126 1426q0 -22 -14 -42l-434 -652q66 48 147 48q138 0 224 -130q76 -115 76 -260t-76 -260q-86 -130 -224 -130t-224 130q-76 115 -76 260q0 74 22 145l-335 -502q-23 -34 -60 -34q-30 0 -54 22.5t-24 52.5q0 22 14 43l435 653q-68 -50 -148 -50q-138 0 -224 130
q-76 115 -76 260q0 146 76 260q86 130 224 130q142 0 220 -123q15 -25 15 -45q0 -30 -23.5 -52.5t-54.5 -22.5q-30 0 -71.5 46.5t-85.5 46.5q-71 0 -114 -88q-36 -72 -36 -152q0 -79 36 -152q43 -88 114 -88q44 0 85 46.5t72 46.5q65 0 77 -64l379 568q23 34 60 34
q30 0 54 -22t24 -53zM975 390q0 79 -36 152q-43 88 -114 88t-114 -88q-36 -73 -36 -152t36 -152q43 -88 114 -88t114 88q36 73 36 152z" />
    <glyph glyph-name="afii61289" unicode="&#x2113;" 
d="M1126 226q0 -22 -16 -46q-57 -83 -156.5 -131.5t-203.5 -48.5q-186 0 -318 132t-132 318v722q0 135 96.5 231.5t231.5 96.5q136 0 232 -96.5t96 -231.5q0 -174 -506 -536v-186q0 -124 88 -212t212 -88q107 0 193 75.5t105 75.5q31 0 54.5 -22.5t23.5 -52.5zM806 1172
q0 73 -52 125.5t-126 52.5q-73 0 -125.5 -52.5t-52.5 -125.5v-347q356 274 356 347z" />
    <glyph glyph-name="afii61352" unicode="&#x2116;" 
d="M1150 1110q0 -137 -54 -249q-68 -141 -190 -141q-102 0 -168 103l-1 -223h338q75 0 75 -75t-75 -75h-338l1 -378q0 -30 -23.5 -51t-54.5 -21q-50 0 -71 57l-339 939v-921q0 -75 -75 -75t-75 75l-1 1353q0 30 23.5 51t54.5 21q50 0 71 -57l340 -939l-1 921q0 75 75 75
q77 0 76 -103q66 103 168 103q122 0 190 -141q54 -112 54 -249zM1000 1110q0 152 -65 220q-18 20 -29 20t-29 -20q-65 -68 -65 -220q0 -161 71 -226q15 -14 23 -14q9 0 24 14q70 65 70 226z" />
    <glyph glyph-name="trademark" unicode="&#x2122;" 
d="M1126 748q0 -73 -77 -73q-63 0 -72 63l-55 348l-62 -208q-20 -66 -72 -66t-72 66l-62 209l-54 -349q-10 -63 -73 -63q-77 0 -77 73q0 6 2 14l105 675q11 76 72 76q54 0 73 -66l86 -286l86 286q20 66 73 66q61 0 73 -76l105 -675q1 -8 1 -14zM539 1425q0 -58 -55 -72
q-15 -3 -102 -3v-600q0 -75 -75 -75t-75 75v600q-8 0 -27 -1h-26q-105 0 -105 76q0 75 75 75h315q75 0 75 -75z" />
    <glyph glyph-name="Ohm" unicode="&#x2126;" 
d="M1125 75q0 -75 -75 -75l-297 -1q-79 0 -79 75q0 24 22 55l202 280q77 133 77 341q0 135 -35 253q-39 134 -120 230q-100 117 -220 117t-220 -117q-80 -96 -120 -230q-35 -118 -35 -253q0 -208 77 -341l202 -280q22 -31 22 -55q0 -75 -79 -75l-297 1q-75 0 -75 75t75 75
h154q-144 189 -180 274q-49 117 -49 326q0 269 126 489q150 261 399 261t399 -261q126 -220 126 -489q0 -209 -49 -326q-36 -85 -180 -274h154q75 0 75 -75z" />
    <glyph glyph-name="estimated" unicode="&#x212e;" 
d="M1050 550q0 -44 -32 -44h-693v-262q0 -57 80.5 -122t189.5 -65q160 0 290 173h95q-46 -97 -158.5 -163.5t-221.5 -66.5q-148 0 -277 105q-173 142 -173 415q0 264 161 411q132 119 304 119q162 0 289 -123q146 -140 146 -377zM875 553v266q0 56 -63 108q-78 67 -204 67
q-115 0 -203 -70q-80 -63 -80 -127v-244h550z" />
    <glyph glyph-name="glyph552" 
 />
    <glyph glyph-name="oneeighth" unicode="&#x215b;" 
d="M506 937q0 -75 -75 -75h-225q-75 0 -75 75q0 76 113 76v499q-58 -73 -92 -73q-31 0 -54.5 22.5t-23.5 53.5q0 25 18 47l160 200q31 39 65 39q77 0 77 -89v-699q112 0 112 -76zM1126 1426q0 -22 -14 -43l-446 -669q70 83 173 83q108 0 178 -90q66 -84 66 -195
q0 -117 -72 -202q114 -102 114 -270q0 -131 -76 -230q-83 -107 -210 -107t-210 109q-76 100 -76 231q0 167 113 268q-71 85 -71 201q0 81 37 151l-420 -630q-23 -34 -60 -34q-30 0 -54 22.5t-24 52.5q0 22 14 43l900 1350q23 34 60 34q30 0 54 -22.5t24 -52.5zM933 512
q0 47 -23 88q-28 47 -71 47t-71 -47q-23 -41 -23 -88q0 -46 23 -87q28 -48 71 -48t71 48q23 41 23 87zM975 40q0 67 -34 123q-39 64 -102 64t-102 -63q-34 -55 -34 -121q0 -67 34 -124q40 -66 102 -66q63 0 102 64q34 56 34 123z" />
    </font>
</defs>
</svg>
