<?xml version="1.0" standalone="no"?>
<!DOCTYPE svg PUBLIC "-//W3C//DTD SVG 1.1//EN" "http://www.w3.org/Graphics/SVG/1.1/DTD/svg11.dtd" >
<svg>
<metadata>
Created by FontForge 20120731 at Fri May  2 05:14:04 2014
 By World Wide Web Server
(C) Copyright 1991, 2002 The Monotype Corporation plc. All Rights Reserved. 
</metadata>
<defs>
<font id="ScriptMTStd-Bold" horiz-adv-x="521" >
  <font-face 
    font-family="Script MT Std"
    font-weight="700"
    font-style="italic"
    font-stretch="normal"
    units-per-em="1000"
    panose-1="0 0 8 0 0 0 0 0 0 0"
    ascent="695"
    descent="-305"
    x-height="414"
    cap-height="696"
    bbox="-193 -252 1075.37 952"
    underline-thickness="50"
    underline-position="-50"
    slope="-9"
    stemh="37"
    stemv="118"
    unicode-range="U+0020-FB02"
  />
<missing-glyph horiz-adv-x="570" 
d="M70 0v700h500v-700h-500zM320 395l170 255h-340zM350 350l170 -255v510zM150 50h340l-170 255zM120 605v-510l170 255z" />
    <glyph glyph-name="f_i" unicode="fi" horiz-adv-x="563" 
d="M450 610c23 -14 39 -24 62 -24c18 0 34 6 52 19c-1 -77 -30 -116 -87 -116c-28 0 -53 8 -72 24c22 34 31 54 45 97zM0 152l89 86c35 166 57 270 137 426c30 10 100 33 118 33c26 0 45 -37 45 -89c0 -106 -48 -191 -163 -292l-40 -197c14 -29 30 -47 44 -47
c21 0 28 9 109 118c14 61 30 112 61 198c21 5 123 28 131 28l-50 -151c-18 -54 -29 -106 -29 -135c0 -25 12 -42 29 -42c24 0 44 22 93 76v-56c-89 -89 -132 -118 -175 -118c-44 0 -67 45 -69 133c-63 -87 -96 -132 -131 -132c-9 0 -21 4 -34 12c-15 -80 -22 -128 -35 -230
l-120 -24c6 105 17 165 50 345l-20 41l-29 -27h-11v44zM252 443l-12 -64c68 60 112 147 112 218c0 33 -9 52 -24 52c-31 0 -61 -131 -76 -206z" />
    <glyph glyph-name="f_l" unicode="fl" horiz-adv-x="635" 
d="M459 301c83 89 137 208 137 301c0 25 -5 37 -14 37c-45 0 -106 -265 -123 -338zM0 152l75 80c18 109 60 283 141 432c67 24 97 33 116 33c29 0 48 -36 48 -90c0 -101 -51 -189 -168 -294l-36 -187c17 -39 35 -58 52 -58c24 0 53 28 91 88c8 173 77 335 150 492l58 25
c25 11 63 23 73 23c18 0 33 -39 33 -88c0 -174 -129 -317 -189 -383c-1 -13 -4 -50 -4 -58c0 -63 26 -103 66 -103c37 0 74 26 140 100v-56c-50 -47 -129 -118 -210 -118c-67 0 -103 36 -116 117c-61 -85 -98 -117 -132 -117c-12 0 -14 2 -33 16c-12 -89 -18 -151 -22 -237
c-50 -8 -67 -11 -121 -19c10 144 16 225 37 347l-19 36l-19 -25h-11v44zM230 381c66 59 112 149 112 221c0 29 -10 47 -25 47c-39 0 -73 -192 -87 -268z" />
    <glyph glyph-name=".notdef" horiz-adv-x="570" 
d="M70 0v700h500v-700h-500zM320 395l170 255h-340zM350 350l170 -255v510zM150 50h340l-170 255zM120 605v-510l170 255z" />
    <glyph glyph-name="space" unicode=" " horiz-adv-x="250" 
 />
    <glyph glyph-name="exclam" unicode="!" horiz-adv-x="323" 
d="M152 188c-18 28 -29 64 -29 98c0 33 9 66 33 127c28 71 36 106 36 154c0 24 -2 40 -6 60c-2 9 -3 13 -3 16c0 13 101 51 108 51c13 0 26 -47 26 -94c0 -81 -34 -148 -84 -225c-49 -76 -64 -110 -64 -145c0 -4 4 -26 4 -31c0 -4 -2 -5 -21 -11zM52 78c7 17 13 36 15 44
c1 8 3 12 5 12c3 0 8 -3 13 -9c21 -20 44 -31 69 -31c13 0 26 3 37 8c3 1 6 2 8 2c1 0 3 -2 3 -5s-2 -8 -7 -22c-24 -62 -39 -88 -86 -88c-41 0 -86 27 -86 33c0 2 2 5 5 10c8 11 15 24 24 46z" />
    <glyph glyph-name="quotedbl" unicode="&#x22;" horiz-adv-x="440" 
d="M136 653l92 29c2 -84 -4 -132 -80 -245l-31 -5c29 81 39 140 19 221zM301 663l92 29c2 -84 -4 -132 -80 -245l-31 -5c29 81 39 140 19 221z" />
    <glyph glyph-name="numbersign" unicode="#" horiz-adv-x="668" 
d="M42 434v70h156l42 194h70l-42 -194h196l41 194h70l-42 -194h93v-70h-106l-36 -171h142v-70h-155l-41 -193h-71l42 193h-197l-40 -193h-70l40 193h-92v70h107l35 171h-142zM450 434h-196l-35 -170h196z" />
    <glyph glyph-name="dollar" unicode="$" 
d="M283 456l53 191c-71 -1 -97 -59 -97 -91s16 -68 44 -100zM268 255l-63 -229c66 6 115 57 115 119c0 35 -16 68 -52 110zM343 675l6 24h39l-7 -27c71 -15 119 -44 119 -72c0 -23 -18 -52 -48 -100c-13 0 -27 0 -27 22c0 7 5 43 5 51c0 41 -16 61 -57 70l-61 -226
c86 -92 114 -143 114 -207c0 -84 -70 -207 -232 -221l-26 -93h-38l26 96c-41 8 -68 21 -95 44c-18 15 -39 40 -39 46c0 11 28 69 37 88c12 24 14 27 23 27c12 0 17 -6 17 -20c0 -7 -3 -39 -3 -46c0 -59 20 -89 70 -103l73 267c-79 83 -108 135 -108 198c0 76 58 182 212 182
z" />
    <glyph glyph-name="percent" unicode="%" horiz-adv-x="761" 
d="M44 -244l541 863c-100 -42 -182 -63 -238 -63c-20 0 -44 2 -63 5c-31 -176 -135 -176 -150 -176c-58 0 -101 46 -101 110c0 45 26 112 57 149c24 29 64 55 85 55c8 0 13 -5 13 -14c0 -6 -5 -16 -18 -36c-37 -56 -55 -116 -55 -158c0 -40 16 -67 40 -67c17 0 80 32 96 149
c-25 18 -34 34 -34 61c0 34 17 65 35 65c38 0 38 -77 38 -102c17 -3 38 -5 57 -5c39 0 91 10 148 30c31 11 169 75 192 75c10 0 15 -6 16 -18c0 -5 -1 -8 -3 -11l-573 -912h-83zM725 -32l14 -5c2 -32 -4 -32 -20 -32c-21 -122 -90 -176 -148 -176s-100 46 -100 108
c0 63 33 138 77 175c20 17 50 32 63 32c8 0 14 -5 14 -12c0 -6 -3 -14 -15 -31c-58 -92 -58 -159 -58 -172c0 -38 14 -61 37 -61c19 0 79 33 99 150c-25 15 -33 28 -33 59c0 38 14 67 34 67c36 0 36 -70 36 -102z" />
    <glyph glyph-name="ampersand" unicode="&#x26;" horiz-adv-x="677" 
d="M293 355c-100 -47 -138 -93 -138 -164c0 -67 41 -124 88 -124c36 0 68 29 108 66c-30 74 -41 115 -58 222zM292 394v41c0 145 85 253 199 253c62 0 115 -32 115 -70c0 -24 -64 -64 -71 -64c-10 0 -16 8 -19 31c-1 12 -8 62 -48 62c-36 0 -57 -49 -57 -129
c0 -83 21 -198 55 -302c35 -105 64 -145 106 -145c21 0 45 13 62 34c6 6 11 10 14 10c9 0 21 -14 21 -20c0 -10 -68 -106 -157 -106c-57 0 -100 32 -145 108c-89 -81 -141 -108 -207 -108c-78 0 -132 54 -132 131c0 147 191 239 264 274z" />
    <glyph glyph-name="quoteright" unicode="&#x2019;" horiz-adv-x="240" 
d="M31 387l-7 30c85 47 110 73 110 114c0 29 -16 49 -50 61c-10 3 -15 6 -15 10c0 5 5 10 17 23c29 31 44 48 62 73c52 -27 78 -66 78 -115c0 -83 -69 -152 -195 -196z" />
    <glyph glyph-name="parenleft" unicode="(" horiz-adv-x="479" 
d="M245 -233h-50c-58 78 -142 193 -142 368c0 163 64 315 184 438c56 57 93 82 173 134h54c-78 -75 -193 -187 -257 -407c-25 -89 -39 -177 -39 -254c0 -105 22 -184 77 -279z" />
    <glyph glyph-name="parenright" unicode=")" horiz-adv-x="479" 
d="M80 -233h-55c85 82 123 126 159 184c88 143 137 313 137 475c0 111 -19 183 -75 281h49c101 -130 143 -239 143 -369c0 -173 -75 -338 -210 -463c-40 -36 -76 -62 -148 -108z" />
    <glyph glyph-name="asterisk" unicode="*" horiz-adv-x="479" 
d="M99 607l58 89c51 -42 76 -90 102 -193c40 67 59 109 74 166l102 -27c-26 -63 -63 -102 -148 -153c87 -26 145 -25 178 -24l6 -104c-69 7 -117 30 -194 95c3 -63 12 -100 35 -178l-99 -36c-4 25 -5 33 -5 55c0 50 7 70 35 156c-56 -19 -86 -37 -155 -87l-68 81
c53 29 89 38 161 40c21 -1 28 -1 53 -3c-55 64 -84 90 -135 123z" />
    <glyph glyph-name="plus" unicode="+" horiz-adv-x="667" 
d="M65 229v77h229v229h77v-229h229v-77h-229v-229h-77v229h-229z" />
    <glyph glyph-name="comma" unicode="," horiz-adv-x="240" 
d="M32 -168l-10 30c84 46 110 72 110 112c0 28 -16 49 -49 62c-11 4 -17 8 -17 12c0 3 7 11 16 19c12 11 39 42 63 75c56 -34 79 -67 79 -115c0 -81 -68 -150 -192 -195z" />
    <glyph glyph-name="hyphen" unicode="-" horiz-adv-x="327" 
d="M39 149l27 63c15 39 21 42 120 40c57 -1 74 -2 93 14c5 4 7 5 11 5c8 0 14 -3 11 -9l-23 -53c-23 -51 -28 -57 -70 -57c-17 0 -94 4 -108 4c-16 0 -25 -2 -39 -13c-6 -4 -8 -5 -12 -5c-11 0 -12 5 -10 11z" />
    <glyph glyph-name="period" unicode="." horiz-adv-x="198" 
d="M64 135c36 -30 49 -41 81 -41c16 0 24 2 48 8c-29 -93 -45 -113 -93 -113c-31 0 -52 7 -85 31c23 37 33 65 49 115z" />
    <glyph glyph-name="slash" unicode="/" horiz-adv-x="396" 
d="M38 -221l219 919h112l-218 -919h-113z" />
    <glyph glyph-name="zero" unicode="0" 
d="M487 456c-29 -133 -103 -467 -310 -467c-88 0 -145 77 -145 195c0 181 102 382 240 472c35 23 69 38 84 38c6 0 8 -4 8 -17c0 -11 -1 -14 -13 -25c-114 -112 -176 -346 -176 -473c0 -72 25 -117 66 -117c19 0 42 11 60 28c86 83 133 293 151 374c-47 13 -73 47 -73 92
c0 43 29 139 76 139c29 0 44 -36 44 -106c0 -30 -2 -64 -5 -89c5 -4 8 -5 15 -8c9 -3 11 -5 11 -14c0 -17 -5 -24 -16 -24c-2 0 -14 2 -17 2z" />
    <glyph glyph-name="one" unicode="1" horiz-adv-x="396" 
d="M103 476c-8 -13 -13 -20 -17 -20c-13 0 -26 9 -26 18c0 6 32 80 171 188c35 27 54 33 103 33c20 0 24 -3 24 -15l-1 -12c-1 -11 -38 -152 -80 -315c-42 -162 -89 -329 -106 -346c-11 -11 -60 -19 -116 -19c-19 0 -25 3 -25 12c0 8 3 16 8 31c75 200 123 378 175 567
c-72 -60 -101 -106 -110 -122z" />
    <glyph glyph-name="two" unicode="2" horiz-adv-x="522" 
d="M189 247l55 51c45 46 119 119 119 233c0 66 -37 110 -93 110c-53 0 -98 -44 -98 -96c0 -23 9 -40 32 -58c13 -10 17 -16 17 -23c0 -20 -69 -50 -97 -50c-25 0 -46 27 -46 61c0 110 125 220 251 220c104 0 178 -70 178 -167c0 -127 -125 -211 -230 -282
c-136 -92 -156 -114 -182 -148c48 14 68 17 107 17c20 0 119 -10 141 -10c40 0 61 14 73 47c3 8 4 12 8 12c12 0 29 -8 29 -12c0 -5 -6 -33 -29 -77c-35 -71 -63 -86 -133 -86c-12 0 -49 3 -86 6c-36 3 -73 6 -87 6c-34 0 -55 -3 -80 -9c-9 -3 -12 -3 -16 -3c-5 0 -7 2 -7 9
c0 50 11 101 174 249z" />
    <glyph glyph-name="three" unicode="3" 
d="M475 201c0 -124 -116 -213 -275 -213c-119 0 -185 51 -185 142c0 33 12 44 67 62c15 5 39 11 44 11c9 0 16 -10 16 -22c0 -6 -2 -12 -7 -24c-9 -20 -13 -36 -13 -52c0 -45 39 -80 88 -80c92 0 126 113 126 184c0 68 -34 117 -81 117l-35 -2c-12 -1 -17 7 -17 20
c0 26 4 40 30 40c40 0 76 0 107 33c29 31 48 86 48 134c0 59 -40 100 -95 100c-51 0 -94 -35 -94 -77c0 -22 15 -35 15 -54s-67 -49 -83 -49c-15 0 -28 21 -28 47c0 71 83 177 229 177c107 0 180 -61 180 -151c0 -81 -58 -139 -174 -174c42 -16 61 -27 84 -48
c35 -32 53 -74 53 -121z" />
    <glyph glyph-name="four" unicode="4" 
d="M347 601c-37 -23 -183 -171 -277 -337c94 -1 135 0 176 2c38 113 58 182 101 335zM164 30l59 160l-172 6c-31 1 -35 2 -35 13c0 30 0 35 23 77c40 73 140 225 313 370c39 33 58 40 106 40c21 0 27 -3 28 -15c0 -10 -13 -63 -23 -103l-15 -63c-13 -51 -37 -140 -51 -192
l-13 -47c29 1 73 6 95 11l8 2c9 0 15 -4 15 -10c0 -10 -19 -74 -26 -80c-10 -9 -68 -10 -115 -10l-26 -94c-12 -44 -23 -78 -36 -88s-65 -18 -119 -18c-16 0 -23 4 -23 12c0 6 3 17 7 29z" />
    <glyph glyph-name="five" unicode="5" 
d="M229 569l-41 -151c14 4 28 6 42 8c15 2 28 3 39 3c117 0 204 -84 204 -198c0 -138 -116 -242 -268 -242c-134 0 -189 81 -189 133c0 22 6 34 21 41c11 6 68 34 84 34c8 0 12 -4 12 -12c0 -10 -11 -58 -11 -69c0 -52 35 -90 84 -90c71 0 127 92 127 208
c0 82 -47 131 -126 131c-16 0 -35 -2 -51 -6c-5 -1 -8 -1 -10 -1c-6 0 -9 2 -9 9c0 4 2 12 6 25l76 274c6 21 12 29 24 29c3 0 8 -1 17 -3c34 -8 66 -11 103 -11c38 0 92 5 138 14c-15 -62 -35 -95 -61 -113s-59 -21 -99 -21c-31 0 -72 3 -112 8z" />
    <glyph glyph-name="six" unicode="6" 
d="M157 123c0 -58 28 -98 69 -98c87 0 125 181 125 243c0 45 -28 81 -55 81c-20 0 -34 -9 -40 -9c-5 0 -11 7 -11 14c0 4 64 61 115 61c69 0 129 -73 129 -158c0 -140 -130 -268 -272 -268c-109 0 -182 90 -182 225c0 310 293 481 366 481c1 0 14 -8 21 -12c2 -2 4 -4 4 -7
c0 -4 -2 -6 -12 -12c-207 -115 -257 -474 -257 -541z" />
    <glyph glyph-name="seven" unicode="7" horiz-adv-x="528" 
d="M82 535l28 91c8 25 20 48 28 52c14 9 64 17 106 17c26 0 46 -2 90 -9c40 -7 58 -9 81 -9c29 0 51 4 73 14c6 3 9 4 11 4c5 0 11 -7 11 -12c0 -14 -27 -77 -71 -162c-99 -193 -164 -375 -188 -460c-9 -33 -15 -46 -24 -54c-11 -10 -69 -19 -119 -19c-16 0 -23 5 -23 16
c0 9 7 36 18 67c32 94 89 181 201 320c67 84 85 111 117 174c-21 -3 -37 -4 -49 -4c-25 0 -143 14 -170 14c-53 0 -76 -19 -92 -75c-6 -3 -17 -6 -24 -6c-8 0 -11 4 -11 12c0 7 2 13 7 29z" />
    <glyph glyph-name="eight" unicode="8" horiz-adv-x="523" 
d="M472 549h30c5 0 6 -2 6 -7c0 -6 -1 -10 -6 -26c-6 -3 -13 -4 -22 -4c-1 0 -24 2 -27 3c-29 -49 -51 -71 -118 -119c64 -69 91 -122 91 -181c0 -119 -112 -227 -236 -227c-98 0 -169 60 -169 144c0 109 105 176 169 217c-44 50 -65 99 -65 150c0 100 74 178 188 197
c8 -6 21 -15 21 -17c0 -3 -6 -8 -16 -12c-51 -24 -81 -66 -81 -112c0 -39 16 -68 71 -130c60 36 84 60 112 108c-25 18 -37 41 -37 73c0 48 30 89 66 89c26 0 43 -23 43 -60c0 -28 -6 -56 -20 -86zM216 321c-41 -24 -157 -93 -157 -187c0 -62 54 -109 128 -109
s127 49 127 117c0 57 -29 109 -98 179z" />
    <glyph glyph-name="nine" unicode="9" 
d="M361 561c0 58 -28 98 -69 98c-87 0 -125 -181 -125 -243c0 -45 28 -81 55 -81c20 0 34 9 40 9c5 0 11 -7 11 -14c0 -4 -64 -61 -115 -61c-69 0 -129 73 -129 158c0 140 130 268 272 268c109 0 182 -90 182 -225c0 -310 -293 -481 -366 -481c-1 0 -14 8 -21 12
c-2 2 -4 4 -4 7c0 4 2 6 12 12c207 115 257 474 257 541z" />
    <glyph glyph-name="colon" unicode=":" horiz-adv-x="281" 
d="M142 417c39 -32 53 -43 83 -43c11 0 18 1 32 6c9 3 10 4 17 5c-24 -88 -46 -115 -96 -115c-34 0 -54 12 -86 31c23 30 26 38 50 116zM67 135c34 -27 51 -41 81 -41c10 0 32 6 49 10c-24 -88 -46 -115 -94 -115c-33 0 -53 12 -85 31c24 38 32 59 49 115z" />
    <glyph glyph-name="semicolon" unicode=";" horiz-adv-x="323" 
d="M189 416c33 -32 51 -41 80 -41c11 0 27 4 49 10c-21 -84 -47 -116 -95 -116c-30 0 -43 8 -86 34c25 33 35 54 52 113zM25 -168l-10 31c84 46 110 72 110 112c0 28 -16 48 -49 62c-11 4 -16 8 -16 11c0 4 6 12 15 20c12 11 39 42 64 75c55 -34 78 -68 78 -115
c0 -81 -68 -151 -192 -196z" />
    <glyph glyph-name="less" unicode="&#x3c;" horiz-adv-x="667" 
d="M601 91v-83l-535 224v70l535 224v-83l-431 -176z" />
    <glyph glyph-name="equal" unicode="=" horiz-adv-x="667" 
d="M66 344v77h535v-77h-535zM66 113v77h535v-77h-535z" />
    <glyph glyph-name="greater" unicode="&#x3e;" horiz-adv-x="667" 
d="M66 443v84l534 -225v-69l-534 -224v83l431 175z" />
    <glyph glyph-name="question" unicode="?" horiz-adv-x="438" 
d="M166 194l-19 -7c-18 31 -23 48 -23 68c0 32 15 55 59 89c57 44 117 92 117 186c0 65 -35 107 -90 107c-51 0 -90 -37 -90 -87c0 -28 14 -52 30 -53c11 0 26 0 26 -11c0 -19 -69 -57 -83 -57c-22 0 -45 41 -45 80c0 95 109 186 223 186c91 0 155 -65 155 -157
c0 -90 -54 -161 -190 -246c-56 -35 -72 -50 -72 -81c0 -3 1 -10 2 -17zM83 136c30 -31 48 -40 82 -40c10 0 27 4 46 9c-22 -88 -46 -116 -98 -116c-28 0 -48 8 -83 33c23 32 27 43 53 114z" />
    <glyph glyph-name="at" unicode="@" horiz-adv-x="832" 
d="M496 380l16 56l114 4l-86 -296c-9 -29 -14 -58 -14 -72c0 -21 17 -38 39 -38c63 0 202 109 202 292c0 176 -124 297 -302 297c-269 0 -416 -220 -416 -434c0 -217 153 -371 369 -371c127 0 312 64 385 260h29c-74 -184 -222 -286 -416 -286c-242 0 -416 173 -416 413
c0 259 192 448 455 448c203 0 338 -128 338 -318c0 -189 -123 -335 -282 -335c-59 0 -95 32 -95 84c0 15 4 40 11 65c-38 -63 -90 -149 -163 -149c-48 0 -79 41 -79 106c0 185 155 347 243 347c39 0 60 -22 68 -73zM441 419c-55 3 -134 -205 -134 -288c0 -26 11 -45 27 -45
c44 0 140 152 140 270c0 38 -13 62 -33 63z" />
    <glyph glyph-name="A" unicode="A" horiz-adv-x="677" 
d="M369 196c18 160 69 318 177 438c-30 16 -63 24 -97 24c-200 0 -288 -314 -288 -443c0 -73 31 -124 76 -124c41 0 81 33 132 105zM688 164v-56c-78 -83 -142 -120 -206 -120c-76 0 -112 60 -116 141c-88 -106 -138 -141 -202 -141c-89 0 -147 83 -147 210
c0 144 84 498 460 498c77 0 136 -9 200 -30v-32c-16 -21 -28 -35 -33 -43c-71 -104 -138 -326 -138 -428c0 -52 22 -82 60 -82c33 0 73 26 122 83z" />
    <glyph glyph-name="B" unicode="B" horiz-adv-x="760" 
d="M522 345l5 36c21 0 32 3 46 11c32 19 54 67 54 120c0 90 -64 148 -165 148c-135 0 -264 -92 -264 -189c0 -28 16 -49 46 -62c8 -3 12 -6 12 -9v-15c0 -17 -78 -43 -90 -43c-26 0 -58 51 -58 95c0 99 119 262 381 262c159 0 269 -73 269 -179c0 -62 -34 -126 -166 -160
c88 -28 130 -80 130 -160c0 -116 -99 -211 -221 -211c-53 0 -94 24 -94 55c0 18 28 67 49 67c14 0 21 -13 24 -47c2 -27 8 -37 23 -37c49 0 83 136 83 219c0 60 -22 93 -64 99zM18 123c30 28 84 53 97 53c11 0 18 -10 18 -27c0 -9 -8 -52 -8 -62c0 -39 19 -60 52 -60
c70 0 124 96 144 258c18 141 38 200 84 247c32 32 84 60 112 60c8 0 17 -7 26 -22c-43 -40 -56 -74 -68 -180c-12 -97 -23 -190 -73 -266c-56 -86 -149 -136 -253 -136c-86 0 -134 37 -134 105c0 12 1 22 3 30z" />
    <glyph glyph-name="C" unicode="C" horiz-adv-x="563" 
d="M574 164v-56c-45 -44 -122 -120 -279 -120s-267 108 -267 262c0 250 201 446 368 446c94 0 160 -62 160 -153c0 -118 -83 -218 -180 -218c-51 0 -87 29 -87 70c0 18 8 35 21 49c11 -20 24 -29 43 -29c53 0 106 79 106 156c0 54 -27 88 -69 88c-97 0 -217 -204 -217 -371
c0 -136 85 -233 205 -233c71 0 126 29 196 109z" />
    <glyph glyph-name="D" unicode="D" horiz-adv-x="760" 
d="M480 563l19 -26c-47 -49 -58 -79 -71 -188c-16 -143 -49 -201 -151 -261c15 -6 23 -9 44 -19c52 -23 78 -30 105 -30c130 0 179 219 179 334c0 171 -90 285 -225 285c-108 0 -222 -93 -222 -180c0 -31 13 -54 41 -66c13 -6 18 -12 18 -22c0 -22 -81 -47 -85 -47
c-36 0 -63 49 -63 93c0 102 115 261 351 261c199 0 327 -118 327 -303c0 -218 -184 -406 -400 -406c-59 0 -113 13 -163 38c-42 -26 -74 -38 -106 -38c-34 0 -60 22 -60 50c0 46 54 81 125 81c26 0 46 -3 73 -12c45 37 52 88 62 169c16 130 40 189 95 236
c33 29 71 47 107 51z" />
    <glyph glyph-name="E" unicode="E" 
d="M532 164v-56c-86 -84 -165 -119 -270 -119c-141 0 -233 74 -233 186c0 54 22 101 62 137c39 34 77 51 150 67c-64 24 -104 67 -104 133c0 101 110 184 245 184c128 0 138 -78 138 -81c0 -19 -45 -76 -60 -76c-9 0 -15 11 -19 37c-8 48 -26 83 -67 83
c-56 0 -109 -73 -109 -151c0 -37 8 -94 92 -94c17 0 26 0 26 -10c0 -16 -8 -63 -26 -63c-9 0 -36 5 -61 5c-70 0 -126 -65 -126 -145c0 -87 65 -150 153 -150c73 0 150 40 209 113z" />
    <glyph glyph-name="F" unicode="F" horiz-adv-x="604" 
d="M580 705h25c-9 -49 -21 -81 -41 -100c-20 -18 -48 -25 -90 -25s-110 4 -152 4c-78 0 -151 -29 -151 -99c0 -30 17 -52 53 -69c13 -6 18 -11 18 -15c0 -20 -34 -53 -65 -64c-44 12 -66 40 -66 85c0 75 92 277 275 277c15 0 123 -10 146 -10c27 0 43 6 48 16zM584 407
l-9 -85c-12 -18 -54 -30 -118 -47c-11 -140 -99 -285 -271 -285c-125 0 -166 73 -166 102c0 21 63 76 84 76c18 0 18 -14 18 -45c1 -61 26 -95 70 -95c65 0 108 69 126 204c-28 -6 -65 -21 -102 -42l21 66c26 22 52 39 88 52c11 106 31 155 90 216c32 4 52 7 79 8
c-26 -52 -28 -80 -31 -173c48 16 76 27 121 48z" />
    <glyph glyph-name="G" unicode="G" horiz-adv-x="635" 
d="M362 -54c-84 -42 -127 -85 -127 -125c0 -20 12 -33 31 -33c60 0 83 102 96 158zM646 164v-56c-35 -37 -60 -51 -127 -87c-15 -86 -32 -130 -68 -178c-45 -61 -104 -94 -169 -94c-53 0 -85 26 -85 70c0 81 101 139 176 176c13 45 18 63 36 119
c-31 -48 -121 -113 -198 -113c-111 0 -191 106 -191 251c0 253 234 444 417 444c112 0 189 -70 189 -172c0 -110 -92 -207 -195 -207c-60 0 -104 33 -104 76c0 26 18 50 38 50c9 0 15 -6 15 -17c0 -26 25 -32 37 -32c53 0 111 87 111 168c0 58 -41 97 -100 97
c-147 0 -267 -227 -267 -394c0 -105 49 -172 125 -172c62 0 128 49 183 135l92 13c14 2 17 -1 17 -8c0 -8 -13 -40 -15 -48c-15 -46 -24 -80 -34 -118c54 32 84 56 117 97z" />
    <glyph glyph-name="H" unicode="H" horiz-adv-x="885" 
d="M896 164v-56c-82 -85 -141 -120 -208 -120c-53 0 -136 39 -136 199c0 41 5 71 10 106c-49 -4 -59 -5 -90 -7c-17 -83 -36 -136 -66 -180c-51 -75 -130 -118 -217 -118c-109 0 -166 64 -166 98s69 82 83 82c13 0 19 -12 19 -41c0 -85 35 -101 68 -101
c96 0 121 154 135 240c-41 -6 -78 -25 -116 -57c-5 10 -5 22 -7 42c41 43 73 61 136 79c30 135 59 166 174 283c-36 -14 -59 -20 -83 -20c-16 0 -29 3 -54 12c-24 8 -34 10 -49 10c-64 0 -94 -59 -94 -91c0 -21 11 -40 33 -57c11 -7 15 -13 15 -18c0 -18 -32 -58 -56 -58
c-26 0 -51 44 -51 87c0 97 117 218 211 218c31 0 87 -25 118 -25c19 0 44 11 61 27c29 -15 37 -20 37 -24c0 -5 -7 -14 -19 -26c-51 -51 -70 -92 -99 -299c40 2 64 4 98 9c25 84 48 134 94 209c55 91 58 92 138 113c6 2 59 16 61 16c4 0 6 -1 6 -3c0 -4 -9 -20 -19 -34
c-13 -18 -29 -44 -47 -78c-47 -87 -62 -124 -89 -205c44 9 61 16 108 47c9 -4 9 -8 9 -37c-31 -36 -68 -56 -135 -72c-16 -78 -20 -96 -20 -135c0 -63 30 -104 77 -104c50 0 88 41 130 89z" />
    <glyph glyph-name="I" unicode="I" horiz-adv-x="604" 
d="M285 450c-3 -25 -34 -57 -55 -57c-27 0 -52 42 -52 86c0 98 116 217 212 217c16 0 30 -2 56 -12c27 -9 40 -12 57 -12c19 0 32 4 50 17c8 5 13 7 17 7c7 0 32 -11 32 -24c0 -5 -1 -6 -26 -34c-58 -63 -67 -129 -86 -253c-13 -90 -30 -165 -45 -202
c-66 -168 -185 -194 -255 -194c-115 0 -166 69 -166 100c0 26 69 79 81 79c21 0 21 -18 21 -46c0 -57 28 -95 70 -95c95 0 119 148 131 225c33 204 77 254 191 362c-31 -13 -61 -20 -87 -20c-14 0 -29 3 -55 12c-22 9 -34 11 -46 11c-49 0 -92 -43 -92 -92
c0 -22 9 -39 31 -54c12 -9 14 -12 16 -21z" />
    <glyph glyph-name="J" unicode="J" 
d="M214 -43c-105 -37 -160 -83 -160 -132c0 -20 14 -35 34 -35c18 0 88 15 126 167zM532 164v-56c-39 -40 -77 -62 -178 -103c-31 -82 -51 -119 -92 -164c-53 -57 -119 -92 -176 -92c-42 0 -70 29 -70 72c0 98 123 149 209 180c67 394 71 415 173 545c29 37 37 47 53 72
c-30 -16 -59 -25 -80 -25c-40 0 -54 23 -97 23c-49 0 -93 -43 -93 -90c0 -21 10 -38 33 -56c12 -9 17 -15 17 -21c0 -8 -38 -56 -57 -56c-12 0 -52 29 -52 85c0 99 115 218 211 218c45 0 58 -26 97 -26c18 0 37 9 57 26c25 -3 38 -8 38 -15c0 -4 -5 -15 -13 -28
c-44 -69 -62 -136 -80 -248l-7 -49c-32 -203 -42 -254 -55 -303c72 25 122 59 162 111z" />
    <glyph glyph-name="K" unicode="K" horiz-adv-x="844" 
d="M855 164v-56c-84 -88 -134 -119 -197 -119c-67 0 -116 55 -116 131c0 18 13 110 13 131c0 35 -5 50 -19 66c-6 -1 -13 -1 -18 -1c-15 0 -23 6 -23 20c0 32 25 30 41 29l11 -1c52 0 74 59 93 137c23 93 48 143 86 173c19 15 38 22 58 22c30 0 63 -28 63 -53
c0 -12 -31 -82 -46 -82c-3 0 -8 4 -13 12c-10 17 -21 24 -35 24c-40 0 -59 -69 -68 -104c-12 -47 -32 -124 -93 -149c67 -35 93 -76 93 -148c0 -52 -24 -126 40 -126c35 0 74 27 130 94zM496 445l-10 -60c-27 -175 -60 -262 -123 -324c-48 -47 -109 -72 -175 -72
c-87 0 -167 48 -167 101c0 27 63 77 81 77c15 0 22 -11 23 -37c0 -71 24 -104 66 -104c104 0 128 200 133 234c31 190 56 222 188 353c-30 -12 -68 -21 -91 -21c-19 0 -37 5 -69 16c-28 11 -41 14 -57 14c-43 0 -78 -38 -78 -86c0 -26 12 -51 37 -72c8 -7 12 -13 12 -16
c0 -9 -37 -53 -60 -53s-51 48 -51 88c0 106 103 214 204 214c22 0 42 -5 76 -18c28 -11 43 -15 57 -15c19 0 36 7 52 24c6 6 11 8 14 8c4 0 36 -6 36 -16c0 -3 -5 -12 -16 -25c-52 -68 -67 -108 -82 -210z" />
    <glyph glyph-name="L" unicode="L" horiz-adv-x="635" 
d="M646 164v-56c-80 -81 -154 -118 -237 -118c-45 0 -82 10 -149 41c-39 18 -52 22 -80 30c-46 -50 -81 -72 -119 -72c-25 0 -43 18 -43 42c0 50 53 90 139 104c40 54 43 94 48 194c13 267 173 367 274 367c90 0 154 -63 154 -152c0 -102 -70 -192 -150 -192
c-41 0 -66 24 -66 63c0 10 1 18 6 35c9 -10 19 -15 33 -15c45 0 83 61 83 134c0 56 -27 90 -71 90c-87 0 -99 -109 -109 -200c-15 -133 -31 -224 -123 -321c37 2 60 3 143 -28c55 -21 84 -28 114 -28c55 0 100 23 153 82z" />
    <glyph glyph-name="M" unicode="M" horiz-adv-x="1000" 
d="M801 573l28 51c-53 -58 -89 -96 -182 -330c-46 -115 -88 -218 -151 -279c-19 -19 -39 -25 -88 -25c-14 0 -18 2 -18 10c0 3 1 8 2 15c24 102 25 229 27 340c2 128 25 208 46 264c-41 -49 -66 -136 -94 -243l-12 -48c-31 -122 -58 -190 -96 -243c-42 -60 -96 -95 -147 -95
s-97 38 -97 81c0 36 72 85 80 85c15 0 17 -10 23 -49c2 -18 7 -52 44 -52c19 0 40 15 62 44c38 49 70 132 104 265l14 59c32 125 52 169 121 263c4 8 52 13 89 13c8 0 10 -2 10 -11c0 -4 -1 -11 -3 -22c-6 -43 -9 -93 -9 -137l1 -131c0 -167 -18 -240 -27 -276
c23 31 39 66 75 161c89 230 142 297 164 324c32 40 74 80 85 81c15 3 66 10 90 10c9 0 13 -2 13 -7s-7 -26 -16 -46c-51 -114 -104 -348 -104 -466c0 -63 21 -98 60 -98c33 0 69 25 116 83v-56c-70 -76 -140 -118 -199 -118c-91 0 -112 113 -112 194c0 68 31 261 101 389z
" />
    <glyph glyph-name="N" unicode="N" horiz-adv-x="885" 
d="M588 338c22 -121 26 -162 30 -203c38 98 60 201 80 304c17 90 50 257 150 257c27 0 40 -15 40 -46c0 -33 -10 -45 -45 -52c-89 -11 -99 -121 -129 -255l-15 -68c-40 -170 -95 -264 -100 -271c-6 -6 -9 -7 -28 -9l-53 -6c-13 -1 -20 0 -21 13c-10 127 0 94 -32 250
c-24 124 -32 177 -40 280c-9 -18 -15 -41 -72 -251c-32 -112 -82 -292 -216 -292c-73 0 -104 61 -104 84c0 22 65 80 83 80c12 0 17 -10 20 -36c6 -53 31 -67 49 -67c70 0 125 210 143 277l15 59c32 121 58 209 66 232l16 46c7 20 8 21 36 25l51 7c29 2 35 2 35 -24
c0 -109 25 -245 41 -334z" />
    <glyph glyph-name="O" unicode="O" horiz-adv-x="635" 
d="M386 696v-8c-22 -22 -40 -40 -50 -52c-99 -110 -161 -263 -161 -405c0 -95 40 -154 105 -154c39 0 78 20 115 58c113 117 191 291 191 425c0 57 -20 94 -51 94c-64 0 -115 -123 -115 -178c0 -24 11 -37 33 -40c11 -1 14 -4 14 -13c0 -29 -36 -63 -68 -63
c-40 0 -69 40 -69 93c0 113 104 243 194 243c61 0 98 -51 98 -135c0 -254 -236 -572 -426 -572c-94 0 -160 87 -160 209c0 252 200 467 257 485c33 11 67 13 93 13z" />
    <glyph glyph-name="P" unicode="P" horiz-adv-x="677" 
d="M535 408c38 47 54 87 54 132c0 74 -53 120 -138 120c-127 0 -251 -92 -251 -186c0 -31 13 -51 42 -63c12 -5 17 -10 17 -20c0 -20 -73 -48 -88 -48c-30 0 -61 47 -61 92c0 107 128 262 343 262c138 0 225 -72 225 -184c0 -122 -96 -170 -123 -170c-16 0 -43 18 -43 30
c0 5 10 18 23 35zM545 570c-46 -43 -57 -75 -76 -222c-15 -126 -38 -192 -86 -251c-56 -67 -143 -108 -231 -108c-83 0 -140 45 -140 109c0 20 5 27 30 44c27 18 63 36 74 36s20 -8 20 -19c0 -10 -9 -62 -9 -73c0 -37 18 -58 49 -58c42 0 118 29 146 257
c21 172 54 240 137 287c20 11 47 21 58 21c7 0 20 -11 28 -23z" />
    <glyph glyph-name="Q" unicode="Q" horiz-adv-x="635" 
d="M371 696l1 -7c-23 -23 -41 -40 -51 -52c-99 -110 -161 -265 -161 -407c0 -96 40 -154 106 -154c30 0 44 8 75 26c-33 46 -47 57 -74 57c-3 0 -16 -3 -19 -3c-5 0 -7 2 -7 6c0 14 44 62 88 62c27 0 46 -11 86 -51c85 107 156 247 156 387c0 56 -20 93 -51 93
c-64 0 -115 -123 -115 -177c0 -24 11 -38 33 -41c11 -1 14 -4 14 -12c0 -30 -36 -63 -68 -63c-40 0 -69 39 -69 92c0 113 104 244 193 244c62 0 99 -52 99 -137c0 -135 -57 -273 -170 -417c24 -34 49 -68 85 -68c43 0 83 42 124 90v-56c-85 -86 -133 -119 -174 -119
c-36 0 -58 17 -109 80c-69 -55 -125 -80 -181 -80c-95 0 -161 86 -161 208c0 252 200 467 257 486c32 10 66 13 93 13z" />
    <glyph glyph-name="R" unicode="R" horiz-adv-x="802" 
d="M813 164v-56c-79 -85 -133 -119 -193 -119c-64 0 -106 45 -106 113c0 22 4 45 15 86c10 39 13 57 13 79c0 32 -9 46 -30 47c-14 1 -18 5 -18 17c0 19 8 29 23 29c5 0 26 -2 31 -2c24 0 37 6 57 24c29 32 43 76 43 129c0 98 -57 148 -168 148c-142 0 -273 -90 -273 -187
c0 -27 13 -47 40 -61c14 -7 19 -14 19 -24c0 -19 -74 -45 -88 -45c-29 0 -56 44 -56 92c0 147 168 263 378 263c202 0 281 -106 281 -196c0 -45 -23 -88 -63 -120c-29 -23 -63 -36 -138 -55c60 -35 83 -70 83 -127c0 -19 -2 -35 -7 -62c-2 -15 -3 -24 -3 -31
c0 -26 12 -42 33 -42c40 0 85 50 127 100zM562 575c-54 -44 -63 -69 -84 -226c-12 -83 -26 -186 -103 -266c-56 -59 -135 -94 -215 -94c-124 0 -140 85 -140 112c0 9 2 15 6 20c11 15 78 56 97 56c12 0 16 -5 16 -19c0 -9 -10 -57 -10 -67c0 -37 23 -63 55 -63
c29 0 115 18 146 259c17 138 39 199 91 249c33 32 81 56 114 56c9 0 15 -4 27 -17z" />
    <glyph glyph-name="S" unicode="S" horiz-adv-x="563" 
d="M458 514h-9c-7 3 -10 9 -12 29c-7 67 -50 114 -105 114c-52 0 -94 -43 -94 -95c0 -126 225 -201 225 -355c0 -117 -117 -219 -252 -219c-128 0 -192 80 -192 102c0 19 59 113 64 113c21 -1 29 -11 31 -40c4 -41 11 -136 114 -136c69 0 129 55 129 119
c0 114 -212 176 -212 347c0 80 63 203 209 203c109 0 167 -67 167 -88c0 -17 -32 -57 -63 -94z" />
    <glyph glyph-name="T" unicode="T" horiz-adv-x="677" 
d="M671 668l10 -3c-9 -69 -40 -105 -89 -105c-17 0 -39 5 -80 17c-64 21 -109 30 -150 30c-106 0 -172 -102 -172 -142c0 -26 15 -47 47 -67c14 -9 19 -14 19 -22c0 -18 -50 -58 -68 -58c-31 0 -63 42 -63 84c0 115 149 294 345 294c43 0 80 -7 133 -25c23 -8 37 -11 45 -11
c7 0 14 2 20 7c2 0 2 1 3 1zM198 27c51 0 96 24 128 67c33 46 42 89 43 215c0 95 10 129 46 165c22 21 61 41 83 41c7 0 19 -1 19 -12c-10 -25 -13 -50 -13 -124c-1 -33 -1 -51 -1 -61c-10 -244 -185 -329 -316 -329c-126 0 -170 72 -170 101c0 26 62 77 84 77
c14 0 21 -13 21 -39c0 -43 0 -101 76 -101z" />
    <glyph glyph-name="U" unicode="U" horiz-adv-x="760" 
d="M771 164v-56c-76 -81 -136 -119 -191 -119c-33 0 -67 20 -87 50c-19 29 -25 57 -24 114c-35 -66 -96 -164 -194 -164c-71 0 -117 58 -117 149c0 52 17 122 60 244c21 61 50 149 50 193c0 46 -23 76 -57 76c-52 0 -111 -75 -111 -141c0 -29 11 -54 33 -74
c9 -8 12 -13 12 -18c0 -21 -36 -63 -60 -63c-27 0 -56 46 -56 92c0 124 107 249 214 249c84 0 141 -71 141 -176c0 -65 -16 -137 -58 -254c-19 -53 -40 -114 -40 -151c0 -33 16 -54 43 -54c71 0 129 152 154 241c33 119 63 238 103 355c9 27 10 27 53 31l70 8
c9 0 13 -1 13 -7l-23 -83c-23 -79 -105 -400 -105 -472c0 -43 18 -71 45 -71c38 0 75 39 132 101z" />
    <glyph glyph-name="V" unicode="V" horiz-adv-x="677" 
d="M245 697c88 0 144 -71 144 -181c0 -79 -27 -155 -54 -229c-21 -56 -41 -120 -41 -162c0 -46 30 -80 71 -80c100 0 217 200 217 373c0 53 -17 111 -48 170c-10 18 -15 31 -15 38c0 28 85 70 100 70c22 0 48 -81 48 -147c0 -212 -148 -560 -344 -560
c-92 0 -155 71 -155 176c0 71 38 175 53 215c23 63 49 140 49 192c0 50 -20 80 -55 80c-54 0 -111 -72 -111 -141c0 -30 8 -49 29 -69c11 -10 14 -16 14 -23c0 -24 -37 -64 -59 -64c-28 0 -56 45 -56 91c0 107 89 251 213 251z" />
    <glyph glyph-name="W" unicode="W" horiz-adv-x="958" 
d="M386 523c0 -58 -15 -124 -57 -241c-20 -60 -43 -129 -43 -171c0 -31 17 -50 43 -50c57 0 114 96 161 268l46 172c24 90 43 138 61 179c4 10 93 16 106 16c12 0 19 0 19 -8c0 -4 -16 -62 -23 -86l-66 -255c-24 -96 -39 -178 -39 -219c0 -40 18 -66 47 -66
c58 0 217 155 217 350c0 57 -16 121 -44 180c-8 15 -12 27 -12 32c0 31 79 72 98 72c23 0 50 -74 50 -137c0 -277 -223 -570 -371 -570c-25 0 -113 8 -110 165c-35 -65 -97 -165 -191 -165c-73 0 -120 58 -120 145c0 65 28 156 56 236c25 71 53 160 53 215
c0 38 -24 67 -57 67c-51 0 -112 -76 -112 -140c0 -57 47 -81 47 -99c0 -7 -35 -58 -57 -58c-9 0 -57 17 -57 93c0 126 104 249 212 249c81 0 143 -75 143 -174z" />
    <glyph glyph-name="X" unicode="X" horiz-adv-x="719" 
d="M730 164v-56c-66 -70 -165 -119 -238 -119c-47 0 -93 24 -121 63c-28 37 -39 73 -44 142c-46 -96 -114 -205 -211 -205c-63 0 -92 60 -92 71c0 15 73 83 89 83c7 0 12 -6 15 -21c6 -31 26 -51 52 -51c99 0 199 391 199 486c0 58 -26 95 -68 95c-62 0 -133 -81 -133 -151
c0 -46 27 -64 66 -64c12 0 18 -3 18 -10c0 -4 -32 -76 -77 -76c-43 0 -79 46 -79 100c0 106 112 245 239 245c51 0 93 -20 119 -58c22 -32 29 -64 30 -126c83 176 147 184 164 184c31 0 62 -26 62 -51c0 -28 -40 -76 -56 -76c-6 0 -12 5 -19 17c-10 18 -20 25 -30 25
c-71 0 -162 -317 -162 -423c0 -76 42 -126 106 -126c56 0 112 32 171 102z" />
    <glyph glyph-name="Y" unicode="Y" horiz-adv-x="760" 
d="M451 -44c-93 -31 -158 -85 -158 -130c0 -24 19 -42 44 -42c47 0 80 50 114 172zM735 586l-76 -331c-12 -53 -19 -81 -52 -202c65 22 111 47 164 111v-56c-38 -45 -88 -72 -179 -101c-81 -234 -205 -259 -254 -259c-50 0 -82 29 -82 74c0 70 67 128 207 177l11 46
c17 69 47 190 60 235l28 93c-40 -78 -146 -378 -303 -378c-66 0 -110 56 -110 138c0 53 16 123 59 247c23 66 51 155 51 199c0 43 -25 75 -60 75c-54 0 -110 -72 -110 -140c0 -32 10 -55 33 -75c9 -8 12 -12 12 -17c0 -16 -29 -66 -58 -66c-28 0 -58 47 -58 90
c0 99 84 253 215 253c84 0 142 -72 142 -176c0 -65 -16 -138 -60 -260c-20 -56 -41 -123 -41 -162c0 -28 12 -44 32 -44c69 0 173 196 246 392c41 108 58 164 74 218c4 15 11 19 34 22c15 2 89 10 90 10c8 0 11 -2 11 -7z" />
    <glyph glyph-name="Z" unicode="Z" horiz-adv-x="563" 
d="M317 405l33 35c81 86 104 117 121 143c-24 -12 -45 -17 -76 -17c-29 0 -54 4 -102 15c-40 9 -60 12 -79 12c-51 0 -87 -27 -87 -65c0 -19 9 -34 30 -52c14 -11 19 -18 19 -27c0 -20 -46 -56 -58 -56c-22 0 -48 41 -48 76c0 110 117 228 225 228c43 0 129 -27 177 -27
c26 0 42 6 60 20c5 5 9 6 12 6c11 0 18 0 18 -8c0 -37 -43 -112 -110 -190c-36 -42 -219 -238 -258 -284c-9 -10 -44 -51 -69 -96c58 17 69 20 109 20c39 0 67 -6 125 -26c48 -17 72 -23 98 -23c37 0 66 18 117 75v-56c-90 -86 -157 -119 -239 -119c-30 0 -56 6 -105 26
c-48 20 -74 26 -103 26c-34 0 -49 -9 -57 -36c-4 -12 -8 -16 -16 -16c-28 0 -35 0 -35 12c0 5 3 12 10 29c46 112 153 231 288 375z" />
    <glyph glyph-name="bracketleft" unicode="[" horiz-adv-x="479" 
d="M18 -224l240 921h229l-13 -45h-107l-216 -831h107l-13 -45h-227z" />
    <glyph glyph-name="backslash" unicode="\" horiz-adv-x="10" 
d="M21 164v-56c-51 -54 -117 -96 -131 -96c-7 0 -18 17 -18 25c0 7 12 12 26 19c32 17 75 53 123 108z" />
    <glyph glyph-name="bracketright" unicode="]" horiz-adv-x="479" 
d="M237 652l12 45h229l-245 -921h-227l10 45h109l219 831h-107z" />
    <glyph glyph-name="asciicircum" unicode="^" horiz-adv-x="570" 
d="M176 325h-74l200 351h40l198 -351h-78l-144 250z" />
    <glyph glyph-name="underscore" unicode="_" horiz-adv-x="500" 
d="M-10 -125v50h518v-50h-518z" />
    <glyph glyph-name="quoteleft" unicode="&#x2018;" horiz-adv-x="240" 
d="M220 698l6 -32c-76 -37 -109 -70 -109 -111c0 -28 20 -52 54 -64c7 -3 11 -6 11 -8c0 -6 -8 -15 -30 -37c-15 -17 -26 -31 -48 -59c-53 28 -80 67 -80 116c0 78 78 160 196 195z" />
    <glyph glyph-name="a" unicode="a" 
d="M265 376c-72 0 -136 -154 -136 -236c0 -35 19 -59 46 -59c72 0 135 155 135 237c0 36 -17 58 -45 58zM532 164v-56c-84 -79 -126 -119 -176 -119c-75 0 -74 106 -73 136c-67 -96 -118 -136 -175 -136c-58 0 -103 61 -103 139c0 168 165 288 255 288c40 0 69 -19 85 -56
l100 55h27l-43 -143c-11 -36 -33 -118 -33 -148c0 -27 12 -42 30 -42c23 0 43 19 106 82z" />
    <glyph glyph-name="b" unicode="b" horiz-adv-x="438" 
d="M184 369c116 113 161 205 161 243c0 18 -9 31 -21 31c-57 0 -118 -203 -140 -274zM449 164v-56c-21 -23 -50 -36 -82 -36c-28 0 -48 9 -81 36c-78 -89 -122 -118 -180 -118c-57 0 -100 53 -100 123c0 59 17 145 44 228c68 204 100 256 132 309c87 28 161 46 170 46
c19 0 35 -29 35 -64c0 -101 -120 -232 -163 -274l-64 -64c-22 -78 -30 -121 -30 -157c0 -37 18 -61 46 -61c29 0 50 15 86 62c-17 30 -24 58 -24 86c0 94 61 191 120 191c23 0 39 -22 39 -55c0 -51 -32 -130 -90 -219c18 -22 38 -33 61 -33c36 0 51 19 81 56z" />
    <glyph glyph-name="c" unicode="c" horiz-adv-x="365" 
d="M376 164v-56c-87 -85 -150 -119 -223 -119c-85 0 -146 61 -146 146c0 139 121 280 240 280c58 0 98 -35 98 -87c0 -18 -6 -26 -24 -34l-57 -27c-6 -3 -12 -5 -15 -5c-5 0 -7 4 -7 10c0 8 6 43 6 52c0 29 -13 48 -33 48c-49 0 -95 -84 -95 -173c0 -77 40 -127 102 -127
c49 0 88 23 154 92z" />
    <glyph glyph-name="d" unicode="d" 
d="M263 378c-67 0 -130 -158 -130 -238c0 -36 18 -58 46 -58c71 0 131 151 131 233c0 38 -18 63 -47 63zM328 383l70 292c47 11 90 19 115 20c7 0 10 -3 10 -8c0 -18 -122 -452 -122 -563c0 -25 11 -41 28 -41c28 0 71 45 103 81v-56c-64 -63 -122 -119 -172 -119
c-11 0 -75 0 -76 132c-29 -45 -48 -68 -79 -92c-32 -26 -65 -40 -93 -40c-56 0 -105 61 -105 131c0 146 127 295 250 295c31 0 46 -7 71 -32z" />
    <glyph glyph-name="e" unicode="e" horiz-adv-x="365" 
d="M120 198c82 23 125 67 125 130c0 30 -12 47 -34 47c-37 0 -91 -60 -91 -177zM376 164v-56c-93 -90 -147 -119 -220 -119c-89 0 -148 61 -148 154c0 138 113 271 231 271c60 0 100 -34 100 -85c0 -94 -133 -139 -215 -164c12 -61 48 -95 102 -95c55 0 90 35 150 94z" />
    <glyph glyph-name="f" unicode="f" horiz-adv-x="396" 
d="M0 152l93 96c26 128 30 146 51 214c36 109 72 181 79 191c9 14 133 43 136 43c25 0 42 -36 42 -88c0 -119 -78 -199 -173 -288l-41 -204c16 -34 40 -51 72 -51c46 0 92 30 148 99v-56c-65 -74 -136 -119 -189 -119c-14 0 -30 5 -51 14c-12 -65 -21 -114 -36 -232
c-50 -7 -91 -15 -122 -21c13 109 24 180 54 347c-7 14 -7 15 -19 47l-33 -36h-11v44zM243 386c74 64 122 147 122 213c0 27 -11 47 -26 47c-43 0 -76 -164 -96 -260z" />
    <glyph glyph-name="g" unicode="g" horiz-adv-x="479" 
d="M254 377c-77 0 -129 -129 -129 -212c0 -45 20 -73 51 -73c88 0 118 206 118 232c0 31 -17 53 -40 53zM217 -33c-108 -39 -158 -80 -158 -131c0 -29 19 -50 47 -50c45 0 77 52 111 181zM227 10l21 96c-67 -75 -106 -102 -150 -102c-54 0 -92 56 -92 137
c0 133 122 274 237 274c33 0 58 -12 84 -40c33 12 51 20 92 39h11c-12 -37 -21 -73 -29 -112l-46 -245c45 18 83 46 135 107v-56c-49 -50 -87 -73 -148 -96c-52 -164 -140 -263 -235 -263c-51 0 -85 35 -85 87c0 98 122 144 205 174z" />
    <glyph glyph-name="h" unicode="h" horiz-adv-x="479" 
d="M152 308c133 155 174 247 174 299c0 18 -6 29 -16 29c-24 0 -64 -62 -104 -156c-22 -54 -34 -91 -54 -172zM121 13l-109 -25c-4 34 -6 71 -6 111c0 190 48 344 166 537c83 34 157 59 166 59c17 0 30 -32 30 -72c0 -67 -38 -143 -131 -266c80 46 98 57 130 57
c34 0 56 -26 56 -65c0 -27 -15 -84 -42 -156c-17 -44 -28 -84 -28 -96c0 -14 10 -27 22 -27c21 0 58 30 115 94v-56c-79 -82 -139 -120 -190 -120c-44 0 -77 33 -77 80c0 37 16 94 45 165c16 36 24 63 24 75s-8 20 -19 20c-27 0 -83 -41 -135 -99c-13 -73 -17 -123 -17 -216
z" />
    <glyph glyph-name="i" unicode="i" horiz-adv-x="240" 
d="M127 610c22 -13 39 -24 62 -24c19 0 34 6 52 19c0 -77 -29 -117 -86 -117c-28 0 -53 9 -72 25c21 33 31 54 44 97zM251 164v-56c-100 -105 -150 -120 -171 -120c-42 0 -74 48 -74 112c0 102 49 232 70 288l124 26h6l-49 -153c-20 -63 -30 -107 -30 -135
c0 -21 10 -36 25 -36c31 0 55 26 99 74z" />
    <glyph glyph-name="j" unicode="j" horiz-adv-x="365" 
d="M242 609c31 -18 41 -24 65 -24c19 0 39 7 58 21c-6 -79 -40 -119 -99 -119c-28 0 -52 9 -74 28c32 42 43 63 50 94zM129 -126l10 85c-53 -24 -88 -72 -88 -118c0 -29 15 -53 34 -53c22 0 38 31 44 86zM175 357l30 39c41 5 70 10 115 19c-15 -83 -25 -143 -51 -343
c33 17 63 43 106 91l1 -55c-33 -33 -68 -58 -114 -83c-6 -38 -11 -67 -16 -86c-25 -96 -86 -190 -154 -190c-44 0 -79 41 -79 94c0 71 57 125 129 161l36 294c-54 -67 -102 -127 -167 -190h-11v44c64 62 120 133 175 205z" />
    <glyph glyph-name="k" unicode="k" horiz-adv-x="479" 
d="M170 344l32 36c71 81 143 171 143 227c0 19 -9 30 -26 30c-30 0 -88 -60 -149 -293zM123 9l-111 -19c-4 27 -5 46 -6 91c2 204 52 370 169 554c97 39 171 60 177 60c16 0 34 -39 34 -73c0 -56 -34 -118 -118 -219c28 8 48 12 69 12c60 0 103 -34 103 -82
c0 -46 -35 -90 -146 -119c51 -12 57 -43 57 -67c0 -2 -3 -37 -3 -44c0 -21 9 -30 28 -30c23 0 51 20 98 73l16 19v-56c-76 -83 -133 -121 -184 -121c-47 0 -83 37 -83 85c0 28 12 79 12 90c0 14 -11 24 -28 24c-12 1 -23 4 -23 19c0 24 10 30 34 30c97 2 106 56 106 71
c0 27 -21 46 -51 46c-42 0 -74 -23 -127 -93c-22 -120 -25 -178 -23 -251z" />
    <glyph glyph-name="l" unicode="l" horiz-adv-x="323" 
d="M147 299c79 86 139 216 139 301c0 24 -8 40 -19 40c-16 0 -44 -57 -72 -147c-17 -55 -27 -94 -48 -194zM334 164v-56c-94 -86 -154 -119 -212 -119c-70 0 -116 58 -116 149c0 178 104 422 152 511l124 46c3 1 6 2 9 2c19 0 32 -30 32 -77c0 -130 -56 -246 -189 -392
c-2 -26 -4 -52 -4 -70c0 -56 22 -92 57 -92c45 0 86 39 147 98z" />
    <glyph glyph-name="m" unicode="m" horiz-adv-x="719" 
d="M118 16l-108 -26c-2 29 -4 60 -4 94c0 110 18 180 79 310l118 23c-23 -58 -37 -103 -49 -154c8 9 12 14 24 27c50 58 126 126 177 126c34 0 57 -30 57 -75c0 -15 -2 -32 -5 -58c86 85 134 133 185 133c36 0 61 -32 61 -76c0 -37 -10 -81 -34 -150
c-17 -47 -24 -75 -24 -93c0 -16 8 -27 20 -27c18 0 47 22 96 74l19 20v-56c-93 -90 -139 -119 -189 -119c-43 0 -70 32 -70 82c0 34 11 86 34 156c12 37 19 64 19 76c0 10 -6 16 -16 16c-19 0 -65 -39 -118 -107c-14 -62 -18 -79 -49 -201l-124 -22l47 201
c6 29 20 104 20 115s-2 17 -11 17c-12 0 -62 -35 -134 -122c-15 -77 -20 -119 -21 -184z" />
    <glyph glyph-name="n" unicode="n" horiz-adv-x="479" 
d="M119 13l-108 -25c-2 29 -5 58 -5 98c0 101 21 184 77 307l119 23c-17 -46 -39 -109 -49 -159c77 85 148 158 211 158c33 0 58 -28 58 -66c0 -28 -15 -85 -42 -154c-18 -46 -29 -82 -29 -96c0 -18 9 -29 24 -29c34 0 102 78 115 94v-56c-78 -82 -138 -119 -193 -119
c-44 0 -73 33 -73 84c0 32 17 95 43 160c14 35 21 57 23 73c0 11 -4 16 -12 16c-28 0 -100 -86 -143 -138c-15 -76 -16 -113 -16 -171z" />
    <glyph glyph-name="o" unicode="o" horiz-adv-x="438" 
d="M266 122c-31 39 -46 79 -46 124c0 55 20 94 68 135c-5 2 -11 3 -21 3c-103 0 -135 -138 -135 -222c0 -66 22 -104 59 -104c24 0 47 20 75 64zM449 164v-56c-34 -31 -67 -39 -85 -40c-26 1 -45 8 -70 27c-47 -71 -101 -106 -161 -106c-76 0 -127 61 -127 155
c0 149 121 271 268 271c89 0 89 -34 89 -61c0 -65 -16 -133 -50 -224c14 -13 31 -22 52 -23c18 1 42 10 84 57z" />
    <glyph glyph-name="p" unicode="p" horiz-adv-x="563" 
d="M218 197l-30 -127c19 -31 34 -42 56 -42c75 0 125 142 125 221c0 50 -22 84 -55 84c-16 0 -34 -10 -51 -27c-20 -21 -29 -41 -45 -109zM0 108v44c69 73 124 172 153 243l110 20l-19 -84c51 61 88 83 136 83c66 0 111 -55 111 -137c0 -144 -118 -288 -236 -288
c-38 0 -49 8 -76 30c-24 -108 -36 -170 -45 -248l-124 -22c26 170 47 282 88 463c-6 -8 -9 -12 -18 -23c-33 -44 -46 -59 -69 -81h-11z" />
    <glyph glyph-name="q" unicode="q" 
d="M283 378c-89 0 -154 -187 -154 -258c0 -25 20 -45 44 -45c83 0 154 174 154 246c0 33 -19 57 -44 57zM174 -251l101 350c-61 -77 -111 -110 -167 -110c-60 0 -103 50 -103 120c0 147 141 307 272 307c42 0 71 -20 85 -60c36 20 62 38 87 60h33l-128 -460
c48 68 119 151 178 208v-56c-18 -19 -183 -184 -232 -336c-38 -5 -79 -10 -126 -23z" />
    <glyph glyph-name="r" unicode="r" horiz-adv-x="365" 
d="M0 108v44c27 28 50 57 69 85c-29 13 -42 30 -42 55s21 123 96 123c26 0 38 -13 38 -39c0 -19 -7 -49 -22 -88c60 9 97 42 142 124l44 2l-45 -125c-37 -105 -45 -129 -45 -158c0 -27 13 -45 35 -45c24 0 33 8 106 78v-56c-87 -85 -143 -120 -189 -120c-40 0 -71 38 -71 87
c0 47 23 105 74 185c-26 -13 -46 -20 -79 -26c-24 -43 -51 -77 -100 -126h-11z" />
    <glyph glyph-name="s" unicode="s" horiz-adv-x="406" 
d="M0 108v44c51 53 130 153 161 242c48 13 103 20 109 20c3 0 5 -1 5 -4s-1 -9 -4 -15c-5 -14 -8 -31 -8 -43c0 -18 6 -34 26 -63c25 -38 33 -61 33 -88c0 -100 -117 -213 -220 -213c-44 0 -88 28 -88 55c0 15 50 77 66 77c11 0 19 -11 26 -34c10 -33 22 -46 44 -46
c40 0 82 44 82 87c0 22 -8 43 -32 80c-26 40 -34 55 -45 88c-45 -71 -81 -117 -144 -187h-11z" />
    <glyph glyph-name="t" unicode="t" horiz-adv-x="281" 
d="M76 402l46 152l131 27l-50 -170l68 4l-16 -75l-76 -6c-11 -40 -49 -142 -49 -200c0 -31 17 -52 41 -52c41 0 72 31 121 82v-56c-87 -86 -140 -119 -192 -119c-56 0 -94 51 -94 128c0 69 28 143 46 208l-38 -2l16 77z" />
    <glyph glyph-name="u" unicode="u" 
d="M268 180l64 208l133 27c-57 -183 -80 -254 -80 -290c0 -29 12 -46 31 -46c23 0 49 18 96 66c9 8 12 12 20 19v-56c-92 -87 -142 -119 -186 -119c-56 0 -80 51 -80 114c-74 -81 -126 -115 -179 -115c-50 0 -82 44 -82 114s22 161 68 286l130 26c-11 -32 -80 -233 -80 -300
c0 -29 13 -47 35 -47c38 0 100 79 110 113z" />
    <glyph glyph-name="v" unicode="v" horiz-adv-x="438" 
d="M449 164v-56c-30 -27 -63 -35 -81 -36c-26 1 -45 8 -70 27c-59 -74 -118 -110 -184 -110c-68 0 -108 49 -108 132c0 44 13 109 34 169l34 100l133 25l-59 -176c-12 -37 -26 -101 -26 -125c0 -36 21 -62 48 -62c32 0 63 24 101 80c-17 34 -25 65 -25 100
c0 92 58 182 118 182c23 0 33 -16 33 -51c0 -67 -27 -143 -80 -229c14 -13 31 -22 52 -23c18 1 42 10 80 53z" />
    <glyph glyph-name="w" unicode="w" horiz-adv-x="677" 
d="M205 415l-36 -109c-27 -83 -46 -162 -46 -195c0 -34 18 -58 43 -58c26 0 51 19 78 61c0 29 0 76 28 159l40 118l131 24l-55 -169c-17 -50 -26 -98 -26 -129c0 -38 18 -63 46 -63c32 0 57 19 101 77c-20 38 -26 61 -26 98c0 97 57 186 119 186c22 0 32 -16 32 -48
c0 -65 -29 -151 -80 -233c14 -13 31 -22 52 -23c18 1 42 10 82 53v-56c-32 -27 -65 -35 -83 -36c-26 1 -45 8 -70 27c-47 -58 -108 -110 -183 -110c-47 0 -79 25 -99 76c-44 -51 -91 -76 -141 -76c-66 0 -106 45 -106 122c0 75 17 143 70 280z" />
    <glyph glyph-name="x" unicode="x" horiz-adv-x="563" 
d="M0 108v44c21 21 34 38 57 75c81 131 143 187 208 187c55 0 87 -32 98 -95c34 68 66 95 115 95c63 0 75 -55 75 -66c0 -8 -50 -59 -65 -59c-5 0 -7 5 -7 16c-1 16 -10 53 -35 53c-62 0 -95 -221 -95 -254c0 -37 21 -62 51 -62c42 0 101 41 172 122v-56
c-81 -80 -152 -120 -212 -120s-97 39 -113 99c-33 -67 -77 -99 -132 -99c-44 0 -89 29 -89 58c0 14 56 58 62 58c5 0 10 -7 15 -21c11 -30 26 -44 46 -44c82 0 110 250 110 261c0 33 -14 52 -38 52c-11 0 -22 -4 -35 -15c-24 -18 -60 -65 -92 -119c-35 -60 -55 -82 -85 -110
h-11z" />
    <glyph glyph-name="y" unicode="y" 
d="M207 -55c-78 -35 -125 -82 -125 -126c0 -20 11 -33 28 -33c35 0 69 55 97 159zM37 266l47 124l142 25l-61 -145c-10 -25 -42 -111 -42 -158c0 -28 11 -44 30 -44c41 0 100 74 134 169l56 153l133 25l-16 -46l-96 -289l-15 -47c87 42 124 68 183 131v-56
c-49 -46 -100 -77 -198 -123c-26 -72 -47 -113 -73 -149c-42 -56 -94 -87 -147 -87c-42 0 -69 27 -69 70c0 52 38 113 176 174l30 105c-64 -71 -113 -103 -162 -103c-51 0 -84 45 -84 113c0 45 13 109 32 158z" />
    <glyph glyph-name="z" unicode="z" horiz-adv-x="479" 
d="M0 108v44c30 30 67 73 100 116c36 47 79 110 88 130c5 11 9 16 13 16l15 -2c36 -8 62 -11 97 -11c28 0 64 3 106 10c11 2 20 3 23 3c6 0 9 -1 9 -5c0 -5 -7 -19 -20 -38c-28 -40 -182 -222 -216 -265c9 1 26 2 32 2c19 0 107 -22 128 -22c41 0 59 18 115 78v-56
c-69 -75 -112 -120 -166 -120c-13 0 -34 5 -65 15c-37 12 -60 17 -78 17c-22 0 -38 -7 -53 -23c-5 -6 -9 -9 -12 -9c-31 0 -34 0 -34 4c0 21 213 267 252 318c-13 -3 -40 -6 -61 -6c-32 0 -59 5 -91 15c-68 -97 -112 -150 -171 -211h-11z" />
    <glyph glyph-name="braceleft" unicode="{" horiz-adv-x="394" 
d="M80 222v29c59 10 95 46 95 107c0 20 -4 47 -10 73c-10 37 -15 69 -15 87c0 50 33 102 84 131c34 18 62 25 116 27v-22c-54 -11 -95 -40 -95 -92c0 -21 4 -49 12 -79c7 -32 12 -63 12 -85c0 -36 -16 -72 -44 -101c-28 -30 -55 -43 -116 -60c64 -20 91 -34 119 -63
c26 -28 42 -65 42 -99c0 -17 -4 -46 -12 -76c-7 -30 -12 -62 -12 -83c0 -60 38 -85 94 -97v-22c-145 -2 -201 91 -201 157c0 19 6 53 15 89c7 28 11 56 11 76c0 57 -33 93 -95 103z" />
    <glyph glyph-name="bar" unicode="|" horiz-adv-x="546" 
d="M234 -250v1000h78v-1000h-78z" />
    <glyph glyph-name="braceright" unicode="}" horiz-adv-x="394" 
d="M314 251v-30c-59 -10 -95 -46 -95 -106c0 -20 4 -47 10 -73c10 -38 15 -69 15 -87c0 -50 -33 -103 -84 -131c-34 -19 -62 -25 -116 -27v22c55 10 95 40 95 92c0 21 -4 48 -12 79c-7 32 -12 63 -12 85c0 36 16 72 44 101c29 29 55 43 116 59c-64 20 -91 35 -118 64
c-27 28 -43 64 -43 98c0 18 5 46 12 77c7 30 12 61 12 83c0 58 -36 85 -94 97v22c146 2 201 -92 201 -157c0 -20 -5 -53 -15 -90c-7 -27 -11 -55 -11 -76c0 -56 33 -92 95 -102z" />
    <glyph glyph-name="asciitilde" unicode="~" horiz-adv-x="667" 
d="M96 248h-28c2 49 10 77 26 103c24 34 61 55 101 55c23 0 52 0 186 -59c56 -23 80 -31 104 -31c49 0 80 33 86 89h28c-3 -97 -54 -158 -131 -158c-39 0 -60 7 -183 58c-53 22 -80 30 -103 30c-48 0 -77 -29 -86 -87z" />
    <glyph glyph-name="exclamdown" unicode="&#xa1;" horiz-adv-x="323" 
d="M133 582c27 75 40 114 93 114c44 0 86 -29 86 -33c0 -1 -2 -6 -6 -10c-18 -28 -31 -59 -42 -103c-28 28 -53 41 -82 41c-11 0 -22 -2 -33 -7c-10 -4 -12 -3 -16 -2zM165 487l17 10c18 -22 31 -63 31 -99c0 -31 -10 -68 -34 -130c-27 -69 -36 -104 -36 -147
c0 -26 3 -50 8 -69c2 -5 2 -7 2 -9c0 -11 -4 -12 -44 -30c-26 -11 -55 -24 -65 -24c-12 0 -25 48 -25 93c0 64 26 136 75 213c42 65 73 114 73 154c0 9 -1 25 -2 38z" />
    <glyph glyph-name="cent" unicode="&#xa2;" horiz-adv-x="365" 
d="M143 117l73 255c-65 -12 -93 -112 -93 -168c0 -36 7 -66 20 -87zM227 414l70 249h23l-69 -246c64 -5 98 -36 98 -90c0 -22 -8 -28 -67 -54c-18 -8 -24 -10 -28 -10c-5 0 -7 3 -7 8c0 8 7 46 7 54c0 18 -5 30 -16 41l-77 -270c19 -17 41 -26 65 -26c48 0 96 27 142 80h6
v-42c-113 -129 -201 -122 -243 -118l-59 -212h-23l61 218c-67 24 -98 70 -98 143c0 125 98 251 215 275z" />
    <glyph glyph-name="sterling" unicode="&#xa3;" horiz-adv-x="635" 
d="M559 160l23 -9c-43 -109 -107 -163 -192 -163c-34 0 -63 8 -116 34c-42 20 -57 25 -83 30c-42 -44 -80 -64 -120 -64c-33 0 -56 19 -56 46c0 17 9 83 155 95c21 57 30 100 39 182c-53 0 -84 0 -108 -30c-5 -6 -8 -8 -14 -8s-10 4 -10 10c0 21 27 75 39 87
c21 19 55 19 107 19c20 110 64 307 274 307c48 0 81 -10 103 -29c16 -15 27 -34 27 -48c0 -25 -71 -66 -84 -66c-10 0 -14 8 -16 32c-3 36 -7 73 -51 73c-50 0 -80 -51 -98 -164l-17 -110c8 -2 15 -3 33 -3c33 0 79 0 113 31c3 4 6 5 8 5c7 0 12 -3 12 -10
c0 -10 -5 -24 -19 -51c-18 -38 -26 -54 -72 -54h-92c-18 -66 -39 -107 -86 -172c27 -2 154 -31 184 -31c51 0 81 17 107 61h10z" />
    <glyph glyph-name="fraction" unicode="&#x2044;" horiz-adv-x="83" 
d="M-193 -116l434 811h49l-432 -811h-51z" />
    <glyph glyph-name="yen" unicode="&#xa5;" horiz-adv-x="680" 
d="M420 393h123l-1 -36h-134l-12 -39h134v-36h-144l-71 -269l-120 -24l89 293h-121v36h130l11 39h-128v36h133c11 55 15 271 -93 271c-68 0 -120 -62 -120 -110c0 -32 10 -55 33 -75c9 -8 12 -12 12 -17c0 -16 -32 -56 -61 -56c-28 0 -46 46 -46 90c0 99 92 203 184 203
c94 0 156 -95 146 -273c58 140 130 210 222 265h82c-123 -63 -208 -189 -248 -298z" />
    <glyph glyph-name="florin" unicode="&#x192;" horiz-adv-x="500" 
d="M422 383h-75l-49 -244c-12 -58 -27 -121 -37 -158c-48 -169 -136 -197 -185 -197c-43 0 -76 25 -76 57c0 26 22 48 50 48c27 0 45 -15 45 -38c0 -4 -6 -22 -6 -26c0 -6 7 -11 14 -11c23 0 37 25 37 62c0 14 -4 78 -4 92c0 48 4 72 20 153l53 262h-69l12 59
c67 0 90 21 123 111c32 86 77 125 146 125c48 0 79 -25 79 -63c0 -32 -22 -56 -52 -56c-24 0 -43 19 -43 40c0 8 4 19 13 38c1 3 2 5 2 7c0 6 -6 11 -13 11c-27 0 -46 -28 -46 -68c0 -12 4 -71 4 -85c0 -16 -1 -31 -6 -60h75z" />
    <glyph glyph-name="section" unicode="&#xa7;" 
d="M239 385c-43 -24 -72 -62 -72 -97c0 -40 21 -64 132 -197c50 27 72 56 72 96c0 37 -20 70 -87 146c-16 18 -26 30 -45 52zM219 416c-28 41 -40 74 -40 113c0 97 74 167 174 167c89 0 165 -55 165 -71c0 -13 -25 -74 -25 -75c-11 -26 -15 -31 -25 -31c-17 0 -25 11 -24 17
c3 19 7 38 7 50c0 47 -37 78 -95 78c-53 0 -93 -34 -93 -77c0 -36 26 -78 88 -142c73 -76 105 -138 105 -203c0 -99 -98 -155 -138 -178c29 -36 42 -71 42 -116c0 -98 -75 -171 -175 -171c-78 0 -170 52 -170 79c0 6 28 107 48 107c13 0 27 -9 27 -17c-1 -2 -7 -44 -7 -52
c0 -47 43 -83 102 -83c54 0 94 33 94 77c0 33 -25 74 -79 131c-86 92 -118 150 -118 212c0 67 39 120 137 185z" />
    <glyph glyph-name="currency" unicode="&#xa4;" horiz-adv-x="688" 
d="M141 570l63 -63c46 30 82 42 130 42s84 -12 130 -42l62 63l52 -52l-63 -63c30 -44 42 -82 42 -130s-12 -85 -42 -129l63 -62l-52 -52l-62 62c-45 -30 -81 -42 -129 -42c-49 0 -87 13 -131 42l-62 -62l-52 52l62 62c-30 44 -41 81 -41 130c0 48 11 85 41 130l-62 62z
M184 326c0 -83 67 -151 150 -151s150 68 150 151c0 82 -67 150 -150 150s-150 -68 -150 -150z" />
    <glyph glyph-name="quotesingle" unicode="'" horiz-adv-x="240" 
d="M136 663l92 29c2 -84 -4 -132 -80 -245l-31 -5c29 81 39 140 19 221z" />
    <glyph glyph-name="quotedblleft" unicode="&#x201c;" horiz-adv-x="479" 
d="M223 698l6 -30c-82 -43 -109 -71 -109 -113c0 -28 19 -50 52 -63c8 -3 13 -6 13 -8c0 -7 -4 -11 -26 -34c-19 -19 -40 -45 -53 -62c-52 31 -79 67 -79 110c0 136 170 193 196 200zM463 698l6 -29c-82 -44 -109 -72 -109 -114c0 -27 18 -49 52 -62c8 -3 13 -6 13 -9
c0 -7 -4 -11 -26 -33c-20 -20 -39 -45 -53 -62c-52 30 -78 66 -78 109c0 131 160 190 195 200z" />
    <glyph glyph-name="guillemotleft" unicode="&#xab;" horiz-adv-x="438" 
d="M170 441c10 0 77 -37 77 -47c0 -6 -22 -34 -43 -53c-37 -35 -83 -96 -83 -116c0 -26 50 -149 50 -158c0 -14 -77 -35 -81 -35c-9 0 -70 201 -70 209c0 26 146 200 150 200zM262 50l-57 175c-1 5 -2 10 -2 14c0 28 122 176 147 202c43 -10 80 -45 80 -48
c0 -16 -127 -133 -127 -166c0 -27 51 -153 51 -159c0 -12 -79 -37 -82 -37c-2 0 -7 9 -10 19z" />
    <glyph glyph-name="guilsinglleft" unicode="&#x2039;" horiz-adv-x="281" 
d="M143 184l31 -88c0 -1 9 -26 9 -28c0 -4 -3 -7 -11 -11l-53 -20c-7 -3 -13 -6 -16 -6c-6 0 -9 8 -21 41l-31 90c-9 25 -18 55 -18 75c0 21 42 76 65 103l65 80c12 15 18 21 21 21c9 0 76 -41 76 -49c0 -2 -23 -30 -28 -34l-69 -82c-22 -25 -29 -38 -29 -50
c0 -8 3 -24 9 -42z" />
    <glyph glyph-name="guilsinglright" unicode="&#x203a;" horiz-adv-x="281" 
d="M238 186l-122 -149c-3 -3 -4 -6 -6 -6c-16 0 -77 43 -77 48c0 3 57 67 68 79c55 68 59 73 59 90s-16 68 -33 108c-17 39 -17 50 -17 51c0 3 60 34 80 34c3 0 8 -9 12 -20c21 -58 58 -166 58 -189c0 -14 -11 -32 -22 -46z" />
    <glyph glyph-name="endash" unicode="&#x2013;" horiz-adv-x="500" 
d="M-5 206v89h510v-89h-510z" />
    <glyph glyph-name="dagger" unicode="&#x2020;" horiz-adv-x="563" 
d="M52 334l43 128c83 -27 119 -34 185 -36c18 93 20 122 25 247c75 6 99 10 141 24c-6 -72 -11 -85 -85 -272c69 5 103 14 197 46c-14 -60 -27 -93 -57 -144c-56 12 -95 25 -155 51c-43 -154 -74 -290 -114 -555c-65 -27 -101 -38 -163 -47c11 50 17 70 28 108
c26 90 65 205 113 337c39 109 46 133 55 161c-75 -40 -114 -53 -167 -53c-15 0 -24 1 -46 5z" />
    <glyph glyph-name="daggerdbl" unicode="&#x2021;" horiz-adv-x="635" 
d="M134 365l43 126c109 -29 123 -33 182 -35c13 96 17 125 18 217c60 2 92 7 142 22c-12 -85 -30 -126 -80 -239c70 5 107 13 197 44c-13 -59 -26 -92 -56 -143c-54 9 -85 20 -160 55c-18 -66 -23 -94 -24 -136c1 -15 1 -20 3 -35c-44 -51 -62 -92 -83 -189
c74 40 118 56 165 56c18 0 37 -3 55 -8l-44 -126c-104 36 -133 39 -184 38c-8 -84 -10 -139 -9 -207c-51 -18 -86 -25 -143 -28c5 68 12 85 73 240c-77 -9 -113 -17 -195 -43c8 47 21 79 59 142c52 -12 84 -24 152 -54c18 56 23 80 24 121c-1 26 -2 34 -5 56
c43 52 63 93 84 170c-69 -35 -116 -48 -165 -48c-17 0 -36 1 -49 4z" />
    <glyph glyph-name="periodcentered" unicode="&#xb7;" horiz-adv-x="198" 
d="M57 414c36 -29 50 -40 81 -40c16 0 24 2 49 8c-29 -93 -46 -113 -94 -113c-30 0 -51 7 -85 31c23 36 33 65 49 114z" />
    <glyph glyph-name="paragraph" unicode="&#xb6;" horiz-adv-x="540" 
d="M400 625h-89v-841h-49v426c-67 2 -104 10 -146 29c-72 34 -116 109 -116 199c0 84 33 149 96 189c29 19 64 35 230 35h214v-21c-89 0 -92 -23 -92 -100v-757h-48v841z" />
    <glyph glyph-name="bullet" unicode="&#x2022;" horiz-adv-x="350" 
d="M196 470c77 0 139 -63 139 -140s-62 -140 -139 -140s-139 63 -139 140s62 140 139 140z" />
    <glyph glyph-name="quotesinglbase" unicode="&#x201a;" horiz-adv-x="240" 
d="M32 -172l-10 30c84 52 110 78 110 118c0 28 -16 49 -49 62c-11 4 -17 8 -17 12c0 3 7 11 16 19c12 11 39 42 63 75c56 -34 79 -67 79 -115c0 -81 -68 -150 -192 -201z" />
    <glyph glyph-name="quotedblbase" unicode="&#x201e;" horiz-adv-x="479" 
d="M270 -172l-6 34c82 40 111 71 111 115c0 26 -13 43 -45 57c-13 6 -19 11 -19 15c0 3 9 14 24 30c13 13 28 30 55 62c55 -33 75 -64 75 -112c0 -83 -64 -150 -195 -201zM123 110l29 34c53 -35 74 -67 74 -116c0 -84 -64 -148 -196 -197l-6 31c84 46 110 72 110 112
c0 28 -15 48 -47 62c-10 5 -15 10 -15 13s41 50 51 61z" />
    <glyph glyph-name="quotedblright" unicode="&#x201d;" horiz-adv-x="479" 
d="M270 387l-6 32c80 39 110 70 110 112c0 33 -33 55 -52 61c-10 2 -14 6 -14 12c0 3 28 32 33 38c6 8 39 46 45 56c54 -28 80 -66 80 -117c0 -52 -35 -140 -196 -194zM30 385l-5 32c79 39 109 70 109 113c0 26 -22 53 -53 61c-9 3 -13 6 -13 12c0 1 31 36 36 43
c10 13 33 41 41 52c58 -30 81 -63 81 -116c0 -84 -69 -153 -196 -197z" />
    <glyph glyph-name="guillemotright" unicode="&#xbb;" horiz-adv-x="438" 
d="M332 246c0 21 -17 65 -32 102c-11 27 -18 48 -20 60c0 5 68 33 80 33c14 0 72 -189 72 -214c0 -29 -100 -125 -145 -192c-2 -3 -3 -4 -6 -4c-10 0 -79 41 -79 45c0 11 130 136 130 170zM147 249c0 18 -18 77 -36 118c-8 17 -13 32 -14 40c1 5 63 34 80 34
s72 -185 72 -205c0 -42 -105 -141 -146 -201c-2 -3 -4 -4 -6 -4c-13 0 -77 43 -77 48c0 6 38 48 51 63c57 65 76 84 76 107z" />
    <glyph glyph-name="ellipsis" unicode="&#x2026;" horiz-adv-x="1000" 
d="M792 135c36 -30 50 -41 81 -41c16 0 25 2 49 8c-29 -93 -46 -113 -93 -113c-31 0 -52 7 -86 31c23 36 34 65 49 115zM460 135c35 -30 49 -41 80 -41c16 0 25 2 49 8c-29 -93 -46 -113 -93 -113c-31 0 -52 7 -86 31c23 36 34 65 50 115zM127 135c36 -30 49 -41 81 -41
c16 0 24 2 48 8c-29 -93 -45 -113 -93 -113c-31 0 -52 7 -85 31c23 37 33 65 49 115z" />
    <glyph glyph-name="perthousand" unicode="&#x2030;" horiz-adv-x="1001" 
d="M44 -244l541 863c-100 -42 -182 -63 -238 -63c-20 0 -44 2 -63 5c-30 -172 -132 -176 -150 -176c-58 0 -101 46 -101 110c0 47 27 116 60 152c24 28 63 52 82 52c8 0 13 -5 13 -14c0 -6 -5 -16 -18 -36c-37 -56 -55 -116 -55 -158c0 -40 16 -67 40 -67c18 0 80 34 96 149
c-25 18 -33 34 -33 61c0 34 16 65 34 65c38 0 38 -77 38 -102c17 -3 38 -5 57 -5c42 0 100 12 161 35c28 10 154 70 179 70c10 0 15 -6 16 -18c0 -5 -1 -8 -3 -11l-573 -912h-83zM1061 -32l14 -5c2 -32 -4 -32 -20 -32c-22 -125 -93 -176 -149 -176c-57 0 -99 46 -99 108
c0 66 35 142 82 179c20 15 46 28 58 28c8 0 14 -5 14 -12c0 -6 -3 -14 -15 -31c-58 -92 -58 -159 -58 -172c0 -38 14 -61 37 -61c21 0 79 36 99 150c-25 15 -33 28 -33 59c0 38 14 67 34 67c36 0 36 -70 36 -102zM725 -32l14 -5c2 -32 -4 -32 -20 -32
c-21 -125 -93 -176 -148 -176c-57 0 -100 46 -100 108c0 66 35 142 82 179c20 15 46 28 58 28c8 0 14 -5 14 -12c0 -6 -3 -14 -14 -31c-59 -92 -59 -159 -59 -172c0 -38 14 -61 37 -61c21 0 79 36 99 150c-25 15 -33 28 -33 59c0 38 15 67 34 67c36 0 36 -70 36 -102z" />
    <glyph glyph-name="questiondown" unicode="&#xbf;" horiz-adv-x="438" 
d="M233 582c34 95 51 114 101 114c44 0 79 -28 79 -33c0 -2 -2 -7 -6 -13c-15 -24 -29 -56 -43 -100c-21 25 -53 40 -84 40c-12 0 -22 -2 -33 -6c-8 -4 -9 -3 -14 -2zM235 46c54 0 93 36 93 88c0 33 -13 51 -40 54c-12 1 -17 4 -17 10c0 16 63 56 83 56c23 0 44 -37 44 -76
c0 -97 -106 -189 -219 -189c-94 0 -158 63 -158 157c0 88 60 167 186 243c56 34 76 56 76 81c0 3 -2 13 -2 16c0 6 5 9 14 9c15 0 27 -47 27 -66c0 -33 -17 -57 -67 -96c-78 -59 -109 -111 -109 -178c0 -66 35 -109 89 -109z" />
    <glyph glyph-name="grave" unicode="`" horiz-adv-x="333" 
d="M202 476l-23 -13c-82 50 -125 95 -164 171l113 19c10 -62 31 -111 74 -177z" />
    <glyph glyph-name="acute" unicode="&#xb4;" horiz-adv-x="333" 
d="M210 467l-30 10c50 59 79 104 100 160l112 12c-18 -70 -63 -116 -182 -182z" />
    <glyph glyph-name="circumflex" unicode="&#x2c6;" horiz-adv-x="333" 
d="M42 464l5 24c64 46 104 88 151 163l105 19c0 -98 6 -137 46 -185l-4 -19c-55 16 -84 43 -124 114c-59 -67 -94 -89 -179 -116z" />
    <glyph glyph-name="tilde" unicode="&#x2dc;" horiz-adv-x="333" 
d="M74 491l-27 17c25 63 63 95 113 95c22 0 46 -7 80 -24c24 -12 38 -17 50 -17c25 0 42 12 55 38l28 -24c-33 -67 -65 -93 -113 -93c-22 0 -39 5 -71 23c-28 15 -44 20 -61 20c-23 0 -41 -11 -54 -35z" />
    <glyph glyph-name="macron" unicode="&#xaf;" horiz-adv-x="333" 
d="M-41 511l10 89h327l-10 -89h-327z" />
    <glyph glyph-name="breve" unicode="&#x2d8;" horiz-adv-x="337" 
d="M188 568l88 30c1 -50 9 -69 30 -69c30 0 70 56 99 98l1 -35c-50 -67 -97 -130 -153 -130c-67 0 -66 83 -65 106z" />
    <glyph glyph-name="dotaccent" unicode="&#x2d9;" horiz-adv-x="333" 
d="M314 621c43 -27 62 -36 93 -44c-4 -52 -26 -79 -63 -79c-23 0 -45 9 -74 31c19 31 32 57 44 92z" />
    <glyph glyph-name="dieresis" unicode="&#xa8;" horiz-adv-x="333" 
d="M131 618c47 -28 63 -35 93 -39c-6 -53 -29 -80 -65 -80c-22 0 -42 9 -70 30c19 31 32 57 42 89zM308 618c43 -26 58 -33 91 -41c-4 -51 -26 -79 -61 -79c-19 0 -41 9 -75 30c22 36 35 62 45 90z" />
    <glyph glyph-name="ring" unicode="&#x2da;" horiz-adv-x="333" 
d="M280 651c53 0 94 -40 94 -91s-41 -92 -92 -92s-92 41 -92 92c0 49 41 91 90 91zM283 616c-31 0 -57 -25 -57 -56s25 -56 56 -56s57 25 57 56c0 30 -26 56 -56 56z" />
    <glyph glyph-name="cedilla" unicode="&#xb8;" horiz-adv-x="333" 
d="M39 -218l7 39c26 0 102 0 102 59c0 28 -19 44 -53 45c32 31 46 47 72 79h50l-31 -37c43 -8 65 -32 65 -72c0 -31 -15 -55 -46 -76c-54 -37 -111 -37 -166 -37z" />
    <glyph glyph-name="hungarumlaut" unicode="&#x2dd;" horiz-adv-x="333" 
d="M228 467l-30 10c50 59 79 104 100 160l112 12c-18 -70 -63 -116 -182 -182zM439 467l-29 10c50 59 78 104 99 160l113 12c-18 -70 -63 -116 -183 -182z" />
    <glyph glyph-name="ogonek" unicode="&#x2db;" horiz-adv-x="333" 
d="M283 -128l-18 -89c-18 -5 -24 -5 -41 -6c-52 1 -83 28 -83 72s19 72 102 153h34c-53 -56 -73 -78 -73 -104c0 -17 19 -32 38 -32c13 0 31 4 41 6z" />
    <glyph glyph-name="caron" unicode="&#x2c7;" horiz-adv-x="333" 
d="M125 649l5 20c53 -20 87 -52 123 -114c61 63 111 94 180 112l-6 -24c-67 -47 -102 -84 -151 -161l-106 -17c2 82 -1 133 -45 184z" />
    <glyph glyph-name="emdash" unicode="&#x2014;" horiz-adv-x="1000" 
d="M-5 206v89h1010v-89h-1010z" />
    <glyph glyph-name="AE" unicode="&#xc6;" horiz-adv-x="854" 
d="M549 643c-24 12 -50 18 -81 18c-211 0 -295 -332 -295 -456c0 -67 32 -114 79 -114c62 0 100 77 123 123c34 68 74 142 211 162c-82 40 -111 74 -111 135c0 51 25 95 74 132zM865 164v-56c-32 -35 -102 -119 -260 -119c-78 0 -139 23 -182 70c-21 22 -32 40 -47 79
c-40 -62 -70 -94 -113 -121c-31 -19 -58 -28 -85 -28c-85 0 -146 87 -146 210c0 183 119 499 453 499c52 0 80 -4 134 -19c35 13 54 20 96 20c116 0 143 -69 143 -81c0 -20 -42 -78 -61 -78c-8 0 -15 14 -19 40c-9 55 -30 81 -65 81c-58 0 -109 -73 -109 -156
c0 -55 34 -88 91 -88c4 0 20 2 21 2c5 0 6 -2 6 -7c0 -14 -14 -70 -25 -70c-18 0 -37 4 -52 4c-76 0 -130 -58 -130 -142c0 -91 63 -153 154 -153c69 0 137 38 196 113z" />
    <glyph glyph-name="ordfeminine" unicode="&#xaa;" horiz-adv-x="354" 
d="M234 670c-52 0 -93 -110 -93 -160c0 -24 14 -42 31 -42c50 0 93 108 93 160c0 25 -13 42 -31 42zM415 522v-35c-39 -39 -81 -82 -119 -82c-51 0 -50 68 -50 94c-47 -67 -81 -94 -119 -94c-40 0 -71 43 -71 97c0 104 107 194 172 194c30 0 51 -13 60 -38l68 38h19
c-40 -121 -51 -184 -51 -200c0 -17 8 -28 20 -28c13 0 26 9 50 34c6 6 9 9 21 20z" />
    <glyph glyph-name="Lslash" unicode="&#x141;" horiz-adv-x="635" 
d="M114 302l94 39c8 227 155 355 271 355c95 0 158 -62 158 -155c0 -90 -54 -164 -115 -167c-46 -2 -66 31 -66 62c0 10 0 21 3 30c10 -8 20 -10 24 -10c31 0 59 54 59 113c0 55 -28 90 -74 90c-57 0 -92 -52 -104 -154l-11 -101l74 31v-40l-81 -34
c-20 -100 -50 -160 -110 -223c37 2 60 3 143 -28c55 -21 84 -28 114 -28c55 0 100 23 153 82v-56c-80 -81 -154 -118 -237 -118c-45 0 -82 10 -149 41c-39 18 -52 22 -80 30c-46 -50 -81 -72 -119 -72c-25 0 -43 18 -43 42c0 50 53 90 139 104c31 41 42 82 46 164l-89 -38
v41z" />
    <glyph glyph-name="Oslash" unicode="&#xd8;" horiz-adv-x="635" 
d="M642 682l-34 -44c10 -23 14 -47 14 -76c0 -255 -236 -572 -427 -572c-29 0 -41 5 -66 14l-31 -41l-23 18l29 39c-64 59 -72 134 -72 181c0 133 47 250 159 397c64 85 107 100 181 100h10c2 0 3 0 3 -2c0 -4 -5 -10 -14 -17c-68 -58 -199 -241 -199 -449
c0 -39 4 -60 19 -94l177 234c-26 19 -40 49 -40 83c0 117 103 245 196 245c28 0 47 -8 69 -31l23 30zM580 601l-122 -163c4 -2 7 -7 7 -14c0 -30 -28 -57 -64 -62l-193 -253c19 -21 43 -32 73 -32c37 0 77 21 114 60c114 117 191 290 191 427c0 20 -2 29 -6 37zM428 450
l141 186c-8 12 -21 20 -35 20c-62 0 -116 -122 -116 -178c0 -12 2 -19 10 -28z" />
    <glyph glyph-name="OE" unicode="&#x152;" horiz-adv-x="1042" 
d="M1053 164v-56c-53 -55 -116 -118 -258 -118c-185 0 -235 110 -235 180c0 56 31 116 80 153c34 27 73 42 135 55c-51 17 -78 41 -99 84c-32 -29 -64 -51 -100 -70c-80 -257 -267 -402 -383 -402c-94 0 -157 82 -157 205c0 231 156 414 226 467c39 29 89 33 104 33
c10 0 18 -3 18 -6c0 -4 -8 -13 -19 -22c-129 -115 -192 -314 -192 -438c0 -95 38 -154 100 -154c96 0 205 155 257 297c-28 -11 -54 -16 -78 -16c-64 0 -110 48 -110 114c0 109 93 225 181 225c55 0 88 -46 88 -125c0 -47 -6 -71 -18 -121c33 20 62 47 76 59
c2 50 15 81 46 110c47 45 127 77 196 77c85 0 131 -55 131 -80c0 -19 -48 -78 -63 -78c-10 0 -14 11 -15 36c-1 52 -23 79 -63 79c-55 0 -105 -69 -105 -147c0 -94 68 -94 101 -94c12 0 15 -1 15 -9c0 -13 -12 -61 -22 -61c-9 0 -52 4 -62 4c-69 0 -127 -67 -127 -147
c0 -86 64 -147 155 -147c68 0 131 33 197 113zM549 425c16 65 26 107 26 148c0 52 -17 81 -49 81c-59 0 -95 -113 -95 -166c0 -46 28 -79 66 -79c16 0 37 6 52 16z" />
    <glyph glyph-name="ordmasculine" unicode="&#xba;" horiz-adv-x="302" 
d="M248 674c-96 7 -105 -117 -105 -152c0 -43 15 -70 40 -70c17 0 33 14 50 43c-21 32 -30 56 -30 85c0 38 12 61 45 94zM359 523v-36c-16 -19 -40 -27 -54 -27c-17 0 -28 4 -51 17c-34 -49 -69 -72 -110 -72c-53 0 -87 41 -87 106c0 101 81 185 179 185c64 0 64 -22 64 -44
c0 -46 -11 -95 -35 -151c16 -13 25 -16 39 -16c15 0 37 10 55 38z" />
    <glyph glyph-name="ae" unicode="&#xe6;" horiz-adv-x="604" 
d="M366 196c36 8 53 16 74 32c31 24 53 67 53 102c0 22 -11 38 -28 38c-57 0 -85 -95 -99 -172zM224 370c-59 0 -131 -137 -131 -233c0 -33 19 -57 47 -57c73 0 122 157 122 233c0 36 -14 57 -38 57zM615 164v-56c-85 -85 -148 -119 -219 -119c-48 0 -92 23 -118 59
c-18 26 -24 48 -25 92c-23 -38 -89 -151 -182 -151c-56 0 -100 58 -100 132c0 153 149 295 248 295c37 0 63 -24 77 -71l104 71h22l-14 -48c38 33 71 48 105 48c41 0 72 -33 72 -78c0 -52 -45 -139 -219 -172c11 -61 48 -94 104 -94c55 0 88 30 145 92z" />
    <glyph glyph-name="dotlessi" unicode="&#x131;" horiz-adv-x="240" 
d="M251 164v-56c-75 -77 -135 -120 -171 -120c-42 0 -74 48 -74 112c0 102 49 232 70 288l124 26h6l-49 -153c-20 -63 -30 -107 -30 -135c0 -21 10 -36 25 -36c31 0 56 27 99 74z" />
    <glyph glyph-name="lslash" unicode="&#x142;" horiz-adv-x="323" 
d="M147 299c79 86 139 215 139 301c0 24 -8 40 -19 40c-2 0 -51 -13 -120 -341zM334 164v-56c-95 -86 -154 -119 -213 -119c-114 0 -114 118 -114 189l-92 -37v40l96 38c22 151 72 297 147 430l124 46c3 1 6 2 9 2c20 0 32 -30 32 -81c0 -146 -68 -241 -132 -326l95 37v-39
l-151 -59c-3 -30 -5 -56 -5 -74c0 -53 23 -89 57 -89c44 0 85 37 147 98z" />
    <glyph glyph-name="oslash" unicode="&#xf8;" horiz-adv-x="438" 
d="M132 123l86 115c0 50 6 91 67 143c-5 2 -11 3 -21 3c-100 0 -136 -137 -136 -229c0 -12 2 -18 4 -32zM449 164v-56c-34 -31 -67 -39 -85 -40c-26 1 -45 8 -70 27c-46 -71 -101 -106 -164 -106c-21 0 -35 3 -58 15l-43 -56l-18 12l42 57c-37 36 -50 68 -50 123
c0 176 146 275 262 275c27 0 52 -4 75 -13l32 42l17 -13l-32 -44c2 -10 4 -23 4 -32c0 -67 -17 -141 -48 -225c14 -13 31 -22 52 -23c18 1 42 10 84 57zM223 206l-84 -111c14 -26 31 -39 50 -39c25 0 47 19 75 64c-24 31 -34 52 -41 86z" />
    <glyph glyph-name="oe" unicode="&#x153;" horiz-adv-x="604" 
d="M360 199c83 27 121 67 121 131c0 30 -13 46 -35 46c-36 0 -81 -73 -86 -177zM261 175c-29 14 -43 38 -43 73c0 53 26 98 75 134c-4 1 -23 3 -27 3c-104 0 -134 -140 -134 -221c0 -67 22 -107 59 -107c22 0 38 16 62 42c-4 30 4 59 8 76zM616 165v-56
c-90 -84 -159 -121 -230 -121c-52 0 -90 22 -121 70c-45 -49 -84 -70 -128 -70c-77 0 -131 64 -131 155c0 152 120 273 269 273c56 0 84 -13 86 -42c41 29 77 43 112 43c59 0 101 -35 101 -85c0 -40 -22 -114 -212 -165c12 -62 46 -94 98 -94c48 0 91 24 156 92z" />
    <glyph glyph-name="germandbls" unicode="&#xdf;" horiz-adv-x="604" 
d="M238 349c133 102 186 151 186 218c0 42 -22 70 -56 70c-77 0 -96 -94 -130 -288zM223 290l-46 -232c49 48 62 61 75 61c11 0 18 -13 20 -35c0 -16 3 -54 35 -54c48 0 94 75 94 151c0 86 -45 144 -113 144c-20 0 -25 -4 -65 -35zM137 -225c-37 -11 -81 -20 -122 -26
c9 80 19 158 61 426l-65 -67h-11v44l92 99l24 110c4 14 36 141 83 256c108 53 181 79 223 79c56 0 98 -46 98 -107c0 -66 -39 -117 -148 -190c47 -10 145 -37 145 -158c0 -118 -126 -252 -236 -252c-43 0 -83 21 -105 58c-26 -142 -34 -217 -39 -272z" />
    <glyph glyph-name="logicalnot" unicode="&#xac;" horiz-adv-x="667" 
d="M66 350v77h535v-315h-77v238h-458z" />
    <glyph glyph-name="mu" unicode="&#xb5;" horiz-adv-x="576" 
d="M55 112l95 329h125l-79 -272c-9 -26 -16 -48 -16 -74c0 -20 15 -35 34 -35c9 0 83 2 140 199l53 182h124l-88 -301c-2 -7 -16 -55 -16 -69c0 -15 12 -28 25 -28c16 0 37 25 55 69l18 -10c-27 -76 -69 -114 -130 -114c-49 0 -81 33 -81 82c0 10 1 26 3 42
c-53 -73 -97 -124 -168 -124c-36 0 -56 12 -75 43c-16 -50 -21 -77 -24 -132c-2 -46 -5 -113 -63 -113c-27 0 -48 22 -48 52c0 22 11 48 39 95c48 80 52 92 77 179z" />
    <glyph glyph-name="trademark" unicode="&#x2122;" horiz-adv-x="1000" 
d="M-1 552v110h379v-110h-17c-6 85 -54 85 -113 85v-287c0 -55 8 -65 50 -65v-17h-222v17c48 3 50 6 50 67v285c-55 0 -104 0 -112 -85h-15zM432 644v18h179l113 -242l112 242h169v-18c-42 1 -49 -9 -49 -66v-230c0 -40 0 -60 49 -63v-17h-225v17c48 0 56 9 56 63v247
l-156 -327h-12l-155 327v-246c0 -46 0 -63 56 -64v-17h-137v17c48 1 53 8 53 66v228c0 59 -10 66 -53 65z" />
    <glyph glyph-name="Eth" unicode="&#xd0;" horiz-adv-x="760" 
d="M509 331h-82c-16 -128 -52 -185 -150 -243c15 -6 23 -9 45 -19c51 -23 77 -30 104 -30c132 0 179 222 179 334c0 171 -90 285 -225 285c-108 0 -222 -93 -222 -180c0 -31 14 -54 41 -66c13 -6 18 -12 18 -22c0 -21 -76 -47 -85 -47c-36 0 -63 49 -63 93
c0 102 115 261 351 261c200 0 327 -118 327 -303c0 -218 -184 -406 -399 -406c-60 0 -114 13 -163 38c-43 -26 -75 -38 -106 -38c-34 0 -61 22 -61 50c0 46 54 81 125 81c26 0 46 -3 73 -12c44 36 47 62 70 223h-63l5 36h65c14 60 34 100 67 134c34 35 79 58 120 63l19 -26
c-43 -45 -59 -83 -68 -171h84z" />
    <glyph glyph-name="onehalf" unicode="&#xbd;" horiz-adv-x="741" 
d="M676 -20l16 -6c-23 -79 -43 -95 -93 -95c-14 0 -86 7 -103 7c-8 0 -52 -6 -54 -6s-4 3 -4 7c0 36 29 78 95 137c80 71 108 116 108 172c0 39 -22 66 -55 66s-59 -26 -59 -58c0 -14 5 -23 18 -33c8 -6 10 -10 10 -14c0 -11 -41 -29 -55 -29s-26 17 -26 35
c0 65 72 128 146 128c61 0 104 -40 104 -96c0 -73 -69 -121 -135 -165c-62 -42 -86 -62 -106 -88c23 6 45 9 64 9c11 0 66 -6 79 -6c29 0 38 7 50 35zM136 -116l433 811h49l-431 -811h-51zM165 479l44 158c-12 -2 -52 -46 -74 -83c-3 1 -16 7 -16 8c0 15 43 66 87 102
c34 28 40 30 75 30c9 0 13 -2 13 -7c0 -4 -1 -7 -3 -17l-65 -247c-15 -58 -29 -107 -35 -120s-11 -23 -74 -23c-11 0 -15 1 -15 5c0 6 3 14 7 25c3 5 17 46 18 50z" />
    <glyph glyph-name="plusminus" unicode="&#xb1;" horiz-adv-x="667" 
d="M66 370v77h228v230h77v-230h230v-77h-230v-228h-77v228h-228zM66 -24v77h535v-77h-535z" />
    <glyph glyph-name="Thorn" unicode="&#xde;" horiz-adv-x="823" 
d="M533 701l29 -27c-40 -30 -66 -106 -70 -150c16 8 60 17 110 17c131 0 184 -91 184 -208c0 -115 -100 -213 -217 -213c-52 0 -90 21 -90 49c0 20 28 70 46 70c12 0 18 -12 22 -38c4 -30 12 -43 28 -43c48 0 77 135 77 211c0 75 -11 127 -88 127c-24 0 -51 -5 -77 -16
l-13 -130c-13 -123 -47 -210 -107 -271c-54 -57 -128 -88 -206 -88c-122 0 -142 82 -142 109c0 36 82 76 105 76c10 0 15 -7 15 -19c0 -10 -8 -56 -8 -67c0 -39 20 -63 52 -63c71 0 126 91 144 241l22 183c22 176 102 218 184 250z" />
    <glyph glyph-name="onequarter" unicode="&#xbc;" horiz-adv-x="742" 
d="M469 38l105 2c20 59 30 90 60 198c-23 -14 -111 -101 -165 -200zM523 -111l39 109l-81 2c-37 1 -41 2 -41 7v16c0 22 103 180 210 255c14 11 26 14 50 14c10 0 14 -2 14 -7c0 -4 -10 -54 -38 -154c-5 -19 -12 -48 -22 -85c20 1 39 2 52 5l9 2c4 0 8 -3 8 -6v-1
c-12 -43 -14 -48 -31 -48l-51 -2l-22 -74c-10 -34 -12 -43 -81 -43c-16 0 -18 4 -15 10zM145 -116l433 811h49l-431 -811h-51zM184 547l25 90c-11 -2 -50 -44 -74 -83c-3 1 -16 7 -16 8c0 15 43 65 87 102c34 28 40 30 75 30c9 0 13 -2 13 -7c0 -4 -1 -7 -3 -17l-65 -247
c-15 -58 -29 -107 -35 -120s-11 -23 -74 -23c-11 0 -15 1 -15 5c0 8 21 63 25 75l38 120c3 8 9 31 19 67z" />
    <glyph glyph-name="divide" unicode="&#xf7;" horiz-adv-x="668" 
d="M286 471c0 25 22 46 48 46c27 0 48 -21 48 -48c0 -26 -21 -48 -48 -48s-48 22 -48 50zM285 64c0 27 22 48 49 48s48 -21 48 -48c0 -26 -21 -48 -48 -48s-49 22 -49 48zM66 228v77h536v-77h-536z" />
    <glyph glyph-name="brokenbar" unicode="&#xa6;" horiz-adv-x="546" 
d="M234 -175v350h78v-350h-78zM234 325v350h78v-350h-78z" />
    <glyph glyph-name="degree" unicode="&#xb0;" horiz-adv-x="400" 
d="M259 676c93 0 169 -76 169 -169s-76 -169 -169 -169c-94 0 -169 76 -169 169s75 169 169 169zM259 612c-58 0 -105 -47 -105 -105s47 -104 105 -104s105 47 105 104c0 58 -47 105 -105 105z" />
    <glyph glyph-name="thorn" unicode="&#xfe;" horiz-adv-x="563" 
d="M216 190l-26 -112c15 -34 32 -49 58 -49c70 0 122 133 122 226c0 47 -22 78 -55 78c-46 0 -77 -45 -99 -143zM179 498l40 176c60 11 79 14 125 23l-89 -352c55 55 81 70 122 70c68 0 115 -55 115 -134c0 -146 -116 -290 -233 -290c-28 0 -52 9 -80 32
c-12 -54 -36 -165 -46 -249c-24 -4 -40 -6 -119 -22c18 147 44 262 90 467c-34 -50 -62 -83 -93 -111h-11v44c104 112 143 190 179 346z" />
    <glyph glyph-name="threequarters" unicode="&#xbe;" horiz-adv-x="730" 
d="M457 38l105 2c18 54 30 90 60 198c-22 -13 -110 -100 -165 -200zM511 -111l39 109l-81 2c-37 1 -41 2 -41 7v16c0 22 104 180 210 255c14 11 26 14 50 14c10 0 14 -2 14 -7c0 -4 -10 -56 -38 -154c-5 -19 -12 -48 -22 -85c19 1 39 2 52 5l9 2c4 0 8 -3 8 -6v-1
c-12 -43 -14 -48 -31 -48l-51 -2l-22 -74c-10 -34 -12 -43 -81 -43c-13 0 -18 2 -15 10zM151 -116l433 811h49l-431 -811h-51zM163 478l-20 -2c-6 0 -8 3 -8 10c0 23 5 23 27 23c51 0 81 45 81 97c0 38 -23 63 -58 63c-29 0 -55 -22 -55 -47c0 -4 9 -25 9 -30
c0 -13 -38 -29 -48 -29c-8 0 -15 13 -15 27c0 54 63 103 133 103c63 0 105 -36 105 -89c0 -46 -30 -76 -100 -100c56 -26 78 -54 78 -99c0 -74 -66 -125 -160 -125c-66 0 -108 30 -108 79c0 18 6 25 25 33c14 5 35 11 40 11s8 -3 8 -11c0 -4 0 -5 -3 -11
c-5 -10 -8 -26 -8 -35c0 -26 23 -46 53 -46c60 0 75 80 75 108c0 41 -22 70 -51 70z" />
    <glyph glyph-name="registered" unicode="&#xae;" horiz-adv-x="747" 
d="M188 530v17h177c74 0 109 -7 136 -30c24 -20 37 -47 37 -77c0 -49 -31 -85 -87 -101l67 -122c17 -32 31 -44 51 -48v-17h-118l-100 180h-23v-97c0 -55 9 -64 59 -66v-17h-207v17c41 -1 52 13 52 66v231c0 51 -7 61 -44 64zM328 526v-169c11 -2 21 -2 27 -2
c46 0 78 36 78 87c0 84 -61 84 -105 84zM374 692c191 0 346 -155 346 -346s-155 -346 -346 -346c-192 0 -347 155 -347 346s155 346 347 346zM374 649c-168 0 -303 -136 -303 -303s135 -303 303 -303c167 0 302 136 302 303s-135 303 -302 303z" />
    <glyph glyph-name="minus" unicode="&#x2212;" horiz-adv-x="667" 
d="M66 229v77h535v-77h-535z" />
    <glyph glyph-name="eth" unicode="&#xf0;" horiz-adv-x="438" 
d="M191 77c75 0 108 161 108 222c0 49 -23 80 -59 80c-85 0 -111 -172 -111 -223c0 -52 21 -79 62 -79zM159 635l65 63c33 -35 59 -69 82 -112l70 46l13 -19l-73 -49c28 -65 40 -123 40 -193c0 -185 -99 -383 -226 -383c-71 0 -125 65 -125 151c0 159 141 276 235 276
c16 0 35 -4 52 -11c-5 39 -21 85 -40 118l-71 -47l-10 19l70 47c-23 39 -44 64 -82 94z" />
    <glyph glyph-name="multiply" unicode="&#xd7;" horiz-adv-x="668" 
d="M280 267l-194 194l54 54l194 -194l194 194l55 -54l-194 -194l192 -192l-54 -54l-192 192l-194 -193l-54 54z" />
    <glyph glyph-name="copyright" unicode="&#xa9;" horiz-adv-x="747" 
d="M518 555h19v-129h-19c-12 65 -58 105 -120 105c-80 0 -126 -65 -126 -177c0 -70 12 -116 38 -144c23 -25 54 -39 86 -39c49 0 89 21 127 68v-35c-39 -41 -91 -62 -155 -62c-121 0 -206 82 -206 199c0 124 91 215 215 215c32 0 56 -5 96 -20c13 -5 17 -6 23 -6
c13 0 20 8 22 25zM373 692c192 0 347 -155 347 -346s-155 -346 -347 -346c-191 0 -346 155 -346 346s155 346 346 346zM373 649c-167 0 -302 -136 -302 -303s135 -303 302 -303c168 0 303 136 303 303s-135 303 -303 303z" />
    <glyph glyph-name="Aacute" unicode="&#xc1;" horiz-adv-x="677" 
d="M369 196c18 160 69 318 177 438c-30 16 -63 24 -97 24c-200 0 -288 -314 -288 -443c0 -73 31 -124 76 -124c41 0 81 33 132 105zM688 164v-56c-78 -83 -142 -120 -206 -120c-76 0 -112 60 -116 141c-88 -106 -138 -141 -202 -141c-89 0 -147 83 -147 210
c0 144 84 498 460 498c77 0 136 -9 200 -30v-32c-16 -21 -28 -35 -33 -43c-71 -104 -138 -326 -138 -428c0 -52 22 -82 60 -82c33 0 73 26 122 83zM447 749l-30 10c50 59 79 104 100 160l112 12c-18 -70 -63 -116 -182 -182z" />
    <glyph glyph-name="Acircumflex" unicode="&#xc2;" horiz-adv-x="677" 
d="M369 196c18 160 69 318 177 438c-30 16 -63 24 -97 24c-200 0 -288 -314 -288 -443c0 -73 31 -124 76 -124c41 0 81 33 132 105zM688 164v-56c-78 -83 -142 -120 -206 -120c-76 0 -112 60 -116 141c-88 -106 -138 -141 -202 -141c-89 0 -147 83 -147 210
c0 144 84 498 460 498c77 0 136 -9 200 -30v-32c-16 -21 -28 -35 -33 -43c-71 -104 -138 -326 -138 -428c0 -52 22 -82 60 -82c33 0 73 26 122 83zM274 746l5 24c64 46 104 88 151 163l105 19c0 -98 6 -137 46 -185l-4 -19c-55 16 -84 43 -124 114
c-59 -67 -94 -89 -179 -116z" />
    <glyph glyph-name="Adieresis" unicode="&#xc4;" horiz-adv-x="677" 
d="M369 196c18 160 69 318 177 438c-30 16 -63 24 -97 24c-200 0 -288 -314 -288 -443c0 -73 31 -124 76 -124c41 0 81 33 132 105zM688 164v-56c-78 -83 -142 -120 -206 -120c-76 0 -112 60 -116 141c-88 -106 -138 -141 -202 -141c-89 0 -147 83 -147 210
c0 144 84 498 460 498c77 0 136 -9 200 -30v-32c-16 -21 -28 -35 -33 -43c-71 -104 -138 -326 -138 -428c0 -52 22 -82 60 -82c33 0 73 26 122 83zM333 900c47 -28 63 -35 93 -39c-6 -53 -29 -80 -65 -80c-22 0 -42 9 -70 30c19 31 32 57 42 89zM510 900
c43 -26 58 -33 91 -41c-4 -51 -26 -79 -61 -79c-19 0 -41 9 -75 30c22 36 35 62 45 90z" />
    <glyph glyph-name="Agrave" unicode="&#xc0;" horiz-adv-x="677" 
d="M369 196c18 160 69 318 177 438c-30 16 -63 24 -97 24c-200 0 -288 -314 -288 -443c0 -73 31 -124 76 -124c41 0 81 33 132 105zM688 164v-56c-78 -83 -142 -120 -206 -120c-76 0 -112 60 -116 141c-88 -106 -138 -141 -202 -141c-89 0 -147 83 -147 210
c0 144 84 498 460 498c77 0 136 -9 200 -30v-32c-16 -21 -28 -35 -33 -43c-71 -104 -138 -326 -138 -428c0 -52 22 -82 60 -82c33 0 73 26 122 83zM444 758l-23 -13c-82 50 -125 95 -164 171l113 19c10 -62 31 -111 74 -177z" />
    <glyph glyph-name="Aring" unicode="&#xc5;" horiz-adv-x="677" 
d="M369 196c18 160 69 318 177 438c-30 16 -63 24 -97 24c-200 0 -288 -314 -288 -443c0 -73 31 -124 76 -124c41 0 81 33 132 105zM688 164v-56c-78 -83 -142 -120 -206 -120c-76 0 -112 60 -116 141c-88 -106 -138 -141 -202 -141c-89 0 -147 83 -147 210
c0 144 84 498 460 498c77 0 136 -9 200 -30v-32c-16 -21 -28 -35 -33 -43c-71 -104 -138 -326 -138 -428c0 -52 22 -82 60 -82c33 0 73 26 122 83zM467 933c53 0 94 -40 94 -91s-41 -92 -92 -92s-92 41 -92 92c0 49 41 91 90 91zM470 898c-31 0 -57 -25 -57 -56
s25 -56 56 -56s57 25 57 56c0 30 -26 56 -56 56z" />
    <glyph glyph-name="Atilde" unicode="&#xc3;" horiz-adv-x="677" 
d="M369 196c18 160 69 318 177 438c-30 16 -63 24 -97 24c-200 0 -288 -314 -288 -443c0 -73 31 -124 76 -124c41 0 81 33 132 105zM688 164v-56c-78 -83 -142 -120 -206 -120c-76 0 -112 60 -116 141c-88 -106 -138 -141 -202 -141c-89 0 -147 83 -147 210
c0 144 84 498 460 498c77 0 136 -9 200 -30v-32c-16 -21 -28 -35 -33 -43c-71 -104 -138 -326 -138 -428c0 -52 22 -82 60 -82c33 0 73 26 122 83zM321 773l-27 17c25 63 63 95 113 95c22 0 46 -7 80 -24c24 -12 38 -17 50 -17c25 0 42 12 55 38l28 -24
c-33 -67 -65 -93 -113 -93c-22 0 -39 5 -71 23c-28 15 -44 20 -61 20c-23 0 -41 -11 -54 -35z" />
    <glyph glyph-name="Ccedilla" unicode="&#xc7;" horiz-adv-x="563" 
d="M189 -218l7 39c26 0 102 0 102 59c0 28 -19 44 -53 45c26 26 41 41 58 63c-172 1 -275 110 -275 262c0 250 201 446 368 446c94 0 160 -62 160 -153c0 -118 -83 -218 -180 -218c-51 0 -87 29 -87 70c0 18 8 35 21 49c11 -20 24 -29 43 -29c53 0 106 79 106 156
c0 54 -27 88 -69 88c-97 0 -217 -204 -217 -371c0 -136 85 -233 205 -233c71 0 126 29 196 109v-56c-38 -38 -100 -99 -216 -115l-22 -26c43 -8 65 -32 65 -72c0 -31 -15 -55 -46 -76c-54 -37 -111 -37 -166 -37z" />
    <glyph glyph-name="Eacute" unicode="&#xc9;" 
d="M532 164v-56c-86 -84 -165 -119 -270 -119c-141 0 -233 74 -233 186c0 54 22 101 62 137c39 34 77 51 150 67c-64 24 -104 67 -104 133c0 101 110 184 245 184c128 0 138 -78 138 -81c0 -19 -45 -76 -60 -76c-9 0 -15 11 -19 37c-8 48 -26 83 -67 83
c-56 0 -109 -73 -109 -151c0 -37 8 -94 92 -94c17 0 26 0 26 -10c0 -16 -8 -63 -26 -63c-9 0 -36 5 -61 5c-70 0 -126 -65 -126 -145c0 -87 65 -150 153 -150c73 0 150 40 209 113zM339 749l-30 10c50 59 79 104 100 160l112 12c-18 -70 -63 -116 -182 -182z" />
    <glyph glyph-name="Ecircumflex" unicode="&#xca;" 
d="M532 164v-56c-86 -84 -165 -119 -270 -119c-141 0 -233 74 -233 186c0 54 22 101 62 137c39 34 77 51 150 67c-64 24 -104 67 -104 133c0 101 110 184 245 184c128 0 138 -78 138 -81c0 -19 -45 -76 -60 -76c-9 0 -15 11 -19 37c-8 48 -26 83 -67 83
c-56 0 -109 -73 -109 -151c0 -37 8 -94 92 -94c17 0 26 0 26 -10c0 -16 -8 -63 -26 -63c-9 0 -36 5 -61 5c-70 0 -126 -65 -126 -145c0 -87 65 -150 153 -150c73 0 150 40 209 113zM196 746l5 24c64 46 104 88 151 163l105 19c0 -98 6 -137 46 -185l-4 -19
c-55 16 -84 43 -124 114c-59 -67 -94 -89 -179 -116z" />
    <glyph glyph-name="Edieresis" unicode="&#xcb;" 
d="M532 164v-56c-86 -84 -165 -119 -270 -119c-141 0 -233 74 -233 186c0 54 22 101 62 137c39 34 77 51 150 67c-64 24 -104 67 -104 133c0 101 110 184 245 184c128 0 138 -78 138 -81c0 -19 -45 -76 -60 -76c-9 0 -15 11 -19 37c-8 48 -26 83 -67 83
c-56 0 -109 -73 -109 -151c0 -37 8 -94 92 -94c17 0 26 0 26 -10c0 -16 -8 -63 -26 -63c-9 0 -36 5 -61 5c-70 0 -126 -65 -126 -145c0 -87 65 -150 153 -150c73 0 150 40 209 113zM240 900c47 -28 63 -35 93 -39c-6 -53 -29 -80 -65 -80c-22 0 -42 9 -70 30
c19 31 32 57 42 89zM417 900c43 -26 58 -33 91 -41c-4 -51 -26 -79 -61 -79c-19 0 -41 9 -75 30c22 36 35 62 45 90z" />
    <glyph glyph-name="Egrave" unicode="&#xc8;" 
d="M532 164v-56c-86 -84 -165 -119 -270 -119c-141 0 -233 74 -233 186c0 54 22 101 62 137c39 34 77 51 150 67c-64 24 -104 67 -104 133c0 101 110 184 245 184c128 0 138 -78 138 -81c0 -19 -45 -76 -60 -76c-9 0 -15 11 -19 37c-8 48 -26 83 -67 83
c-56 0 -109 -73 -109 -151c0 -37 8 -94 92 -94c17 0 26 0 26 -10c0 -16 -8 -63 -26 -63c-9 0 -36 5 -61 5c-70 0 -126 -65 -126 -145c0 -87 65 -150 153 -150c73 0 150 40 209 113zM361 758l-23 -13c-82 50 -125 95 -164 171l113 19c10 -62 31 -111 74 -177z" />
    <glyph glyph-name="Iacute" unicode="&#xcd;" horiz-adv-x="604" 
d="M285 450c-3 -25 -34 -57 -55 -57c-27 0 -52 42 -52 86c0 98 116 217 212 217c16 0 30 -2 56 -12c27 -9 40 -12 57 -12c19 0 32 4 50 17c8 5 13 7 17 7c7 0 32 -11 32 -24c0 -5 -1 -6 -26 -34c-58 -63 -67 -129 -86 -253c-13 -90 -30 -165 -45 -202
c-66 -168 -185 -194 -255 -194c-115 0 -166 69 -166 100c0 26 69 79 81 79c21 0 21 -18 21 -46c0 -57 28 -95 70 -95c95 0 119 148 131 225c33 204 77 254 191 362c-31 -13 -61 -20 -87 -20c-14 0 -29 3 -55 12c-22 9 -34 11 -46 11c-49 0 -92 -43 -92 -92
c0 -22 9 -39 31 -54c12 -9 14 -12 16 -21zM436 749l-30 10c50 59 79 104 100 160l112 12c-18 -70 -63 -116 -182 -182z" />
    <glyph glyph-name="Icircumflex" unicode="&#xce;" horiz-adv-x="604" 
d="M285 450c-3 -25 -34 -57 -55 -57c-27 0 -52 42 -52 86c0 98 116 217 212 217c16 0 30 -2 56 -12c27 -9 40 -12 57 -12c19 0 32 4 50 17c8 5 13 7 17 7c7 0 32 -11 32 -24c0 -5 -1 -6 -26 -34c-58 -63 -67 -129 -86 -253c-13 -90 -30 -165 -45 -202
c-66 -168 -185 -194 -255 -194c-115 0 -166 69 -166 100c0 26 69 79 81 79c21 0 21 -18 21 -46c0 -57 28 -95 70 -95c95 0 119 148 131 225c33 204 77 254 191 362c-31 -13 -61 -20 -87 -20c-14 0 -29 3 -55 12c-22 9 -34 11 -46 11c-49 0 -92 -43 -92 -92
c0 -22 9 -39 31 -54c12 -9 14 -12 16 -21zM253 746l5 24c64 46 104 88 151 163l105 19c0 -98 6 -137 46 -185l-4 -19c-55 16 -84 43 -124 114c-59 -67 -94 -89 -179 -116z" />
    <glyph glyph-name="Idieresis" unicode="&#xcf;" horiz-adv-x="604" 
d="M285 450c-3 -25 -34 -57 -55 -57c-27 0 -52 42 -52 86c0 98 116 217 212 217c16 0 30 -2 56 -12c27 -9 40 -12 57 -12c19 0 32 4 50 17c8 5 13 7 17 7c7 0 32 -11 32 -24c0 -5 -1 -6 -26 -34c-58 -63 -67 -129 -86 -253c-13 -90 -30 -165 -45 -202
c-66 -168 -185 -194 -255 -194c-115 0 -166 69 -166 100c0 26 69 79 81 79c21 0 21 -18 21 -46c0 -57 28 -95 70 -95c95 0 119 148 131 225c33 204 77 254 191 362c-31 -13 -61 -20 -87 -20c-14 0 -29 3 -55 12c-22 9 -34 11 -46 11c-49 0 -92 -43 -92 -92
c0 -22 9 -39 31 -54c12 -9 14 -12 16 -21zM327 900c47 -28 63 -35 93 -39c-6 -53 -29 -80 -65 -80c-22 0 -42 9 -70 30c19 31 32 57 42 89zM504 900c43 -26 58 -33 91 -41c-4 -51 -26 -79 -61 -79c-19 0 -41 9 -75 30c22 36 35 62 45 90z" />
    <glyph glyph-name="Igrave" unicode="&#xcc;" horiz-adv-x="604" 
d="M285 450c-3 -25 -34 -57 -55 -57c-27 0 -52 42 -52 86c0 98 116 217 212 217c16 0 30 -2 56 -12c27 -9 40 -12 57 -12c19 0 32 4 50 17c8 5 13 7 17 7c7 0 32 -11 32 -24c0 -5 -1 -6 -26 -34c-58 -63 -67 -129 -86 -253c-13 -90 -30 -165 -45 -202
c-66 -168 -185 -194 -255 -194c-115 0 -166 69 -166 100c0 26 69 79 81 79c21 0 21 -18 21 -46c0 -57 28 -95 70 -95c95 0 119 148 131 225c33 204 77 254 191 362c-31 -13 -61 -20 -87 -20c-14 0 -29 3 -55 12c-22 9 -34 11 -46 11c-49 0 -92 -43 -92 -92
c0 -22 9 -39 31 -54c12 -9 14 -12 16 -21zM438 758l-23 -13c-82 50 -125 95 -164 171l113 19c10 -62 31 -111 74 -177z" />
    <glyph glyph-name="Ntilde" unicode="&#xd1;" horiz-adv-x="885" 
d="M588 338c22 -121 26 -162 30 -203c38 98 60 201 80 304c17 90 50 257 150 257c27 0 40 -15 40 -46c0 -33 -10 -45 -45 -52c-89 -11 -99 -121 -129 -255l-15 -68c-40 -170 -95 -264 -100 -271c-6 -6 -9 -7 -28 -9l-53 -6c-13 -1 -20 0 -21 13c-10 127 0 94 -32 250
c-24 124 -32 177 -40 280c-9 -18 -15 -41 -72 -251c-32 -112 -82 -292 -216 -292c-73 0 -104 61 -104 84c0 22 65 80 83 80c12 0 17 -10 20 -36c6 -53 31 -67 49 -67c70 0 125 210 143 277l15 59c32 121 58 209 66 232l16 46c7 20 8 21 36 25l51 7c29 2 35 2 35 -24
c0 -109 25 -245 41 -334zM505 773l-27 17c25 63 63 95 113 95c22 0 46 -7 80 -24c24 -12 38 -17 50 -17c25 0 42 12 55 38l28 -24c-33 -67 -65 -93 -113 -93c-22 0 -39 5 -71 23c-28 15 -44 20 -61 20c-23 0 -41 -11 -54 -35z" />
    <glyph glyph-name="Oacute" unicode="&#xd3;" horiz-adv-x="635" 
d="M386 696v-8c-22 -22 -40 -40 -50 -52c-99 -110 -161 -263 -161 -405c0 -95 40 -154 105 -154c39 0 78 20 115 58c113 117 191 291 191 425c0 57 -20 94 -51 94c-64 0 -115 -123 -115 -178c0 -24 11 -37 33 -40c11 -1 14 -4 14 -13c0 -29 -36 -63 -68 -63
c-40 0 -69 40 -69 93c0 113 104 243 194 243c61 0 98 -51 98 -135c0 -254 -236 -572 -426 -572c-94 0 -160 87 -160 209c0 252 200 467 257 485c33 11 67 13 93 13zM446 749l-30 10c50 59 79 104 100 160l112 12c-18 -70 -63 -116 -182 -182z" />
    <glyph glyph-name="Ocircumflex" unicode="&#xd4;" horiz-adv-x="635" 
d="M386 696v-8c-22 -22 -40 -40 -50 -52c-99 -110 -161 -263 -161 -405c0 -95 40 -154 105 -154c39 0 78 20 115 58c113 117 191 291 191 425c0 57 -20 94 -51 94c-64 0 -115 -123 -115 -178c0 -24 11 -37 33 -40c11 -1 14 -4 14 -13c0 -29 -36 -63 -68 -63
c-40 0 -69 40 -69 93c0 113 104 243 194 243c61 0 98 -51 98 -135c0 -254 -236 -572 -426 -572c-94 0 -160 87 -160 209c0 252 200 467 257 485c33 11 67 13 93 13zM258 746l5 24c64 46 104 88 151 163l105 19c0 -98 6 -137 46 -185l-4 -19c-55 16 -84 43 -124 114
c-59 -67 -94 -89 -179 -116z" />
    <glyph glyph-name="Odieresis" unicode="&#xd6;" horiz-adv-x="635" 
d="M386 696v-8c-22 -22 -40 -40 -50 -52c-99 -110 -161 -263 -161 -405c0 -95 40 -154 105 -154c39 0 78 20 115 58c113 117 191 291 191 425c0 57 -20 94 -51 94c-64 0 -115 -123 -115 -178c0 -24 11 -37 33 -40c11 -1 14 -4 14 -13c0 -29 -36 -63 -68 -63
c-40 0 -69 40 -69 93c0 113 104 243 194 243c61 0 98 -51 98 -135c0 -254 -236 -572 -426 -572c-94 0 -160 87 -160 209c0 252 200 467 257 485c33 11 67 13 93 13zM312 900c47 -28 63 -35 93 -39c-6 -53 -29 -80 -65 -80c-22 0 -42 9 -70 30c19 31 32 57 42 89zM489 900
c43 -26 58 -33 91 -41c-4 -51 -26 -79 -61 -79c-19 0 -41 9 -75 30c22 36 35 62 45 90z" />
    <glyph glyph-name="Ograve" unicode="&#xd2;" horiz-adv-x="635" 
d="M386 696v-8c-22 -22 -40 -40 -50 -52c-99 -110 -161 -263 -161 -405c0 -95 40 -154 105 -154c39 0 78 20 115 58c113 117 191 291 191 425c0 57 -20 94 -51 94c-64 0 -115 -123 -115 -178c0 -24 11 -37 33 -40c11 -1 14 -4 14 -13c0 -29 -36 -63 -68 -63
c-40 0 -69 40 -69 93c0 113 104 243 194 243c61 0 98 -51 98 -135c0 -254 -236 -572 -426 -572c-94 0 -160 87 -160 209c0 252 200 467 257 485c33 11 67 13 93 13zM418 758l-23 -13c-82 50 -125 95 -164 171l113 19c10 -62 31 -111 74 -177z" />
    <glyph glyph-name="Otilde" unicode="&#xd5;" horiz-adv-x="635" 
d="M386 696v-8c-22 -22 -40 -40 -50 -52c-99 -110 -161 -263 -161 -405c0 -95 40 -154 105 -154c39 0 78 20 115 58c113 117 191 291 191 425c0 57 -20 94 -51 94c-64 0 -115 -123 -115 -178c0 -24 11 -37 33 -40c11 -1 14 -4 14 -13c0 -29 -36 -63 -68 -63
c-40 0 -69 40 -69 93c0 113 104 243 194 243c61 0 98 -51 98 -135c0 -254 -236 -572 -426 -572c-94 0 -160 87 -160 209c0 252 200 467 257 485c33 11 67 13 93 13zM305 773l-27 17c25 63 63 95 113 95c22 0 46 -7 80 -24c24 -12 38 -17 50 -17c25 0 42 12 55 38l28 -24
c-33 -67 -65 -93 -113 -93c-22 0 -39 5 -71 23c-28 15 -44 20 -61 20c-23 0 -41 -11 -54 -35z" />
    <glyph glyph-name="Scaron" unicode="&#x160;" horiz-adv-x="563" 
d="M458 514h-9c-7 3 -10 9 -12 29c-7 67 -50 114 -105 114c-52 0 -94 -43 -94 -95c0 -126 225 -201 225 -355c0 -117 -117 -219 -252 -219c-128 0 -192 80 -192 102c0 19 59 113 64 113c21 -1 29 -11 31 -40c4 -41 11 -136 114 -136c69 0 129 55 129 119
c0 114 -212 176 -212 347c0 80 63 203 209 203c109 0 167 -67 167 -88c0 -17 -32 -57 -63 -94zM270 931l5 20c53 -20 87 -52 123 -114c61 63 111 94 180 112l-6 -24c-67 -47 -102 -84 -151 -161l-106 -17c2 82 -1 133 -45 184z" />
    <glyph glyph-name="Uacute" unicode="&#xda;" horiz-adv-x="760" 
d="M771 164v-56c-76 -81 -136 -119 -191 -119c-33 0 -67 20 -87 50c-19 29 -25 57 -24 114c-35 -66 -96 -164 -194 -164c-71 0 -117 58 -117 149c0 52 17 122 60 244c21 61 50 149 50 193c0 46 -23 76 -57 76c-52 0 -111 -75 -111 -141c0 -29 11 -54 33 -74
c9 -8 12 -13 12 -18c0 -21 -36 -63 -60 -63c-27 0 -56 46 -56 92c0 124 107 249 214 249c84 0 141 -71 141 -176c0 -65 -16 -137 -58 -254c-19 -53 -40 -114 -40 -151c0 -33 16 -54 43 -54c71 0 129 152 154 241c33 119 63 238 103 355c9 27 10 27 53 31l70 8
c9 0 13 -1 13 -7l-23 -83c-23 -79 -105 -400 -105 -472c0 -43 18 -71 45 -71c38 0 75 39 132 101zM489 749l-30 10c50 59 79 104 100 160l112 12c-18 -70 -63 -116 -182 -182z" />
    <glyph glyph-name="Ucircumflex" unicode="&#xdb;" horiz-adv-x="760" 
d="M771 164v-56c-76 -81 -136 -119 -191 -119c-33 0 -67 20 -87 50c-19 29 -25 57 -24 114c-35 -66 -96 -164 -194 -164c-71 0 -117 58 -117 149c0 52 17 122 60 244c21 61 50 149 50 193c0 46 -23 76 -57 76c-52 0 -111 -75 -111 -141c0 -29 11 -54 33 -74
c9 -8 12 -13 12 -18c0 -21 -36 -63 -60 -63c-27 0 -56 46 -56 92c0 124 107 249 214 249c84 0 141 -71 141 -176c0 -65 -16 -137 -58 -254c-19 -53 -40 -114 -40 -151c0 -33 16 -54 43 -54c71 0 129 152 154 241c33 119 63 238 103 355c9 27 10 27 53 31l70 8
c9 0 13 -1 13 -7l-23 -83c-23 -79 -105 -400 -105 -472c0 -43 18 -71 45 -71c38 0 75 39 132 101zM311 746l5 24c64 46 104 88 151 163l105 19c0 -98 6 -137 46 -185l-4 -19c-55 16 -84 43 -124 114c-59 -67 -94 -89 -179 -116z" />
    <glyph glyph-name="Udieresis" unicode="&#xdc;" horiz-adv-x="760" 
d="M771 164v-56c-76 -81 -136 -119 -191 -119c-33 0 -67 20 -87 50c-19 29 -25 57 -24 114c-35 -66 -96 -164 -194 -164c-71 0 -117 58 -117 149c0 52 17 122 60 244c21 61 50 149 50 193c0 46 -23 76 -57 76c-52 0 -111 -75 -111 -141c0 -29 11 -54 33 -74
c9 -8 12 -13 12 -18c0 -21 -36 -63 -60 -63c-27 0 -56 46 -56 92c0 124 107 249 214 249c84 0 141 -71 141 -176c0 -65 -16 -137 -58 -254c-19 -53 -40 -114 -40 -151c0 -33 16 -54 43 -54c71 0 129 152 154 241c33 119 63 238 103 355c9 27 10 27 53 31l70 8
c9 0 13 -1 13 -7l-23 -83c-23 -79 -105 -400 -105 -472c0 -43 18 -71 45 -71c38 0 75 39 132 101zM360 900c47 -28 63 -35 93 -39c-6 -53 -29 -80 -65 -80c-22 0 -42 9 -70 30c19 31 32 57 42 89zM537 900c43 -26 58 -33 91 -41c-4 -51 -26 -79 -61 -79c-19 0 -41 9 -75 30
c22 36 35 62 45 90z" />
    <glyph glyph-name="Ugrave" unicode="&#xd9;" horiz-adv-x="760" 
d="M771 164v-56c-76 -81 -136 -119 -191 -119c-33 0 -67 20 -87 50c-19 29 -25 57 -24 114c-35 -66 -96 -164 -194 -164c-71 0 -117 58 -117 149c0 52 17 122 60 244c21 61 50 149 50 193c0 46 -23 76 -57 76c-52 0 -111 -75 -111 -141c0 -29 11 -54 33 -74
c9 -8 12 -13 12 -18c0 -21 -36 -63 -60 -63c-27 0 -56 46 -56 92c0 124 107 249 214 249c84 0 141 -71 141 -176c0 -65 -16 -137 -58 -254c-19 -53 -40 -114 -40 -151c0 -33 16 -54 43 -54c71 0 129 152 154 241c33 119 63 238 103 355c9 27 10 27 53 31l70 8
c9 0 13 -1 13 -7l-23 -83c-23 -79 -105 -400 -105 -472c0 -43 18 -71 45 -71c38 0 75 39 132 101zM456 758l-23 -13c-82 50 -125 95 -164 171l113 19c10 -62 31 -111 74 -177z" />
    <glyph glyph-name="Yacute" unicode="&#xdd;" horiz-adv-x="760" 
d="M451 -44c-93 -31 -158 -85 -158 -130c0 -24 19 -42 44 -42c47 0 80 50 114 172zM735 586l-76 -331c-12 -53 -19 -81 -52 -202c65 22 111 47 164 111v-56c-38 -45 -88 -72 -179 -101c-81 -234 -205 -259 -254 -259c-50 0 -82 29 -82 74c0 70 67 128 207 177l11 46
c17 69 47 190 60 235l28 93c-40 -78 -146 -378 -303 -378c-66 0 -110 56 -110 138c0 53 16 123 59 247c23 66 51 155 51 199c0 43 -25 75 -60 75c-54 0 -110 -72 -110 -140c0 -32 10 -55 33 -75c9 -8 12 -12 12 -17c0 -16 -29 -66 -58 -66c-28 0 -58 47 -58 90
c0 99 84 253 215 253c84 0 142 -72 142 -176c0 -65 -16 -138 -60 -260c-20 -56 -41 -123 -41 -162c0 -28 12 -44 32 -44c69 0 173 196 246 392c41 108 58 164 74 218c4 15 11 19 34 22c15 2 89 10 90 10c8 0 11 -2 11 -7zM479 749l-30 10c50 59 79 104 100 160l112 12
c-18 -70 -63 -116 -182 -182z" />
    <glyph glyph-name="Ydieresis" unicode="&#x178;" horiz-adv-x="760" 
d="M451 -44c-93 -31 -158 -85 -158 -130c0 -24 19 -42 44 -42c47 0 80 50 114 172zM735 586l-76 -331c-12 -53 -19 -81 -52 -202c65 22 111 47 164 111v-56c-38 -45 -88 -72 -179 -101c-81 -234 -205 -259 -254 -259c-50 0 -82 29 -82 74c0 70 67 128 207 177l11 46
c17 69 47 190 60 235l28 93c-40 -78 -146 -378 -303 -378c-66 0 -110 56 -110 138c0 53 16 123 59 247c23 66 51 155 51 199c0 43 -25 75 -60 75c-54 0 -110 -72 -110 -140c0 -32 10 -55 33 -75c9 -8 12 -12 12 -17c0 -16 -29 -66 -58 -66c-28 0 -58 47 -58 90
c0 99 84 253 215 253c84 0 142 -72 142 -176c0 -65 -16 -138 -60 -260c-20 -56 -41 -123 -41 -162c0 -28 12 -44 32 -44c69 0 173 196 246 392c41 108 58 164 74 218c4 15 11 19 34 22c15 2 89 10 90 10c8 0 11 -2 11 -7zM380 900c47 -28 63 -35 93 -39
c-6 -53 -29 -80 -65 -80c-22 0 -42 9 -70 30c19 31 32 57 42 89zM557 900c43 -26 58 -33 91 -41c-4 -51 -26 -79 -61 -79c-19 0 -41 9 -75 30c22 36 35 62 45 90z" />
    <glyph glyph-name="Zcaron" unicode="&#x17d;" horiz-adv-x="563" 
d="M317 405l33 35c81 86 104 117 121 143c-24 -12 -45 -17 -76 -17c-29 0 -54 4 -102 15c-40 9 -60 12 -79 12c-51 0 -87 -27 -87 -65c0 -19 9 -34 30 -52c14 -11 19 -18 19 -27c0 -20 -46 -56 -58 -56c-22 0 -48 41 -48 76c0 110 117 228 225 228c43 0 129 -27 177 -27
c26 0 42 6 60 20c5 5 9 6 12 6c11 0 18 0 18 -8c0 -37 -43 -112 -110 -190c-36 -42 -219 -238 -258 -284c-9 -10 -44 -51 -69 -96c58 17 69 20 109 20c39 0 67 -6 125 -26c48 -17 72 -23 98 -23c37 0 66 18 117 75v-56c-90 -86 -157 -119 -239 -119c-30 0 -56 6 -105 26
c-48 20 -74 26 -103 26c-34 0 -49 -9 -57 -36c-4 -12 -8 -16 -16 -16c-28 0 -35 0 -35 12c0 5 3 12 10 29c46 112 153 231 288 375zM250 931l5 20c53 -20 87 -52 123 -114c61 63 111 94 180 112l-6 -24c-67 -47 -102 -84 -151 -161l-106 -17c2 82 -1 133 -45 184z" />
    <glyph glyph-name="aacute" unicode="&#xe1;" 
d="M265 376c-72 0 -136 -154 -136 -236c0 -35 19 -59 46 -59c72 0 135 155 135 237c0 36 -17 58 -45 58zM532 164v-56c-84 -79 -126 -119 -176 -119c-75 0 -74 106 -73 136c-67 -96 -118 -136 -175 -136c-58 0 -103 61 -103 139c0 168 165 288 255 288c40 0 69 -19 85 -56
l100 55h27l-43 -143c-11 -36 -33 -118 -33 -148c0 -27 12 -42 30 -42c23 0 43 19 106 82zM304 467l-30 10c50 59 79 104 100 160l112 12c-18 -70 -63 -116 -182 -182z" />
    <glyph glyph-name="acircumflex" unicode="&#xe2;" 
d="M265 376c-72 0 -136 -154 -136 -236c0 -35 19 -59 46 -59c72 0 135 155 135 237c0 36 -17 58 -45 58zM532 164v-56c-84 -79 -126 -119 -176 -119c-75 0 -74 106 -73 136c-67 -96 -118 -136 -175 -136c-58 0 -103 61 -103 139c0 168 165 288 255 288c40 0 69 -19 85 -56
l100 55h27l-43 -143c-11 -36 -33 -118 -33 -148c0 -27 12 -42 30 -42c23 0 43 19 106 82zM136 464l5 24c64 46 104 88 151 163l105 19c0 -98 6 -137 46 -185l-4 -19c-55 16 -84 43 -124 114c-59 -67 -94 -89 -179 -116z" />
    <glyph glyph-name="adieresis" unicode="&#xe4;" 
d="M265 376c-72 0 -136 -154 -136 -236c0 -35 19 -59 46 -59c72 0 135 155 135 237c0 36 -17 58 -45 58zM532 164v-56c-84 -79 -126 -119 -176 -119c-75 0 -74 106 -73 136c-67 -96 -118 -136 -175 -136c-58 0 -103 61 -103 139c0 168 165 288 255 288c40 0 69 -19 85 -56
l100 55h27l-43 -143c-11 -36 -33 -118 -33 -148c0 -27 12 -42 30 -42c23 0 43 19 106 82zM195 618c47 -28 63 -35 93 -39c-6 -53 -29 -80 -65 -80c-22 0 -42 9 -70 30c19 31 32 57 42 89zM372 618c43 -26 58 -33 91 -41c-4 -51 -26 -79 -61 -79c-19 0 -41 9 -75 30
c22 36 35 62 45 90z" />
    <glyph glyph-name="agrave" unicode="&#xe0;" 
d="M265 376c-72 0 -136 -154 -136 -236c0 -35 19 -59 46 -59c72 0 135 155 135 237c0 36 -17 58 -45 58zM532 164v-56c-84 -79 -126 -119 -176 -119c-75 0 -74 106 -73 136c-67 -96 -118 -136 -175 -136c-58 0 -103 61 -103 139c0 168 165 288 255 288c40 0 69 -19 85 -56
l100 55h27l-43 -143c-11 -36 -33 -118 -33 -148c0 -27 12 -42 30 -42c23 0 43 19 106 82zM296 476l-23 -13c-82 50 -125 95 -164 171l113 19c10 -62 31 -111 74 -177z" />
    <glyph glyph-name="aring" unicode="&#xe5;" 
d="M265 376c-72 0 -136 -154 -136 -236c0 -35 19 -59 46 -59c72 0 135 155 135 237c0 36 -17 58 -45 58zM532 164v-56c-84 -79 -126 -119 -176 -119c-75 0 -74 106 -73 136c-67 -96 -118 -136 -175 -136c-58 0 -103 61 -103 139c0 168 165 288 255 288c40 0 69 -19 85 -56
l100 55h27l-43 -143c-11 -36 -33 -118 -33 -148c0 -27 12 -42 30 -42c23 0 43 19 106 82zM329 651c53 0 94 -40 94 -91s-41 -92 -92 -92s-92 41 -92 92c0 49 41 91 90 91zM332 616c-31 0 -57 -25 -57 -56s25 -56 56 -56s57 25 57 56c0 30 -26 56 -56 56z" />
    <glyph glyph-name="atilde" unicode="&#xe3;" 
d="M265 376c-72 0 -136 -154 -136 -236c0 -35 19 -59 46 -59c72 0 135 155 135 237c0 36 -17 58 -45 58zM532 164v-56c-84 -79 -126 -119 -176 -119c-75 0 -74 106 -73 136c-67 -96 -118 -136 -175 -136c-58 0 -103 61 -103 139c0 168 165 288 255 288c40 0 69 -19 85 -56
l100 55h27l-43 -143c-11 -36 -33 -118 -33 -148c0 -27 12 -42 30 -42c23 0 43 19 106 82zM168 491l-27 17c25 63 63 95 113 95c22 0 46 -7 80 -24c24 -12 38 -17 50 -17c25 0 42 12 55 38l28 -24c-33 -67 -65 -93 -113 -93c-22 0 -39 5 -71 23c-28 15 -44 20 -61 20
c-23 0 -41 -11 -54 -35z" />
    <glyph glyph-name="ccedilla" unicode="&#xe7;" horiz-adv-x="365" 
d="M47 -218l7 39c26 0 102 0 102 59c0 28 -19 44 -53 45c26 26 41 41 60 65c-3 -1 -7 -1 -10 -1c-85 0 -146 61 -146 146c0 139 121 280 240 280c58 0 98 -35 98 -87c0 -18 -6 -26 -24 -34l-57 -27c-6 -3 -12 -5 -15 -5c-5 0 -7 4 -7 10c0 8 6 43 6 52c0 29 -13 48 -33 48
c-49 0 -95 -84 -95 -173c0 -77 40 -127 102 -127c49 0 88 23 154 92v-56c-59 -57 -106 -91 -153 -107l-29 -34c43 -8 65 -32 65 -72c0 -31 -15 -55 -46 -76c-54 -37 -111 -37 -166 -37z" />
    <glyph glyph-name="eacute" unicode="&#xe9;" horiz-adv-x="365" 
d="M120 198c82 23 125 67 125 130c0 30 -12 47 -34 47c-37 0 -91 -60 -91 -177zM376 164v-56c-93 -90 -147 -119 -220 -119c-89 0 -148 61 -148 154c0 138 113 271 231 271c60 0 100 -34 100 -85c0 -94 -133 -139 -215 -164c12 -61 48 -95 102 -95c55 0 90 35 150 94z
M226 467l-30 10c50 59 79 104 100 160l112 12c-18 -70 -63 -116 -182 -182z" />
    <glyph glyph-name="ecircumflex" unicode="&#xea;" horiz-adv-x="365" 
d="M120 198c82 23 125 67 125 130c0 30 -12 47 -34 47c-37 0 -91 -60 -91 -177zM376 164v-56c-93 -90 -147 -119 -220 -119c-89 0 -148 61 -148 154c0 138 113 271 231 271c60 0 100 -34 100 -85c0 -94 -133 -139 -215 -164c12 -61 48 -95 102 -95c55 0 90 35 150 94z
M58 464l5 24c64 46 104 88 151 163l105 19c0 -98 6 -137 46 -185l-4 -19c-55 16 -84 43 -124 114c-59 -67 -94 -89 -179 -116z" />
    <glyph glyph-name="edieresis" unicode="&#xeb;" horiz-adv-x="365" 
d="M120 198c82 23 125 67 125 130c0 30 -12 47 -34 47c-37 0 -91 -60 -91 -177zM376 164v-56c-93 -90 -147 -119 -220 -119c-89 0 -148 61 -148 154c0 138 113 271 231 271c60 0 100 -34 100 -85c0 -94 -133 -139 -215 -164c12 -61 48 -95 102 -95c55 0 90 35 150 94z
M117 618c47 -28 63 -35 93 -39c-6 -53 -29 -80 -65 -80c-22 0 -42 9 -70 30c19 31 32 57 42 89zM294 618c43 -26 58 -33 91 -41c-4 -51 -26 -79 -61 -79c-19 0 -41 9 -75 30c22 36 35 62 45 90z" />
    <glyph glyph-name="egrave" unicode="&#xe8;" horiz-adv-x="365" 
d="M120 198c82 23 125 67 125 130c0 30 -12 47 -34 47c-37 0 -91 -60 -91 -177zM376 164v-56c-93 -90 -147 -119 -220 -119c-89 0 -148 61 -148 154c0 138 113 271 231 271c60 0 100 -34 100 -85c0 -94 -133 -139 -215 -164c12 -61 48 -95 102 -95c55 0 90 35 150 94z
M218 476l-23 -13c-82 50 -125 95 -164 171l113 19c10 -62 31 -111 74 -177z" />
    <glyph glyph-name="iacute" unicode="&#xed;" horiz-adv-x="240" 
d="M251 164v-56c-75 -77 -135 -120 -171 -120c-42 0 -74 48 -74 112c0 102 49 232 70 288l124 26h6l-49 -153c-20 -63 -30 -107 -30 -135c0 -21 10 -36 25 -36c31 0 56 27 99 74zM164 467l-30 10c50 59 79 104 100 160l112 12c-18 -70 -63 -116 -182 -182z" />
    <glyph glyph-name="icircumflex" unicode="&#xee;" horiz-adv-x="240" 
d="M251 164v-56c-75 -77 -135 -120 -171 -120c-42 0 -74 48 -74 112c0 102 49 232 70 288l124 26h6l-49 -153c-20 -63 -30 -107 -30 -135c0 -21 10 -36 25 -36c31 0 56 27 99 74zM-4 464l5 24c64 46 104 88 151 163l105 19c0 -98 6 -137 46 -185l-4 -19
c-55 16 -84 43 -124 114c-59 -67 -94 -89 -179 -116z" />
    <glyph glyph-name="idieresis" unicode="&#xef;" horiz-adv-x="240" 
d="M251 164v-56c-75 -77 -135 -120 -171 -120c-42 0 -74 48 -74 112c0 102 49 232 70 288l124 26h6l-49 -153c-20 -63 -30 -107 -30 -135c0 -21 10 -36 25 -36c31 0 56 27 99 74zM64 618c47 -28 63 -35 93 -39c-6 -53 -29 -80 -65 -80c-22 0 -42 9 -70 30c19 31 32 57 42 89
zM241 618c43 -26 58 -33 91 -41c-4 -51 -26 -79 -61 -79c-19 0 -41 9 -75 30c22 36 35 62 45 90z" />
    <glyph glyph-name="igrave" unicode="&#xec;" horiz-adv-x="240" 
d="M251 164v-56c-75 -77 -135 -120 -171 -120c-42 0 -74 48 -74 112c0 102 49 232 70 288l124 26h6l-49 -153c-20 -63 -30 -107 -30 -135c0 -21 10 -36 25 -36c31 0 56 27 99 74zM156 476l-23 -13c-82 50 -125 95 -164 171l113 19c10 -62 31 -111 74 -177z" />
    <glyph glyph-name="ntilde" unicode="&#xf1;" horiz-adv-x="479" 
d="M119 13l-108 -25c-2 29 -5 58 -5 98c0 101 21 184 77 307l119 23c-17 -46 -39 -109 -49 -159c77 85 148 158 211 158c33 0 58 -28 58 -66c0 -28 -15 -85 -42 -154c-18 -46 -29 -82 -29 -96c0 -18 9 -29 24 -29c34 0 102 78 115 94v-56c-78 -82 -138 -119 -193 -119
c-44 0 -73 33 -73 84c0 32 17 95 43 160c14 35 21 57 23 73c0 11 -4 16 -12 16c-28 0 -100 -86 -143 -138c-15 -76 -16 -113 -16 -171zM147 491l-27 17c25 63 63 95 113 95c22 0 46 -7 80 -24c24 -12 38 -17 50 -17c25 0 42 12 55 38l28 -24c-33 -67 -65 -93 -113 -93
c-22 0 -39 5 -71 23c-28 15 -44 20 -61 20c-23 0 -41 -11 -54 -35z" />
    <glyph glyph-name="oacute" unicode="&#xf3;" horiz-adv-x="438" 
d="M266 122c-31 39 -46 79 -46 124c0 55 20 94 68 135c-5 2 -11 3 -21 3c-103 0 -135 -138 -135 -222c0 -66 22 -104 59 -104c24 0 47 20 75 64zM449 164v-56c-34 -31 -67 -39 -85 -40c-26 1 -45 8 -70 27c-47 -71 -101 -106 -161 -106c-76 0 -127 61 -127 155
c0 149 121 271 268 271c89 0 89 -34 89 -61c0 -65 -16 -133 -50 -224c14 -13 31 -22 52 -23c18 1 42 10 84 57zM263 467l-30 10c50 59 79 104 100 160l112 12c-18 -70 -63 -116 -182 -182z" />
    <glyph glyph-name="ocircumflex" unicode="&#xf4;" horiz-adv-x="438" 
d="M266 122c-31 39 -46 79 -46 124c0 55 20 94 68 135c-5 2 -11 3 -21 3c-103 0 -135 -138 -135 -222c0 -66 22 -104 59 -104c24 0 47 20 75 64zM449 164v-56c-34 -31 -67 -39 -85 -40c-26 1 -45 8 -70 27c-47 -71 -101 -106 -161 -106c-76 0 -127 61 -127 155
c0 149 121 271 268 271c89 0 89 -34 89 -61c0 -65 -16 -133 -50 -224c14 -13 31 -22 52 -23c18 1 42 10 84 57zM80 464l5 24c64 46 104 88 151 163l105 19c0 -98 6 -137 46 -185l-4 -19c-55 16 -84 43 -124 114c-59 -67 -94 -89 -179 -116z" />
    <glyph glyph-name="odieresis" unicode="&#xf6;" horiz-adv-x="438" 
d="M266 122c-31 39 -46 79 -46 124c0 55 20 94 68 135c-5 2 -11 3 -21 3c-103 0 -135 -138 -135 -222c0 -66 22 -104 59 -104c24 0 47 20 75 64zM449 164v-56c-34 -31 -67 -39 -85 -40c-26 1 -45 8 -70 27c-47 -71 -101 -106 -161 -106c-76 0 -127 61 -127 155
c0 149 121 271 268 271c89 0 89 -34 89 -61c0 -65 -16 -133 -50 -224c14 -13 31 -22 52 -23c18 1 42 10 84 57zM154 618c47 -28 63 -35 93 -39c-6 -53 -29 -80 -65 -80c-22 0 -42 9 -70 30c19 31 32 57 42 89zM331 618c43 -26 58 -33 91 -41c-4 -51 -26 -79 -61 -79
c-19 0 -41 9 -75 30c22 36 35 62 45 90z" />
    <glyph glyph-name="ograve" unicode="&#xf2;" horiz-adv-x="438" 
d="M266 122c-31 39 -46 79 -46 124c0 55 20 94 68 135c-5 2 -11 3 -21 3c-103 0 -135 -138 -135 -222c0 -66 22 -104 59 -104c24 0 47 20 75 64zM449 164v-56c-34 -31 -67 -39 -85 -40c-26 1 -45 8 -70 27c-47 -71 -101 -106 -161 -106c-76 0 -127 61 -127 155
c0 149 121 271 268 271c89 0 89 -34 89 -61c0 -65 -16 -133 -50 -224c14 -13 31 -22 52 -23c18 1 42 10 84 57zM255 476l-23 -13c-82 50 -125 95 -164 171l113 19c10 -62 31 -111 74 -177z" />
    <glyph glyph-name="otilde" unicode="&#xf5;" horiz-adv-x="438" 
d="M266 122c-31 39 -46 79 -46 124c0 55 20 94 68 135c-5 2 -11 3 -21 3c-103 0 -135 -138 -135 -222c0 -66 22 -104 59 -104c24 0 47 20 75 64zM449 164v-56c-34 -31 -67 -39 -85 -40c-26 1 -45 8 -70 27c-47 -71 -101 -106 -161 -106c-76 0 -127 61 -127 155
c0 149 121 271 268 271c89 0 89 -34 89 -61c0 -65 -16 -133 -50 -224c14 -13 31 -22 52 -23c18 1 42 10 84 57zM112 491l-27 17c25 63 63 95 113 95c22 0 46 -7 80 -24c24 -12 38 -17 50 -17c25 0 42 12 55 38l28 -24c-33 -67 -65 -93 -113 -93c-22 0 -39 5 -71 23
c-28 15 -44 20 -61 20c-23 0 -41 -11 -54 -35z" />
    <glyph glyph-name="scaron" unicode="&#x161;" horiz-adv-x="406" 
d="M0 108v44c51 53 130 153 161 242c48 13 103 20 109 20c3 0 5 -1 5 -4s-1 -9 -4 -15c-5 -14 -8 -31 -8 -43c0 -18 6 -34 26 -63c25 -38 33 -61 33 -88c0 -100 -117 -213 -220 -213c-44 0 -88 28 -88 55c0 15 50 77 66 77c11 0 19 -11 26 -34c10 -33 22 -46 44 -46
c40 0 82 44 82 87c0 22 -8 43 -32 80c-26 40 -34 55 -45 88c-45 -71 -81 -117 -144 -187h-11zM132 649l5 20c53 -20 87 -52 123 -114c61 63 111 94 180 112l-6 -24c-67 -47 -102 -84 -151 -161l-106 -17c2 82 -1 133 -45 184z" />
    <glyph glyph-name="uacute" unicode="&#xfa;" 
d="M268 180l64 208l133 27c-57 -183 -80 -254 -80 -290c0 -29 12 -46 31 -46c23 0 49 18 96 66c9 8 12 12 20 19v-56c-92 -87 -142 -119 -186 -119c-56 0 -80 51 -80 114c-74 -81 -126 -115 -179 -115c-50 0 -82 44 -82 114s22 161 68 286l130 26c-11 -32 -80 -233 -80 -300
c0 -29 13 -47 35 -47c38 0 100 79 110 113zM304 467l-30 10c50 59 79 104 100 160l112 12c-18 -70 -63 -116 -182 -182z" />
    <glyph glyph-name="ucircumflex" unicode="&#xfb;" 
d="M268 180l64 208l133 27c-57 -183 -80 -254 -80 -290c0 -29 12 -46 31 -46c23 0 49 18 96 66c9 8 12 12 20 19v-56c-92 -87 -142 -119 -186 -119c-56 0 -80 51 -80 114c-74 -81 -126 -115 -179 -115c-50 0 -82 44 -82 114s22 161 68 286l130 26c-11 -32 -80 -233 -80 -300
c0 -29 13 -47 35 -47c38 0 100 79 110 113zM121 464l5 24c64 46 104 88 151 163l105 19c0 -98 6 -137 46 -185l-4 -19c-55 16 -84 43 -124 114c-59 -67 -94 -89 -179 -116z" />
    <glyph glyph-name="udieresis" unicode="&#xfc;" 
d="M268 180l64 208l133 27c-57 -183 -80 -254 -80 -290c0 -29 12 -46 31 -46c23 0 49 18 96 66c9 8 12 12 20 19v-56c-92 -87 -142 -119 -186 -119c-56 0 -80 51 -80 114c-74 -81 -126 -115 -179 -115c-50 0 -82 44 -82 114s22 161 68 286l130 26c-11 -32 -80 -233 -80 -300
c0 -29 13 -47 35 -47c38 0 100 79 110 113zM195 618c47 -28 63 -35 93 -39c-6 -53 -29 -80 -65 -80c-22 0 -42 9 -70 30c19 31 32 57 42 89zM372 618c43 -26 58 -33 91 -41c-4 -51 -26 -79 -61 -79c-19 0 -41 9 -75 30c22 36 35 62 45 90z" />
    <glyph glyph-name="ugrave" unicode="&#xf9;" 
d="M268 180l64 208l133 27c-57 -183 -80 -254 -80 -290c0 -29 12 -46 31 -46c23 0 49 18 96 66c9 8 12 12 20 19v-56c-92 -87 -142 -119 -186 -119c-56 0 -80 51 -80 114c-74 -81 -126 -115 -179 -115c-50 0 -82 44 -82 114s22 161 68 286l130 26c-11 -32 -80 -233 -80 -300
c0 -29 13 -47 35 -47c38 0 100 79 110 113zM296 476l-23 -13c-82 50 -125 95 -164 171l113 19c10 -62 31 -111 74 -177z" />
    <glyph glyph-name="yacute" unicode="&#xfd;" 
d="M207 -55c-78 -35 -125 -82 -125 -126c0 -20 11 -33 28 -33c35 0 69 55 97 159zM37 266l47 124l142 25l-61 -145c-10 -25 -42 -111 -42 -158c0 -28 11 -44 30 -44c41 0 100 74 134 169l56 153l133 25l-16 -46l-96 -289l-15 -47c87 42 124 68 183 131v-56
c-49 -46 -100 -77 -198 -123c-26 -72 -47 -113 -73 -149c-42 -56 -94 -87 -147 -87c-42 0 -69 27 -69 70c0 52 38 113 176 174l30 105c-64 -71 -113 -103 -162 -103c-51 0 -84 45 -84 113c0 45 13 109 32 158zM304 467l-30 10c50 59 79 104 100 160l112 12
c-18 -70 -63 -116 -182 -182z" />
    <glyph glyph-name="ydieresis" unicode="&#xff;" 
d="M207 -55c-78 -35 -125 -82 -125 -126c0 -20 11 -33 28 -33c35 0 69 55 97 159zM37 266l47 124l142 25l-61 -145c-10 -25 -42 -111 -42 -158c0 -28 11 -44 30 -44c41 0 100 74 134 169l56 153l133 25l-16 -46l-96 -289l-15 -47c87 42 124 68 183 131v-56
c-49 -46 -100 -77 -198 -123c-26 -72 -47 -113 -73 -149c-42 -56 -94 -87 -147 -87c-42 0 -69 27 -69 70c0 52 38 113 176 174l30 105c-64 -71 -113 -103 -162 -103c-51 0 -84 45 -84 113c0 45 13 109 32 158zM195 618c47 -28 63 -35 93 -39c-6 -53 -29 -80 -65 -80
c-22 0 -42 9 -70 30c19 31 32 57 42 89zM372 618c43 -26 58 -33 91 -41c-4 -51 -26 -79 -61 -79c-19 0 -41 9 -75 30c22 36 35 62 45 90z" />
    <glyph glyph-name="zcaron" unicode="&#x17e;" horiz-adv-x="479" 
d="M0 108v44c30 30 67 73 100 116c36 47 79 110 88 130c5 11 9 16 13 16l15 -2c36 -8 62 -11 97 -11c28 0 64 3 106 10c11 2 20 3 23 3c6 0 9 -1 9 -5c0 -5 -7 -19 -20 -38c-28 -40 -182 -222 -216 -265c9 1 26 2 32 2c19 0 107 -22 128 -22c41 0 59 18 115 78v-56
c-69 -75 -112 -120 -166 -120c-13 0 -34 5 -65 15c-37 12 -60 17 -78 17c-22 0 -38 -7 -53 -23c-5 -6 -9 -9 -12 -9c-31 0 -34 0 -34 4c0 21 213 267 252 318c-13 -3 -40 -6 -61 -6c-32 0 -59 5 -91 15c-68 -97 -112 -150 -171 -211h-11zM213 649l5 20
c53 -20 87 -52 123 -114c61 63 111 94 180 112l-6 -24c-67 -47 -102 -84 -151 -161l-106 -17c2 82 -1 133 -45 184z" />
    <glyph glyph-name="one.superior" unicode="&#xb9;" horiz-adv-x="339" 
d="M180 548l25 90c-10 -2 -50 -44 -74 -83c-2 1 -16 7 -16 8c0 15 43 65 87 102c34 28 41 30 75 30c9 0 13 -2 13 -7c0 -4 -1 -7 -3 -17l-64 -247c-16 -59 -30 -107 -36 -120c-6 -14 -11 -23 -77 -23c-8 0 -12 1 -12 5c0 5 3 14 8 25l17 50l38 119c3 8 10 33 19 68z" />
    <glyph glyph-name="two.superior" unicode="&#xb2;" horiz-adv-x="323" 
d="M258 385l15 -6c-22 -77 -40 -95 -90 -95c-37 0 -70 6 -105 6c-22 0 -53 -6 -54 -6c-2 0 -4 4 -4 7c0 37 28 78 95 137c80 71 108 117 108 173c0 38 -22 65 -55 65s-59 -26 -59 -58c0 -14 5 -23 18 -33c8 -6 10 -10 10 -14c0 -11 -40 -28 -55 -28c-14 0 -26 16 -26 34
c0 65 72 128 146 128c60 0 104 -40 104 -96c0 -73 -69 -121 -135 -164c-62 -43 -86 -62 -106 -89c23 6 41 9 64 9s54 -5 78 -5c30 0 39 6 51 35z" />
    <glyph glyph-name="three.superior" unicode="&#xb3;" horiz-adv-x="323" 
d="M160 480l-21 -2c-6 0 -8 3 -8 10c0 23 5 23 27 23c51 0 81 45 81 97c0 38 -22 63 -58 63c-29 0 -55 -22 -55 -47c0 -4 9 -25 9 -30c0 -12 -38 -29 -48 -29c-8 0 -15 13 -15 27c0 54 63 103 133 103c63 0 105 -36 105 -89c0 -46 -30 -76 -100 -100c56 -26 78 -54 78 -99
c0 -74 -65 -125 -159 -125c-67 0 -108 30 -108 79c0 18 5 25 24 33c15 5 36 11 40 11c5 0 8 -4 8 -11c0 -4 0 -6 -2 -11c-5 -11 -9 -26 -9 -35c0 -26 23 -46 53 -46c61 0 75 80 75 108c0 41 -21 70 -50 70z" />
    <glyph glyph-name="Delta" unicode="&#x2206;" horiz-adv-x="622" 
d="M549 0h-556l6 36l346 640l56 14l153 -654zM402 62l-99 443l-234 -443h333z" />
    <glyph glyph-name="Omega" unicode="&#x2126;" horiz-adv-x="682" 
d="M638 166l-52 -166h-237l-6 21c54 101 137 240 155 360c32 203 -19 271 -96 271c-79 0 -144 -58 -178 -274c-19 -118 12 -248 39 -357l-13 -21h-237l4 166l33 1c10 -58 23 -68 63 -68h87c-58 54 -143 136 -120 287c30 186 172 304 332 304c162 0 261 -113 232 -298
c-22 -139 -130 -223 -218 -293h98c37 0 52 9 80 68z" />
    <glyph glyph-name="uni03BC" unicode="&#x3bc;" horiz-adv-x="576" 
d="M55 112l95 329h125l-79 -272c-9 -26 -16 -48 -16 -74c0 -20 15 -35 34 -35c9 0 83 2 140 199l53 182h124l-88 -301c-2 -7 -16 -55 -16 -69c0 -15 12 -28 25 -28c16 0 37 25 55 69l18 -10c-27 -76 -69 -114 -130 -114c-49 0 -81 33 -81 82c0 10 1 26 3 42
c-53 -73 -97 -124 -168 -124c-36 0 -56 12 -75 43c-16 -50 -21 -77 -24 -132c-2 -46 -5 -113 -63 -113c-27 0 -48 22 -48 52c0 22 11 48 39 95c48 80 52 92 77 179z" />
    <glyph glyph-name="pi" unicode="&#x3c0;" horiz-adv-x="553" 
d="M536 467l28 -7c-12 -41 -39 -96 -54 -115c-17 -5 -37 -6 -60 -6c-16 -65 -25 -123 -35 -188c-9 -63 0 -86 23 -86c16 0 28 8 45 21l8 -27c-30 -40 -82 -72 -125 -72c-53 0 -95 28 -78 135c15 92 27 145 44 220c-44 -1 -79 1 -115 1l-2 -9c-36 -229 -94 -306 -114 -328
c-26 -11 -54 -17 -73 -19l-4 22c85 99 128 240 143 336c-56 1 -79 -10 -125 -36l-11 31c35 37 83 101 190 99c75 -1 166 -3 254 -3c32 0 43 7 61 31z" />
    <glyph glyph-name="Euro" unicode="&#x20ac;" horiz-adv-x="553" 
d="M567 609c0 -24 -57 -66 -76 -66c-15 0 -15 23 -16 32c-7 46 -32 84 -84 84c-110 0 -186 -178 -202 -256h274l-7 -36h-275c-3 -17 -6 -33 -7 -50h276l-7 -36h-270c2 -119 71 -226 200 -226c80 0 136 46 186 104v-56c-82 -81 -150 -115 -269 -115c-173 0 -272 125 -261 293
h-38l7 36h35c2 17 6 34 10 50h-52l7 36h55c38 131 175 293 345 293c53 0 169 -15 169 -87z" />
    <glyph glyph-name="afii61289" unicode="&#x2113;" horiz-adv-x="425" 
d="M369 139l21 -21c-53 -79 -119 -128 -200 -128c-55 0 -87 16 -104 40c-18 30 -26 55 -11 145l10 68l-58 -35l-8 31l73 48l22 139c22 139 43 189 89 240c38 42 81 64 119 64c68 0 93 -59 80 -137c-17 -113 -80 -188 -182 -277l-12 -79c-20 -126 -9 -169 48 -169
c44 0 81 34 113 71zM246 477l-17 -103c49 48 91 128 105 216c11 65 6 104 -19 104c-29 0 -41 -39 -69 -217z" />
    <glyph glyph-name="estimated" unicode="&#x212e;" horiz-adv-x="919" 
d="M886 332h-634c-3 0 -5 -1 -5 -5v-191c0 -9 3 -16 8 -22c62 -64 146 -105 240 -105c101 0 191 46 252 117h57c-70 -82 -184 -136 -310 -136c-216 0 -391 157 -391 351c0 195 175 352 391 352c217 0 392 -157 392 -352v-9zM742 357v193c0 8 -3 16 -9 22
c-62 61 -145 101 -238 101s-177 -41 -239 -104c-6 -6 -9 -14 -9 -24v-188c0 -2 2 -7 5 -7h486c3 0 4 5 4 7z" />
    <glyph glyph-name="partialdiff" unicode="&#x2202;" horiz-adv-x="526" 
d="M285 425h2c38 0 79 -16 101 -54c9 32 21 73 30 111c10 47 16 101 1 147c-12 36 -43 64 -97 64s-109 -34 -148 -63c-17 0 -38 60 -23 87c36 20 82 38 144 38c97 0 159 -54 191 -142c27 -78 24 -172 14 -236c-13 -80 -42 -171 -85 -237c-55 -88 -136 -150 -237 -150
c-108 0 -169 71 -150 193c11 70 49 131 86 169c44 43 107 73 171 73zM306 378h-1c-27 0 -57 -9 -90 -55c-36 -52 -65 -138 -77 -211c-9 -55 8 -86 49 -86c39 0 80 59 106 106c33 57 54 111 77 192c-6 22 -27 54 -64 54z" />
    <glyph glyph-name="product" unicode="&#x220f;" horiz-adv-x="754" 
d="M729 685v-33c-83 -7 -89 -17 -89 -96v-505c0 -84 7 -94 88 -101v-34h-287v34c66 6 70 13 70 101v556c0 32 -5 37 -37 37h-129c-30 0 -34 -4 -34 -34v-559c0 -82 0 -95 64 -101v-34h-281v34c80 7 88 17 88 101v505c0 80 -7 89 -91 96v33h638z" />
    <glyph glyph-name="summation" unicode="&#x2211;" horiz-adv-x="607" 
d="M587 122l-46 -214h-447v32l207 308l-204 404v33h445c1 -18 7 -104 11 -172l-34 -7c-10 40 -20 73 -35 100c-15 30 -32 38 -103 38h-130l158 -303l-213 -323h216c86 0 100 6 141 112z" />
    <glyph glyph-name="uni2219" unicode="&#x2219;" horiz-adv-x="198" 
d="M57 414c36 -29 50 -40 81 -40c16 0 24 2 49 8c-29 -93 -46 -113 -94 -113c-30 0 -51 7 -85 31c23 36 33 65 49 114z" />
    <glyph glyph-name="radical" unicode="&#x221a;" horiz-adv-x="612" 
d="M603 853l-172 -1022l-28 -11l-201 532l-84 -37l-14 40l182 78l133 -377h2l132 806z" />
    <glyph glyph-name="infinity" unicode="&#x221e;" horiz-adv-x="761" 
d="M717 281v-1c0 -107 -76 -169 -154 -169c-52 0 -104 20 -166 105c-48 -61 -97 -105 -172 -105c-79 0 -151 65 -151 164s69 166 159 166c69 0 119 -37 167 -101c36 41 82 102 168 101c82 0 149 -63 149 -160zM234 185h1c50 0 87 42 122 86c-37 53 -67 98 -125 98
c-52 0 -84 -39 -84 -95c0 -49 38 -89 86 -89zM561 369h-1c-55 0 -94 -56 -123 -91c54 -71 82 -93 128 -93c50 0 77 50 77 89c0 54 -31 95 -81 95z" />
    <glyph glyph-name="integral" unicode="&#x222b;" horiz-adv-x="464" 
d="M226 -13l-21 389c-19 367 95 440 176 440c32 0 74 -19 75 -58c0 -41 -32 -60 -61 -60c-39 0 -34 63 -55 63c-18 0 -30 -24 -24 -144l19 -355c18 -336 -75 -469 -182 -469c-40 0 -73 27 -74 60c-1 38 36 64 69 64c34 0 32 -70 53 -70c24 0 30 54 25 140z" />
    <glyph glyph-name="approxequal" unicode="&#x2248;" horiz-adv-x="531" 
d="M450 443l49 -44c-29 -58 -76 -102 -129 -102c-36 0 -62 11 -100 36c-26 19 -47 32 -76 32c-40 0 -61 -34 -83 -67l-50 44c27 56 80 100 139 100c44 0 72 -19 95 -33c33 -21 50 -34 75 -34c34 0 56 29 80 68zM450 262l49 -44c-29 -57 -75 -101 -129 -101
c-36 0 -63 12 -100 36c-27 18 -48 32 -76 32c-41 0 -62 -35 -83 -68l-50 44c27 56 80 100 139 100c45 0 72 -20 94 -33c28 -16 49 -34 75 -34c36 0 55 29 81 68z" />
    <glyph glyph-name="notequal" unicode="&#x2260;" horiz-adv-x="544" 
d="M417 495l-33 -79h117v-79h-146l-51 -123h197v-78h-226l-44 -104l-61 23l34 81h-118v78h147l51 123h-198v79h227l43 102z" />
    <glyph glyph-name="lessequal" unicode="&#x2264;" horiz-adv-x="558" 
d="M512 99l-408 211v85l408 210v-91l-333 -160v-2l333 -161v-92zM516 -15h-415v80h415v-80z" />
    <glyph glyph-name="greaterequal" unicode="&#x2265;" horiz-adv-x="558" 
d="M107 605l407 -211v-84l-408 -211v91l333 162v2l-332 160v91zM515 -15h-413v80h413v-80z" />
    <glyph glyph-name="lozenge" unicode="&#x25ca;" horiz-adv-x="614" 
d="M570 329l-179 -397h-97l-179 397l182 399h94zM483 329l-138 317h-3l-139 -317l139 -319h3z" />
    <glyph glyph-name="uni00A0" unicode="&#xa0;" horiz-adv-x="250" 
 />
    <glyph glyph-name="uni00AD" unicode="&#xad;" horiz-adv-x="327" 
d="M39 149l27 63c15 39 21 42 120 40c57 -1 74 -2 93 14c5 4 7 5 11 5c8 0 14 -3 11 -9l-23 -53c-23 -51 -28 -57 -70 -57c-17 0 -94 4 -108 4c-16 0 -25 -2 -39 -13c-6 -4 -8 -5 -12 -5c-11 0 -12 5 -10 11z" />
    <glyph glyph-name="uni02C9" unicode="&#x2c9;" horiz-adv-x="333" 
d="M-41 511l10 89h327l-10 -89h-327z" />
    <glyph glyph-name="uni2215" unicode="&#x2215;" horiz-adv-x="83" 
d="M-193 -116l434 811h49l-432 -811h-51z" />
    <glyph glyph-name="uni03A9" unicode="&#x3a9;" horiz-adv-x="682" 
d="M638 166l-52 -166h-237l-6 21c54 101 137 240 155 360c32 203 -19 271 -96 271c-79 0 -144 -58 -178 -274c-19 -118 12 -248 39 -357l-13 -21h-237l4 166l33 1c10 -58 23 -68 63 -68h87c-58 54 -143 136 -120 287c30 186 172 304 332 304c162 0 261 -113 232 -298
c-22 -139 -130 -223 -218 -293h98c37 0 52 9 80 68z" />
    </font>
</defs>
</svg>
